<svg width="45" height="61" viewBox="0 0 45 61" fill="none" xmlns="http://www.w3.org/2000/svg">
<path d="M17.8944 55.4596L15.2566 55.2318C15.0938 55.2156 14.9473 55.3457 14.931 55.5084L14.9147 55.6223C14.8984 55.785 15.0287 55.9314 15.1915 55.9477L17.8293 56.1755C17.9921 56.1917 18.1387 56.0616 18.1549 55.8989L18.1712 55.785C18.1875 55.606 18.0572 55.4759 17.8944 55.4596Z" fill="white"/>
<path d="M17.8944 57.3793L15.2566 57.1515C15.0938 57.1353 14.9473 57.2654 14.931 57.4281L14.9147 57.542C14.8984 57.7047 15.0287 57.8511 15.1915 57.8674L17.8293 58.0951C17.9921 58.1114 18.1387 57.9812 18.1549 57.8186L18.1712 57.7047C18.1875 57.542 18.0572 57.3956 17.8944 57.3793Z" fill="white"/>
<path d="M17.8945 59.299L15.273 59.0712C15.1102 59.0549 14.9636 59.1851 14.9473 59.3478L14.9311 59.4617C14.9148 59.6244 15.045 59.7708 15.2079 59.787L17.8456 60.0148C18.0085 60.0311 18.155 59.9009 18.1713 59.7382L18.1876 59.6244C18.1876 59.4617 18.0573 59.3152 17.8945 59.299Z" fill="white"/>
<path d="M24.0818 55.3457H22.307C21.8022 55.3457 21.7697 55.4108 21.5254 55.8338C21.2975 56.2568 20.9881 56.6309 20.6299 56.9401C20.5159 57.0377 20.4182 57.119 20.4182 57.2654C20.4345 57.4769 20.5973 57.6396 20.7927 57.6559C20.9881 57.6559 21.2649 57.3793 21.4929 57.1353L21.9162 56.5821C21.9651 56.5008 22.1604 56.1917 22.2093 56.1266C22.2581 56.0615 22.307 56.0453 22.4698 56.0453H23.6259C23.7073 56.0453 23.8375 56.0453 23.8375 56.1754C23.7724 56.5659 23.6259 56.9563 23.4305 57.298L22.1116 57.1841C21.9488 57.1678 21.8022 57.2817 21.7859 57.4444C21.7859 57.4444 21.7859 57.4444 21.7859 57.4607L21.7697 57.5746C21.7534 57.7372 21.8674 57.8837 22.0302 57.8999L22.942 57.9813L22.8769 58.0464C22.4373 58.5182 21.9162 58.9086 21.3138 59.1526C21.1672 59.2177 20.9881 59.2991 20.9881 59.4943C20.9718 59.6895 21.1346 59.8685 21.33 59.901C21.558 59.901 22.4698 59.5106 23.1862 58.811C23.9841 57.9975 24.4889 56.9401 24.6191 55.8175C24.668 55.3294 24.212 55.3294 24.0818 55.3457Z" fill="white"/>
<path d="M30.546 58.7946C30.1715 58.2903 29.7318 57.8185 29.2596 57.3955C29.4876 56.9074 29.6504 56.3706 29.6993 55.8337C29.6993 55.3293 29.2434 55.3293 29.1294 55.3293H26.7033C26.5405 55.3293 26.4102 55.4758 26.4102 55.6385V55.7361C26.4102 55.8988 26.5405 56.0289 26.7033 56.0452H28.6897C28.7712 56.0452 28.9014 56.0452 28.9014 56.1753C28.82 56.6309 28.6572 57.0864 28.3967 57.4769C28.2664 57.6884 28.1199 57.8836 27.957 58.0625C27.5174 58.5343 26.9964 58.9248 26.3939 59.1688C26.2474 59.2339 26.0683 59.3153 26.0683 59.5105C26.052 59.7057 26.2148 59.8847 26.4102 59.9172C26.6382 59.9172 27.55 59.5267 28.2664 58.8272C28.4944 58.5994 28.706 58.3391 28.8851 58.0788C29.2596 58.4367 29.6016 58.8435 29.9272 59.2664C30.1877 59.6406 30.2203 59.6732 30.3831 59.6732C30.6111 59.6569 30.7739 59.4779 30.7739 59.2502C30.7739 59.12 30.7251 59.0224 30.546 58.7946Z" fill="white"/>
<path d="M10.2906 19.2123H11.7235C11.87 19.2123 12.0003 19.2937 12.0491 19.4238L14.3287 25.0691C14.345 25.118 14.4101 25.1342 14.4589 25.1017C14.4752 25.0854 14.4915 25.0854 14.4915 25.0691L16.7873 19.4238C16.8362 19.2937 16.9665 19.2123 17.0967 19.2123H18.5459C18.7087 19.2123 18.8552 19.3262 18.8878 19.4889L20.5323 28.0301C20.5649 28.2091 20.4509 28.4043 20.2555 28.4368C20.2392 28.4368 20.2067 28.4368 20.1904 28.4368H18.9366C18.7738 28.4368 18.6273 28.3229 18.5947 28.1603L17.5852 23.3446C17.5689 23.2958 17.5201 23.2633 17.4712 23.2796C17.4386 23.2796 17.4224 23.3121 17.4061 23.3284L15.3708 28.2253C15.3219 28.3555 15.1917 28.4368 15.0451 28.4368H13.7425C13.596 28.4368 13.4657 28.3555 13.4169 28.2253L11.3978 23.3284C11.3815 23.2796 11.3327 23.2633 11.2838 23.2796C11.2513 23.2958 11.235 23.3121 11.235 23.3446L10.1929 28.1603C10.1604 28.3229 10.0138 28.4368 9.85098 28.4368H8.58095C8.38556 28.4368 8.23901 28.2741 8.23901 28.0952C8.23901 28.0789 8.23901 28.0464 8.23901 28.0301L9.9324 19.4889C9.99753 19.3262 10.1278 19.196 10.2906 19.2123Z" fill="white"/>
<path d="M23.4632 22.9053H24.603C24.8309 22.9053 25.01 23.0842 25.01 23.312V28.0463C25.01 28.274 24.8309 28.453 24.603 28.453H23.4632C23.2352 28.453 23.0561 28.274 23.0561 28.0463V23.312C23.0398 23.0842 23.2352 22.9053 23.4632 22.9053Z" fill="white"/>
<path d="M23.4632 19.2285H24.603C24.8309 19.2285 25.01 19.4075 25.01 19.6352V21.2133C25.01 21.4411 24.8309 21.6201 24.603 21.6201H23.4632C23.2352 21.6201 23.0561 21.4411 23.0561 21.2133V19.6352C23.0398 19.4075 23.2352 19.2285 23.4632 19.2285Z" fill="white"/>
<path d="M36.2774 22.9053H33.0372V19.6678C33.0372 19.4237 32.8418 19.2285 32.6139 19.2285H31.6043C31.3601 19.2285 31.1647 19.4237 31.1647 19.6678V22.9053H27.9245C27.6803 22.9053 27.4849 23.1005 27.4849 23.3446V24.3532C27.4849 24.5973 27.6803 24.7925 27.9245 24.7925H31.1647V28.03C31.1647 28.2741 31.3601 28.4693 31.6043 28.4693H32.6139C32.8581 28.4693 33.0535 28.2741 33.0535 28.03V24.7925H36.2937C36.538 24.7925 36.7333 24.5973 36.7333 24.3532V23.3446C36.7008 23.1005 36.5054 22.9053 36.2774 22.9053Z" fill="white"/>
<path d="M22.3885 0.211497C22.3396 0.211497 22.2908 0.211497 22.2257 0.211497C22.1605 0.211497 22.128 0.016269 22.0628 0.016269C21.9977 0.016269 21.9651 0.048807 21.9 0.048807C21.8349 0.048807 21.8023 0.195228 21.7535 0.195228C21.7046 0.195228 21.6558 0.0976139 21.5906 0.0976139C21.5255 0.0976139 21.4929 0.211497 21.4278 0.211497C21.3627 0.211497 21.3138 0 21.265 0C21.2161 0 21.1673 0.130152 21.1184 0.130152C21.0696 0.130152 21.0208 0.130152 20.9556 0.130152C20.8905 0.130152 20.8579 0.16269 20.7928 0.16269C20.7277 0.16269 20.6788 0.016269 20.63 0.016269C20.5811 0.016269 20.5323 0.260304 20.4834 0.260304C20.4346 0.260304 20.3695 0.113883 20.3206 0.113883C20.2718 0.113883 20.2229 0.244035 20.1741 0.244035C20.1252 0.244035 20.0601 0.048807 20.0112 0.048807C19.9624 0.048807 19.8973 0 19.8484 0C19.7996 0 19.7507 0.146421 19.7019 0.146421C19.653 0.146421 19.5879 0.0650759 19.539 0.0650759C19.4902 0.0650759 19.4251 0.32538 19.3762 0.341649C19.3274 0.357918 19.2622 0.260304 19.2134 0.260304C19.1645 0.260304 19.1157 0.341649 19.0668 0.341649C19.018 0.341649 18.9529 0.195228 18.904 0.195228C18.8552 0.195228 18.8063 0.374187 18.7575 0.374187C18.7086 0.374187 18.6598 0.406725 18.6109 0.406725C18.5621 0.406725 18.4807 0.227766 18.4318 0.244035C18.383 0.260304 18.3341 0.357918 18.2853 0.357918C18.2364 0.357918 18.1713 0.244035 18.1225 0.244035C18.0736 0.244035 18.041 0.439263 17.9922 0.455532C17.9434 0.471801 17.8619 0.292842 17.8131 0.292842C17.7642 0.292842 17.7154 0.439263 17.6665 0.439263C17.6177 0.439263 17.5689 0.536876 17.52 0.536876C17.4712 0.536876 17.3897 0.32538 17.3409 0.32538C17.2921 0.32538 17.2432 0.455532 17.1944 0.455532C17.1455 0.455532 17.0967 0.504338 17.0478 0.520607C16.999 0.536876 16.9501 0.553145 16.9013 0.553145C16.8524 0.553145 16.7873 0.471801 16.7384 0.48807C16.6896 0.504338 16.6408 0.520607 16.5919 0.520607C16.5431 0.520607 16.4942 0.585683 16.4454 0.601952C16.3965 0.618221 16.3477 0.667028 16.2988 0.667028C16.25 0.667028 16.1686 0.601952 16.1197 0.618221L15.9569 0.650759C15.908 0.667028 15.8755 0.813449 15.8266 0.829718C15.7778 0.845987 15.6964 0.732104 15.6475 0.732104C15.5987 0.732104 15.5498 0.764642 15.501 0.780911C15.4521 0.79718 15.4196 0.862256 15.3707 0.878525C15.3219 0.894794 15.2405 0.732104 15.1753 0.748373C15.1102 0.764642 15.1102 0.95987 15.0613 0.976139C15.0125 0.992408 14.9474 0.95987 14.8985 0.95987C14.8497 0.95987 14.752 0.79718 14.7031 0.813449C14.6543 0.829718 14.638 0.976139 14.5892 0.992408C14.5403 1.00868 14.4752 0.976139 14.4263 0.992408C14.3775 1.00868 14.3286 0.992408 14.2635 1.00868C14.1984 1.02495 14.1495 0.95987 14.1007 0.976139C14.0518 0.992408 14.0518 1.22017 14.003 1.23644C13.9541 1.25271 13.889 1.2039 13.8402 1.22017C13.7913 1.23644 13.7262 1.22017 13.6773 1.23644C13.6285 1.25271 13.5634 1.1551 13.4982 1.17137C13.4331 1.18764 13.4168 1.26898 13.368 1.26898C13.3191 1.26898 13.3191 1.44794 13.254 1.46421C13.1889 1.48048 13.0912 1.30152 13.0423 1.31779C12.9935 1.33406 12.9772 1.44794 12.9283 1.46421C12.8795 1.48048 12.8632 1.54555 12.8144 1.56182L12.6678 1.61063C12.619 1.6269 12.5538 1.61063 12.505 1.6269C12.4561 1.64317 12.3422 1.51302 12.3096 1.52928L12.1631 1.57809C12.1142 1.59436 12.0491 1.59436 12.0165 1.61063C11.9839 1.6269 11.9677 1.77332 11.9188 1.78959C11.87 1.80586 11.7886 1.75705 11.7397 1.77332C11.6909 1.78959 11.6909 1.95228 11.642 1.96855C11.5932 1.98482 11.5606 2.03362 11.5118 2.04989C11.4629 2.06616 11.3326 1.8872 11.2838 1.90347C11.2349 1.91974 11.2024 1.96855 11.1535 1.98482C11.1047 2.00109 11.0558 2.03362 11.0233 2.06616C10.9907 2.0987 10.9581 2.26139 10.9093 2.29393C10.8605 2.32646 10.8116 2.3102 10.7628 2.34273C10.7139 2.37527 10.6162 2.29393 10.5836 2.3102C10.5511 2.32646 10.5185 2.42408 10.4697 2.44035C10.4208 2.45662 10.4208 2.5705 10.372 2.58677C10.3231 2.60304 10.2254 2.50542 10.1766 2.53796C10.1277 2.5705 10.0463 2.52169 9.99748 2.53796C9.94863 2.55423 9.96491 2.71692 9.91606 2.73319C9.86722 2.74946 9.83465 2.81453 9.7858 2.8308C9.73696 2.84707 9.70439 2.89588 9.65554 2.92842C9.6067 2.96095 9.54157 2.92842 9.49272 2.96096C9.44387 2.99349 9.42759 3.05857 9.37874 3.09111C9.32989 3.12364 9.28104 3.13991 9.24848 3.15618C9.21591 3.17245 9.10194 3.12364 9.06937 3.15618C9.03681 3.18872 8.97168 3.20499 8.92283 3.22126C8.87398 3.23753 8.84142 3.28633 8.79257 3.31887C8.74372 3.35141 8.64603 3.27007 8.59718 3.3026C8.54833 3.33514 8.51577 3.36768 8.46692 3.40022C8.41807 3.43276 8.40179 3.49783 8.36922 3.53037C8.33666 3.56291 8.23896 3.53037 8.19011 3.56291C8.14127 3.59545 8.22268 3.79067 8.17383 3.82321C8.12499 3.85575 8.01101 3.7744 7.97844 3.80694C7.94588 3.83948 7.84818 3.80694 7.79933 3.83948C7.75049 3.87202 7.7342 3.92083 7.68536 3.95336C7.63651 3.9859 7.70164 4.14859 7.65279 4.18113C7.60394 4.21367 7.58766 4.27874 7.5551 4.31128C7.52253 4.34382 7.40855 4.29501 7.35971 4.31128C7.31086 4.32755 7.24573 4.34382 7.21316 4.37636C7.1806 4.40889 7.14803 4.4577 7.09918 4.49024C7.05034 4.52278 7.09919 4.6692 7.06662 4.70174C7.03406 4.73427 7.00149 4.78308 6.95264 4.81562C6.90379 4.84816 6.74097 4.73427 6.69212 4.76681C6.64327 4.79935 6.7084 4.94577 6.65956 4.97831L6.54558 5.07592C6.51301 5.10846 6.36647 5.02712 6.31762 5.05965C6.28506 5.09219 6.31762 5.22234 6.28506 5.25488C6.25249 5.28742 6.17108 5.28742 6.13852 5.31996C6.10595 5.3525 6.00826 5.33623 5.97569 5.36876C5.94313 5.4013 5.878 5.43384 5.84543 5.46638C5.81287 5.49892 5.91056 5.67788 5.87799 5.71041C5.84543 5.74295 5.69889 5.67788 5.66632 5.71041C5.63376 5.74295 5.56863 5.75922 5.53606 5.80803C5.5035 5.85683 5.47093 5.88937 5.43837 5.93818C5.4058 5.98699 5.37324 6.01952 5.34067 6.06833C5.30811 6.11714 5.34067 6.21475 5.30811 6.26356C5.27554 6.2961 5.21041 6.31237 5.17785 6.36117C5.14528 6.39371 5.09643 6.42625 5.06387 6.45879C5.0313 6.49132 5.06387 6.60521 5.0313 6.63774C4.99874 6.67028 4.94989 6.70282 4.91733 6.73536C4.88476 6.7679 4.81963 6.78417 4.78707 6.83297C4.7545 6.88178 4.77078 6.94686 4.73822 6.99566C4.70565 7.04447 4.57539 6.99566 4.54283 7.04447C4.51026 7.09328 4.54283 7.17462 4.51026 7.20716C4.4777 7.2397 4.54283 7.36985 4.52654 7.40239C4.51026 7.43493 4.29859 7.35358 4.26602 7.40239C4.23346 7.45119 4.29859 7.54881 4.26602 7.59761C4.23346 7.64642 4.26602 7.72777 4.24974 7.77657C4.23346 7.82538 4.18461 7.85792 4.15205 7.90673C4.11948 7.95553 4.07063 7.9718 4.03807 8.02061C4.0055 8.06942 3.87524 8.03688 3.84268 8.08568C3.81011 8.13449 3.92409 8.24837 3.89153 8.29718C3.85896 8.34599 3.66357 8.26464 3.63101 8.31345C3.59844 8.36226 3.64729 8.4436 3.61472 8.49241C3.58216 8.54122 3.50074 8.54122 3.46818 8.59002C3.43561 8.63883 3.56588 8.76898 3.54959 8.81779C3.53331 8.8666 3.43561 8.80152 3.41933 8.85033C3.40305 8.89913 3.28907 8.89913 3.25651 8.94794C3.22394 8.99675 3.25651 9.06182 3.22394 9.11063C3.19138 9.15944 3.22394 9.22451 3.19138 9.27332C3.15881 9.32213 3.17509 9.37093 3.14253 9.41974C3.10996 9.46855 2.9797 9.45228 2.96342 9.50109C2.94714 9.54989 2.93086 9.5987 2.91457 9.64751C2.89829 9.69631 2.9797 9.79393 2.94714 9.84274C2.91457 9.89154 2.91457 9.94035 2.88201 9.98916C2.84944 10.038 2.65405 10.0054 2.63777 10.038C2.62149 10.0705 2.76803 10.2169 2.75175 10.2657C2.73547 10.3145 2.60521 10.3145 2.57264 10.3633C2.54008 10.4121 2.50751 10.4447 2.49123 10.4935C2.47495 10.5423 2.58892 10.6562 2.57264 10.705C2.55636 10.7538 2.40982 10.7375 2.37725 10.7863C2.34469 10.8351 2.34469 10.8839 2.3284 10.9328C2.31212 10.9816 2.44238 11.0954 2.40982 11.1443C2.37725 11.1931 2.16558 11.1605 2.14929 11.2093C2.13301 11.2581 2.34469 11.4046 2.31212 11.4534C2.27955 11.5022 2.23071 11.5347 2.19814 11.5835C2.16558 11.6323 2.06788 11.6486 2.0516 11.6974C2.03532 11.7462 2.08416 11.8276 2.06788 11.8764C2.0516 11.9252 1.97019 11.9577 1.9539 12.0065C1.93762 12.0553 1.82364 12.0716 1.80736 12.1204C1.79108 12.1692 1.80736 12.1692 1.79108 12.218C1.7748 12.2668 1.82364 12.3319 1.80736 12.3807C1.79108 12.4295 1.74223 12.4783 1.72595 12.5271C1.70967 12.5759 1.75851 12.6573 1.74223 12.7061C1.72595 12.7549 1.54684 12.7549 1.53056 12.8037C1.51428 12.8525 1.59569 12.9338 1.57941 12.9826C1.56312 13.0315 1.48171 13.0477 1.46543 13.0965C1.44915 13.1453 1.62825 13.2592 1.61197 13.308C1.59569 13.3568 1.41658 13.3568 1.4003 13.4056C1.38402 13.4544 1.31889 13.487 1.3026 13.5358C1.28632 13.5846 1.51428 13.6985 1.49799 13.7473C1.48171 13.7961 1.41658 13.8449 1.4003 13.8937C1.38402 13.9425 1.43286 14.0076 1.41658 14.0564C1.4003 14.1052 1.3026 14.1215 1.28632 14.1866C1.27004 14.2516 1.10721 14.2516 1.09093 14.3004C1.07465 14.3492 1.27004 14.4469 1.25376 14.4957C1.23747 14.5445 1.23747 14.5933 1.22119 14.6421C1.20491 14.6909 1.17234 14.7397 1.17234 14.7885C1.17234 14.8373 0.944387 14.8373 0.928104 14.8861C0.911822 14.9349 1.07465 15.0325 1.05836 15.0813C1.04208 15.1302 1.05836 15.1952 1.05836 15.244C1.05836 15.2928 1.05836 15.3579 1.05836 15.4067C1.05836 15.4555 1.00952 15.5043 0.993235 15.5531C0.976952 15.602 0.928104 15.6508 0.911822 15.6996C0.895539 15.7484 0.895539 15.7972 0.895539 15.846C0.895539 15.8948 0.976952 15.9761 0.976952 16.0249C0.976952 16.0738 0.911822 16.1226 0.895539 16.1714L0.862974 16.3178C0.846692 16.3666 0.618736 16.3829 0.618736 16.4317C0.618736 16.4805 0.748997 16.5618 0.732714 16.6106C0.716432 16.6594 0.732714 16.7245 0.716432 16.7733C0.700149 16.8221 0.602454 16.8547 0.602454 16.9197C0.602454 16.9848 0.683866 17.0336 0.667584 17.0824C0.651301 17.1312 0.521041 17.1638 0.521041 17.2126C0.521041 17.2614 0.504759 17.3102 0.488476 17.359C0.472194 17.4078 0.602454 17.4892 0.586171 17.538C0.569889 17.5868 0.472194 17.6193 0.472194 17.6844C0.472194 17.7495 0.553606 17.7983 0.553606 17.8471C0.553606 17.8959 0.390781 17.9284 0.390781 17.9772C0.390781 18.026 0.602454 18.1074 0.602454 18.1562C0.602454 18.205 0.358216 18.2375 0.358216 18.2863C0.358216 18.3351 0.537324 18.4165 0.521041 18.4653C0.504759 18.5141 0.341933 18.5466 0.341933 18.5954C0.341933 18.6443 0.488476 18.7256 0.472194 18.7744C0.455911 18.8232 0.293086 18.8558 0.293086 18.9046C0.293086 18.9534 0.439628 19.0184 0.439628 19.0835C0.439628 19.1486 0.276803 19.1649 0.276803 19.2299C0.276803 19.295 0.423346 19.3438 0.423346 19.3926C0.423346 19.4414 0.211673 19.474 0.211673 19.5228C0.211673 19.5716 0.374498 19.6367 0.358216 19.7017C0.341933 19.7668 0.309368 19.7994 0.309368 19.8482C0.309368 19.897 0.244238 19.9458 0.244238 19.9946C0.244238 20.0434 0.390781 20.1085 0.390781 20.1573C0.390781 20.2061 0.19539 20.2549 0.19539 20.3037C0.19539 20.3525 0.358216 20.4176 0.358216 20.4664C0.358216 20.5152 0.227955 20.564 0.227955 20.6128C0.227955 20.6616 0.146543 20.7104 0.146543 20.7592C0.146543 20.808 0.211673 20.8731 0.211673 20.9219C0.211673 20.9707 0.358216 21.0358 0.341933 21.0846C0.325651 21.1334 0.260521 21.1822 0.260521 21.231C0.260521 21.2798 0.244238 21.3286 0.244238 21.3937C0.244238 21.4588 0.244238 21.4913 0.244238 21.5564C0.244238 21.6215 0.179108 21.654 0.179108 21.7028C0.179108 21.7516 0.0976952 21.8004 0.0976952 21.8492C0.0976952 21.8981 0.276803 21.9631 0.276803 22.0119C0.276803 22.0607 0.0651301 22.1096 0.0651301 22.1584C0.0651301 22.2072 0.293086 22.2722 0.293086 22.321C0.293086 22.3699 0.162825 22.4187 0.162825 22.4675C0.162825 22.5163 0 22.5976 0 22.6464C0 22.6952 0.179108 22.7603 0.179108 22.8091C0.179108 22.8579 0.227955 22.9067 0.227955 22.9718C0.227955 23.0369 0.0488476 23.0694 0.0488476 23.1182C0.0488476 23.167 0.113978 23.2158 0.113978 23.2809C0.113978 23.346 0.244238 23.3948 0.244238 23.4436C0.244238 23.4924 0.211673 23.5412 0.211673 23.6063C0.211673 23.6714 0.0325651 23.7039 0.0325651 23.769C0.0325651 23.8341 0.0488476 23.8666 0.0488476 23.9317C0.0488476 23.9968 0.0651301 24.0293 0.0651301 24.0944C0.0651301 24.1594 0.0162825 24.192 0.0162825 24.2571C0.0162825 24.3221 0.162825 24.3547 0.162825 24.4197C0.162825 24.4848 0.19539 24.5174 0.19539 24.5824C0.19539 24.6475 0 24.6963 0 24.7451C0 24.7939 0.113978 24.8427 0.113978 24.8915C0.113978 24.9404 0.0814127 24.9892 0.0814127 25.0542C0.0814127 25.1193 0.162825 25.1518 0.162825 25.2169C0.162825 25.282 0.276803 25.3145 0.276803 25.3633C0.276803 25.4122 0.19539 25.4772 0.19539 25.526C0.19539 25.5748 0.19539 25.6237 0.19539 25.6887C0.19539 25.7538 0.276803 25.7863 0.276803 25.8351C0.276803 25.884 0.179108 25.949 0.179108 25.9978C0.179108 26.0466 0.113978 26.1117 0.113978 26.1605C0.113978 26.2093 0.211673 26.2581 0.227955 26.3069C0.244238 26.3558 0.113978 26.4208 0.113978 26.4696C0.113978 26.5184 0.19539 26.5673 0.19539 26.6161C0.19539 26.6649 0.0814127 26.7299 0.0814127 26.7787C0.0814127 26.8276 0.244238 26.8764 0.244238 26.9252C0.244238 26.974 0.179108 27.0391 0.179108 27.0879C0.179108 27.1367 0.211673 27.1855 0.211673 27.2505C0.211673 27.3156 0.276803 27.3482 0.293086 27.397C0.309368 27.4458 0.179108 27.5109 0.19539 27.5597C0.211673 27.6085 0.358216 27.6573 0.358216 27.7061C0.358216 27.7549 0.374498 27.8037 0.390781 27.8525C0.407063 27.9013 0.309368 27.9664 0.309368 28.0152C0.309368 28.064 0.407063 28.1128 0.407063 28.1616C0.407063 28.2104 0.244238 28.2755 0.260521 28.3243C0.276803 28.3731 0.19539 28.4382 0.19539 28.487C0.19539 28.5358 0.227955 28.5846 0.244238 28.6497C0.260521 28.7148 0.244238 28.7473 0.244238 28.8124C0.244238 28.8774 0.341933 28.91 0.358216 28.9588C0.374498 29.0076 0.439628 29.0564 0.439628 29.1052C0.439628 29.154 0.407063 29.2191 0.407063 29.2679C0.407063 29.3167 0.553606 29.3492 0.569889 29.4143C0.586171 29.4794 0.472194 29.5282 0.488476 29.577C0.504759 29.6258 0.390781 29.6096 0.390781 29.6584C0.390781 29.7072 0.586171 29.7397 0.586171 29.7885C0.586171 29.8373 0.586171 29.8861 0.586171 29.9512C0.586171 30.0163 0.635019 30.0488 0.635019 30.0976C0.635019 30.1464 0.569889 30.2115 0.569889 30.2603C0.569889 30.3091 0.602454 30.3579 0.618736 30.4067C0.635019 30.4555 0.635019 30.5043 0.635019 30.5694C0.635019 30.6345 0.651301 30.667 0.667584 30.7158C0.683866 30.7646 0.635019 30.8297 0.651301 30.8785C0.667584 30.9273 0.765279 30.9599 0.781562 31.025C0.797844 31.09 0.667584 31.1551 0.683866 31.2039C0.700149 31.2527 0.618736 31.3178 0.635019 31.3666L0.667584 31.513C0.683866 31.5618 0.879257 31.5781 0.895539 31.6269C0.911822 31.6757 0.993235 31.7082 1.00952 31.7733C1.0258 31.8384 0.797844 31.9197 0.814127 31.9686C0.830409 32.0174 0.879257 32.0662 0.895539 32.115C0.911822 32.1638 0.911822 32.2126 0.911822 32.2777C0.911822 32.3427 0.879257 32.3915 0.895539 32.4404C0.911822 32.4892 0.895539 32.538 0.911822 32.603C0.928104 32.6681 1.13978 32.6681 1.15606 32.7169C1.17234 32.7657 1.13978 32.8308 1.15606 32.8796C1.17234 32.9284 1.12349 32.9935 1.12349 33.0423C1.12349 33.0911 1.0258 33.1725 1.04208 33.2213C1.05836 33.2701 1.20491 33.2863 1.22119 33.3351C1.23747 33.384 1.17234 33.449 1.18863 33.4978C1.20491 33.5466 1.23747 33.5954 1.23747 33.6443C1.23747 33.6931 1.31889 33.7256 1.33517 33.7744C1.35145 33.8232 1.25376 33.9046 1.27004 33.9534C1.28632 34.0022 1.27004 34.0673 1.28632 34.1161C1.3026 34.1649 1.54684 34.1486 1.56312 34.1974C1.57941 34.2462 1.56312 34.3113 1.56312 34.3601C1.56312 34.4089 1.59569 34.4577 1.61197 34.5065C1.62825 34.5553 1.44915 34.6692 1.46543 34.718C1.48171 34.7668 1.62825 34.7831 1.64454 34.8319C1.66082 34.8807 1.64454 34.9458 1.66082 34.9946C1.6771 35.0434 1.72595 35.0922 1.74223 35.141C1.75851 35.1898 1.64454 35.2874 1.66082 35.3362C1.6771 35.385 1.70967 35.4338 1.72595 35.4827C1.74223 35.5315 1.80736 35.564 1.83993 35.6128C1.87249 35.6616 2.00275 35.6616 2.01903 35.7104C2.03532 35.7592 2.03532 35.808 2.0516 35.8568C2.06788 35.9056 1.92134 36.0195 1.93762 36.0683C1.9539 36.1171 1.93762 36.1822 1.9539 36.231C1.97019 36.2798 2.11673 36.2798 2.13301 36.3286C2.14929 36.3774 2.01903 36.4751 2.0516 36.5239C2.08416 36.5727 2.19814 36.5889 2.21442 36.6215C2.23071 36.654 2.37725 36.6703 2.39353 36.7191C2.40982 36.7679 2.4261 36.8167 2.44238 36.8655C2.45866 36.9143 2.39353 36.9957 2.4261 37.0445C2.45866 37.0933 2.44238 37.1584 2.45866 37.2072C2.47495 37.256 2.49123 37.3048 2.52379 37.3536C2.55636 37.4024 2.60521 37.4349 2.63777 37.4837C2.67034 37.5325 2.55636 37.6302 2.58892 37.679C2.62149 37.7278 2.73547 37.7278 2.75175 37.7766C2.76803 37.8254 2.88201 37.8254 2.89829 37.8742C2.91457 37.923 2.96342 37.9555 2.9797 38.0043C2.99599 38.0532 2.88201 38.167 2.89829 38.2158C2.91457 38.2647 2.94714 38.3135 2.96342 38.3623C2.9797 38.4111 3.19138 38.3623 3.20766 38.4111C3.22394 38.4599 3.01227 38.6226 3.04483 38.6714C3.0774 38.7202 3.12625 38.7527 3.15881 38.7853C3.19138 38.8178 3.25651 38.8503 3.27279 38.8991C3.28907 38.9479 3.25651 39.0293 3.28907 39.0781C3.32164 39.1269 3.3542 39.1594 3.37048 39.2083C3.38677 39.2571 3.40305 39.3059 3.43561 39.3547C3.46818 39.4035 3.56588 39.3872 3.59844 39.436C3.63101 39.4848 3.71242 39.5011 3.7287 39.5336C3.74498 39.5662 3.74498 39.6475 3.77755 39.6963C3.81011 39.7451 3.77755 39.8265 3.81011 39.859C3.84268 39.8915 3.84268 39.9566 3.87524 40.0054C3.90781 40.0542 3.92409 40.103 3.95666 40.1519C3.98922 40.2007 4.16833 40.1356 4.20089 40.1844C4.23346 40.2332 4.28231 40.2657 4.29859 40.2983C4.31487 40.3308 4.20089 40.4935 4.23346 40.5423C4.26602 40.5911 4.38 40.5586 4.41257 40.6074C4.44513 40.6562 4.52654 40.6562 4.55911 40.6887C4.59167 40.7213 4.62424 40.7701 4.64052 40.8189C4.65681 40.8677 4.64052 40.949 4.67309 40.9816C4.70565 41.0141 4.72194 41.0792 4.7545 41.128C4.78707 41.1768 4.88476 41.1605 4.91733 41.1931C4.94989 41.2256 4.94989 41.307 4.98246 41.3395C5.01502 41.372 5.01502 41.4534 5.04759 41.4859C5.08015 41.5184 5.06387 41.6161 5.09643 41.6486C5.129 41.6811 5.24298 41.6649 5.27554 41.6974C5.30811 41.7299 5.38952 41.7299 5.42208 41.7788C5.45465 41.8276 5.5035 41.8438 5.53606 41.8764C5.56863 41.9089 5.45465 42.0879 5.48721 42.1204C5.51978 42.1529 5.60119 42.1692 5.63376 42.2017C5.66632 42.2343 5.82915 42.1692 5.86171 42.2017C5.89428 42.2343 5.81287 42.397 5.84543 42.4295C5.878 42.462 6.02454 42.397 6.0571 42.4295C6.08967 42.462 6.10595 42.5271 6.13852 42.5759C6.17108 42.6247 6.1548 42.7061 6.18736 42.7386C6.21993 42.7712 6.38275 42.6898 6.41532 42.7224C6.44788 42.7549 6.30134 42.9989 6.35019 43.0315C6.38275 43.064 6.4316 43.0965 6.48045 43.1291C6.51301 43.1616 6.54558 43.2104 6.57814 43.243C6.61071 43.2755 6.8061 43.1453 6.83866 43.1779C6.87123 43.2104 6.85495 43.3243 6.88751 43.3568C6.92008 43.3894 7.06662 43.308 7.09918 43.3406C7.13175 43.3731 7.05034 43.5683 7.0829 43.6009C7.11547 43.6334 7.31086 43.487 7.34342 43.5195C7.37599 43.5521 7.29458 43.7473 7.32714 43.7798C7.35971 43.8124 7.52253 43.6985 7.57138 43.7148C7.62023 43.731 7.50625 43.9751 7.53881 44.0076C7.57138 44.0401 7.65279 44.0239 7.70164 44.0564C7.75049 44.0889 7.86446 44.0076 7.89703 44.0401C7.92959 44.0727 8.01101 44.0401 8.05985 44.0727C8.1087 44.1052 8.02729 44.3004 8.07614 44.333C8.12498 44.3655 8.27153 44.2516 8.30409 44.2679C8.33666 44.2842 8.35294 44.3981 8.38551 44.4143C8.41807 44.4306 8.38551 44.5933 8.43435 44.6258C8.4832 44.6584 8.64603 44.4957 8.69487 44.5119C8.74372 44.5282 8.80885 44.5282 8.84142 44.5607C8.87398 44.5933 8.80885 44.821 8.84142 44.8373C8.87398 44.8536 9.00424 44.7722 9.05309 44.8048C9.10194 44.8373 9.05309 45.0163 9.10194 45.0326C9.15078 45.0488 9.2322 45.0325 9.26476 45.0651C9.29733 45.0976 9.34617 45.1464 9.39502 45.1627C9.44387 45.179 9.6067 45 9.65554 45.0326C9.70439 45.0651 9.68811 45.1952 9.73696 45.2115C9.7858 45.2278 9.86722 45.1952 9.91606 45.2115C9.96491 45.2278 9.93235 45.4067 9.98119 45.4393C10.03 45.4718 10.1603 45.3254 10.1929 45.3579C10.2254 45.3905 10.2254 45.5369 10.258 45.5532C10.2906 45.5694 10.4208 45.4555 10.4697 45.4718C10.5185 45.4881 10.486 45.667 10.5348 45.6833L10.6813 45.7484C10.7302 45.7647 10.8605 45.6182 10.9093 45.6345C10.9581 45.6508 10.9256 45.846 10.9744 45.8785C11.0233 45.9111 11.1373 45.7809 11.1698 45.7972C11.2024 45.8135 11.2675 45.8135 11.3164 45.8297C11.3652 45.846 11.3489 46.0087 11.3978 46.025C11.4466 46.0412 11.5118 46.025 11.5606 46.0412L11.7071 46.09C11.756 46.1063 11.8374 46.0412 11.8863 46.0575C11.9351 46.0738 11.9188 46.269 11.9677 46.2853C12.0165 46.3015 12.0816 46.269 12.1305 46.2853C12.1793 46.3015 12.2607 46.2527 12.3096 46.269C12.3584 46.2853 12.3747 46.3666 12.4399 46.3991C12.505 46.4317 12.5701 46.3666 12.6027 46.3829C12.6352 46.3991 12.6678 46.513 12.7167 46.5293C12.7655 46.5456 12.8144 46.5456 12.8632 46.5618C12.912 46.5781 12.9609 46.5781 13.0097 46.5944C13.0586 46.6106 13.0912 46.6757 13.14 46.692C13.1889 46.7083 13.2865 46.5781 13.3354 46.5944C13.3842 46.6106 13.4494 46.5944 13.4982 46.6106C13.5471 46.6269 13.5471 46.8384 13.5959 46.8547C13.6448 46.8709 13.7262 46.7733 13.775 46.7733C13.8239 46.7733 13.9053 46.6594 13.9704 46.6757C14.0355 46.692 14.0355 46.8547 14.0844 46.8547C14.1332 46.8547 14.2309 46.7245 14.2798 46.7408C14.3286 46.7571 14.3449 46.8872 14.41 46.8872L14.5566 46.9197C14.6054 46.936 14.6543 46.9848 14.7031 47.0011C14.752 47.0174 14.8334 46.936 14.8822 46.9523C14.9311 46.9686 14.9311 47.1638 14.9962 47.1801C15.0613 47.1963 15.159 46.9686 15.2079 46.9686C15.2567 46.9686 15.273 47.1638 15.3219 47.1638C15.3707 47.1638 15.4358 47.115 15.4847 47.1312C15.5335 47.1475 15.5987 47.0824 15.6475 47.0824C15.6964 47.0824 15.7452 47.0824 15.8103 47.0987C15.8755 47.115 15.8592 47.359 15.908 47.3753C15.9569 47.3916 16.0546 47.1475 16.1034 47.1475C16.1523 47.1475 16.1848 47.2614 16.2337 47.2777C16.2825 47.2939 16.3314 47.3265 16.3802 47.3427C16.4291 47.359 16.4779 47.3753 16.5268 47.3916C16.5756 47.4078 16.6245 47.4566 16.6733 47.4729C16.7222 47.4892 16.771 47.5054 16.8199 47.5217C16.8687 47.538 16.9664 47.2939 17.0152 47.3102C17.0641 47.3265 17.1129 47.4078 17.1618 47.4078C17.2106 47.4078 17.2432 47.5705 17.2921 47.5705C17.3409 47.5705 17.4223 47.4078 17.4712 47.4078C17.52 47.4078 17.5689 47.4892 17.6177 47.5054C17.6666 47.5217 17.7154 47.5868 17.7642 47.5868C17.8131 47.5868 17.8619 47.5868 17.9271 47.5868C17.9922 47.5868 18.0248 47.5868 18.0899 47.603C18.155 47.6193 18.2039 47.5705 18.2527 47.5868C18.3016 47.603 18.3667 47.5542 18.4155 47.5542C18.4644 47.5542 18.5132 47.6356 18.5621 47.6356C18.6109 47.6356 18.6598 47.782 18.7086 47.782C18.7575 47.782 18.8063 47.782 18.8715 47.782C18.9366 47.782 18.9854 47.7495 19.0343 47.7495C19.0831 47.7495 19.132 47.7169 19.1971 47.7169C19.2622 47.7169 19.2948 47.7983 19.3437 47.7983C19.3925 47.7983 19.4576 47.7007 19.5065 47.7007C19.5553 47.7007 19.6205 47.6193 19.6693 47.6193C19.7181 47.6193 19.767 47.7983 19.8158 47.7983C19.8647 47.7983 19.9135 47.8308 19.9624 47.8471C20.0112 47.8633 20.0764 47.6681 20.1252 47.6681C20.1741 47.6681 20.2229 47.8471 20.2718 47.8471C20.3206 47.8471 20.3857 47.7495 20.4346 47.7495C20.4834 47.7495 20.5323 47.8145 20.5811 47.8145C20.63 47.8145 20.6951 47.7495 20.7439 47.7495C20.7928 47.7495 20.8416 47.8633 20.8905 47.8633C20.9393 47.8633 21.0045 47.6844 21.0533 47.6844C21.1022 47.6844 21.151 47.7007 21.2161 47.7007C21.2813 47.7007 21.3138 47.8959 21.3627 47.9122C21.4115 47.9284 21.4767 47.7169 21.5255 47.7169C21.5744 47.7169 21.6232 47.8471 21.6883 47.8471C21.7535 47.8471 21.786 47.8959 21.8512 47.8959C21.9163 47.8959 21.9489 47.8471 22.014 47.8471C22.0791 47.8471 22.1117 47.9284 22.1768 47.9284C22.2419 47.9284 22.2908 47.7657 22.3396 47.7657C22.3885 47.7657 22.4373 47.7495 22.5025 47.7495C22.5676 47.7495 22.6002 47.9284 22.6653 47.9284C22.7304 47.9284 22.763 47.7007 22.8281 47.6844C22.8932 47.6681 22.9258 47.7332 22.9909 47.7332C23.0561 47.7332 23.1049 47.9122 23.1538 47.9122C23.2026 47.9122 23.2515 47.7332 23.3003 47.7332C23.3492 47.7332 23.398 47.7169 23.4631 47.7169C23.5283 47.7169 23.5771 47.8959 23.626 47.8959C23.6748 47.8959 23.7237 47.6519 23.7725 47.6519C23.8213 47.6519 23.8865 47.8633 23.9353 47.8633C23.9842 47.8633 24.033 47.8471 24.0982 47.8308C24.1633 47.8145 24.2121 47.8796 24.261 47.8796C24.3098 47.8796 24.3587 47.603 24.4075 47.603C24.4564 47.603 24.5215 47.7495 24.5703 47.7495C24.6192 47.7495 24.668 47.7169 24.7332 47.7169C24.7983 47.7169 24.8471 47.8471 24.896 47.8471C24.9448 47.8471 24.9937 47.6193 25.0425 47.6193C25.0914 47.6193 25.1565 47.7495 25.2054 47.7495C25.2542 47.7495 25.3193 47.8471 25.3682 47.8471C25.417 47.8471 25.4659 47.7007 25.5147 47.7007C25.5636 47.7007 25.6124 47.6356 25.6613 47.6356C25.7101 47.6356 25.7753 47.7169 25.8241 47.7169C25.8729 47.7169 25.9218 47.7169 25.9869 47.7169C26.0521 47.7169 26.0846 47.5705 26.1335 47.5705C26.1823 47.5705 26.2474 47.7007 26.2963 47.7007C26.3451 47.7007 26.394 47.6844 26.4428 47.6681C26.4917 47.6519 26.5568 47.7332 26.6057 47.7332C26.6545 47.7332 26.6871 47.5705 26.7522 47.5542C26.8173 47.538 26.8499 47.5217 26.8987 47.5217C26.9476 47.5217 27.029 47.6681 27.0779 47.6681C27.1267 47.6681 27.1756 47.6519 27.2244 47.6356C27.2732 47.6193 27.3221 47.5217 27.3709 47.5217L27.5175 47.5054C27.5663 47.5054 27.6152 47.4404 27.664 47.4241C27.7129 47.4078 27.778 47.4566 27.8269 47.4404C27.8757 47.4241 27.9245 47.3916 27.9734 47.3753C28.0222 47.359 28.0874 47.4241 28.1362 47.4241C28.1851 47.4241 28.2502 47.4566 28.299 47.4566C28.3479 47.4566 28.3967 47.4078 28.4456 47.3916C28.4944 47.3753 28.5596 47.4241 28.6084 47.4241C28.6573 47.4241 28.7061 47.3265 28.755 47.3102C28.8038 47.2939 28.8527 47.2939 28.9015 47.2777C28.9503 47.2614 28.9992 47.2289 29.048 47.2126C29.0969 47.1963 29.1457 47.1475 29.1946 47.1475C29.2434 47.1475 29.2923 47.115 29.3411 47.0987C29.39 47.0824 29.4551 47.115 29.504 47.115C29.5528 47.115 29.6505 47.2777 29.6993 47.2777C29.7482 47.2777 29.7482 47.0011 29.797 46.9848C29.8459 46.9686 29.9436 47.1312 29.9924 47.115C30.0413 47.0987 30.0738 46.9848 30.1227 46.9848C30.1715 46.9848 30.2692 47.1475 30.3181 47.1312L30.4646 47.0987C30.5135 47.0824 30.546 47.0011 30.5949 47.0011C30.6437 47.0011 30.66 46.8384 30.7089 46.8384C30.7577 46.8384 30.8066 46.7733 30.8554 46.7733C30.9043 46.7733 30.9694 46.7896 31.0182 46.7733C31.0671 46.7571 31.1159 46.7245 31.1648 46.7083C31.2136 46.692 31.2462 46.6432 31.3113 46.6269C31.3764 46.6106 31.4579 46.7571 31.5067 46.7408L31.6532 46.692C31.7021 46.6757 31.7347 46.5781 31.7835 46.5618C31.8324 46.5456 31.93 46.692 31.9789 46.6757C32.0277 46.6594 32.0603 46.5781 32.1092 46.5618C32.158 46.5456 32.1417 46.3341 32.1906 46.3178C32.2394 46.3015 32.2883 46.3178 32.3534 46.3015C32.4185 46.2853 32.5162 46.4317 32.5651 46.4154C32.6139 46.3991 32.6139 46.2365 32.6628 46.2202C32.7116 46.2039 32.7605 46.1714 32.8093 46.1551C32.8582 46.1388 32.9233 46.1388 32.9721 46.1226L33.1187 46.0575C33.1675 46.0412 33.2327 46.0738 33.2815 46.0575C33.3303 46.0412 33.3466 45.9436 33.3955 45.9273C33.4443 45.9111 33.5257 45.9436 33.5746 45.9273C33.6234 45.9111 33.7211 46.0087 33.77 45.9924C33.8188 45.9762 33.8514 45.9273 33.9002 45.9111C33.9491 45.8948 33.9817 45.846 34.0305 45.8297C34.0793 45.8135 34.1445 45.8297 34.1933 45.8135C34.2422 45.7972 34.2422 45.667 34.291 45.6508C34.3399 45.6345 34.3724 45.5857 34.4213 45.5694C34.4701 45.5532 34.519 45.5206 34.5515 45.4881C34.5841 45.4555 34.6329 45.4067 34.6818 45.3905C34.7306 45.3742 34.8446 45.4718 34.8772 45.4393C34.9098 45.4067 34.8935 45.244 34.9423 45.2278C34.9912 45.2115 35.0726 45.2603 35.1214 45.2278C35.1703 45.1952 35.268 45.2766 35.3168 45.244C35.3657 45.2115 35.3982 45.179 35.4471 45.1627C35.4959 45.1464 35.4308 44.9187 35.4634 44.8861C35.4959 44.8536 35.6099 44.9349 35.6588 44.9187C35.7076 44.9024 35.8053 44.9675 35.8541 44.9349C35.903 44.9024 35.9518 44.8861 35.9844 44.8536C36.017 44.8211 36.0658 44.7722 36.0984 44.756C36.1309 44.7397 36.0984 44.577 36.1472 44.5445C36.1961 44.5119 36.2124 44.4469 36.2449 44.4143C36.2775 44.3818 36.4729 44.577 36.5217 44.5445C36.5706 44.5119 36.4892 44.3004 36.538 44.2842C36.5869 44.2679 36.652 44.2842 36.7008 44.2516C36.7497 44.2191 36.7822 44.1866 36.8311 44.1703C36.8799 44.154 36.8474 44.0076 36.8962 43.9751C36.9451 43.9425 37.1079 44.1052 37.1567 44.0727C37.2056 44.0401 37.2219 43.9913 37.2707 43.9588C37.3196 43.9263 37.2707 43.7961 37.3196 43.7636C37.3684 43.731 37.4173 43.731 37.4661 43.6822C37.515 43.6334 37.515 43.5846 37.5638 43.5521C37.6127 43.5195 37.7592 43.6334 37.808 43.6009C37.8569 43.5683 37.8895 43.5358 37.9383 43.5033C37.9872 43.4707 37.9383 43.3406 37.9872 43.308C38.036 43.2755 38.1174 43.308 38.1663 43.2755C38.2151 43.243 38.2477 43.2104 38.2802 43.1779C38.3128 43.1453 38.2151 42.9338 38.2477 42.9013C38.2802 42.8688 38.4593 42.9827 38.4919 42.9338C38.5245 42.885 38.5245 42.8037 38.557 42.7712C38.5896 42.7386 38.6873 42.7549 38.7199 42.7224C38.7524 42.6898 38.7687 42.6247 38.8013 42.5922C38.8338 42.5597 38.9478 42.5922 38.9804 42.5597C39.013 42.5271 39.0292 42.462 39.0618 42.4295C39.0944 42.397 38.9804 42.2017 39.013 42.1529C39.0455 42.1041 39.0944 42.0879 39.1432 42.0553C39.1921 42.0228 39.3712 42.1204 39.4037 42.0879C39.4363 42.0553 39.3386 41.8926 39.3712 41.8438C39.4037 41.795 39.4526 41.7787 39.5014 41.7462C39.5503 41.7137 39.648 41.7299 39.6805 41.6974C39.7131 41.6649 39.6643 41.551 39.6968 41.5184C39.7294 41.4859 39.8108 41.4696 39.8434 41.4371C39.8759 41.4046 39.8596 41.307 39.8922 41.2744C39.9248 41.2419 40.1202 41.3232 40.1527 41.2744C40.1853 41.2256 40.2341 41.2093 40.2667 41.1605C40.2993 41.1117 40.3318 41.0792 40.3481 41.0304C40.3644 40.9816 40.3644 40.9165 40.397 40.8677C40.4295 40.8189 40.3644 40.705 40.397 40.6725C40.4295 40.6399 40.4133 40.5586 40.4458 40.5098C40.4784 40.461 40.6575 40.5423 40.6901 40.4935C40.7226 40.4447 40.7226 40.3959 40.7552 40.3471C40.7877 40.2983 40.8529 40.282 40.8854 40.2495C40.918 40.2169 40.8203 40.0868 40.8529 40.038C40.8854 39.9892 41.0645 40.0542 41.0971 40.0054C41.1297 39.9566 40.9506 39.7777 40.9669 39.7451C40.9831 39.7126 41.146 39.7289 41.1785 39.6963C41.2111 39.6638 41.0971 39.5174 41.1134 39.4686C41.1297 39.4197 41.2925 39.4523 41.3088 39.4035C41.3251 39.3547 41.4716 39.3872 41.5042 39.3384C41.5367 39.2896 41.4553 39.192 41.4879 39.1432C41.5205 39.0944 41.4553 39.013 41.4879 38.9642C41.5205 38.9154 41.6182 38.9154 41.6507 38.8829C41.6833 38.8503 41.6182 38.7527 41.6507 38.7039C41.6833 38.6551 41.8298 38.6876 41.8624 38.6388C41.895 38.59 41.9438 38.5738 41.9764 38.525C42.0089 38.4761 41.8135 38.3135 41.8298 38.2809C41.8461 38.2484 41.9275 38.2158 41.9601 38.167C41.9927 38.1182 42.1229 38.1345 42.1392 38.0857C42.1555 38.0369 42.0904 37.9393 42.1066 37.8905C42.1229 37.8417 42.1066 37.7766 42.1229 37.7278C42.1392 37.679 42.302 37.6952 42.3346 37.6627C42.3672 37.6302 42.4323 37.5976 42.4486 37.5488C42.4649 37.5 42.3834 37.4024 42.3997 37.3536C42.416 37.3048 42.5625 37.3048 42.5788 37.256C42.5951 37.2072 42.4974 37.1096 42.53 37.0607C42.5625 37.0119 42.5625 36.9631 42.5951 36.9143C42.6277 36.8655 42.6765 36.833 42.7091 36.7842C42.7417 36.7354 42.6765 36.654 42.6928 36.6052C42.7091 36.5564 42.7742 36.5239 42.7905 36.4751C42.8068 36.4263 42.7905 36.3612 42.8068 36.3124C42.8231 36.2636 42.8719 36.231 42.8882 36.1822C42.9045 36.1334 42.9045 36.0846 42.9208 36.0358C42.937 35.987 42.8556 35.9056 42.8882 35.8568C42.9208 35.808 43.051 35.808 43.0836 35.7592C43.1162 35.7104 43.0347 35.6291 43.051 35.5803C43.0673 35.5315 43.2627 35.5477 43.279 35.4989C43.2953 35.4501 43.279 35.385 43.2953 35.3362C43.3115 35.2874 43.3767 35.2549 43.3767 35.2061C43.3767 35.1573 43.2953 35.0759 43.3115 35.0271C43.3278 34.9783 43.3604 34.9295 43.3767 34.8807C43.393 34.8319 43.4418 34.7994 43.4581 34.7343C43.4744 34.6692 43.4744 34.6367 43.4907 34.5879C43.5069 34.5391 43.4255 34.4577 43.4418 34.4089C43.4581 34.3601 43.4744 34.3113 43.4907 34.2625C43.5069 34.2137 43.4255 34.1323 43.4255 34.0835C43.4255 34.0347 43.7023 34.051 43.7186 34.0022C43.7349 33.9534 43.6046 33.8558 43.6209 33.8069C43.6372 33.7581 43.5395 33.6768 43.5558 33.628C43.5721 33.5792 43.686 33.5466 43.686 33.4978C43.686 33.449 43.7675 33.4165 43.7837 33.3677C43.8 33.3189 43.8 33.2701 43.8163 33.2213C43.8326 33.1725 43.8814 33.1237 43.8977 33.0748C43.914 33.026 43.8814 32.961 43.8977 32.9122C43.914 32.8633 43.8 32.782 43.8163 32.7332C43.8326 32.6844 43.9303 32.6518 43.9303 32.603C43.9303 32.5542 43.8814 32.4892 43.8977 32.4404C43.914 32.3915 43.9303 32.3427 43.9466 32.2939C43.9628 32.2451 44.0768 32.2126 44.0931 32.1638C44.1094 32.115 44.142 32.0662 44.1582 32.0174C44.1745 31.9686 44.028 31.8872 44.028 31.8384C44.028 31.7896 44.0443 31.7408 44.0443 31.692C44.0443 31.6432 44.028 31.5944 44.0443 31.5293C44.0605 31.4642 44.2885 31.4642 44.2885 31.4154C44.2885 31.3666 44.1582 31.2853 44.1582 31.2364C44.1582 31.1876 44.3536 31.1714 44.3536 31.1063C44.3536 31.0412 44.1908 30.9761 44.1908 30.9273C44.1908 30.8785 44.2071 30.8297 44.2071 30.7809C44.2071 30.7321 44.2396 30.6833 44.2396 30.6345C44.2396 30.5857 44.2885 30.5369 44.3048 30.4881C44.3211 30.4393 44.2234 30.3742 44.2234 30.3254C44.2234 30.2766 44.3536 30.244 44.3536 30.1952C44.3536 30.1464 44.2722 30.0814 44.2885 30.0325C44.3048 29.9837 44.4839 29.9512 44.4839 29.9024C44.4839 29.8536 44.5327 29.8048 44.549 29.756C44.5653 29.7072 44.3211 29.6258 44.3211 29.577C44.3211 29.5282 44.4025 29.4794 44.4025 29.4306C44.4025 29.3818 44.435 29.333 44.4513 29.2842C44.4676 29.2354 44.5165 29.1866 44.5327 29.1378C44.549 29.0889 44.4025 29.0239 44.4188 28.9588C44.435 28.8937 44.6467 28.8774 44.6467 28.8286C44.6467 28.7798 44.4676 28.6985 44.4839 28.6497C44.5002 28.6009 44.5327 28.5521 44.549 28.5033C44.5653 28.4545 44.5327 28.4056 44.5327 28.3406C44.5327 28.2755 44.5979 28.243 44.5979 28.1941C44.5979 28.1453 44.5002 28.0803 44.5002 28.0315C44.5002 27.9827 44.549 27.9338 44.549 27.885C44.549 27.8362 44.5327 27.7874 44.5327 27.7223C44.5327 27.6573 44.6467 27.6247 44.6467 27.5759C44.6467 27.5271 44.6793 27.4783 44.6956 27.4132C44.7118 27.3482 44.6467 27.2994 44.6467 27.2505C44.6467 27.2017 44.7281 27.1529 44.7281 27.1041C44.7281 27.0553 44.7607 27.0065 44.7607 26.9414C44.7607 26.8764 44.6141 26.8276 44.6304 26.7787C44.6467 26.7299 44.6304 26.6811 44.6304 26.6161C44.6304 26.551 44.5979 26.5184 44.5979 26.4534C44.5979 26.3883 44.6956 26.3558 44.6956 26.3069C44.6956 26.2581 44.6304 26.1931 44.6304 26.1443C44.6304 26.0955 44.8095 26.0466 44.8095 25.9978C44.8095 25.949 44.8584 25.9002 44.8584 25.8351C44.8584 25.7701 44.6141 25.7213 44.6141 25.6725C44.6141 25.6236 44.6141 25.5748 44.6141 25.5098C44.6141 25.4447 44.8258 25.4122 44.8258 25.3633C44.8258 25.3145 44.7607 25.2495 44.7607 25.2007C44.7607 25.1518 44.8095 25.103 44.8095 25.0542C44.8095 25.0054 44.8421 24.9566 44.8421 24.8915C44.8421 24.8265 44.8421 24.7939 44.8421 24.7289C44.8421 24.6638 44.6793 24.615 44.6793 24.5662C44.6793 24.5174 44.8584 24.4686 44.8584 24.4035C44.8584 24.3384 44.777 24.3059 44.777 24.2408C44.777 24.1757 44.6793 24.1432 44.6793 24.0781C44.6793 24.013 44.7118 23.9805 44.7118 23.9154C44.7118 23.8503 44.7444 23.8178 44.7444 23.7527C44.7444 23.6876 44.6141 23.6551 44.6141 23.59C44.6141 23.525 44.6793 23.4924 44.6793 23.4273C44.6793 23.3623 44.663 23.3297 44.663 23.2646C44.663 23.1996 44.8584 23.1508 44.8584 23.102C44.8584 23.0532 44.6141 23.0043 44.6141 22.9555C44.6141 22.9067 44.8258 22.8417 44.8258 22.7928C44.8258 22.744 44.5816 22.6952 44.5816 22.6464C44.5816 22.5976 44.777 22.5325 44.777 22.4837C44.777 22.4349 44.8421 22.3861 44.8421 22.321C44.8421 22.256 44.5979 22.2234 44.5979 22.1746C44.5979 22.1258 44.777 22.0607 44.777 22.0119C44.777 21.9631 44.7281 21.9143 44.7281 21.8655C44.7281 21.8167 44.6467 21.7679 44.6467 21.7028C44.6467 21.6377 44.777 21.5889 44.777 21.5401C44.777 21.4913 44.777 21.4425 44.777 21.3774C44.777 21.3124 44.663 21.2798 44.663 21.231C44.663 21.1822 44.5653 21.1334 44.5653 21.0846C44.5653 21.0358 44.6467 20.9707 44.6467 20.9219C44.6467 20.8731 44.549 20.8243 44.549 20.7755C44.549 20.7267 44.6467 20.6616 44.6467 20.6128C44.6467 20.564 44.6304 20.5152 44.6141 20.4501C44.5979 20.385 44.7118 20.3362 44.7118 20.2874C44.7118 20.2386 44.4839 20.2061 44.4676 20.141C44.4513 20.0759 44.5979 20.0271 44.5979 19.9783C44.5979 19.9295 44.6956 19.8644 44.6956 19.8156C44.6956 19.7668 44.5816 19.718 44.5816 19.6692C44.5816 19.6204 44.6793 19.5553 44.6793 19.5065C44.6793 19.4577 44.6141 19.4089 44.6141 19.3601C44.6141 19.3113 44.5164 19.2625 44.5002 19.2137C44.4839 19.1649 44.435 19.1161 44.4188 19.0672C44.4025 19.0184 44.5979 18.9371 44.5816 18.8883C44.5653 18.8395 44.4025 18.8069 44.4025 18.7419C44.4025 18.6768 44.3373 18.6443 44.3373 18.5954C44.3373 18.5466 44.4839 18.4653 44.4676 18.4165C44.4513 18.3677 44.3048 18.3351 44.3048 18.2863C44.3048 18.2375 44.5002 18.1562 44.5002 18.1074C44.5002 18.0586 44.3048 18.026 44.3048 17.9772C44.3048 17.9284 44.4025 17.8633 44.3862 17.8145C44.3699 17.7657 44.4676 17.7007 44.4676 17.6518C44.4676 17.603 44.2396 17.5868 44.2234 17.5217C44.2071 17.4566 44.3373 17.3915 44.3373 17.3427C44.3373 17.2939 44.1908 17.2614 44.1908 17.2126C44.1908 17.1638 44.1908 17.115 44.1745 17.0499C44.1582 16.9848 44.142 16.9523 44.142 16.9035C44.142 16.8547 44.1745 16.7896 44.1582 16.7408C44.142 16.692 44.0931 16.6432 44.0931 16.5944C44.0931 16.5456 44.2234 16.4642 44.2071 16.4154C44.1908 16.3666 44.0931 16.3341 44.0931 16.2853C44.0931 16.2364 43.9954 16.2039 43.9954 16.1388C43.9954 16.0738 44.1257 16.0087 44.1094 15.9599C44.0931 15.9111 43.9954 15.8785 43.9791 15.8297C43.9628 15.7809 44.028 15.7158 44.0117 15.667C43.9954 15.6182 44.0605 15.5531 44.0605 15.5043C44.0605 15.4555 43.8977 15.4393 43.8977 15.3742C43.8977 15.3091 43.8489 15.2766 43.8326 15.2278C43.8163 15.179 43.9954 15.0813 43.9791 15.0325C43.9628 14.9837 43.8977 14.9349 43.8977 14.8861C43.8977 14.8373 43.914 14.7722 43.8977 14.7234C43.8814 14.6746 43.7349 14.6584 43.7186 14.6095C43.7023 14.5607 43.6046 14.5282 43.5883 14.4794C43.5721 14.4306 43.8163 14.3167 43.8 14.2679C43.7837 14.2191 43.5232 14.2354 43.5069 14.1866C43.4907 14.1377 43.5558 14.0727 43.5395 14.0239C43.5232 13.9751 43.6698 13.8774 43.6535 13.8286C43.6372 13.7798 43.5883 13.731 43.5721 13.6985C43.5558 13.6659 43.6046 13.5846 43.5883 13.5358C43.5721 13.487 43.3767 13.487 43.3604 13.4382C43.3441 13.3894 43.4418 13.308 43.4255 13.2592C43.4092 13.2104 43.3278 13.1779 43.3115 13.1291C43.2953 13.0803 43.3115 13.0152 43.2953 12.9664C43.279 12.9176 43.4092 12.82 43.393 12.7712C43.3767 12.7223 43.2464 12.7061 43.2301 12.6573C43.2138 12.6085 43.0836 12.5922 43.0673 12.5434C43.051 12.4946 43.0999 12.4132 43.0836 12.3807C43.0673 12.3482 42.9533 12.3156 42.937 12.2668C42.9208 12.218 43.1162 12.0879 43.0999 12.039C43.0836 11.9902 43.0836 11.9414 43.0673 11.8926C43.051 11.8438 42.9533 11.8275 42.937 11.7625C42.9208 11.6974 42.937 11.6486 42.9208 11.5998C42.9045 11.551 42.8556 11.5022 42.8393 11.4696C42.8231 11.4371 42.7417 11.4046 42.7091 11.3558C42.6765 11.3069 42.5463 11.3069 42.53 11.2581C42.5137 11.2093 42.6928 11.0792 42.6765 11.0304C42.6602 10.9816 42.4974 10.9978 42.4648 10.949C42.4323 10.9002 42.3672 10.884 42.3509 10.8351C42.3346 10.7863 42.3997 10.705 42.3834 10.6562C42.3672 10.6074 42.2532 10.6074 42.2206 10.5586C42.188 10.5098 42.3997 10.3633 42.3834 10.3145C42.3672 10.2657 42.2043 10.282 42.188 10.2332C42.1718 10.1844 42.1066 10.1518 42.0904 10.103C42.0741 10.0542 42.0089 10.0217 41.9927 9.98916C41.9764 9.95662 41.9927 9.87527 41.9601 9.82647C41.9275 9.77766 41.8787 9.74512 41.8624 9.69631C41.8461 9.64751 41.8787 9.56616 41.8624 9.51735C41.8461 9.46855 41.9601 9.35466 41.9438 9.30586C41.9275 9.25705 41.7647 9.27332 41.7484 9.24078C41.7321 9.20824 41.6344 9.17571 41.6182 9.14317C41.6019 9.11063 41.7321 8.96421 41.6996 8.9154C41.667 8.8666 41.667 8.81779 41.6344 8.76898C41.6019 8.72017 41.553 8.70391 41.5205 8.6551C41.4879 8.60629 41.3414 8.63883 41.3251 8.59002C41.3088 8.54122 41.2925 8.47614 41.2762 8.4436C41.2599 8.41106 41.2599 8.32972 41.2437 8.28091C41.2274 8.23211 41.0808 8.26464 41.0483 8.21584C41.0157 8.16703 40.9831 8.13449 40.9669 8.08568C40.9506 8.03688 41.0483 7.90673 41.0157 7.85792C40.9831 7.80911 40.8203 7.85792 40.7878 7.82538C40.7552 7.79284 40.7063 7.7603 40.6901 7.7115C40.6738 7.66269 40.6738 7.59762 40.6412 7.56508C40.6086 7.53254 40.5598 7.5 40.5272 7.45119C40.4947 7.40239 40.5761 7.2885 40.5435 7.2397C40.5109 7.19089 40.4458 7.19089 40.4132 7.14208C40.3807 7.09328 40.4132 7.01193 40.3807 6.97939C40.3481 6.94686 40.2504 6.94686 40.2179 6.89805C40.1853 6.84924 40.2341 6.75163 40.2016 6.70282C40.169 6.65401 40.0876 6.65401 40.055 6.62148C40.0225 6.58894 39.9736 6.54013 39.9411 6.50759C39.9085 6.47506 39.9085 6.39371 39.8759 6.36117C39.8434 6.32863 39.7782 6.31237 39.7294 6.27983C39.6805 6.24729 39.5503 6.2961 39.5177 6.26356C39.4851 6.23102 39.4689 6.18221 39.4363 6.13341C39.4037 6.0846 39.4037 6.01952 39.3712 5.98699C39.3386 5.95445 39.3549 5.8731 39.306 5.8243C39.2572 5.77549 39.306 5.69414 39.2735 5.64534C39.2409 5.59653 39.1432 5.62907 39.1106 5.58026C39.0781 5.53145 39.0618 5.48265 39.0292 5.45011C38.9967 5.41757 38.9478 5.38503 38.9153 5.3525C38.8827 5.31996 38.899 5.20607 38.8664 5.17354C38.8338 5.141 38.671 5.22234 38.6385 5.18981C38.6059 5.15727 38.6222 5.05965 38.5733 5.02712C38.5245 4.99458 38.4431 5.01085 38.4105 4.97831C38.3779 4.94577 38.4431 4.78308 38.3942 4.75054C38.3454 4.71801 38.1988 4.81562 38.1663 4.78308C38.1337 4.75054 38.0523 4.76681 38.0034 4.73427C37.9546 4.70174 38.036 4.53905 38.0034 4.49024C37.9709 4.44143 37.9057 4.44143 37.8732 4.40889C37.8406 4.37636 37.7103 4.44143 37.6778 4.40889C37.6452 4.37636 37.6127 4.32755 37.5638 4.29501C37.515 4.26247 37.4824 4.2462 37.4335 4.21367C37.3847 4.18113 37.3359 4.16486 37.3033 4.13232C37.2707 4.09978 37.2056 4.08351 37.173 4.05098C37.1405 4.01844 37.1079 3.95336 37.0753 3.92083C37.0428 3.88829 37.0916 3.70933 37.0591 3.67679C37.0265 3.64425 36.9939 3.59545 36.9451 3.56291C36.8962 3.53037 36.766 3.64425 36.7171 3.61171C36.6683 3.57918 36.7334 3.40022 36.6846 3.36768C36.6357 3.33514 36.5054 3.44902 36.4566 3.43276C36.4077 3.41649 36.3915 3.33514 36.3589 3.3026C36.3263 3.27007 36.2612 3.27007 36.2124 3.2538C36.1635 3.23753 36.1798 3.12364 36.1309 3.09111C36.0821 3.05857 35.9681 3.17245 35.9193 3.13991C35.8704 3.10738 35.8216 3.10738 35.7727 3.09111C35.7239 3.07484 35.8053 2.8308 35.7564 2.79827C35.7076 2.76573 35.6262 2.8308 35.5773 2.79827C35.5285 2.76573 35.4796 2.76573 35.4308 2.73319C35.3819 2.70065 35.3982 2.58677 35.3494 2.55423C35.3005 2.52169 35.154 2.71692 35.1051 2.68438C35.0563 2.65184 35.0889 2.48915 35.04 2.47289C34.9912 2.45662 34.8609 2.60304 34.8121 2.5705C34.7632 2.53796 34.7469 2.45662 34.6981 2.44035C34.6492 2.42408 34.633 2.34273 34.5841 2.3102C34.5353 2.27766 34.4376 2.359 34.3887 2.34273C34.3399 2.32646 34.3236 2.22885 34.2747 2.21258C34.2259 2.19631 34.177 2.18004 34.1282 2.16377C34.0793 2.14751 34.0142 2.18004 33.9654 2.16377C33.9165 2.14751 33.9328 1.96855 33.884 1.95228C33.8351 1.93601 33.7537 2.00109 33.7048 1.98482C33.656 1.96855 33.5909 2.00109 33.542 1.98482L33.3303 2.06616C33.2815 2.04989 33.2652 1.96855 33.2164 1.95228C33.1675 1.93601 33.1675 1.80586 33.1187 1.78959C33.0698 1.77332 32.9884 1.8384 32.9396 1.82213C32.8907 1.80586 32.8907 1.65944 32.8419 1.64317C32.793 1.6269 32.6953 1.72451 32.6465 1.70824C32.5976 1.69197 32.5814 1.57809 32.5325 1.56182C32.4837 1.54555 32.386 1.67571 32.3371 1.64317C32.2883 1.61063 32.2394 1.6269 32.1906 1.61063C32.1417 1.59436 32.1743 1.35033 32.1254 1.33406C32.0766 1.31779 31.9789 1.46421 31.9301 1.44794C31.8812 1.43167 31.7998 1.49675 31.7509 1.48048C31.7021 1.46421 31.6695 1.38286 31.6207 1.36659C31.5718 1.35033 31.5556 1.23644 31.5067 1.22017C31.4579 1.2039 31.4253 1.12256 31.3764 1.10629C31.3276 1.09002 31.2462 1.1551 31.1973 1.13883C31.1485 1.12256 31.0671 1.18764 31.0182 1.17137C30.9694 1.1551 30.7903 1.1551 30.7414 1.1551C30.6926 1.1551 30.6437 1.12256 30.5949 1.10629C30.546 1.09002 30.4646 1.17137 30.4158 1.1551C30.3669 1.13883 30.3669 0.943601 30.3181 0.927332C30.2692 0.911063 30.1878 0.992408 30.139 0.992408C30.0901 0.992408 30.0576 0.894794 30.0087 0.878525C29.9599 0.862256 29.8785 0.95987 29.8296 0.95987C29.7808 0.95987 29.7482 0.862256 29.6993 0.845987C29.6505 0.829718 29.6179 0.715835 29.5691 0.699566C29.5202 0.683297 29.4551 0.715835 29.4063 0.699566C29.3574 0.683297 29.276 0.79718 29.2271 0.780911C29.1783 0.764642 29.1132 0.829718 29.0643 0.813449C29.0155 0.79718 28.9666 0.780911 28.9178 0.764642C28.8689 0.748373 28.8527 0.520607 28.8038 0.520607C28.755 0.520607 28.6573 0.732104 28.6084 0.715835C28.5596 0.699566 28.527 0.553145 28.4782 0.553145C28.4293 0.553145 28.3642 0.569414 28.3153 0.569414C28.2665 0.569414 28.1851 0.683297 28.1362 0.667028C28.0874 0.650759 28.0711 0.390456 28.0222 0.374187C27.9734 0.357918 27.892 0.536876 27.8431 0.536876C27.7943 0.536876 27.7454 0.504338 27.6966 0.504338C27.6477 0.504338 27.5989 0.471801 27.55 0.471801C27.5012 0.471801 27.4524 0.488069 27.3872 0.471801C27.3221 0.455532 27.2895 0.390456 27.2407 0.390456C27.1918 0.390456 27.143 0.32538 27.0941 0.32538C27.0453 0.32538 26.9802 0.406725 26.9313 0.390456C26.8825 0.374187 26.8499 0.244035 26.7848 0.244035C26.7196 0.244035 26.6545 0.390456 26.6057 0.374187C26.5568 0.357918 26.508 0.374187 26.4428 0.374187C26.3777 0.374187 26.3614 0.211497 26.2963 0.211497C26.2312 0.211497 26.1823 0.32538 26.1335 0.32538C26.0846 0.32538 26.0358 0.244035 25.9869 0.244035C25.9381 0.244035 25.8729 0.260304 25.8241 0.260304C25.7753 0.260304 25.7264 0.227766 25.6776 0.227766C25.6287 0.227766 25.5636 0.309111 25.5147 0.309111C25.4659 0.309111 25.417 0.276573 25.3682 0.260304C25.3193 0.244035 25.2542 0.374187 25.2054 0.357918C25.1565 0.357918 25.1239 0.0813449 25.0588 0.0813449C24.9937 0.0813449 24.9611 0.113883 24.896 0.113883C24.8309 0.113883 24.782 0.309111 24.7332 0.292842C24.6843 0.276573 24.6355 0.16269 24.5866 0.16269C24.5378 0.16269 24.4726 0.244035 24.4238 0.227766C24.375 0.211497 24.3261 0.130152 24.2773 0.130152C24.2284 0.130152 24.1796 0.146421 24.1144 0.146421C24.0493 0.146421 24.0167 0.16269 23.9516 0.16269C23.8865 0.16269 23.8539 0.130152 23.7888 0.130152C23.7237 0.130152 23.6748 0.292842 23.626 0.292842C23.5771 0.292842 23.5283 0.016269 23.4631 0.016269C23.398 0.016269 23.3654 0.0813449 23.3003 0.0813449C23.2352 0.0813449 23.2026 0.130152 23.1375 0.130152C23.0724 0.130152 23.0398 0.195228 22.9747 0.195228H22.8118C22.763 0.195228 22.7141 0.113883 22.649 0.113883C22.5839 0.113883 22.5513 0.195228 22.4862 0.195228C22.4211 0.195228 22.3885 0.195228 22.3234 0.195228L22.3885 0.211497ZM38.1337 36.231C38.1011 36.2798 38.0848 36.3449 38.0523 36.3774C38.0197 36.41 37.8406 36.3612 37.808 36.3937C37.7755 36.4263 37.7755 36.4913 37.7266 36.5239C37.6778 36.5564 37.6941 36.7191 37.6615 36.7354C37.6289 36.7516 37.5312 36.6703 37.4661 36.6703C37.401 36.6703 37.3196 36.7679 37.2707 36.7516C37.2219 36.7354 37.2707 36.5239 37.2219 36.4913C37.173 36.4588 37.059 36.5076 37.0265 36.4751C36.9939 36.4425 36.9614 36.3937 36.9288 36.3612C36.8962 36.3286 36.8311 36.3124 36.7985 36.2798C36.766 36.2473 36.8311 36.1009 36.7822 36.0521C36.7334 36.0033 36.538 36.1659 36.5054 36.1171C36.4729 36.0683 36.5217 35.9382 36.4892 35.9056C36.4566 35.8731 36.3263 35.9382 36.2938 35.9056C36.2612 35.8731 36.3426 35.6779 36.2938 35.6453C36.2449 35.6128 36.2449 35.5477 36.1961 35.5152C36.1472 35.4827 36.0332 35.564 35.9844 35.5315C35.9356 35.4989 35.9518 35.4013 35.903 35.3688C35.8541 35.3362 35.7076 35.4664 35.675 35.4338C35.6425 35.4013 35.6425 35.3037 35.5936 35.2712C35.5448 35.2386 35.4634 35.2712 35.4308 35.2386C35.3982 35.2061 35.4308 35.0434 35.3819 35.0109C35.3331 34.9783 35.2028 35.1085 35.154 35.0759C35.1051 35.0434 35.0563 35.0434 35.0075 35.0271C34.9586 35.0109 35.0075 34.8156 34.9586 34.7994C34.9098 34.7831 34.8283 34.8482 34.7795 34.8156C34.7306 34.7831 34.7306 34.6529 34.6818 34.6367C34.6329 34.6204 34.5027 34.7668 34.4538 34.7505C34.405 34.7343 34.4213 34.5553 34.3724 34.5228C34.3236 34.4902 34.2259 34.6041 34.177 34.5879C34.1282 34.5716 34.0468 34.6367 33.9979 34.6204C33.9491 34.6041 33.9654 34.3601 33.9165 34.3601C33.8677 34.3601 33.7863 34.4252 33.7374 34.4252C33.6886 34.4252 33.6234 34.4252 33.5746 34.4252C33.5257 34.4252 33.4769 34.4089 33.428 34.4089C33.3792 34.4089 33.3466 34.295 33.2978 34.2788C33.2489 34.2625 33.2001 34.2788 33.135 34.2625C33.0698 34.2462 33.021 34.295 32.9721 34.295C32.9233 34.295 32.8582 34.3276 32.8093 34.3113C32.7605 34.295 32.7279 34.1811 32.679 34.1649C32.6302 34.1486 32.5814 34.1486 32.5162 34.1486C32.4511 34.1486 32.4022 34.2788 32.3534 34.2788C32.3045 34.2788 32.2557 34.1486 32.2069 34.1486C32.158 34.1486 32.1092 34.1486 32.044 34.1486C31.9789 34.1486 31.9301 34.2137 31.8812 34.2137C31.8324 34.2137 31.7835 34.051 31.7347 34.051C31.6858 34.051 31.637 34.2462 31.5718 34.2462C31.5067 34.2462 31.4741 34.1974 31.409 34.1974C31.3439 34.1974 31.295 34.0022 31.2462 34.0022C31.1973 34.0022 31.1485 34.1486 31.0996 34.1649C31.0508 34.1811 31.0019 34.1323 30.9368 34.1323C30.8717 34.1323 30.8391 34.1161 30.774 34.1323C30.7089 34.1486 30.66 34.0673 30.6112 34.0673C30.5623 34.0673 30.5298 34.3113 30.4809 34.3113C30.4321 34.3113 30.3669 34.2625 30.3181 34.2625C30.2692 34.2625 30.2204 34.2462 30.1553 34.2462C30.0901 34.2462 30.0413 34.1486 29.9924 34.1649C29.9436 34.1811 29.8947 34.2462 29.8459 34.2462C29.797 34.2462 29.7645 34.4089 29.7156 34.4252C29.6668 34.4414 29.5854 34.2462 29.5202 34.2625C29.4551 34.2788 29.4388 34.3926 29.39 34.3926C29.3411 34.3926 29.2923 34.4577 29.2434 34.474L29.0969 34.5065C29.048 34.5228 28.9829 34.4902 28.9341 34.5065C28.8852 34.5228 28.7875 34.3764 28.7387 34.3764L28.5921 34.4089C28.5433 34.4252 28.4782 34.4089 28.4293 34.4252C28.3805 34.4414 28.3642 34.5716 28.3153 34.5879C28.2665 34.6041 28.2013 34.5391 28.1525 34.5553C28.1037 34.5716 28.0874 34.718 28.0385 34.7343C27.9897 34.7505 27.9408 34.7831 27.892 34.7994C27.8431 34.8156 27.7292 34.6204 27.6803 34.6367C27.6315 34.6529 27.5826 34.6855 27.5338 34.7017C27.4849 34.718 27.4361 34.7506 27.3872 34.7668C27.3384 34.7831 27.3384 34.962 27.2895 34.9783C27.2407 34.9946 27.1918 34.9946 27.143 35.0109C27.0941 35.0271 27.0127 34.962 26.9639 34.9783C26.915 34.9946 26.8987 35.0922 26.8499 35.1085C26.8011 35.1247 26.7848 35.2224 26.7359 35.2386C26.6871 35.2549 26.5894 35.141 26.5405 35.1735C26.4917 35.2061 26.4103 35.141 26.3614 35.1573C26.3126 35.1735 26.3126 35.32 26.2637 35.3362C26.2149 35.3525 26.1823 35.4013 26.1335 35.4176C26.0846 35.4338 26.0358 35.4827 26.0032 35.4989C25.9706 35.5152 25.8892 35.4989 25.8404 35.5152C25.7915 35.5315 25.759 35.6128 25.7101 35.6291C25.6613 35.6453 25.6124 35.6616 25.5636 35.6779C25.5147 35.6942 25.4333 35.6291 25.3845 35.6453C25.3356 35.6616 25.2868 35.6779 25.2379 35.6942C25.1891 35.7104 25.1402 35.743 25.0914 35.7592C25.0425 35.7755 24.9448 35.6941 24.896 35.7104C24.8471 35.7267 24.7983 35.7592 24.7495 35.7755C24.7006 35.7918 24.668 35.8568 24.6192 35.8731C24.5703 35.8894 24.4889 35.8406 24.4401 35.8568C24.3912 35.8731 24.4238 36.0846 24.375 36.1009C24.3261 36.1171 24.2284 36.0195 24.1796 36.0521C24.1307 36.0846 24.0493 36.0195 24.0005 36.0521C23.9516 36.0846 23.919 36.1171 23.8702 36.1334C23.8213 36.1497 23.8376 36.3286 23.7888 36.3449C23.7399 36.3612 23.7074 36.4263 23.6585 36.4425C23.6097 36.4588 23.512 36.3774 23.4794 36.41C23.4468 36.4425 23.3654 36.41 23.3166 36.4263C23.2677 36.4425 23.2352 36.4913 23.1863 36.5076C23.1375 36.5239 23.1538 36.6703 23.1049 36.7028C23.0561 36.7354 23.0235 36.7679 22.9747 36.7842C22.9258 36.8004 22.7955 36.6377 22.7467 36.654C22.6979 36.6703 22.7141 36.833 22.6653 36.8492C22.6164 36.8655 22.5676 36.8981 22.5187 36.9143C22.4699 36.9306 22.3559 36.8167 22.3071 36.833C22.2582 36.8493 22.2582 36.9794 22.2094 37.0119C22.1605 37.0445 22.0954 36.9957 22.0466 37.0282C21.9977 37.0607 21.9163 37.0119 21.8674 37.0282C21.8186 37.0445 21.7697 37.0607 21.7209 37.077C21.6721 37.0933 21.7046 37.3048 21.6558 37.321C21.6069 37.3373 21.4929 37.2234 21.4441 37.256C21.3952 37.2885 21.3301 37.2722 21.2813 37.2885C21.2324 37.3048 21.1999 37.3536 21.151 37.3699C21.1022 37.3861 21.0696 37.4349 21.0208 37.4512C20.9719 37.4675 20.9719 37.5976 20.9231 37.6139C20.8742 37.6302 20.8091 37.6139 20.7602 37.6464C20.7114 37.679 20.6625 37.6627 20.6137 37.6952C20.5648 37.7278 20.5648 37.8254 20.516 37.8417C20.4671 37.8579 20.4183 37.8579 20.3694 37.8742C20.3206 37.8905 20.2555 37.8742 20.2066 37.8905C20.1578 37.9067 20.1415 37.9881 20.0926 38.0043C20.0438 38.0206 19.9461 37.923 19.8973 37.9393C19.8484 37.9555 19.8321 38.0369 19.7833 38.0694C19.7344 38.102 19.7344 38.2321 19.6856 38.2484C19.6367 38.2647 19.5065 38.0857 19.4576 38.1182C19.4088 38.1508 19.4088 38.2646 19.3599 38.2809C19.3111 38.2972 19.2948 38.3948 19.246 38.4273C19.1971 38.4599 19.1483 38.4599 19.0994 38.4761C19.0506 38.4924 19.0017 38.4924 18.9529 38.5087C18.904 38.525 18.8063 38.4273 18.7575 38.4599C18.7086 38.4924 18.7249 38.6388 18.6761 38.6551C18.6272 38.6714 18.497 38.4924 18.4481 38.525C18.3993 38.5575 18.383 38.6388 18.3341 38.6551C18.2853 38.6714 18.2039 38.6226 18.155 38.6388C18.1062 38.6551 18.1225 38.8503 18.0736 38.8666C18.0248 38.8829 17.9434 38.8341 17.8945 38.8503C17.8457 38.8666 17.7642 38.8015 17.7154 38.8178C17.6666 38.8341 17.634 38.8991 17.5851 38.9317C17.5363 38.9642 17.5037 39.013 17.4549 39.0293C17.406 39.0456 17.3735 39.0944 17.3246 39.1106C17.2758 39.1269 17.1781 39.0293 17.1455 39.0456C17.1129 39.0618 17.0478 39.0944 16.999 39.1106C16.9501 39.1269 16.9338 39.2571 16.885 39.2733C16.8361 39.2896 16.7873 39.3059 16.7384 39.3221C16.6896 39.3384 16.5756 39.1594 16.5268 39.1757C16.4779 39.192 16.4779 39.4035 16.4291 39.4197C16.3802 39.436 16.2988 39.3384 16.25 39.3547C16.2011 39.3709 16.136 39.3709 16.0871 39.3709C16.0383 39.3709 16.022 39.5499 15.9732 39.5499C15.9243 39.5499 15.8429 39.4523 15.7941 39.4523C15.7452 39.4523 15.6964 39.4848 15.6475 39.5011C15.5987 39.5174 15.5824 39.6801 15.5335 39.6963C15.4847 39.7126 15.387 39.5011 15.3381 39.5174C15.2893 39.5336 15.2893 39.7777 15.2405 39.7939C15.1916 39.8102 15.1265 39.7614 15.0776 39.7777C15.0288 39.7939 14.9636 39.7126 14.8985 39.7126C14.8334 39.7126 14.8171 39.8102 14.7683 39.8102C14.7194 39.8102 14.6543 39.7777 14.6054 39.7777C14.5566 39.7777 14.4915 39.6963 14.4426 39.6963C14.3938 39.6963 14.3449 39.7289 14.2961 39.7289C14.2472 39.7289 14.1984 39.8102 14.1495 39.8102C14.1007 39.8102 14.0355 39.7939 13.9867 39.8102C13.9378 39.8265 13.889 39.8915 13.8402 39.9078C13.7913 39.9241 13.7262 39.7451 13.6773 39.7614C13.6285 39.7777 13.5796 39.8753 13.5308 39.8753C13.4819 39.8753 13.4168 39.8102 13.368 39.8102C13.3191 39.8102 13.2703 40.0054 13.2214 40.0217C13.1726 40.038 13.1074 39.859 13.0586 39.859C13.0097 39.859 12.9609 39.8102 12.8958 39.8102C12.8306 39.8102 12.7818 40.0542 12.7329 40.0542C12.6841 40.0542 12.6352 40.0054 12.5701 40.0054C12.505 40.0054 12.4561 40.0542 12.4073 40.0542C12.3584 40.0542 12.3096 39.9566 12.2607 39.9404C12.2119 39.9241 12.1793 39.7614 12.1305 39.7614C12.0816 39.7614 12.0002 39.9566 11.9514 39.9404C11.9025 39.9241 11.8374 39.9404 11.7886 39.9241C11.7397 39.9078 11.6909 39.8915 11.642 39.8753C11.5932 39.859 11.5769 39.6475 11.528 39.6475C11.4792 39.6475 11.3978 39.7939 11.3326 39.7939C11.2675 39.7939 11.2187 39.7939 11.1698 39.7939C11.121 39.7939 11.0558 39.7939 11.007 39.7777C10.9581 39.7614 10.9093 39.7126 10.8604 39.6963C10.8116 39.6801 10.779 39.615 10.7302 39.5987C10.6813 39.5824 10.6325 39.5662 10.5836 39.5499C10.5348 39.5336 10.4371 39.6312 10.3883 39.615C10.3394 39.5987 10.3068 39.5336 10.258 39.5174L10.1115 39.4523C10.0626 39.436 10.1115 39.2083 10.0626 39.192C10.0138 39.1757 9.89978 39.2896 9.86722 39.2571C9.83465 39.2245 9.76952 39.2245 9.72067 39.2083C9.67183 39.192 9.67182 39.0781 9.62298 39.0456C9.57413 39.013 9.49272 39.0781 9.44387 39.0456C9.39502 39.013 9.4113 38.8829 9.37874 38.8666C9.34617 38.8503 9.29733 38.8178 9.24848 38.7853C9.19963 38.7527 9.08565 38.8341 9.05309 38.8015C9.02052 38.769 9.02052 38.6551 8.98796 38.6388C8.95539 38.6226 8.84142 38.6551 8.80885 38.6226C8.77629 38.59 8.80885 38.4436 8.77629 38.4111C8.74372 38.3785 8.54833 38.525 8.51577 38.4924C8.4832 38.4599 8.5809 38.2484 8.53205 38.2158C8.4832 38.1833 8.33666 38.2972 8.28781 38.2484C8.23896 38.1996 8.32038 38.0532 8.28781 38.0206C8.25525 37.9881 8.1087 38.0694 8.07614 38.0206C8.04357 37.9718 8.12498 37.8254 8.07614 37.7929C8.02729 37.7603 7.88075 37.8417 7.84818 37.7929C7.81562 37.744 7.88075 37.6139 7.84818 37.5814C7.81562 37.5488 7.65279 37.6139 7.62023 37.5814C7.58766 37.5488 7.70164 37.3699 7.66907 37.3373C7.63651 37.3048 7.47368 37.3699 7.44112 37.3373C7.40855 37.3048 7.40855 37.2397 7.37599 37.1909C7.34342 37.1421 7.35971 37.077 7.32714 37.0282C7.29458 36.9794 7.13175 37.0445 7.11547 36.9957C7.09919 36.9469 7.19688 36.8004 7.16432 36.7516C7.13175 36.7028 6.95264 36.7679 6.93636 36.7191C6.92008 36.6703 6.98521 36.5727 6.95264 36.5239C6.92008 36.4751 6.96892 36.3937 6.95264 36.3449C6.93636 36.2961 6.83866 36.2798 6.82238 36.231C6.8061 36.1822 6.64327 36.1985 6.62699 36.166C6.59443 36.1171 6.64327 36.0358 6.62699 35.987C6.61071 35.9382 6.59443 35.8894 6.57814 35.8406C6.56186 35.7918 6.5293 35.743 6.49673 35.6942C6.48045 35.6453 6.49673 35.5803 6.48045 35.5315C6.46417 35.4827 6.51301 35.4013 6.48045 35.3525C6.44788 35.3037 6.26878 35.3362 6.23621 35.2874C6.20365 35.2386 6.38275 35.1085 6.36647 35.0597C6.35019 35.0109 6.10595 35.0434 6.08967 34.9946C6.07339 34.9458 6.17108 34.8482 6.13852 34.7994C6.12223 34.7506 6.21993 34.6529 6.20365 34.6041C6.18736 34.5553 5.99197 34.5716 5.97569 34.5228C5.95941 34.474 5.89428 34.4414 5.87799 34.3926C5.86171 34.3438 6.00825 34.2299 5.99197 34.1811C5.97569 34.1323 5.89428 34.0998 5.87799 34.051C5.86171 34.0022 5.71517 33.9859 5.71517 33.9371C5.69889 33.8883 5.71517 33.8232 5.69889 33.7744C5.6826 33.7256 5.82915 33.628 5.81286 33.5792C5.79658 33.5304 5.76402 33.4816 5.74773 33.4328C5.73145 33.384 5.69889 33.3351 5.6826 33.2863C5.66632 33.2375 5.69889 33.1725 5.6826 33.1236C5.66632 33.0748 5.51978 33.0586 5.5035 33.0098C5.48721 32.961 5.43837 32.9122 5.42208 32.8633C5.4058 32.8145 5.58491 32.7169 5.56863 32.6681C5.55234 32.6193 5.43837 32.603 5.42208 32.538C5.4058 32.4892 5.43837 32.4241 5.42208 32.3753C5.4058 32.3265 5.32439 32.2939 5.32439 32.2451C5.32439 32.1963 5.17785 32.1638 5.17785 32.115C5.17785 32.0662 5.24298 31.9848 5.22669 31.936C5.21041 31.8872 5.21041 31.8384 5.19413 31.7733C5.17785 31.7082 5.09643 31.692 5.08015 31.6432C5.06387 31.5944 5.16156 31.513 5.16156 31.4642C5.16156 31.4154 5.21041 31.3503 5.19413 31.3015C5.17785 31.2527 5.08015 31.2202 5.06387 31.1714C5.04759 31.1226 5.16156 31.0412 5.16156 30.9924C5.16156 30.9436 5.16156 30.8623 5.16156 30.8135C5.16156 30.7646 5.25926 30.6833 5.25926 30.6345C5.25926 30.5857 5.08015 30.5532 5.08015 30.5043C5.08015 30.4555 5.129 30.3905 5.129 30.3417C5.129 30.2928 5.08015 30.244 5.08015 30.1952C5.08015 30.1464 4.99874 30.0976 4.99874 30.0488C4.99874 30 5.09643 29.9349 5.08015 29.8699C5.06387 29.8048 4.91733 29.7885 4.90104 29.7397C4.88476 29.6909 4.86848 29.6421 4.86848 29.5933C4.86848 29.5445 4.94989 29.4794 4.93361 29.4306C4.91733 29.3818 4.83591 29.333 4.81963 29.2842C4.80335 29.2354 4.96617 29.154 4.96617 29.1052C4.96617 29.0564 5.0313 28.9913 5.01502 28.9425C4.99874 28.8937 4.98246 28.8449 4.96617 28.7961C4.94989 28.7473 4.96617 28.6985 4.96617 28.6334C4.96617 28.5683 4.86848 28.5358 4.8522 28.487C4.83591 28.4382 4.77078 28.3894 4.77078 28.3406C4.77078 28.2918 4.80335 28.2267 4.80335 28.1779C4.80335 28.1291 4.65681 28.0803 4.64052 28.0315C4.62424 27.9827 4.73822 27.9176 4.73822 27.8688C4.73822 27.82 4.86848 27.7549 4.86848 27.7061C4.86848 27.6573 4.67309 27.6085 4.67309 27.5597C4.67309 27.5109 4.68937 27.462 4.67309 27.397C4.65681 27.3319 4.64052 27.2994 4.64052 27.2343C4.64052 27.1692 4.72194 27.1204 4.72194 27.0716C4.72194 27.0228 4.68937 26.974 4.68937 26.9252C4.68937 26.8764 4.68937 26.8276 4.68937 26.7625C4.68937 26.6974 4.67309 26.6649 4.67309 26.5998C4.67309 26.5347 4.72194 26.4859 4.72194 26.4371C4.72194 26.3883 4.60796 26.3395 4.60796 26.2907C4.60796 26.2419 4.73822 26.1768 4.73822 26.128C4.73822 26.0792 4.81963 26.0141 4.81963 25.9653C4.81963 25.9165 4.81963 25.8677 4.81963 25.8026C4.81963 25.7375 4.62424 25.705 4.62424 25.6562C4.62424 25.6074 4.54283 25.5586 4.54283 25.5098C4.54283 25.461 4.77078 25.3959 4.77078 25.3471C4.77078 25.2983 4.72194 25.2495 4.72194 25.1844C4.72194 25.1193 4.72194 25.0868 4.72194 25.0217C4.72194 24.9566 4.77078 24.9241 4.77078 24.859C4.77078 24.7939 4.78707 24.7614 4.78707 24.6963C4.78707 24.6312 4.57539 24.5987 4.57539 24.5499C4.57539 24.5011 4.60796 24.4523 4.60796 24.3872C4.60796 24.3221 4.67309 24.2896 4.67309 24.2245C4.67309 24.1594 4.80335 24.1106 4.80335 24.0618C4.80335 24.013 4.65681 23.9642 4.65681 23.8991C4.65681 23.8341 4.72194 23.8015 4.72194 23.7364C4.72194 23.6714 4.70565 23.6388 4.70565 23.5738C4.70565 23.5087 4.64052 23.4761 4.64052 23.4111C4.64052 23.346 4.7545 23.3135 4.7545 23.2646C4.7545 23.2158 4.78707 23.167 4.78707 23.102C4.78707 23.0369 4.55911 22.9881 4.55911 22.9393C4.55911 22.8905 4.59167 22.8417 4.59167 22.7766C4.59167 22.7115 4.57539 22.679 4.59167 22.6139C4.60796 22.5488 4.80335 22.5163 4.80335 22.4675C4.80335 22.4187 4.67309 22.3536 4.67309 22.3048C4.67309 22.256 4.70565 22.2072 4.70565 22.1584C4.70565 22.1096 4.67309 22.0607 4.67309 21.9957C4.67309 21.9306 4.80335 21.8981 4.80335 21.8492C4.80335 21.8004 4.78707 21.7516 4.78707 21.6866C4.78707 21.6215 4.73822 21.5727 4.73822 21.5239C4.73822 21.4751 4.60796 21.41 4.60796 21.3612C4.60796 21.3124 4.62424 21.2636 4.64052 21.1985C4.65681 21.1334 4.81963 21.1009 4.81963 21.0521C4.81963 21.0033 4.86848 20.9545 4.86848 20.8894C4.86848 20.8243 4.73822 20.7755 4.73822 20.7267C4.73822 20.6779 4.90104 20.6291 4.90104 20.5803C4.90104 20.5315 4.80335 20.4664 4.80335 20.4176C4.80335 20.3688 4.67309 20.3037 4.67309 20.2549C4.67309 20.2061 4.70565 20.1573 4.70565 20.1085C4.70565 20.0597 4.80335 20.0108 4.80335 19.962C4.80335 19.9132 4.83591 19.8644 4.8522 19.8156L4.86848 19.6529C4.86848 19.6041 4.83591 19.539 4.83591 19.4902C4.83591 19.4414 4.98246 19.3926 4.98246 19.3438C4.98246 19.295 4.88476 19.2299 4.88476 19.1811C4.88476 19.1323 4.80335 19.0672 4.80335 19.0184C4.80335 18.9696 4.78707 18.9208 4.80335 18.8558C4.81963 18.7907 4.98246 18.7744 4.98246 18.7256C4.98246 18.6768 4.99874 18.628 4.99874 18.5629C4.99874 18.4978 4.81963 18.4328 4.81963 18.384C4.81963 18.3351 5.09643 18.3189 5.11272 18.2701C5.129 18.2213 5.08015 18.1562 5.09643 18.1074C5.11272 18.0586 5.06387 17.9935 5.06387 17.9447C5.06387 17.8959 5.14528 17.8471 5.16156 17.7983C5.17785 17.7495 5.16156 17.7007 5.17785 17.6356C5.19413 17.5705 5.21041 17.538 5.22669 17.4892C5.24298 17.4403 5.14528 17.3753 5.16156 17.3265C5.17785 17.2777 5.11272 17.2126 5.129 17.1638C5.14528 17.115 5.19413 17.0662 5.19413 17.0174C5.19413 16.9685 5.27554 16.9197 5.29182 16.8709C5.30811 16.8221 5.32439 16.7733 5.34067 16.7245C5.35695 16.6757 5.37324 16.6269 5.38952 16.5781C5.4058 16.5293 5.22669 16.4317 5.24298 16.3829C5.25926 16.3341 5.24298 16.269 5.25926 16.2202C5.27554 16.1714 5.47093 16.1551 5.48721 16.1063C5.5035 16.0575 5.4058 15.9761 5.42208 15.9273C5.43837 15.8785 5.37324 15.8135 5.38952 15.7646C5.4058 15.7158 5.42208 15.667 5.42208 15.6182C5.42208 15.5694 5.51978 15.5369 5.51978 15.4881C5.51978 15.4393 5.56863 15.3905 5.58491 15.3417C5.60119 15.2928 5.53606 15.2115 5.53606 15.1627C5.53606 15.1139 5.60119 15.0651 5.61747 15.0163C5.63376 14.9675 5.6826 14.9187 5.69889 14.8699C5.71517 14.821 5.79658 14.7885 5.81286 14.7397C5.82915 14.6909 5.74774 14.6095 5.76402 14.5607C5.7803 14.5119 5.73145 14.4469 5.74773 14.3981C5.76402 14.3492 5.76402 14.2842 5.7803 14.2354C5.79658 14.1866 6.00826 14.2028 6.02454 14.154C6.04082 14.1052 6.00826 14.0401 6.02454 13.9913C6.04082 13.9425 5.89428 13.8449 5.91056 13.7961C5.92684 13.7473 6.10595 13.7473 6.12223 13.6985C6.13852 13.6497 6.00826 13.5521 6.02454 13.5033C6.04082 13.4544 6.10595 13.4219 6.12223 13.3731C6.13852 13.3243 6.23621 13.308 6.25249 13.2592C6.26878 13.2104 6.12223 13.0965 6.13852 13.0477C6.1548 12.9989 6.4316 13.0477 6.44788 12.9989C6.46417 12.9501 6.48045 12.9013 6.49673 12.8525C6.51301 12.8037 6.54558 12.7712 6.57814 12.7223C6.59443 12.6735 6.41532 12.5434 6.44788 12.4946C6.48045 12.4458 6.59443 12.4458 6.61071 12.397C6.62699 12.3482 6.51301 12.2343 6.54558 12.1855C6.56186 12.1367 6.77353 12.1855 6.8061 12.1367C6.83866 12.0879 6.64327 11.9414 6.67584 11.8926C6.7084 11.8438 6.90379 11.8926 6.93636 11.8438C6.96892 11.795 6.64327 11.7299 6.67584 11.6811C6.7084 11.6323 6.95264 11.7137 6.96892 11.6649C6.98521 11.6161 6.96893 11.551 6.98521 11.5022C7.00149 11.4534 6.92008 11.3558 6.95264 11.3069C6.98521 11.2581 6.95264 11.1768 6.96892 11.1443C6.98521 11.1117 7.19688 11.1605 7.22945 11.1117C7.26201 11.0629 7.13175 10.9328 7.14803 10.884C7.16432 10.8351 7.26201 10.8351 7.29458 10.7863C7.32714 10.7375 7.48997 10.7863 7.50625 10.7375C7.52253 10.6887 7.35971 10.526 7.39227 10.4772C7.42484 10.4284 7.42484 10.3633 7.44112 10.3308C7.4574 10.2983 7.70164 10.3796 7.7342 10.3308C7.76677 10.282 7.66907 10.1681 7.70164 10.1193C7.7342 10.0705 7.91331 10.1356 7.92959 10.103C7.94588 10.0705 7.94588 9.98916 7.97844 9.94035C8.01101 9.89154 8.05985 9.87527 8.09242 9.82647C8.12498 9.77766 7.96216 9.5987 7.99472 9.54989C8.02729 9.50109 8.15755 9.54989 8.19011 9.50109C8.22268 9.45228 8.19012 9.37093 8.22268 9.3384C8.25525 9.30586 8.41807 9.37093 8.45064 9.32213C8.4832 9.27332 8.38551 9.1269 8.41807 9.09436C8.45064 9.06182 8.59718 9.11063 8.62974 9.07809C8.66231 9.04555 8.5809 8.88286 8.61346 8.85033C8.64603 8.81779 8.80885 8.88286 8.84142 8.85033C8.87398 8.81779 8.90655 8.76898 8.93911 8.73644C8.97168 8.70391 8.87398 8.52495 8.90655 8.49241C8.93911 8.45987 9.11822 8.55749 9.15078 8.52495C9.18335 8.49241 9.11822 8.34599 9.16707 8.31345C9.21591 8.28091 9.2322 8.21584 9.26476 8.1833C9.29733 8.15076 9.44387 8.23211 9.47644 8.1833C9.509 8.13449 9.52528 8.08568 9.57413 8.05315L9.68811 7.95553C9.72067 7.92299 9.70439 7.80911 9.73696 7.77657C9.76952 7.74404 9.93235 7.85792 9.98119 7.82538C10.03 7.79284 10.03 7.7115 10.0789 7.69523C10.1277 7.67896 10.1115 7.58135 10.1603 7.54881C10.2091 7.51627 10.2906 7.54881 10.3231 7.51627C10.3557 7.48373 10.3557 7.40239 10.4045 7.36985C10.4534 7.33731 10.5511 7.40239 10.5999 7.36985C10.6488 7.33731 10.6813 7.30477 10.7302 7.27223C10.779 7.2397 10.8116 7.20716 10.8442 7.17462C10.8767 7.14208 10.9581 7.15835 11.007 7.12581C11.0558 7.09328 11.0233 6.94686 11.0558 6.91432C11.0884 6.88178 11.1373 6.83297 11.1698 6.8167C11.2024 6.80043 11.3652 6.93059 11.4141 6.91432C11.4629 6.89805 11.4466 6.75163 11.4792 6.73536C11.5118 6.71909 11.4955 6.5564 11.5443 6.54013C11.5932 6.52386 11.7071 6.62148 11.756 6.58894C11.8048 6.5564 11.7723 6.39371 11.8211 6.37744C11.87 6.36117 11.9677 6.42625 12.0165 6.40998L12.1468 6.32863C12.1956 6.31237 12.2607 6.31237 12.3096 6.2961C12.3584 6.27983 12.3584 6.16594 12.4073 6.14968C12.4561 6.13341 12.5864 6.27983 12.6352 6.26356C12.6841 6.24729 12.6352 5.98699 12.6678 5.97072C12.7004 5.95445 12.8306 6.0846 12.8795 6.06833C12.9283 6.05206 12.9446 5.97072 12.9935 5.93818C13.0423 5.90564 13.0586 5.8243 13.1074 5.80803C13.1563 5.79176 13.2051 5.75922 13.254 5.74295C13.3028 5.72668 13.4494 5.93818 13.4982 5.92191C13.5471 5.90564 13.4982 5.64534 13.5471 5.62907C13.5959 5.6128 13.6773 5.69414 13.7262 5.67788C13.775 5.66161 13.8402 5.67788 13.889 5.66161C13.9379 5.64534 13.9867 5.64534 14.0355 5.62907C14.0844 5.6128 14.1495 5.64534 14.1984 5.62907C14.2472 5.6128 14.2961 5.6128 14.3612 5.59653C14.4263 5.58026 14.3938 5.33623 14.4263 5.31996C14.4589 5.30369 14.5566 5.36876 14.6054 5.3525C14.6543 5.33623 14.752 5.46638 14.8008 5.45011C14.8497 5.43384 14.8497 5.25488 14.8985 5.23861C14.9474 5.22234 15.0125 5.28742 15.0776 5.27115C15.1428 5.25488 15.1916 5.30369 15.2405 5.28742C15.2893 5.27115 15.3381 5.23861 15.387 5.23861C15.4358 5.23861 15.4847 5.20607 15.5335 5.18981C15.5824 5.17354 15.6312 5.12473 15.6801 5.10846C15.7289 5.09219 15.7778 5.02712 15.8266 5.02712C15.8755 5.02712 15.9406 5.05965 15.9894 5.05965C16.0383 5.05965 16.1197 5.17354 16.1686 5.15727C16.2174 5.141 16.2663 5.12473 16.3151 5.12473C16.3639 5.12473 16.4128 5.05965 16.4616 5.04339C16.5105 5.02712 16.5593 4.99458 16.6082 4.97831C16.657 4.96204 16.7222 5.02712 16.771 5.02712C16.8199 5.02712 16.8524 4.91323 16.9013 4.89696C16.9501 4.8807 16.9827 4.78308 17.0315 4.78308C17.0804 4.78308 17.1618 4.94577 17.2106 4.9295C17.2595 4.91323 17.3246 4.94577 17.3735 4.94577C17.4223 4.94577 17.4549 4.75054 17.5037 4.73427C17.5526 4.71801 17.634 4.89696 17.6828 4.89696C17.7317 4.89696 17.7642 4.78308 17.8294 4.76681C17.8945 4.75054 17.9434 4.81562 17.9922 4.79935C18.041 4.78308 18.0899 4.718 18.1387 4.70174C18.1876 4.68547 18.2527 4.79935 18.3016 4.79935C18.3504 4.79935 18.383 4.60412 18.4318 4.60412C18.4807 4.60412 18.5295 4.60412 18.5947 4.58785C18.6598 4.57158 18.7086 4.91323 18.7575 4.91323C18.8063 4.91323 18.8389 4.718 18.8877 4.70174C18.9366 4.68547 19.0017 4.81562 19.0506 4.81562C19.0994 4.81562 19.1645 4.84816 19.2134 4.84816C19.2622 4.84816 19.3111 4.78308 19.3599 4.78308C19.4088 4.78308 19.4739 4.84816 19.5228 4.84816C19.5716 4.84816 19.6205 4.68547 19.6693 4.6692C19.7181 4.65293 19.767 4.65293 19.8158 4.65293C19.8647 4.65293 19.9298 4.83189 19.9787 4.83189C20.0275 4.83189 20.0764 4.58785 20.1252 4.58785C20.1741 4.58785 20.2229 4.62039 20.288 4.62039C20.3532 4.62039 20.402 4.79935 20.4509 4.79935C20.4997 4.79935 20.5486 4.62039 20.5974 4.62039C20.6463 4.62039 20.6951 4.60412 20.7602 4.60412C20.8254 4.60412 20.8742 4.78308 20.9231 4.78308C20.9719 4.78308 21.0208 4.53905 21.0696 4.53905C21.1184 4.53905 21.1836 4.75054 21.2324 4.75054C21.2813 4.75054 21.3301 4.71801 21.379 4.71801C21.4278 4.71801 21.4767 4.76681 21.5418 4.76681C21.6069 4.76681 21.6395 4.49024 21.6883 4.49024C21.7372 4.49024 21.786 4.63666 21.8512 4.63666C21.9163 4.63666 21.9489 4.60412 22.014 4.60412C22.0791 4.60412 22.1117 4.73427 22.1768 4.73427C22.2419 4.73427 22.2745 4.50651 22.3396 4.50651C22.4048 4.50651 22.4373 4.65293 22.5025 4.65293C22.5676 4.65293 22.6002 4.75054 22.649 4.75054C22.6979 4.75054 22.7467 4.62039 22.8118 4.62039C22.877 4.62039 22.9095 4.57158 22.9747 4.57158C23.0398 4.57158 23.0724 4.65293 23.1212 4.65293C23.17 4.65293 23.2189 4.6692 23.284 4.6692C23.3492 4.6692 23.398 4.53905 23.4468 4.53905C23.4957 4.53905 23.5445 4.68547 23.5934 4.68547C23.6422 4.68547 23.6911 4.6692 23.7562 4.68547C23.8213 4.70174 23.8539 4.76681 23.9028 4.76681C23.9516 4.76681 24.0167 4.60412 24.0656 4.62039C24.1144 4.63666 24.1633 4.60412 24.2284 4.62039C24.2935 4.63666 24.3261 4.78308 24.375 4.78308C24.4238 4.78308 24.4726 4.78308 24.5378 4.78308C24.6029 4.78308 24.6518 4.68547 24.7006 4.68547L24.8634 4.70174C24.9123 4.70174 24.9774 4.65293 25.0263 4.65293C25.0751 4.65293 25.124 4.70174 25.1728 4.70174C25.2216 4.70174 25.2868 4.6692 25.3356 4.6692C25.3845 4.6692 25.4333 4.75054 25.4822 4.75054C25.531 4.75054 25.5799 4.81562 25.6287 4.81562C25.6776 4.81562 25.7427 4.78308 25.7915 4.79935C25.8404 4.81562 25.8892 4.86443 25.9381 4.86443C25.9869 4.86443 26.0521 4.78308 26.1009 4.79935C26.1498 4.81562 26.1986 4.79935 26.2637 4.81562C26.3289 4.83189 26.3777 4.79935 26.4266 4.79935C26.4754 4.79935 26.5405 4.76681 26.5894 4.78308C26.6382 4.79935 26.7034 4.78308 26.7522 4.78308C26.8011 4.78308 26.8499 4.83189 26.8987 4.84816C26.9476 4.86443 26.9802 5.05965 27.029 5.05965C27.0779 5.05965 27.1756 4.81562 27.2244 4.81562C27.2732 4.81562 27.3058 4.99458 27.3547 5.01085C27.4035 5.02712 27.4686 4.9295 27.5338 4.9295C27.5989 4.9295 27.5989 5.12473 27.664 5.141L27.8106 5.17354C27.8594 5.17354 27.9245 5.12473 27.9734 5.141C28.0222 5.15727 28.1037 5.02712 28.1525 5.04339C28.2013 5.05965 28.2665 5.02712 28.3153 5.04339C28.3642 5.05965 28.413 5.10846 28.4619 5.12473C28.5107 5.141 28.5758 5.12473 28.6247 5.12473C28.6735 5.12473 28.7387 5.10846 28.7875 5.12473C28.8364 5.141 28.8527 5.30369 28.9015 5.31996C28.9503 5.33623 28.9992 5.3525 29.048 5.3525C29.0969 5.3525 29.1783 5.30369 29.2271 5.30369C29.276 5.30369 29.2923 5.49892 29.3411 5.51518C29.39 5.53145 29.4551 5.48265 29.504 5.49892C29.5528 5.51519 29.6668 5.33623 29.7156 5.3525C29.7645 5.36876 29.8133 5.4013 29.8622 5.41757C29.911 5.43384 29.911 5.6128 29.9599 5.62907C30.0087 5.64534 30.1064 5.51519 30.1553 5.53145C30.2041 5.54772 30.2529 5.54772 30.3181 5.56399C30.3832 5.58026 30.4158 5.62907 30.4646 5.64534L30.6112 5.69414C30.66 5.71041 30.6926 5.79176 30.7414 5.80803C30.7903 5.8243 30.8717 5.75922 30.9205 5.77549C30.9694 5.79176 31.0019 5.8731 31.0508 5.88937C31.0996 5.90564 31.0996 6.05206 31.1485 6.06833C31.1973 6.0846 31.2462 6.0846 31.295 6.10087C31.3439 6.11714 31.409 6.11714 31.4579 6.13341C31.5067 6.14968 31.5393 6.21475 31.5881 6.24729C31.637 6.27983 31.7347 6.18221 31.7672 6.21475C31.7998 6.24729 31.8649 6.24729 31.9138 6.26356C31.9626 6.27983 32.0115 6.2961 32.0603 6.31237C32.1092 6.32863 32.1743 6.31237 32.2231 6.3449C32.272 6.37744 32.2557 6.50759 32.3045 6.54013C32.3534 6.57267 32.4674 6.44252 32.5162 6.45879C32.5651 6.47505 32.5814 6.58894 32.6139 6.60521C32.6465 6.62148 32.6628 6.75163 32.7116 6.7679C32.7605 6.78417 32.8093 6.80044 32.8582 6.83297C32.907 6.86551 33.0535 6.68655 33.1024 6.70282C33.1512 6.71909 33.135 6.86551 33.1838 6.88178C33.2327 6.89805 33.2164 7.0282 33.2652 7.06074C33.3141 7.09328 33.3466 7.10955 33.3955 7.14208C33.4443 7.17462 33.4932 7.17462 33.542 7.19089C33.5909 7.20716 33.7211 7.10955 33.7537 7.14208C33.7863 7.17462 33.8677 7.15835 33.9165 7.17462C33.9654 7.19089 33.8514 7.45119 33.9002 7.48373C33.9491 7.51627 34.1119 7.35358 34.1608 7.38612C34.2096 7.41866 34.2096 7.5 34.2585 7.53254L34.3887 7.63015C34.4376 7.66269 34.5515 7.59761 34.5841 7.63015C34.6167 7.66269 34.5353 7.87419 34.5678 7.90673C34.6004 7.93926 34.6655 7.93926 34.7144 7.9718C34.7632 8.00434 34.8772 7.93926 34.9098 7.9718C34.9423 8.00434 34.9749 8.05315 35.0075 8.08568C35.04 8.11822 35.1214 8.11822 35.154 8.15076C35.1866 8.1833 35.1051 8.36226 35.1377 8.3948C35.1703 8.42733 35.2028 8.47614 35.2517 8.50868C35.3005 8.54122 35.4145 8.49241 35.4471 8.52495C35.4796 8.55749 35.4634 8.6551 35.4959 8.68764L35.6099 8.80152C35.6425 8.83406 35.8379 8.72018 35.8704 8.75271C35.903 8.78525 35.8053 8.96421 35.8379 8.99675C35.8704 9.02929 35.9681 9.02928 36.0007 9.06182C36.0333 9.09436 36.017 9.19198 36.0495 9.22451C36.0821 9.25705 36.1472 9.27332 36.1798 9.32213C36.2124 9.37093 36.1798 9.46855 36.2124 9.50109C36.2449 9.53362 36.3101 9.54989 36.3426 9.5987C36.3752 9.64751 36.5869 9.53362 36.6194 9.56616C36.652 9.5987 36.6683 9.66378 36.7008 9.69631C36.7334 9.72885 36.6031 9.90781 36.6357 9.95662C36.6683 10.0054 36.8474 9.92408 36.8799 9.97289C36.9125 10.0217 36.9288 10.0705 36.9451 10.1193C36.9614 10.1681 36.9288 10.2657 36.9614 10.2983C36.9939 10.3308 37.1079 10.3145 37.1405 10.3633C37.173 10.4121 37.1567 10.4772 37.1893 10.526C37.2219 10.5748 37.3033 10.5748 37.3359 10.6236C37.3684 10.6725 37.2219 10.8189 37.2544 10.8677C37.287 10.9165 37.287 10.9653 37.3196 11.0141C37.3521 11.0629 37.3847 11.0954 37.4173 11.1443C37.4498 11.1931 37.515 11.2093 37.5475 11.2581C37.5801 11.3069 37.6941 11.2907 37.7266 11.3395C37.7592 11.3883 37.8243 11.4046 37.8569 11.4534C37.8895 11.5022 37.7429 11.6323 37.7592 11.6811C37.7755 11.7299 37.8406 11.7462 37.8569 11.795C37.8732 11.8438 37.8732 11.9089 37.8895 11.9577C37.9057 12.0065 38.0686 11.974 38.1011 12.0228C38.1337 12.0716 37.9872 12.2017 38.0034 12.2343C38.0197 12.2668 38.264 12.218 38.2965 12.2668C38.3291 12.3156 38.2151 12.4295 38.2314 12.462C38.2477 12.4946 38.4268 12.4946 38.4593 12.5271C38.4919 12.5597 38.3779 12.6735 38.3942 12.7223C38.4105 12.7712 38.3291 12.8688 38.3454 12.9176C38.3616 12.9664 38.4919 12.9664 38.5082 13.0152C38.5245 13.064 38.6385 13.0803 38.6547 13.1291C38.671 13.1779 38.6059 13.2592 38.6222 13.308C38.6385 13.3568 38.7361 13.3731 38.7687 13.4219C38.8013 13.4707 38.6547 13.5683 38.6873 13.6171C38.7199 13.6659 38.6873 13.731 38.7036 13.7798C38.7199 13.8286 38.9641 13.7961 38.9804 13.8449C38.9967 13.8937 38.9641 13.9588 38.9804 14.0076C38.9967 14.0564 38.899 14.154 38.9153 14.2028C38.9315 14.2516 39.0618 14.2679 39.0781 14.3167C39.0944 14.3655 39.1595 14.398 39.1758 14.4469C39.1921 14.4957 39.0618 14.5933 39.0781 14.6421C39.0944 14.6909 39.0455 14.756 39.0618 14.8048C39.0781 14.8536 39.2083 14.8699 39.2246 14.9187C39.2409 14.9675 39.1269 15.0488 39.1432 15.0976C39.1595 15.1464 39.2898 15.1627 39.306 15.2115C39.3223 15.2603 39.3386 15.3091 39.3549 15.3579C39.3712 15.4067 39.3386 15.4718 39.3386 15.5206C39.3386 15.5694 39.4363 15.602 39.4526 15.6508C39.4689 15.6996 39.4363 15.7646 39.4363 15.8135C39.4363 15.8623 39.5014 15.9111 39.5177 15.9599C39.534 16.0087 39.5177 16.0738 39.534 16.1226C39.5503 16.1714 39.5828 16.2202 39.5828 16.269C39.5828 16.3178 39.6968 16.3503 39.7131 16.3991C39.7294 16.4479 39.5991 16.5293 39.5991 16.5781C39.5991 16.6269 39.6968 16.6594 39.7131 16.7082C39.7294 16.7571 39.5503 16.8384 39.5666 16.9035C39.5828 16.9686 39.6317 17.0011 39.648 17.0499C39.6643 17.0987 39.6317 17.1638 39.6317 17.2126C39.6317 17.2614 39.762 17.2939 39.7782 17.3427C39.7945 17.3915 39.7782 17.4404 39.7945 17.5054C39.8108 17.5705 39.7782 17.6193 39.7782 17.6681C39.7782 17.7169 39.7945 17.7657 39.8108 17.8145C39.8271 17.8633 39.9248 17.8959 39.9411 17.9447C39.9573 17.9935 39.9573 18.0423 39.9573 18.0911C39.9573 18.1399 40.0713 18.1725 40.0876 18.2375C40.1039 18.3026 39.8434 18.384 39.8434 18.4328C39.8434 18.4816 40.0062 18.5141 40.0062 18.5629C40.0062 18.6117 40.1364 18.6605 40.1364 18.7093C40.1364 18.7581 40.055 18.8232 40.055 18.872C40.055 18.9208 40.0062 18.9859 40.0225 19.0347C40.0388 19.0835 40.0387 19.1323 40.0387 19.1974C40.0387 19.2625 40.0062 19.3113 40.0062 19.3601C40.0062 19.4089 40.0713 19.4577 40.0713 19.5065C40.0713 19.5553 40.2179 19.6041 40.2179 19.6529C40.2179 19.7017 40.1365 19.7668 40.1527 19.8156C40.169 19.8644 40.2341 19.9132 40.2341 19.962C40.2341 20.0108 40.2341 20.0597 40.2341 20.1247C40.2341 20.1898 40.1364 20.2386 40.1364 20.2874C40.1364 20.3362 40.1202 20.385 40.1202 20.4501C40.1202 20.5152 40.283 20.5477 40.283 20.5965C40.283 20.6453 40.2993 20.6941 40.2993 20.7592C40.2993 20.8243 40.3318 20.8568 40.3318 20.9219C40.3318 20.987 40.1202 21.0358 40.1202 21.0846C40.1202 21.1334 40.283 21.1822 40.283 21.231C40.283 21.2798 40.1202 21.3449 40.1202 21.3937C40.1202 21.4425 40.3156 21.4913 40.3156 21.5401C40.3156 21.5889 40.3318 21.6377 40.3318 21.7028C40.3318 21.7679 40.3156 21.8004 40.3318 21.8655C40.3481 21.9306 40.2993 21.9631 40.2993 22.0282C40.2993 22.0933 40.4132 22.1258 40.4132 22.1746C40.4132 22.2234 40.2993 22.2885 40.2993 22.3373C40.2993 22.3861 40.397 22.4349 40.397 22.4837C40.397 22.5325 40.2179 22.5976 40.2179 22.6464C40.2179 22.6952 40.1853 22.744 40.1853 22.8091C40.1853 22.8742 40.4295 22.9067 40.4295 22.9555C40.4295 23.0043 40.3644 23.0532 40.3644 23.1182C40.3644 23.1833 40.3318 23.2158 40.3481 23.2809C40.3644 23.346 40.2993 23.3785 40.2993 23.4436C40.2993 23.5087 40.4458 23.5412 40.4458 23.59C40.4458 23.6388 40.2341 23.7039 40.2341 23.7527C40.2341 23.8015 40.4132 23.8503 40.4132 23.9154C40.4132 23.9805 40.3807 24.013 40.3807 24.0781C40.3807 24.1432 40.4132 24.1757 40.4132 24.2408C40.4132 24.3059 40.3644 24.3384 40.3644 24.4035C40.3644 24.4686 40.4784 24.5011 40.4784 24.5662C40.4784 24.6312 40.4458 24.6638 40.4458 24.7289C40.4458 24.7939 40.4621 24.8265 40.4621 24.8915C40.4621 24.9566 40.3481 24.9892 40.3481 25.0542C40.3481 25.1193 40.3156 25.1518 40.3156 25.2007C40.3156 25.2495 40.3807 25.2983 40.3807 25.3633C40.3807 25.4284 40.2993 25.461 40.2993 25.526C40.2993 25.5911 40.2667 25.6236 40.2667 25.6725C40.2667 25.7213 40.4132 25.7863 40.4132 25.8351C40.4132 25.884 40.4132 25.9328 40.4132 25.9978C40.4132 26.0629 40.4458 26.0955 40.4458 26.1605C40.4458 26.2256 40.3481 26.2581 40.3481 26.3069C40.3481 26.3558 40.4132 26.4208 40.4132 26.4696C40.4132 26.5184 40.2341 26.5673 40.2341 26.6161C40.2341 26.6649 40.1853 26.7137 40.1853 26.7625C40.1853 26.8113 40.4295 26.8764 40.4295 26.9252C40.4295 26.974 40.4295 27.0228 40.4295 27.0879C40.4295 27.1529 40.2016 27.1855 40.2016 27.2343C40.2016 27.2831 40.2667 27.3482 40.2667 27.397C40.2667 27.4458 40.2179 27.4946 40.2016 27.5434C40.1853 27.5922 40.1527 27.641 40.1527 27.6898C40.1527 27.7386 40.1364 27.7874 40.1364 27.8525C40.1364 27.9176 40.2993 27.9664 40.283 28.0152C40.2667 28.064 40.1039 28.0965 40.0876 28.1616C40.0713 28.2267 40.169 28.2755 40.169 28.3243C40.169 28.3731 40.2504 28.4382 40.2504 28.487C40.2504 28.5358 40.2179 28.5846 40.2016 28.6334C40.1853 28.6822 40.169 28.731 40.1527 28.7798C40.1365 28.8286 40.283 28.8937 40.2667 28.9425C40.2504 28.9913 40.1853 29.0401 40.1853 29.0889C40.1853 29.1378 40.1853 29.1866 40.169 29.2516C40.1527 29.3167 39.9573 29.333 39.9411 29.3818C39.9248 29.4306 40.169 29.5119 40.169 29.5607C40.169 29.6096 39.9411 29.6421 39.9411 29.6909C39.9411 29.7397 40.169 29.821 40.1527 29.8699C40.1365 29.9187 39.9411 29.9512 39.9248 30C39.9085 30.0488 39.8434 30.0976 39.8434 30.1464C39.8434 30.1952 40.0713 30.2928 40.0713 30.3417C40.0713 30.3905 39.8596 30.423 39.8596 30.4718C39.8596 30.5206 39.8922 30.5857 39.8759 30.6345C39.8596 30.6833 39.9411 30.7484 39.9248 30.7972C39.9085 30.846 39.7782 30.8785 39.7619 30.9273C39.7457 30.9761 39.7294 31.025 39.7294 31.0738C39.7294 31.1226 39.8108 31.1876 39.8108 31.2527C39.8108 31.3178 39.8759 31.3666 39.8759 31.4154C39.8759 31.4642 39.7782 31.4968 39.7619 31.5456C39.7457 31.5944 39.8271 31.6594 39.8108 31.7083C39.7945 31.7571 39.6805 31.7896 39.6805 31.8384C39.6805 31.8872 39.6805 31.936 39.6643 32.0011C39.648 32.0662 39.534 32.0824 39.534 32.1312C39.534 32.18 39.7294 32.2777 39.7131 32.3265C39.6968 32.3753 39.5503 32.3915 39.5503 32.4566C39.5503 32.5217 39.42 32.5217 39.4037 32.5868C39.3874 32.6518 39.4851 32.7169 39.4689 32.7657C39.4526 32.8145 39.3386 32.8308 39.3223 32.8959C39.306 32.961 39.3549 33.0098 39.3386 33.0586C39.3223 33.1074 39.4037 33.1887 39.3875 33.2375C39.3712 33.2863 39.42 33.3514 39.4037 33.4002C39.3874 33.449 39.1921 33.449 39.1758 33.4978C39.1595 33.5466 39.306 33.6443 39.2898 33.6931C39.2735 33.7419 39.306 33.8069 39.2898 33.8558C39.2735 33.9046 39.1107 33.9046 39.0944 33.9534C39.0781 34.0022 39.2083 34.0998 39.1921 34.1486C39.1758 34.1974 38.9478 34.1811 38.9478 34.2299C38.9478 34.2787 39.0944 34.3926 39.0781 34.4414C39.0618 34.4902 38.9478 34.5065 38.9315 34.5553C38.9153 34.6041 38.8013 34.6204 38.785 34.6692C38.7687 34.718 38.9478 34.8482 38.9315 34.897C38.9153 34.9458 38.7687 34.9458 38.7524 34.9946C38.7362 35.0434 38.8338 35.141 38.8176 35.1898C38.8013 35.2386 38.7687 35.2874 38.7524 35.3362C38.7362 35.385 38.7199 35.4338 38.7036 35.4827C38.6873 35.5315 38.6222 35.564 38.6059 35.6128C38.5896 35.6616 38.6059 35.7267 38.5896 35.7755C38.5733 35.8243 38.4105 35.808 38.3942 35.8568C38.3779 35.9056 38.4268 35.987 38.4105 36.0358C38.3942 36.0846 38.4268 36.166 38.4105 36.2148C38.3942 36.2636 38.2314 36.2473 38.2151 36.2961C38.1988 36.3449 38.2965 36.4588 38.2802 36.4913" fill="white"/>
</svg>
