<svg width="42" height="42" viewBox="0 0 42 42" fill="none" xmlns="http://www.w3.org/2000/svg">
<path d="M20.9619 0.181872C20.9162 0.181872 20.8704 0.181872 20.8094 0.181872C20.7485 0.181872 20.718 0.0139902 20.657 0.0139902C20.596 0.0139902 20.5655 0.0419705 20.5045 0.0419705C20.4436 0.0419705 20.4131 0.167882 20.3673 0.167882C20.3216 0.167882 20.2759 0.0839409 20.2149 0.0839409C20.1539 0.0839409 20.1234 0.181872 20.0624 0.181872C20.0015 0.181872 19.9557 0 19.91 0C19.8643 0 19.8185 0.111921 19.7728 0.111921C19.727 0.111921 19.6813 0.111921 19.6203 0.111921C19.5593 0.111921 19.5289 0.139902 19.4679 0.139902C19.4069 0.139902 19.3612 0.0139902 19.3154 0.0139902C19.2697 0.0139902 19.224 0.223843 19.1782 0.223843C19.1325 0.223843 19.0715 0.0979311 19.0258 0.0979311C18.98 0.0979311 18.9343 0.209852 18.8886 0.209852C18.8428 0.209852 18.7819 0.0419705 18.7361 0.0419705C18.6904 0.0419705 18.6294 0 18.5837 0C18.5379 0 18.4922 0.125911 18.4465 0.125911C18.4007 0.125911 18.3397 0.0559606 18.294 0.0559606C18.2483 0.0559606 18.1873 0.279803 18.1416 0.293793C18.0958 0.307783 18.0348 0.223843 17.9891 0.223843C17.9434 0.223843 17.8976 0.293793 17.8519 0.293793C17.8062 0.293793 17.7452 0.167882 17.6995 0.167882C17.6537 0.167882 17.608 0.321774 17.5623 0.321774C17.5165 0.321774 17.4708 0.349754 17.425 0.349754C17.3793 0.349754 17.3031 0.195862 17.2574 0.209852C17.2116 0.223843 17.1659 0.307783 17.1201 0.307783C17.0744 0.307783 17.0134 0.209852 16.9677 0.209852C16.922 0.209852 16.8915 0.377734 16.8457 0.391724C16.8 0.405715 16.7238 0.251823 16.678 0.251823C16.6323 0.251823 16.5866 0.377734 16.5408 0.377734C16.4951 0.377734 16.4494 0.461675 16.4036 0.461675C16.3579 0.461675 16.2817 0.279803 16.2359 0.279803C16.1902 0.279803 16.1445 0.391724 16.0987 0.391724C16.053 0.391724 16.0073 0.433695 15.9615 0.447685C15.9158 0.461675 15.8701 0.475665 15.8243 0.475665C15.7786 0.475665 15.7176 0.405715 15.6719 0.419705C15.6261 0.433695 15.5804 0.447685 15.5347 0.447685C15.4889 0.447685 15.4432 0.503646 15.3975 0.517636C15.3517 0.531626 15.306 0.573596 15.2603 0.573596C15.2145 0.573596 15.1383 0.517636 15.0926 0.531626L14.9401 0.559606C14.8944 0.573596 14.8639 0.699508 14.8181 0.713498C14.7724 0.727488 14.6962 0.629557 14.6505 0.629557C14.6047 0.629557 14.559 0.657537 14.5132 0.671527C14.4675 0.685518 14.437 0.741478 14.3913 0.755468C14.3456 0.769459 14.2693 0.629557 14.2083 0.643547C14.1474 0.657537 14.1474 0.825419 14.1016 0.839409C14.0559 0.8534 13.9949 0.825419 13.9492 0.825419C13.9034 0.825419 13.812 0.685518 13.7662 0.699508C13.7205 0.713498 13.7053 0.839409 13.6595 0.8534C13.6138 0.86739 13.5528 0.839409 13.5071 0.8534C13.4613 0.86739 13.4156 0.8534 13.3546 0.86739C13.2936 0.88138 13.2479 0.825419 13.2022 0.839409C13.1564 0.8534 13.1564 1.04926 13.1107 1.06325C13.065 1.07724 13.004 1.03527 12.9583 1.04926C12.9125 1.06325 12.8515 1.04926 12.8058 1.06325C12.7601 1.07724 12.6991 0.993301 12.6381 1.00729C12.5771 1.02128 12.5619 1.09123 12.5162 1.09123C12.4704 1.09123 12.4704 1.24512 12.4094 1.25911C12.3485 1.2731 12.257 1.11921 12.2113 1.1332C12.1655 1.14719 12.1503 1.24512 12.1045 1.25911C12.0588 1.2731 12.0436 1.32906 11.9978 1.34306L11.8606 1.38503C11.8149 1.39902 11.7539 1.38503 11.7082 1.39902C11.6624 1.41301 11.5557 1.30108 11.5252 1.31507L11.388 1.35705C11.3423 1.37104 11.2813 1.37104 11.2508 1.38503C11.2203 1.39902 11.2051 1.52493 11.1593 1.53892C11.1136 1.55291 11.0374 1.51094 10.9917 1.52493C10.9459 1.53892 10.9459 1.67882 10.9002 1.69281C10.8544 1.7068 10.824 1.74877 10.7782 1.76276C10.7325 1.77675 10.6105 1.62286 10.5648 1.63685C10.5191 1.65084 10.4886 1.69281 10.4428 1.7068C10.3971 1.72079 10.3514 1.74877 10.3209 1.77675C10.2904 1.80473 10.2599 1.94463 10.2142 1.97261C10.1684 2.00059 10.1227 1.9866 10.077 2.01458C10.0312 2.04256 9.93975 1.97261 9.90926 1.9866C9.87877 2.00059 9.84828 2.08453 9.80254 2.09852C9.75681 2.11251 9.75681 2.21044 9.71107 2.22444C9.66534 2.23843 9.57387 2.15448 9.52813 2.18246C9.4824 2.21044 9.40617 2.16847 9.36044 2.18246C9.3147 2.19645 9.32995 2.33636 9.28421 2.35035C9.23848 2.36434 9.20799 2.4203 9.16225 2.43429C9.11652 2.44828 9.08603 2.49025 9.04029 2.51823C8.99456 2.54621 8.93358 2.51823 8.88784 2.54621C8.84211 2.57419 8.82686 2.63015 8.78113 2.65813C8.73539 2.68611 8.68966 2.7001 8.65917 2.71409C8.62868 2.72808 8.52196 2.68611 8.49147 2.71409C8.46098 2.74207 8.4 2.75606 8.35427 2.77005C8.30853 2.78404 8.27804 2.82601 8.23231 2.85399C8.18657 2.88197 8.0951 2.81202 8.04937 2.84C8.00363 2.86798 7.97314 2.89596 7.92741 2.92394C7.88167 2.95192 7.86643 3.00788 7.83594 3.03586C7.80545 3.06384 7.71398 3.03586 7.66824 3.06384C7.62251 3.09182 7.69873 3.25971 7.653 3.28769C7.60726 3.31567 7.50055 3.24572 7.47006 3.2737C7.43957 3.30168 7.3481 3.2737 7.30236 3.30168C7.25663 3.32966 7.24138 3.37163 7.19564 3.39961C7.14991 3.42759 7.21089 3.56749 7.16515 3.59547C7.11942 3.62345 7.10418 3.67941 7.07369 3.70739C7.0432 3.73537 6.93648 3.6934 6.89074 3.70739C6.84501 3.72138 6.78403 3.73537 6.75354 3.76335C6.72305 3.79133 6.69256 3.8333 6.64682 3.86128C6.60109 3.88926 6.64682 4.01517 6.61633 4.04316C6.58584 4.07114 6.55536 4.11311 6.50962 4.14109C6.46388 4.16907 6.31143 4.07114 6.2657 4.09912C6.21996 4.1271 6.28094 4.25301 6.23521 4.28099L6.12849 4.36493C6.098 4.39291 5.9608 4.32296 5.91506 4.35094C5.88457 4.37892 5.91506 4.49084 5.88457 4.51882C5.85408 4.5468 5.77786 4.5468 5.74737 4.57478C5.71688 4.60276 5.62541 4.58877 5.59492 4.61675C5.56443 4.64473 5.50345 4.67271 5.47296 4.70069C5.44247 4.72867 5.53394 4.88256 5.50345 4.91054C5.47296 4.93853 5.33575 4.88256 5.30526 4.91054C5.27477 4.93853 5.21379 4.95252 5.1833 4.99449C5.15281 5.03646 5.12232 5.06444 5.09183 5.10641C5.06134 5.14838 5.03085 5.17636 5.00036 5.21833C4.96987 5.2603 5.00036 5.34424 4.96987 5.38621C4.93938 5.41419 4.8784 5.42818 4.84791 5.47015C4.81742 5.49813 4.77169 5.52611 4.7412 5.55409C4.71071 5.58207 4.7412 5.68 4.71071 5.70798C4.68022 5.73596 4.63448 5.76394 4.60399 5.79192C4.5735 5.8199 4.51252 5.8339 4.48203 5.87587C4.45154 5.91784 4.46679 5.9738 4.4363 6.01577C4.40581 6.05774 4.28385 6.01577 4.25336 6.05774C4.22287 6.09971 4.25336 6.16966 4.22287 6.19764C4.19238 6.22562 4.25336 6.33754 4.23811 6.36552C4.22287 6.3935 4.02468 6.32355 3.99419 6.36552C3.9637 6.40749 4.02468 6.49143 3.99419 6.5334C3.9637 6.57537 3.99419 6.64532 3.97895 6.68729C3.9637 6.72927 3.91797 6.75725 3.88748 6.79922C3.85699 6.84119 3.81125 6.85518 3.78076 6.89715C3.75027 6.93912 3.62831 6.91114 3.59782 6.95311C3.56733 6.99508 3.67405 7.09301 3.64356 7.13498C3.61307 7.17695 3.43013 7.107 3.39964 7.14897C3.36915 7.19094 3.41488 7.26089 3.38439 7.30286C3.3539 7.34483 3.27768 7.34483 3.24719 7.3868C3.2167 7.42877 3.33866 7.54069 3.32341 7.58266C3.30817 7.62463 3.2167 7.56867 3.20145 7.61064C3.18621 7.65262 3.07949 7.65262 3.049 7.69459C3.01851 7.73656 3.049 7.79252 3.01851 7.83449C2.98802 7.87646 3.01851 7.93242 2.98802 7.97439C2.95753 8.01636 2.97278 8.05833 2.94229 8.1003C2.9118 8.14227 2.78984 8.12828 2.77459 8.17025C2.75935 8.21222 2.7441 8.25419 2.72886 8.29616C2.71361 8.33813 2.78984 8.42207 2.75935 8.46404C2.72886 8.50601 2.72886 8.54799 2.69837 8.58996C2.66788 8.63193 2.48494 8.60395 2.46969 8.63193C2.45445 8.65991 2.59165 8.78582 2.57641 8.82779C2.56116 8.86976 2.4392 8.86976 2.40871 8.91173C2.37822 8.9537 2.34773 8.98168 2.33249 9.02365C2.31724 9.06562 2.42396 9.16355 2.40871 9.20552C2.39347 9.24749 2.25626 9.2335 2.22577 9.27547C2.19528 9.31744 2.19528 9.35941 2.18004 9.40139C2.16479 9.44336 2.28675 9.54129 2.25626 9.58326C2.22577 9.62523 2.02759 9.59725 2.01234 9.63922C1.9971 9.68119 2.19528 9.8071 2.16479 9.84907C2.1343 9.89104 2.08857 9.91902 2.05808 9.96099C2.02759 10.003 1.93612 10.017 1.92087 10.0589C1.90563 10.1009 1.95136 10.1708 1.93612 10.2128C1.92087 10.2548 1.84465 10.2828 1.8294 10.3247C1.81416 10.3667 1.70744 10.3807 1.6922 10.4227C1.67695 10.4646 1.6922 10.4646 1.67695 10.5066C1.66171 10.5486 1.70744 10.6045 1.6922 10.6465C1.67695 10.6885 1.63122 10.7305 1.61597 10.7724C1.60073 10.8144 1.64646 10.8843 1.63122 10.9263C1.61597 10.9683 1.44828 10.9683 1.43303 11.0103C1.41779 11.0522 1.49401 11.1222 1.47877 11.1641C1.46352 11.2061 1.3873 11.2201 1.37205 11.2621C1.35681 11.304 1.5245 11.402 1.50926 11.4439C1.49401 11.4859 1.32632 11.4859 1.31107 11.5279C1.29583 11.5699 1.23485 11.5978 1.2196 11.6398C1.20436 11.6818 1.41779 11.7797 1.40254 11.8217C1.3873 11.8637 1.32632 11.9056 1.31107 11.9476C1.29583 11.9896 1.34156 12.0455 1.32632 12.0875C1.31107 12.1295 1.2196 12.1435 1.20436 12.1994C1.18911 12.2554 1.03666 12.2554 1.02142 12.2973C1.00617 12.3393 1.18911 12.4233 1.17387 12.4652C1.15862 12.5072 1.15862 12.5492 1.14338 12.5911C1.12813 12.6331 1.09764 12.6751 1.09764 12.7171C1.09764 12.759 0.884211 12.759 0.868966 12.801C0.853721 12.843 1.00617 12.9269 0.990926 12.9689C0.975681 13.0108 0.990926 13.0668 0.990926 13.1088C0.990926 13.1507 0.990926 13.2067 0.990926 13.2487C0.990926 13.2906 0.945191 13.3326 0.929946 13.3746C0.914701 13.4166 0.868966 13.4585 0.853721 13.5005C0.838476 13.5425 0.838476 13.5844 0.838476 13.6264C0.838476 13.6684 0.914701 13.7383 0.914701 13.7803C0.914701 13.8223 0.853721 13.8642 0.838476 13.9062L0.807986 14.0321C0.792741 14.0741 0.57931 14.0881 0.57931 14.1301C0.57931 14.172 0.70127 14.242 0.686025 14.2839C0.67078 14.3259 0.686026 14.3819 0.67078 14.4239C0.655535 14.4658 0.564065 14.4938 0.564065 14.5498C0.564065 14.6057 0.64029 14.6477 0.625045 14.6897C0.6098 14.7316 0.48784 14.7596 0.48784 14.8016C0.48784 14.8436 0.472595 14.8855 0.45735 14.9275C0.442105 14.9695 0.564065 15.0394 0.54882 15.0814C0.533575 15.1234 0.442105 15.1513 0.442105 15.2073C0.442105 15.2633 0.51833 15.3052 0.51833 15.3472C0.51833 15.3892 0.36588 15.4172 0.36588 15.4591C0.36588 15.5011 0.564065 15.571 0.564065 15.613C0.564065 15.655 0.33539 15.683 0.33539 15.7249C0.33539 15.7669 0.503085 15.8369 0.48784 15.8788C0.472595 15.9208 0.320145 15.9488 0.320145 15.9907C0.320145 16.0327 0.45735 16.1027 0.442105 16.1446C0.42686 16.1866 0.27441 16.2146 0.27441 16.2566C0.27441 16.2985 0.411615 16.3545 0.411615 16.4105C0.411615 16.4664 0.259165 16.4804 0.259165 16.5364C0.259165 16.5923 0.39637 16.6343 0.39637 16.6763C0.39637 16.7182 0.198185 16.7462 0.198185 16.7882C0.198185 16.8302 0.350635 16.8861 0.33539 16.9421C0.320145 16.998 0.289655 17.026 0.289655 17.068C0.289655 17.11 0.228675 17.1519 0.228675 17.1939C0.228675 17.2359 0.36588 17.2918 0.36588 17.3338C0.36588 17.3758 0.18294 17.4177 0.18294 17.4597C0.18294 17.5017 0.33539 17.5576 0.33539 17.5996C0.33539 17.6416 0.21343 17.6836 0.21343 17.7255C0.21343 17.7675 0.137205 17.8095 0.137205 17.8514C0.137205 17.8934 0.198185 17.9494 0.198185 17.9913C0.198185 18.0333 0.33539 18.0893 0.320145 18.1312C0.3049 18.1732 0.24392 18.2152 0.24392 18.2572C0.24392 18.2991 0.228675 18.3411 0.228675 18.3971C0.228675 18.453 0.228675 18.481 0.228675 18.537C0.228675 18.5929 0.167695 18.6209 0.167695 18.6629C0.167695 18.7048 0.0914701 18.7468 0.0914701 18.7888C0.0914701 18.8308 0.259165 18.8867 0.259165 18.9287C0.259165 18.9707 0.06098 19.0126 0.06098 19.0546C0.06098 19.0966 0.27441 19.1525 0.27441 19.1945C0.27441 19.2365 0.15245 19.2784 0.15245 19.3204C0.15245 19.3624 0 19.4323 0 19.4743C0 19.5163 0.167695 19.5722 0.167695 19.6142C0.167695 19.6562 0.21343 19.6981 0.21343 19.7541C0.21343 19.8101 0.045735 19.838 0.045735 19.88C0.045735 19.922 0.106715 19.964 0.106715 20.0199C0.106715 20.0759 0.228675 20.1178 0.228675 20.1598C0.228675 20.2018 0.198185 20.2438 0.198185 20.2997C0.198185 20.3557 0.03049 20.3837 0.03049 20.4396C0.03049 20.4956 0.045735 20.5236 0.045735 20.5795C0.045735 20.6355 0.06098 20.6635 0.06098 20.7194C0.06098 20.7754 0.015245 20.8034 0.015245 20.8593C0.015245 20.9153 0.15245 20.9433 0.15245 20.9992C0.15245 21.0552 0.18294 21.0832 0.18294 21.1391C0.18294 21.1951 0 21.2371 0 21.279C0 21.321 0.106715 21.363 0.106715 21.4049C0.106715 21.4469 0.076225 21.4889 0.076225 21.5448C0.076225 21.6008 0.15245 21.6288 0.15245 21.6847C0.15245 21.7407 0.259165 21.7687 0.259165 21.8107C0.259165 21.8526 0.18294 21.9086 0.18294 21.9506C0.18294 21.9925 0.18294 22.0345 0.18294 22.0905C0.18294 22.1464 0.259165 22.1744 0.259165 22.2164C0.259165 22.2583 0.167695 22.3143 0.167695 22.3563C0.167695 22.3982 0.106715 22.4542 0.106715 22.4962C0.106715 22.5381 0.198185 22.5801 0.21343 22.6221C0.228675 22.6641 0.106715 22.72 0.106715 22.762C0.106715 22.804 0.18294 22.8459 0.18294 22.8879C0.18294 22.9299 0.076225 22.9858 0.076225 23.0278C0.076225 23.0698 0.228675 23.1117 0.228675 23.1537C0.228675 23.1957 0.167695 23.2516 0.167695 23.2936C0.167695 23.3356 0.198185 23.3776 0.198185 23.4335C0.198185 23.4895 0.259165 23.5175 0.27441 23.5594C0.289655 23.6014 0.167695 23.6574 0.18294 23.6993C0.198185 23.7413 0.33539 23.7833 0.33539 23.8252C0.33539 23.8672 0.350635 23.9092 0.36588 23.9511C0.381125 23.9931 0.289655 24.0491 0.289655 24.0911C0.289655 24.133 0.381125 24.175 0.381125 24.217C0.381125 24.2589 0.228675 24.3149 0.24392 24.3569C0.259165 24.3988 0.18294 24.4548 0.18294 24.4968C0.18294 24.5387 0.21343 24.5807 0.228675 24.6367C0.24392 24.6926 0.228675 24.7206 0.228675 24.7766C0.228675 24.8325 0.320145 24.8605 0.33539 24.9025C0.350635 24.9444 0.411615 24.9864 0.411615 25.0284C0.411615 25.0704 0.381125 25.1263 0.381125 25.1683C0.381125 25.2103 0.51833 25.2382 0.533575 25.2942C0.54882 25.3502 0.442105 25.3921 0.45735 25.4341C0.472595 25.4761 0.36588 25.4621 0.36588 25.5041C0.36588 25.546 0.54882 25.574 0.54882 25.616C0.54882 25.6579 0.54882 25.6999 0.54882 25.7559C0.54882 25.8118 0.594555 25.8398 0.594555 25.8818C0.594555 25.9238 0.533575 25.9797 0.533575 26.0217C0.533575 26.0637 0.564065 26.1056 0.57931 26.1476C0.594555 26.1896 0.594555 26.2315 0.594555 26.2875C0.594555 26.3435 0.6098 26.3714 0.625045 26.4134C0.64029 26.4554 0.594555 26.5113 0.6098 26.5533C0.625045 26.5953 0.716515 26.6233 0.731761 26.6792C0.747006 26.7352 0.625045 26.7912 0.64029 26.8331C0.655535 26.8751 0.57931 26.9311 0.594555 26.973L0.625045 27.0989C0.64029 27.1409 0.823231 27.1549 0.838476 27.1969C0.853721 27.2388 0.929946 27.2668 0.945191 27.3228C0.960436 27.3787 0.747006 27.4487 0.762251 27.4907C0.777496 27.5326 0.823231 27.5746 0.838476 27.6166C0.853721 27.6585 0.853721 27.7005 0.853721 27.7565C0.853721 27.8124 0.823231 27.8544 0.838476 27.8964C0.853721 27.9383 0.838476 27.9803 0.853721 28.0363C0.868966 28.0922 1.06715 28.0922 1.0824 28.1342C1.09764 28.1762 1.06715 28.2321 1.0824 28.2741C1.09764 28.3161 1.05191 28.372 1.05191 28.414C1.05191 28.456 0.960436 28.5259 0.975681 28.5679C0.990926 28.6099 1.12813 28.6239 1.14338 28.6658C1.15862 28.7078 1.09764 28.7638 1.11289 28.8057C1.12813 28.8477 1.15862 28.8897 1.15862 28.9316C1.15862 28.9736 1.23485 29.0016 1.25009 29.0436C1.26534 29.0855 1.17387 29.1555 1.18911 29.1975C1.20436 29.2394 1.18911 29.2954 1.20436 29.3374C1.2196 29.3793 1.44828 29.3653 1.46352 29.4073C1.47877 29.4493 1.46352 29.5052 1.46352 29.5472C1.46352 29.5892 1.49401 29.6312 1.50926 29.6731C1.5245 29.7151 1.35681 29.813 1.37205 29.855C1.3873 29.897 1.5245 29.911 1.53975 29.9529C1.55499 29.9949 1.53975 30.0509 1.55499 30.0928C1.57024 30.1348 1.61597 30.1768 1.63122 30.2187C1.64646 30.2607 1.53975 30.3447 1.55499 30.3866C1.57024 30.4286 1.60073 30.4706 1.61597 30.5125C1.63122 30.5545 1.6922 30.5825 1.72269 30.6245C1.75318 30.6664 1.87514 30.6664 1.89038 30.7084C1.90563 30.7504 1.90563 30.7923 1.92087 30.8343C1.93612 30.8763 1.79891 30.9742 1.81416 31.0162C1.8294 31.0581 1.81416 31.1141 1.8294 31.1561C1.84465 31.1981 1.98185 31.198 1.9971 31.24C2.01234 31.282 1.89038 31.3659 1.92087 31.4079C1.95136 31.4499 2.05808 31.4639 2.07332 31.4918C2.08857 31.5198 2.22577 31.5338 2.24102 31.5758C2.25626 31.6178 2.27151 31.6597 2.28675 31.7017C2.302 31.7437 2.24102 31.8136 2.27151 31.8556C2.302 31.8976 2.28675 31.9535 2.302 31.9955C2.31724 32.0375 2.33249 32.0794 2.36298 32.1214C2.39347 32.1634 2.4392 32.1914 2.46969 32.2333C2.50018 32.2753 2.39347 32.3592 2.42396 32.4012C2.45445 32.4432 2.56116 32.4432 2.57641 32.4851C2.59165 32.5271 2.69837 32.5271 2.71361 32.5691C2.72886 32.6111 2.77459 32.639 2.78984 32.681C2.80508 32.723 2.69837 32.8209 2.71361 32.8629C2.72886 32.9049 2.75935 32.9468 2.77459 32.9888C2.78984 33.0308 2.98802 32.9888 3.00327 33.0308C3.01851 33.0727 2.82033 33.2126 2.85082 33.2546C2.88131 33.2966 2.92704 33.3246 2.95753 33.3525C2.98802 33.3805 3.049 33.4085 3.06425 33.4505C3.07949 33.4924 3.049 33.5624 3.07949 33.6044C3.10998 33.6463 3.14047 33.6743 3.15572 33.7163C3.17096 33.7582 3.18621 33.8002 3.2167 33.8422C3.24719 33.8842 3.33866 33.8702 3.36915 33.9121C3.39964 33.9541 3.47586 33.9681 3.49111 33.9961C3.50635 34.0241 3.50635 34.094 3.53684 34.136C3.56733 34.178 3.53684 34.2479 3.56733 34.2759C3.59782 34.3039 3.59782 34.3598 3.62831 34.4018C3.6588 34.4438 3.67405 34.4857 3.70454 34.5277C3.73503 34.5697 3.90272 34.5137 3.93321 34.5557C3.9637 34.5977 4.00944 34.6256 4.02468 34.6536C4.03993 34.6816 3.93321 34.8215 3.9637 34.8635C3.99419 34.9054 4.10091 34.8775 4.1314 34.9194C4.16189 34.9614 4.23811 34.9614 4.2686 34.9894C4.29909 35.0174 4.32958 35.0593 4.34483 35.1013C4.36007 35.1433 4.34483 35.2132 4.37532 35.2412C4.40581 35.2692 4.42105 35.3251 4.45154 35.3671C4.48203 35.4091 4.5735 35.3951 4.60399 35.4231C4.63448 35.4511 4.63448 35.521 4.66497 35.549C4.69546 35.577 4.69546 35.6469 4.72595 35.6749C4.75644 35.7029 4.7412 35.7868 4.77169 35.8148C4.80218 35.8428 4.90889 35.8288 4.93938 35.8568C4.96987 35.8848 5.0461 35.8848 5.07659 35.9267C5.10708 35.9687 5.15281 35.9827 5.1833 36.0107C5.21379 36.0386 5.10708 36.1925 5.13757 36.2205C5.16806 36.2485 5.24428 36.2625 5.27477 36.2905C5.30526 36.3184 5.45771 36.2625 5.4882 36.2905C5.51869 36.3184 5.44247 36.4584 5.47296 36.4863C5.50345 36.5143 5.64065 36.4584 5.67114 36.4863C5.70163 36.5143 5.71688 36.5703 5.74737 36.6122C5.77786 36.6542 5.76261 36.7242 5.7931 36.7521C5.82359 36.7801 5.97604 36.7102 6.00653 36.7382C6.03702 36.7661 5.89982 36.976 5.94555 37.004C5.97604 37.0319 6.02178 37.0599 6.06751 37.0879C6.098 37.1159 6.12849 37.1579 6.15898 37.1858C6.18947 37.2138 6.37241 37.1019 6.4029 37.1299C6.43339 37.1579 6.41815 37.2558 6.44864 37.2838C6.47913 37.3117 6.61633 37.2418 6.64682 37.2698C6.67731 37.2978 6.60109 37.4656 6.63158 37.4936C6.66207 37.5216 6.84501 37.3957 6.8755 37.4237C6.90599 37.4516 6.82976 37.6195 6.86025 37.6475C6.89074 37.6755 7.0432 37.5776 7.08893 37.5916C7.13467 37.6055 7.02795 37.8154 7.05844 37.8434C7.08893 37.8714 7.16515 37.8574 7.21089 37.8853C7.25662 37.9133 7.36334 37.8434 7.39383 37.8714C7.42432 37.8993 7.50055 37.8714 7.54628 37.8993C7.59201 37.9273 7.51579 38.0952 7.56152 38.1232C7.60726 38.1512 7.74447 38.0532 7.77496 38.0672C7.80545 38.0812 7.82069 38.1791 7.85118 38.1931C7.88167 38.2071 7.85118 38.347 7.89692 38.375C7.94265 38.403 8.0951 38.2631 8.14084 38.2771C8.18657 38.2911 8.24755 38.2911 8.27804 38.319C8.30853 38.347 8.24755 38.5429 8.27804 38.5569C8.30853 38.5709 8.43049 38.5009 8.47623 38.5289C8.52196 38.5569 8.47623 38.7108 8.52196 38.7248C8.5677 38.7387 8.64392 38.7248 8.67441 38.7527C8.7049 38.7807 8.75064 38.8227 8.79637 38.8367C8.84211 38.8507 8.99456 38.6968 9.04029 38.7248C9.08603 38.7527 9.07078 38.8647 9.11652 38.8786C9.16225 38.8926 9.23848 38.8647 9.28421 38.8786C9.32995 38.8926 9.29946 39.0465 9.34519 39.0745C9.39093 39.1025 9.51289 38.9766 9.54338 39.0046C9.57387 39.0325 9.57387 39.1585 9.60436 39.1724C9.63485 39.1864 9.75681 39.0885 9.80254 39.1025C9.84828 39.1165 9.81779 39.2704 9.86352 39.2844L10.0007 39.3403C10.0465 39.3543 10.1684 39.2284 10.2142 39.2424C10.2599 39.2564 10.2294 39.4243 10.2751 39.4522C10.3209 39.4802 10.4276 39.3683 10.4581 39.3823C10.4886 39.3963 10.5495 39.3963 10.5953 39.4103C10.641 39.4243 10.6258 39.5642 10.6715 39.5782C10.7172 39.5921 10.7782 39.5782 10.824 39.5921L10.9612 39.6341C11.0069 39.6481 11.0831 39.5921 11.1289 39.6061C11.1746 39.6201 11.1593 39.788 11.2051 39.802C11.2508 39.816 11.3118 39.788 11.3575 39.802C11.4033 39.816 11.4795 39.774 11.5252 39.788C11.571 39.802 11.5862 39.8719 11.6472 39.8999C11.7082 39.9279 11.7691 39.8719 11.7996 39.8859C11.8301 39.8999 11.8606 39.9979 11.9064 40.0118C11.9521 40.0258 11.9978 40.0258 12.0436 40.0398C12.0893 40.0538 12.135 40.0538 12.1808 40.0678C12.2265 40.0818 12.257 40.1378 12.3027 40.1517C12.3485 40.1657 12.4399 40.0538 12.4857 40.0678C12.5314 40.0818 12.5924 40.0678 12.6381 40.0818C12.6838 40.0958 12.6838 40.2777 12.7296 40.2917C12.7753 40.3056 12.8515 40.2217 12.8973 40.2217C12.943 40.2217 13.0192 40.1238 13.0802 40.1378C13.1412 40.1517 13.1412 40.2917 13.1869 40.2917C13.2327 40.2917 13.3241 40.1797 13.3699 40.1937C13.4156 40.2077 13.4309 40.3196 13.4918 40.3196L13.629 40.3476C13.6748 40.3616 13.7205 40.4036 13.7662 40.4176C13.812 40.4315 13.8882 40.3616 13.9339 40.3756C13.9797 40.3896 13.9797 40.5575 14.0407 40.5715C14.1016 40.5854 14.1931 40.3896 14.2388 40.3896C14.2846 40.3896 14.2998 40.5575 14.3456 40.5575C14.3913 40.5575 14.4523 40.5155 14.498 40.5295C14.5437 40.5435 14.6047 40.4875 14.6505 40.4875C14.6962 40.4875 14.7419 40.4875 14.8029 40.5015C14.8639 40.5155 14.8486 40.7253 14.8944 40.7393C14.9401 40.7533 15.0316 40.5435 15.0773 40.5435C15.1231 40.5435 15.1535 40.6414 15.1993 40.6554C15.245 40.6694 15.2907 40.6974 15.3365 40.7114C15.3822 40.7253 15.428 40.7393 15.4737 40.7533C15.5194 40.7673 15.5652 40.8093 15.6109 40.8233C15.6566 40.8373 15.7024 40.8513 15.7481 40.8652C15.7938 40.8792 15.8853 40.6694 15.931 40.6834C15.9768 40.6974 16.0225 40.7673 16.0682 40.7673C16.114 40.7673 16.1445 40.9072 16.1902 40.9072C16.2359 40.9072 16.3122 40.7673 16.3579 40.7673C16.4036 40.7673 16.4494 40.8373 16.4951 40.8513C16.5408 40.8652 16.5866 40.9212 16.6323 40.9212C16.678 40.9212 16.7238 40.9212 16.7848 40.9212C16.8457 40.9212 16.8762 40.9212 16.9372 40.9352C16.9982 40.9492 17.0439 40.9072 17.0897 40.9212C17.1354 40.9352 17.1964 40.8932 17.2421 40.8932C17.2878 40.8932 17.3336 40.9632 17.3793 40.9632C17.425 40.9632 17.4708 41.0891 17.5165 41.0891C17.5623 41.0891 17.608 41.0891 17.669 41.0891C17.7299 41.0891 17.7757 41.0611 17.8214 41.0611C17.8672 41.0611 17.9129 41.0331 17.9739 41.0331C18.0348 41.0331 18.0653 41.1031 18.1111 41.1031C18.1568 41.1031 18.2178 41.0191 18.2635 41.0191C18.3093 41.0191 18.3702 40.9492 18.416 40.9492C18.4617 40.9492 18.5074 41.1031 18.5532 41.1031C18.5989 41.1031 18.6446 41.1311 18.6904 41.1451C18.7361 41.159 18.7971 40.9912 18.8428 40.9912C18.8886 40.9912 18.9343 41.1451 18.98 41.1451C19.0258 41.1451 19.0868 41.0611 19.1325 41.0611C19.1782 41.0611 19.224 41.1171 19.2697 41.1171C19.3154 41.1171 19.3764 41.0611 19.4221 41.0611C19.4679 41.0611 19.5136 41.159 19.5593 41.159C19.6051 41.159 19.6661 41.0051 19.7118 41.0051C19.7575 41.0051 19.8033 41.0191 19.8643 41.0191C19.9252 41.0191 19.9557 41.187 20.0015 41.201C20.0472 41.215 20.1082 41.0331 20.1539 41.0331C20.1996 41.0331 20.2454 41.1451 20.3064 41.1451C20.3673 41.1451 20.3978 41.187 20.4588 41.187C20.5198 41.187 20.5503 41.1451 20.6113 41.1451C20.6722 41.1451 20.7027 41.215 20.7637 41.215C20.8247 41.215 20.8704 41.0751 20.9162 41.0751C20.9619 41.0751 21.0076 41.0611 21.0686 41.0611C21.1296 41.0611 21.1601 41.215 21.2211 41.215C21.282 41.215 21.3125 41.0191 21.3735 41.0051C21.4345 40.9912 21.465 41.0471 21.526 41.0471C21.5869 41.0471 21.6327 41.201 21.6784 41.201C21.7241 41.201 21.7699 41.0471 21.8156 41.0471C21.8613 41.0471 21.9071 41.0331 21.9681 41.0331C22.029 41.0331 22.0748 41.187 22.1205 41.187C22.1662 41.187 22.212 40.9772 22.2577 40.9772C22.3035 40.9772 22.3644 41.159 22.4102 41.159C22.4559 41.159 22.5016 41.1451 22.5626 41.1311C22.6236 41.1171 22.6693 41.173 22.7151 41.173C22.7608 41.173 22.8065 40.9352 22.8523 40.9352C22.898 40.9352 22.959 41.0611 23.0047 41.0611C23.0505 41.0611 23.0962 41.0331 23.1572 41.0331C23.2181 41.0331 23.2639 41.1451 23.3096 41.1451C23.3554 41.1451 23.4011 40.9492 23.4468 40.9492C23.4926 40.9492 23.5535 41.0611 23.5993 41.0611C23.645 41.0611 23.706 41.1451 23.7517 41.1451C23.7975 41.1451 23.8432 41.0191 23.8889 41.0191C23.9347 41.0191 23.9804 40.9632 24.0261 40.9632C24.0719 40.9632 24.1329 41.0331 24.1786 41.0331C24.2243 41.0331 24.2701 41.0331 24.331 41.0331C24.392 41.0331 24.4225 40.9072 24.4682 40.9072C24.514 40.9072 24.575 41.0191 24.6207 41.0191C24.6664 41.0191 24.7122 41.0051 24.7579 40.9912C24.8036 40.9772 24.8646 41.0471 24.9103 41.0471C24.9561 41.0471 24.9866 40.9072 25.0476 40.8932C25.1085 40.8792 25.139 40.8652 25.1848 40.8652C25.2305 40.8652 25.3067 40.9912 25.3525 40.9912C25.3982 40.9912 25.4439 40.9772 25.4897 40.9632C25.5354 40.9492 25.5811 40.8652 25.6269 40.8652L25.7641 40.8513C25.8098 40.8513 25.8555 40.7953 25.9013 40.7813C25.947 40.7673 26.008 40.8093 26.0537 40.7953C26.0995 40.7813 26.1452 40.7533 26.1909 40.7393C26.2367 40.7253 26.2976 40.7813 26.3434 40.7813C26.3891 40.7813 26.4501 40.8093 26.4958 40.8093C26.5416 40.8093 26.5873 40.7673 26.633 40.7533C26.6788 40.7393 26.7397 40.7813 26.7855 40.7813C26.8312 40.7813 26.877 40.6974 26.9227 40.6834C26.9684 40.6694 27.0142 40.6694 27.0599 40.6554C27.1056 40.6414 27.1514 40.6134 27.1971 40.5994C27.2428 40.5854 27.2886 40.5435 27.3343 40.5435C27.38 40.5435 27.4258 40.5155 27.4715 40.5015C27.5172 40.4875 27.5782 40.5155 27.624 40.5155C27.6697 40.5155 27.7612 40.6554 27.8069 40.6554C27.8526 40.6554 27.8526 40.4176 27.8984 40.4036C27.9441 40.3896 28.0356 40.5295 28.0813 40.5155C28.127 40.5015 28.1575 40.4036 28.2033 40.4036C28.249 40.4036 28.3405 40.5435 28.3862 40.5295L28.5234 40.5015C28.5692 40.4875 28.5996 40.4176 28.6454 40.4176C28.6911 40.4176 28.7064 40.2777 28.7521 40.2777C28.7978 40.2777 28.8436 40.2217 28.8893 40.2217C28.935 40.2217 28.996 40.2357 29.0417 40.2217C29.0875 40.2077 29.1332 40.1797 29.1789 40.1657C29.2247 40.1518 29.2552 40.1098 29.3162 40.0958C29.3771 40.0818 29.4534 40.2077 29.4991 40.1937L29.6363 40.1517C29.682 40.1378 29.7125 40.0538 29.7583 40.0398C29.804 40.0258 29.8955 40.1517 29.9412 40.1378C29.9869 40.1238 30.0174 40.0538 30.0632 40.0398C30.1089 40.0258 30.0937 39.844 30.1394 39.83C30.1851 39.816 30.2309 39.83 30.2918 39.816C30.3528 39.802 30.4443 39.9279 30.49 39.9139C30.5358 39.8999 30.5358 39.76 30.5815 39.746C30.6272 39.732 30.673 39.7041 30.7187 39.6901C30.7644 39.6761 30.8254 39.6761 30.8711 39.6621L31.0084 39.6061C31.0541 39.5921 31.1151 39.6201 31.1608 39.6061C31.2065 39.5921 31.2218 39.5082 31.2675 39.4942C31.3133 39.4802 31.3895 39.5082 31.4352 39.4942C31.4809 39.4802 31.5724 39.5642 31.6182 39.5502C31.6639 39.5362 31.6944 39.4942 31.7401 39.4802C31.7858 39.4662 31.8163 39.4243 31.8621 39.4103C31.9078 39.3963 31.9688 39.4103 32.0145 39.3963C32.0603 39.3823 32.0603 39.2704 32.106 39.2564C32.1517 39.2424 32.1822 39.2004 32.228 39.1864C32.2737 39.1724 32.3194 39.1445 32.3499 39.1165C32.3804 39.0885 32.4261 39.0465 32.4719 39.0325C32.5176 39.0185 32.6243 39.1025 32.6548 39.0745C32.6853 39.0465 32.6701 38.9066 32.7158 38.8926C32.7615 38.8786 32.8378 38.9206 32.8835 38.8926C32.9292 38.8647 33.0207 38.9346 33.0664 38.9066C33.1122 38.8786 33.1427 38.8507 33.1884 38.8367C33.2341 38.8227 33.1731 38.6268 33.2036 38.5988C33.2341 38.5709 33.3408 38.6408 33.3866 38.6268C33.4323 38.6128 33.5238 38.6688 33.5695 38.6408C33.6152 38.6128 33.661 38.5988 33.6915 38.5709C33.722 38.5429 33.7677 38.5009 33.7982 38.4869C33.8287 38.4729 33.7982 38.333 33.8439 38.305C33.8897 38.2771 33.9049 38.2211 33.9354 38.1931C33.9659 38.1651 34.1488 38.333 34.1946 38.305C34.2403 38.2771 34.1641 38.0952 34.2098 38.0812C34.2555 38.0672 34.3165 38.0812 34.3623 38.0532C34.408 38.0252 34.4385 37.9973 34.4842 37.9833C34.5299 37.9693 34.4995 37.8434 34.5452 37.8154C34.5909 37.7874 34.7434 37.9273 34.7891 37.8993C34.8349 37.8714 34.8501 37.8294 34.8958 37.8014C34.9416 37.7734 34.8958 37.6615 34.9416 37.6335C34.9873 37.6055 35.033 37.6055 35.0788 37.5636C35.1245 37.5216 35.1245 37.4796 35.1702 37.4516C35.216 37.4237 35.3532 37.5216 35.3989 37.4936C35.4446 37.4656 35.4751 37.4377 35.5209 37.4097C35.5666 37.3817 35.5209 37.2698 35.5666 37.2418C35.6123 37.2138 35.6886 37.2418 35.7343 37.2138C35.78 37.1858 35.8105 37.1579 35.841 37.1299C35.8715 37.1019 35.78 36.92 35.8105 36.892C35.841 36.8641 36.0087 36.962 36.0392 36.92C36.0697 36.8781 36.0697 36.8081 36.1002 36.7801C36.1307 36.7521 36.2221 36.7661 36.2526 36.7382C36.2831 36.7102 36.2984 36.6542 36.3289 36.6262C36.3594 36.5983 36.4661 36.6262 36.4966 36.5983C36.527 36.5703 36.5423 36.5143 36.5728 36.4863C36.6033 36.4584 36.4966 36.2905 36.527 36.2485C36.5575 36.2065 36.6033 36.1925 36.649 36.1646C36.6947 36.1366 36.8624 36.2205 36.8929 36.1925C36.9234 36.1646 36.8319 36.0247 36.8624 35.9827C36.8929 35.9407 36.9387 35.9267 36.9844 35.8987C37.0301 35.8708 37.1216 35.8848 37.1521 35.8568C37.1826 35.8288 37.1368 35.7309 37.1673 35.7029C37.1978 35.6749 37.2741 35.6609 37.3045 35.6329C37.335 35.6049 37.3198 35.521 37.3503 35.493C37.3808 35.465 37.5637 35.535 37.5942 35.493C37.6247 35.4511 37.6704 35.4371 37.7009 35.3951C37.7314 35.3531 37.7619 35.3251 37.7771 35.2832C37.7924 35.2412 37.7924 35.1852 37.8229 35.1433C37.8534 35.1013 37.7924 35.0034 37.8229 34.9754C37.8534 34.9474 37.8381 34.8775 37.8686 34.8355C37.8991 34.7935 38.0668 34.8635 38.0973 34.8215C38.1278 34.7795 38.1278 34.7376 38.1583 34.6956C38.1888 34.6536 38.2497 34.6396 38.2802 34.6116C38.3107 34.5837 38.2192 34.4717 38.2497 34.4298C38.2802 34.3878 38.4479 34.4438 38.4784 34.4018C38.5089 34.3598 38.3412 34.2059 38.3564 34.178C38.3717 34.15 38.5241 34.164 38.5546 34.136C38.5851 34.108 38.4784 33.9821 38.4937 33.9401C38.5089 33.8982 38.6613 33.9261 38.6766 33.8842C38.6918 33.8422 38.829 33.8702 38.8595 33.8282C38.89 33.7862 38.8138 33.7023 38.8443 33.6603C38.8748 33.6183 38.8138 33.5484 38.8443 33.5064C38.8748 33.4645 38.9662 33.4645 38.9967 33.4365C39.0272 33.4085 38.9662 33.3246 38.9967 33.2826C39.0272 33.2406 39.1644 33.2686 39.1949 33.2266C39.2254 33.1847 39.2711 33.1707 39.3016 33.1287C39.3321 33.0867 39.1492 32.9468 39.1644 32.9188C39.1797 32.8909 39.2559 32.8629 39.2864 32.8209C39.3169 32.7789 39.4388 32.7929 39.4541 32.751C39.4693 32.709 39.4084 32.625 39.4236 32.5831C39.4388 32.5411 39.4236 32.4851 39.4388 32.4432C39.4541 32.4012 39.6065 32.4152 39.637 32.3872C39.6675 32.3592 39.7285 32.3313 39.7437 32.2893C39.759 32.2473 39.6828 32.1634 39.698 32.1214C39.7132 32.0794 39.8505 32.0794 39.8657 32.0375C39.8809 31.9955 39.7895 31.9115 39.82 31.8696C39.8505 31.8276 39.8505 31.7856 39.881 31.7437C39.9114 31.7017 39.9572 31.6737 39.9877 31.6317C40.0182 31.5898 39.9572 31.5198 39.9724 31.4779C39.9877 31.4359 40.0486 31.4079 40.0639 31.3659C40.0791 31.324 40.0639 31.268 40.0791 31.226C40.0944 31.1841 40.1401 31.1561 40.1554 31.1141C40.1706 31.0721 40.1706 31.0302 40.1858 30.9882C40.2011 30.9462 40.1249 30.8763 40.1554 30.8343C40.1858 30.7923 40.3078 30.7923 40.3383 30.7504C40.3688 30.7084 40.2926 30.6384 40.3078 30.5965C40.3231 30.5545 40.506 30.5685 40.5212 30.5265C40.5365 30.4846 40.5212 30.4286 40.5365 30.3866C40.5517 30.3447 40.6127 30.3167 40.6127 30.2747C40.6127 30.2327 40.5365 30.1628 40.5517 30.1208C40.567 30.0788 40.5975 30.0369 40.6127 29.9949C40.628 29.9529 40.6737 29.9249 40.6889 29.869C40.7042 29.813 40.7042 29.785 40.7194 29.7431C40.7347 29.7011 40.6584 29.6312 40.6737 29.5892C40.6889 29.5472 40.7042 29.5052 40.7194 29.4633C40.7347 29.4213 40.6584 29.3513 40.6584 29.3094C40.6584 29.2674 40.9176 29.2814 40.9329 29.2394C40.9481 29.1975 40.8261 29.1135 40.8414 29.0715C40.8566 29.0296 40.7652 28.9596 40.7804 28.9177C40.7957 28.8757 40.9024 28.8477 40.9024 28.8057C40.9024 28.7638 40.9786 28.7358 40.9938 28.6938C41.0091 28.6518 41.0091 28.6099 41.0243 28.5679C41.0396 28.5259 41.0853 28.484 41.1005 28.442C41.1158 28.4 41.0853 28.3441 41.1005 28.3021C41.1158 28.2601 41.0091 28.1902 41.0243 28.1482C41.0396 28.1062 41.131 28.0782 41.131 28.0363C41.131 27.9943 41.0853 27.9383 41.1005 27.8964C41.1158 27.8544 41.131 27.8124 41.1463 27.7705C41.1615 27.7285 41.2682 27.7005 41.2835 27.6585C41.2987 27.6166 41.3292 27.5746 41.3445 27.5326C41.3597 27.4907 41.2225 27.4207 41.2225 27.3787C41.2225 27.3368 41.2378 27.2948 41.2378 27.2528C41.2378 27.2109 41.2225 27.1689 41.2378 27.1129C41.253 27.057 41.4664 27.057 41.4664 27.015C41.4664 26.973 41.3445 26.9031 41.3445 26.8611C41.3445 26.8191 41.5274 26.8051 41.5274 26.7492C41.5274 26.6932 41.375 26.6373 41.375 26.5953C41.375 26.5533 41.3902 26.5113 41.3902 26.4694C41.3902 26.4274 41.4207 26.3854 41.4207 26.3435C41.4207 26.3015 41.4664 26.2595 41.4817 26.2176C41.4969 26.1756 41.4054 26.1196 41.4054 26.0777C41.4054 26.0357 41.5274 26.0077 41.5274 25.9657C41.5274 25.9238 41.4512 25.8678 41.4664 25.8258C41.4817 25.7839 41.6494 25.7559 41.6494 25.7139C41.6494 25.6719 41.6951 25.63 41.7104 25.588C41.7256 25.546 41.4969 25.4761 41.4969 25.4341C41.4969 25.3921 41.5731 25.3502 41.5731 25.3082C41.5731 25.2662 41.6036 25.2243 41.6189 25.1823C41.6341 25.1403 41.6799 25.0983 41.6951 25.0564C41.7103 25.0144 41.5731 24.9584 41.5884 24.9025C41.6036 24.8465 41.8018 24.8325 41.8018 24.7906C41.8018 24.7486 41.6341 24.6786 41.6494 24.6367C41.6646 24.5947 41.6951 24.5527 41.7104 24.5108C41.7256 24.4688 41.6951 24.4268 41.6951 24.3709C41.6951 24.3149 41.7561 24.2869 41.7561 24.2449C41.7561 24.203 41.6646 24.147 41.6646 24.105C41.6646 24.0631 41.7104 24.0211 41.7104 23.9791C41.7104 23.9372 41.6951 23.8952 41.6951 23.8392C41.6951 23.7833 41.8018 23.7553 41.8018 23.7133C41.8018 23.6713 41.8323 23.6294 41.8476 23.5734C41.8628 23.5175 41.8018 23.4755 41.8018 23.4335C41.8018 23.3915 41.878 23.3496 41.878 23.3076C41.878 23.2656 41.9085 23.2237 41.9085 23.1677C41.9085 23.1117 41.7713 23.0698 41.7866 23.0278C41.8018 22.9858 41.7866 22.9439 41.7866 22.8879C41.7866 22.8319 41.7561 22.804 41.7561 22.748C41.7561 22.692 41.8476 22.6641 41.8476 22.6221C41.8476 22.5801 41.7866 22.5242 41.7866 22.4822C41.7866 22.4402 41.9543 22.3982 41.9543 22.3563C41.9543 22.3143 42 22.2723 42 22.2164C42 22.1604 41.7713 22.1184 41.7713 22.0765C41.7713 22.0345 41.7713 21.9925 41.7713 21.9366C41.7713 21.8806 41.9695 21.8526 41.9695 21.8107C41.9695 21.7687 41.9085 21.7127 41.9085 21.6708C41.9085 21.6288 41.9543 21.5868 41.9543 21.5448C41.9543 21.5029 41.9848 21.4609 41.9848 21.4049C41.9848 21.349 41.9848 21.321 41.9848 21.265C41.9848 21.2091 41.8323 21.1671 41.8323 21.1251C41.8323 21.0832 42 21.0412 42 20.9852C42 20.9293 41.9238 20.9013 41.9238 20.8453C41.9238 20.7894 41.8323 20.7614 41.8323 20.7054C41.8323 20.6495 41.8628 20.6215 41.8628 20.5655C41.8628 20.5096 41.8933 20.4816 41.8933 20.4256C41.8933 20.3697 41.7713 20.3417 41.7713 20.2857C41.7713 20.2298 41.8323 20.2018 41.8323 20.1458C41.8323 20.0899 41.8171 20.0619 41.8171 20.0059C41.8171 19.95 42 19.908 42 19.866C42 19.8241 41.7713 19.7821 41.7713 19.7401C41.7713 19.6981 41.9695 19.6422 41.9695 19.6002C41.9695 19.5582 41.7408 19.5163 41.7408 19.4743C41.7408 19.4323 41.9238 19.3764 41.9238 19.3344C41.9238 19.2924 41.9848 19.2505 41.9848 19.1945C41.9848 19.1385 41.7561 19.1106 41.7561 19.0686C41.7561 19.0266 41.9238 18.9707 41.9238 18.9287C41.9238 18.8867 41.878 18.8447 41.878 18.8028C41.878 18.7608 41.8018 18.7188 41.8018 18.6629C41.8018 18.6069 41.9238 18.5649 41.9238 18.523C41.9238 18.481 41.9238 18.439 41.9238 18.3831C41.9238 18.3271 41.8171 18.2991 41.8171 18.2572C41.8171 18.2152 41.7256 18.1732 41.7256 18.1312C41.7256 18.0893 41.8018 18.0333 41.8018 17.9913C41.8018 17.9494 41.7104 17.9074 41.7104 17.8654C41.7104 17.8235 41.8018 17.7675 41.8018 17.7255C41.8018 17.6836 41.7866 17.6416 41.7713 17.5856C41.7561 17.5297 41.8628 17.4877 41.8628 17.4457C41.8628 17.4038 41.6494 17.3758 41.6341 17.3198C41.6189 17.2639 41.7561 17.2219 41.7561 17.1799C41.7561 17.1379 41.8476 17.082 41.8476 17.04C41.8476 16.998 41.7408 16.9561 41.7408 16.9141C41.7408 16.8721 41.8323 16.8162 41.8323 16.7742C41.8323 16.7322 41.7713 16.6903 41.7713 16.6483C41.7713 16.6063 41.6799 16.5643 41.6646 16.5224C41.6494 16.4804 41.6036 16.4384 41.5884 16.3965C41.5731 16.3545 41.7561 16.2845 41.7408 16.2426C41.7256 16.2006 41.5731 16.1726 41.5731 16.1167C41.5731 16.0607 41.5122 16.0327 41.5122 15.9907C41.5122 15.9488 41.6494 15.8788 41.6341 15.8369C41.6189 15.7949 41.4817 15.7669 41.4817 15.7249C41.4817 15.683 41.6646 15.613 41.6646 15.571C41.6646 15.5291 41.4817 15.5011 41.4817 15.4591C41.4817 15.4172 41.5731 15.3612 41.5579 15.3192C41.5427 15.2773 41.6341 15.2213 41.6341 15.1793C41.6341 15.1374 41.4207 15.1234 41.4054 15.0674C41.3902 15.0114 41.5122 14.9555 41.5122 14.9135C41.5122 14.8715 41.375 14.8436 41.375 14.8016C41.375 14.7596 41.375 14.7176 41.3597 14.6617C41.3445 14.6057 41.3292 14.5777 41.3292 14.5358C41.3292 14.4938 41.3597 14.4378 41.3445 14.3959C41.3292 14.3539 41.2835 14.3119 41.2835 14.27C41.2835 14.228 41.4054 14.158 41.3902 14.1161C41.375 14.0741 41.2835 14.0461 41.2835 14.0041C41.2835 13.9622 41.192 13.9342 41.192 13.8782C41.192 13.8223 41.314 13.7663 41.2987 13.7243C41.2835 13.6824 41.192 13.6544 41.1768 13.6124C41.1615 13.5705 41.2225 13.5145 41.2073 13.4725C41.192 13.4305 41.253 13.3746 41.253 13.3326C41.253 13.2906 41.1005 13.2767 41.1005 13.2207C41.1005 13.1647 41.0548 13.1368 41.0396 13.0948C41.0243 13.0528 41.192 12.9689 41.1768 12.9269C41.1615 12.8849 41.1005 12.843 41.1005 12.801C41.1005 12.759 41.1158 12.7031 41.1005 12.6611C41.0853 12.6191 40.9481 12.6051 40.9329 12.5632C40.9176 12.5212 40.8261 12.4932 40.8109 12.4512C40.7957 12.4093 41.0243 12.3113 41.0091 12.2694C40.9938 12.2274 40.7499 12.2414 40.7347 12.1994C40.7194 12.1574 40.7804 12.1015 40.7652 12.0595C40.7499 12.0175 40.8871 11.9336 40.8719 11.8916C40.8566 11.8497 40.8109 11.8077 40.7957 11.7797C40.7804 11.7517 40.8261 11.6818 40.8109 11.6398C40.7957 11.5978 40.6127 11.5978 40.5975 11.5559C40.5822 11.5139 40.6737 11.4439 40.6584 11.402C40.6432 11.36 40.567 11.332 40.5517 11.2901C40.5365 11.2481 40.5517 11.1921 40.5365 11.1502C40.5212 11.1082 40.6432 11.0242 40.628 10.9823C40.6127 10.9403 40.4907 10.9263 40.4755 10.8843C40.4603 10.8424 40.3383 10.8284 40.3231 10.7864C40.3078 10.7444 40.3535 10.6745 40.3383 10.6465C40.3231 10.6185 40.2163 10.5905 40.2011 10.5486C40.1858 10.5066 40.3688 10.3947 40.3535 10.3527C40.3383 10.3107 40.3383 10.2688 40.3231 10.2268C40.3078 10.1848 40.2163 10.1708 40.2011 10.1149C40.1858 10.0589 40.2011 10.017 40.1858 9.97498C40.1706 9.93301 40.1249 9.89104 40.1096 9.86306C40.0944 9.83508 40.0182 9.8071 39.9877 9.76513C39.9572 9.72316 39.8352 9.72316 39.82 9.68119C39.8047 9.63922 39.9724 9.5273 39.9572 9.48533C39.9419 9.44335 39.7895 9.45735 39.759 9.41537C39.7285 9.3734 39.6675 9.35942 39.6523 9.31744C39.637 9.27547 39.698 9.20552 39.6828 9.16355C39.6675 9.12158 39.5608 9.12158 39.5303 9.07961C39.4998 9.03764 39.698 8.91173 39.6828 8.86976C39.6675 8.82779 39.5151 8.84178 39.4998 8.79981C39.4846 8.75784 39.4236 8.72986 39.4084 8.68789C39.3931 8.64592 39.3321 8.61794 39.3169 8.58996C39.3016 8.56198 39.3169 8.49202 39.2864 8.45005C39.2559 8.40808 39.2102 8.3801 39.1949 8.33813C39.1797 8.29616 39.2102 8.22621 39.1949 8.18424C39.1797 8.14227 39.2864 8.04434 39.2711 8.00237C39.2559 7.9604 39.1035 7.97439 39.0882 7.94641C39.073 7.91843 38.9815 7.89045 38.9662 7.86247C38.951 7.83449 39.073 7.70858 39.0425 7.66661C39.012 7.62464 39.012 7.58266 38.9815 7.54069C38.951 7.49872 38.9053 7.48473 38.8748 7.44276C38.8443 7.40079 38.7071 7.42877 38.6918 7.3868C38.6766 7.34483 38.6613 7.28887 38.6461 7.26089C38.6309 7.23291 38.6309 7.16296 38.6156 7.12099C38.6004 7.07902 38.4632 7.107 38.4327 7.06503C38.4022 7.02306 38.3717 6.99508 38.3564 6.95311C38.3412 6.91114 38.4327 6.79922 38.4022 6.75725C38.3717 6.71527 38.2192 6.75725 38.1888 6.72926C38.1583 6.70128 38.1125 6.6733 38.0973 6.63133C38.082 6.58936 38.082 6.5334 38.0515 6.50542C38.0211 6.47744 37.9753 6.44946 37.9448 6.40749C37.9143 6.36552 37.9906 6.26759 37.9601 6.22562C37.9296 6.18365 37.8686 6.18365 37.8381 6.14168C37.8076 6.09971 37.8381 6.02976 37.8076 6.00178C37.7771 5.9738 37.6857 5.9738 37.6552 5.93183C37.6247 5.88986 37.6704 5.80591 37.6399 5.76394C37.6094 5.72197 37.5332 5.72197 37.5027 5.69399C37.4722 5.66601 37.4265 5.62404 37.396 5.59606C37.3655 5.56808 37.3655 5.49813 37.335 5.47015C37.3045 5.44217 37.2436 5.42818 37.1978 5.4002C37.1521 5.37222 37.0301 5.41419 36.9996 5.38621C36.9692 5.35823 36.9539 5.31626 36.9234 5.27429C36.8929 5.23232 36.8929 5.17636 36.8624 5.14838C36.8319 5.1204 36.8472 5.05045 36.8015 5.00848C36.7557 4.96651 36.8015 4.89655 36.771 4.85458C36.7405 4.81261 36.649 4.84059 36.6185 4.79862C36.588 4.75665 36.5728 4.71468 36.5423 4.6867C36.5118 4.65872 36.4661 4.63074 36.4356 4.60276C36.4051 4.57478 36.4203 4.47685 36.3898 4.44887C36.3593 4.42089 36.2069 4.49084 36.1764 4.46286C36.1459 4.43488 36.1612 4.35094 36.1154 4.32296C36.0697 4.29498 35.9935 4.30897 35.963 4.28099C35.9325 4.25301 35.9935 4.11311 35.9477 4.08513C35.902 4.05715 35.7648 4.14109 35.7343 4.11311C35.7038 4.08513 35.6276 4.09912 35.5819 4.07114C35.5361 4.04316 35.6123 3.90325 35.5819 3.86128C35.5514 3.81931 35.4904 3.81931 35.4599 3.79133C35.4294 3.76335 35.3074 3.81931 35.277 3.79133C35.2465 3.76335 35.216 3.72138 35.1702 3.6934C35.1245 3.66542 35.094 3.65143 35.0483 3.62345C35.0025 3.59547 34.9568 3.58148 34.9263 3.5535C34.8958 3.52552 34.8349 3.51153 34.8044 3.48355C34.7739 3.45557 34.7434 3.39961 34.7129 3.37163C34.6824 3.34365 34.7281 3.18976 34.6976 3.16178C34.6672 3.1338 34.6367 3.09182 34.5909 3.06384C34.5452 3.03586 34.4232 3.1338 34.3775 3.10581C34.3318 3.07783 34.3927 2.92394 34.347 2.89596C34.3013 2.86798 34.1793 2.96591 34.1336 2.95192C34.0878 2.93793 34.0726 2.86798 34.0421 2.84C34.0116 2.81202 33.9506 2.81202 33.9049 2.79803C33.8592 2.78404 33.8744 2.68611 33.8287 2.65813C33.7829 2.63015 33.6762 2.72808 33.6305 2.7001C33.5848 2.67212 33.539 2.67212 33.4933 2.65813C33.4476 2.64414 33.5238 2.43429 33.478 2.40631C33.4323 2.37833 33.3561 2.43429 33.3103 2.40631C33.2646 2.37833 33.2189 2.37833 33.1731 2.35035C33.1274 2.32237 33.1427 2.22443 33.0969 2.19645C33.0512 2.16847 32.914 2.33636 32.8682 2.30838C32.8225 2.2804 32.853 2.14049 32.8073 2.1265C32.7615 2.11251 32.6396 2.23843 32.5938 2.21044C32.5481 2.18246 32.5329 2.11251 32.4871 2.09852C32.4414 2.08453 32.4261 2.01458 32.3804 1.9866C32.3347 1.95862 32.2432 2.02857 32.1975 2.01458C32.1517 2.00059 32.1365 1.91665 32.0907 1.90266C32.045 1.88867 31.9993 1.87468 31.9535 1.86069C31.9078 1.8467 31.8468 1.87468 31.8011 1.86069C31.7554 1.8467 31.7706 1.69281 31.7249 1.67882C31.6791 1.66483 31.6029 1.72079 31.5572 1.7068C31.5114 1.69281 31.4505 1.72079 31.4047 1.7068L31.2065 1.77675C31.1608 1.76276 31.1456 1.69281 31.0998 1.67882C31.0541 1.66483 31.0541 1.55291 31.0084 1.53892C30.9626 1.52493 30.8864 1.58089 30.8407 1.5669C30.7949 1.55291 30.7949 1.427 30.7492 1.41301C30.7035 1.39902 30.612 1.48296 30.5662 1.46897C30.5205 1.45498 30.5053 1.35705 30.4595 1.34306C30.4138 1.32906 30.3223 1.44099 30.2766 1.41301C30.2309 1.38503 30.1851 1.39902 30.1394 1.38503C30.0937 1.37104 30.1241 1.16118 30.0784 1.14719C30.0327 1.1332 29.9412 1.25911 29.8955 1.24512C29.8497 1.23113 29.7735 1.28709 29.7278 1.2731C29.682 1.25911 29.6515 1.18916 29.6058 1.17517C29.5601 1.16118 29.5448 1.06325 29.4991 1.04926C29.4534 1.03527 29.4229 0.965321 29.3771 0.951331C29.3314 0.93734 29.2552 0.993301 29.2094 0.979311C29.1637 0.965321 29.0875 1.02128 29.0417 1.00729C28.996 0.993301 28.8283 0.993301 28.7826 0.993301C28.7368 0.993301 28.6911 0.965321 28.6454 0.951331C28.5996 0.93734 28.5234 1.00729 28.4777 0.993301C28.4319 0.979311 28.4319 0.811429 28.3862 0.797439C28.3405 0.783449 28.2642 0.8534 28.2185 0.8534C28.1728 0.8534 28.1423 0.769459 28.0966 0.755468C28.0508 0.741478 27.9746 0.825419 27.9289 0.825419C27.8831 0.825419 27.8526 0.741478 27.8069 0.727488C27.7612 0.713498 27.7307 0.615567 27.6849 0.601577C27.6392 0.587587 27.5782 0.615567 27.5325 0.601577C27.4868 0.587587 27.4105 0.685518 27.3648 0.671527C27.3191 0.657537 27.2581 0.713498 27.2123 0.699508C27.1666 0.685518 27.1209 0.671528 27.0751 0.657537C27.0294 0.643547 27.0142 0.447685 26.9684 0.447685C26.9227 0.447685 26.8312 0.629557 26.7855 0.615567C26.7397 0.601577 26.7093 0.475665 26.6635 0.475665C26.6178 0.475665 26.5568 0.489655 26.5111 0.489655C26.4653 0.489655 26.3891 0.587587 26.3434 0.573596C26.2976 0.559606 26.2824 0.335764 26.2367 0.321774C26.1909 0.307783 26.1147 0.461675 26.069 0.461675C26.0232 0.461675 25.9775 0.433695 25.9318 0.433695C25.886 0.433695 25.8403 0.405715 25.7946 0.405715C25.7488 0.405715 25.7031 0.419705 25.6421 0.405715C25.5811 0.391724 25.5506 0.335764 25.5049 0.335764C25.4592 0.335764 25.4134 0.279803 25.3677 0.279803C25.322 0.279803 25.261 0.349754 25.2152 0.335764C25.1695 0.321774 25.139 0.209852 25.078 0.209852C25.0171 0.209852 24.9561 0.335764 24.9103 0.321774C24.8646 0.307783 24.8189 0.321774 24.7579 0.321774C24.6969 0.321774 24.6817 0.181872 24.6207 0.181872C24.5597 0.181872 24.514 0.279803 24.4682 0.279803C24.4225 0.279803 24.3768 0.209852 24.331 0.209852C24.2853 0.209852 24.2243 0.223843 24.1786 0.223843C24.1329 0.223843 24.0871 0.195862 24.0414 0.195862C23.9956 0.195862 23.9347 0.265813 23.8889 0.265813C23.8432 0.265813 23.7975 0.237833 23.7517 0.223843C23.706 0.209852 23.645 0.321774 23.5993 0.307783C23.5535 0.307783 23.523 0.0699508 23.4621 0.0699508C23.4011 0.0699508 23.3706 0.0979311 23.3096 0.0979311C23.2486 0.0979311 23.2029 0.265813 23.1572 0.251823C23.1114 0.237833 23.0657 0.139902 23.02 0.139902C22.9742 0.139902 22.9132 0.209852 22.8675 0.195862C22.8218 0.181872 22.776 0.111921 22.7303 0.111921C22.6846 0.111921 22.6388 0.125911 22.5779 0.125911C22.5169 0.125911 22.4864 0.139902 22.4254 0.139902C22.3644 0.139902 22.3339 0.111921 22.273 0.111921C22.212 0.111921 22.1662 0.251823 22.1205 0.251823C22.0748 0.251823 22.029 0.0139902 21.9681 0.0139902C21.9071 0.0139902 21.8766 0.0699508 21.8156 0.0699508C21.7546 0.0699508 21.7241 0.111921 21.6632 0.111921C21.6022 0.111921 21.5717 0.167882 21.5107 0.167882H21.3583C21.3125 0.167882 21.2668 0.0979311 21.2058 0.0979311C21.1448 0.0979311 21.1143 0.167882 21.0534 0.167882C20.9924 0.167882 20.9619 0.167882 20.9009 0.167882L20.9619 0.181872Z" fill="#F38500"/>
<path d="M10.3333 28.1393H31.6667C32.4 28.1393 33 27.5393 33 26.806C33 26.0726 32.4 25.4726 31.6667 25.4726H10.3333C9.6 25.4726 9 26.0726 9 26.806C9 27.5393 9.6 28.1393 10.3333 28.1393ZM10.3333 21.4726H31.6667C32.4 21.4726 33 20.8726 33 20.1393C33 19.406 32.4 18.806 31.6667 18.806H10.3333C9.6 18.806 9 19.406 9 20.1393C9 20.8726 9.6 21.4726 10.3333 21.4726ZM9 13.4726C9 14.206 9.6 14.806 10.3333 14.806H31.6667C32.4 14.806 33 14.206 33 13.4726C33 12.7393 32.4 12.1393 31.6667 12.1393H10.3333C9.6 12.1393 9 12.7393 9 13.4726Z" fill="white"/>
</svg>
