<svg width="73" height="96" viewBox="0 0 73 96" fill="none" xmlns="http://www.w3.org/2000/svg">
<g clip-path="url(#clip0)">
<path d="M28.9778 88.7115L24.7063 88.3471C24.4427 88.321 24.2054 88.5293 24.179 88.7896L24.1526 88.9718C24.1263 89.2321 24.3372 89.4664 24.6009 89.4924L28.8724 89.8569C29.136 89.8829 29.3733 89.6746 29.3997 89.4143L29.4261 89.2321C29.4524 88.9458 29.2415 88.7375 28.9778 88.7115Z" fill="#F38500"/>
<path d="M28.9778 91.7831L24.7063 91.4187C24.4427 91.3926 24.2054 91.6009 24.179 91.8612L24.1526 92.0434C24.1263 92.3037 24.3372 92.538 24.6009 92.564L28.8724 92.9284C29.136 92.9545 29.3733 92.7462 29.3997 92.4859L29.4261 92.3037C29.4524 92.0434 29.2415 91.8091 28.9778 91.7831Z" fill="#F38500"/>
<path d="M28.9769 94.8547L24.7317 94.4902C24.4681 94.4642 24.2307 94.6725 24.2044 94.9328L24.178 95.115C24.1516 95.3753 24.3626 95.6096 24.6263 95.6356L28.8978 96C29.1614 96.026 29.3987 95.8178 29.4251 95.5575L29.4515 95.3753C29.4515 95.115 29.2405 94.8807 28.9769 94.8547Z" fill="#F38500"/>
<path d="M38.9971 88.5293H36.1231C35.3057 88.5293 35.2529 88.6334 34.8574 89.3102C34.4883 89.987 33.9873 90.5857 33.4072 91.0803C33.2227 91.2364 33.0645 91.3666 33.0645 91.6009C33.0908 91.9393 33.3545 92.1996 33.6709 92.2256C33.9873 92.2256 34.4356 91.7831 34.8047 91.3926L35.4902 90.5076C35.5693 90.3774 35.8858 89.8829 35.9649 89.7787C36.044 89.6746 36.1231 89.6486 36.3867 89.6486H38.2588C38.3906 89.6486 38.6016 89.6486 38.6016 89.8568C38.4961 90.4816 38.2588 91.1063 37.9424 91.6529L35.8067 91.4707C35.543 91.4447 35.3057 91.6269 35.2793 91.8872C35.2793 91.8872 35.2793 91.8872 35.2793 91.9132L35.2529 92.0954C35.2266 92.3558 35.4111 92.59 35.6748 92.6161L37.1514 92.7462L37.0459 92.8503C36.334 93.6052 35.4902 94.2299 34.5147 94.6204C34.2773 94.7245 33.9873 94.8547 33.9873 95.167C33.9609 95.4794 34.2246 95.7657 34.541 95.8178C34.9102 95.8178 36.3867 95.1931 37.5469 94.0738C38.8389 92.7722 39.6563 91.0803 39.8672 89.2842C39.9463 88.5033 39.208 88.5033 38.9971 88.5293Z" fill="#F38500"/>
<path d="M49.4657 94.0477C48.8593 93.2408 48.1473 92.4859 47.3827 91.8091C47.7518 91.0282 48.0155 90.1692 48.0946 89.3102C48.0946 88.5033 47.3563 88.5033 47.1718 88.5033H43.243C42.9794 88.5033 42.7684 88.7375 42.7684 88.9978V89.154C42.7684 89.4143 42.9794 89.6226 43.243 89.6486H46.4598C46.5917 89.6486 46.8026 89.6486 46.8026 89.8568C46.6708 90.5857 46.4071 91.3145 45.9852 91.9393C45.7743 92.2777 45.537 92.59 45.2733 92.8764C44.5614 93.6312 43.7176 94.256 42.7421 94.6464C42.5048 94.7506 42.2147 94.8807 42.2147 95.1931C42.1883 95.5054 42.452 95.7918 42.7684 95.8438C43.1376 95.8438 44.6141 95.2191 45.7743 94.0998C46.1434 93.7354 46.4862 93.3189 46.7762 92.9024C47.3827 93.4751 47.9364 94.1258 48.4638 94.8026C48.8856 95.4013 48.9384 95.4534 49.202 95.4534C49.5712 95.4273 49.8349 95.141 49.8349 94.7766C49.8349 94.5683 49.7557 94.4122 49.4657 94.0477Z" fill="#F38500"/>
<path d="M16.6641 30.7158H18.9844C19.2217 30.7158 19.4326 30.846 19.5117 31.0542L23.2031 40.0868C23.2295 40.1648 23.335 40.1909 23.4141 40.1388C23.4405 40.1128 23.4668 40.1128 23.4668 40.0868L27.1846 31.0542C27.2637 30.846 27.4746 30.7158 27.6856 30.7158H30.0323C30.2959 30.7158 30.5332 30.898 30.586 31.1583L33.2491 44.8243C33.3018 45.1106 33.1172 45.423 32.8008 45.475C32.7745 45.475 32.7217 45.475 32.6954 45.475H30.6651C30.4014 45.475 30.1641 45.2928 30.1114 45.0325L28.4766 37.3275C28.4502 37.2494 28.3711 37.1974 28.292 37.2234C28.2393 37.2234 28.2129 37.2755 28.1866 37.3015L24.8907 45.1366C24.8115 45.3449 24.6006 45.475 24.3633 45.475H22.2539C22.0166 45.475 21.8057 45.3449 21.7266 45.1366L18.457 37.3015C18.4307 37.2234 18.3516 37.1974 18.2725 37.2234C18.2197 37.2494 18.1934 37.2755 18.1934 37.3275L16.5059 45.0325C16.4531 45.2928 16.2158 45.475 15.9522 45.475H13.8955C13.5791 45.475 13.3418 45.2147 13.3418 44.9284C13.3418 44.9024 13.3418 44.8503 13.3418 44.8243L16.084 31.1583C16.1895 30.898 16.4004 30.6898 16.6641 30.7158Z" fill="#F38500"/>
<path d="M37.9947 36.6248H39.8404C40.2096 36.6248 40.4996 36.9111 40.4996 37.2755V44.8503C40.4996 45.2148 40.2096 45.5011 39.8404 45.5011H37.9947C37.6256 45.5011 37.3355 45.2148 37.3355 44.8503V37.2755C37.3092 36.9111 37.6256 36.6248 37.9947 36.6248Z" fill="#F38500"/>
<path d="M37.9947 30.7419H39.8404C40.2096 30.7419 40.4996 31.0282 40.4996 31.3926V33.9176C40.4996 34.282 40.2096 34.5683 39.8404 34.5683H37.9947C37.6256 34.5683 37.3355 34.282 37.3355 33.9176V31.3926C37.3092 31.0282 37.6256 30.7419 37.9947 30.7419Z" fill="#F38500"/>
<path d="M58.7461 36.6247H53.499V31.4447C53.499 31.0542 53.1826 30.7419 52.8135 30.7419H51.1787C50.7832 30.7419 50.4668 31.0542 50.4668 31.4447V36.6247H45.2197C44.8242 36.6247 44.5078 36.9371 44.5078 37.3276V38.9414C44.5078 39.3319 44.8242 39.6443 45.2197 39.6443H50.4668V44.8243C50.4668 45.2148 50.7832 45.5271 51.1787 45.5271H52.8135C53.209 45.5271 53.5254 45.2148 53.5254 44.8243V39.6443H58.7725C59.168 39.6443 59.4844 39.3319 59.4844 38.9414V37.3276C59.4317 36.9371 59.1153 36.6247 58.7461 36.6247Z" fill="#F38500"/>
<path d="M36.255 0.315324C36.1759 0.315324 36.0968 0.315324 35.9913 0.315324C35.8858 0.315324 35.8331 0.00295908 35.7276 0.00295908C35.6221 0.00295908 35.5694 0.0550198 35.4639 0.0550198C35.3585 0.0550198 35.3057 0.289293 35.2266 0.289293C35.1475 0.289293 35.0684 0.133111 34.963 0.133111C34.8575 0.133111 34.8048 0.315324 34.6993 0.315324C34.5938 0.315324 34.5147 -0.0230713 34.4356 -0.0230713C34.3565 -0.0230713 34.2774 0.185172 34.1983 0.185172C34.1192 0.185172 34.0401 0.185172 33.9346 0.185172C33.8292 0.185172 33.7764 0.237232 33.671 0.237232C33.5655 0.237232 33.4864 0.00295908 33.4073 0.00295908C33.3282 0.00295908 33.2491 0.393415 33.17 0.393415C33.0909 0.393415 32.9854 0.159141 32.9063 0.159141C32.8272 0.159141 32.7481 0.367384 32.669 0.367384C32.5899 0.367384 32.4844 0.0550198 32.4053 0.0550198C32.3262 0.0550198 32.2208 -0.0230713 32.1417 -0.0230713C32.0626 -0.0230713 31.9835 0.211202 31.9044 0.211202C31.8253 0.211202 31.7198 0.0810502 31.6407 0.0810502C31.5616 0.0810502 31.4561 0.497536 31.377 0.523567C31.2979 0.549597 31.1924 0.393415 31.1133 0.393415C31.0342 0.393415 30.9551 0.523567 30.876 0.523567C30.7969 0.523567 30.6915 0.289293 30.6124 0.289293C30.5333 0.289293 30.4542 0.575627 30.3751 0.575627C30.296 0.575627 30.2169 0.627688 30.1378 0.627688C30.0587 0.627688 29.9268 0.341354 29.8477 0.367384C29.7686 0.393415 29.6895 0.549597 29.6104 0.549597C29.5313 0.549597 29.4258 0.367384 29.3467 0.367384C29.2676 0.367384 29.2149 0.679749 29.1358 0.705779C29.0567 0.73181 28.9249 0.445475 28.8458 0.445475C28.7667 0.445475 28.6876 0.679749 28.6085 0.679749C28.5294 0.679749 28.4503 0.835931 28.3712 0.835931C28.2921 0.835931 28.1602 0.497536 28.0811 0.497536C28.002 0.497536 27.9229 0.705779 27.8438 0.705779C27.7647 0.705779 27.6856 0.78387 27.6065 0.809901C27.5274 0.835931 27.4483 0.861961 27.3692 0.861961C27.2901 0.861961 27.1846 0.73181 27.1055 0.75784C27.0264 0.78387 26.9473 0.809901 26.8682 0.809901C26.7891 0.809901 26.71 0.914022 26.6309 0.940052C26.5518 0.966083 26.4727 1.04417 26.3936 1.04417C26.3145 1.04417 26.1827 0.940053 26.1036 0.966083L25.8399 1.01814C25.7608 1.04417 25.7081 1.27845 25.629 1.30448C25.5499 1.33051 25.418 1.1483 25.3389 1.1483C25.2598 1.1483 25.1807 1.20036 25.1016 1.22639C25.0225 1.25242 24.9698 1.35654 24.8907 1.38257C24.8116 1.4086 24.6797 1.1483 24.5743 1.17433C24.4688 1.20036 24.4688 1.51272 24.3897 1.53875C24.3106 1.56478 24.2051 1.51272 24.126 1.51272C24.0469 1.51272 23.8887 1.25242 23.8096 1.27845C23.7305 1.30448 23.7042 1.53875 23.6251 1.56478C23.5459 1.59081 23.4405 1.53875 23.3614 1.56478C23.2823 1.59081 23.2032 1.56478 23.0977 1.59081C22.9922 1.61684 22.9131 1.51272 22.834 1.53875C22.7549 1.56478 22.7549 1.92921 22.6758 1.95524C22.5967 1.98127 22.4913 1.90318 22.4122 1.92921C22.3331 1.95524 22.2276 1.92921 22.1485 1.95524C22.0694 1.98127 21.9639 1.82509 21.8584 1.85112C21.753 1.87715 21.7266 2.0073 21.6475 2.0073C21.5684 2.0073 21.5684 2.29363 21.4629 2.31966C21.3575 2.34569 21.1993 2.05936 21.1202 2.08539C21.0411 2.11142 21.0147 2.29363 20.9356 2.31966C20.8565 2.34569 20.8301 2.44981 20.751 2.47584L20.5137 2.55394C20.4346 2.57997 20.3291 2.55394 20.25 2.57997C20.1709 2.606 19.9864 2.39775 19.9336 2.42378L19.6963 2.50188C19.6172 2.52791 19.5118 2.52791 19.459 2.55394C19.4063 2.57997 19.3799 2.81424 19.3008 2.84027C19.2217 2.8663 19.0899 2.78821 19.0108 2.81424C18.9317 2.84027 18.9317 3.10057 18.8526 3.1266C18.7735 3.15263 18.7207 3.23073 18.6416 3.25676C18.5625 3.28279 18.3516 2.99645 18.2725 3.02248C18.1934 3.04851 18.1407 3.1266 18.0616 3.15263C17.9825 3.17866 17.9034 3.23073 17.8506 3.28279C17.7979 3.33485 17.7452 3.59515 17.6661 3.64721C17.587 3.69927 17.5078 3.67324 17.4287 3.7253C17.3496 3.77736 17.1914 3.64721 17.1387 3.67324C17.086 3.69927 17.0332 3.85545 16.9541 3.88148C16.875 3.90752 16.875 4.08973 16.7959 4.11576C16.7168 4.14179 16.5586 3.98561 16.4795 4.03767C16.4004 4.08973 16.2686 4.01164 16.1895 4.03767C16.1104 4.0637 16.1368 4.324 16.0577 4.35003C15.9786 4.37606 15.9258 4.48018 15.8467 4.50621C15.7676 4.53224 15.7149 4.61034 15.6358 4.6624C15.5567 4.71446 15.4512 4.6624 15.3721 4.71446C15.293 4.76652 15.2666 4.87064 15.1875 4.9227C15.1084 4.97476 15.0293 5.00079 14.9766 5.02682C14.9239 5.05285 14.7393 4.97476 14.6866 5.02682C14.6338 5.07888 14.5284 5.10491 14.4492 5.13094C14.3701 5.15697 14.3174 5.23506 14.2383 5.28712C14.1592 5.33919 14.001 5.20903 13.9219 5.26109C13.8428 5.31316 13.7901 5.36522 13.711 5.41728C13.6319 5.46934 13.6055 5.57346 13.5528 5.62552C13.5 5.67758 13.3418 5.62552 13.2627 5.67758C13.1836 5.72964 13.3155 6.04201 13.2364 6.09407C13.1573 6.14613 12.9727 6.01598 12.9199 6.06804C12.8672 6.1201 12.709 6.06804 12.6299 6.1201C12.5508 6.17216 12.5244 6.25025 12.4453 6.30231C12.3662 6.35437 12.4717 6.61467 12.3926 6.66673C12.3135 6.7188 12.2871 6.82292 12.2344 6.87498C12.1817 6.92704 11.9971 6.84895 11.918 6.87498C11.8389 6.90101 11.7334 6.92704 11.6807 6.9791C11.628 7.03116 11.5752 7.10925 11.4961 7.16131C11.417 7.21337 11.4961 7.44765 11.4434 7.49971C11.3906 7.55177 11.3379 7.62986 11.2588 7.68192C11.1797 7.73398 10.916 7.55177 10.8369 7.60383C10.7578 7.65589 10.8633 7.89016 10.7842 7.94222L10.5996 8.09841C10.5469 8.15047 10.3096 8.02031 10.2305 8.07237C10.1778 8.12444 10.2305 8.33268 10.1778 8.38474C10.125 8.4368 9.99319 8.4368 9.94045 8.48886C9.88772 8.54092 9.72951 8.51489 9.67678 8.56695C9.62404 8.61901 9.51858 8.67107 9.46584 8.72313C9.41311 8.77519 9.57131 9.06153 9.51857 9.11359C9.46584 9.16565 9.22854 9.06153 9.1758 9.11359C9.12307 9.16565 9.0176 9.19168 8.96486 9.26977C8.91213 9.34786 8.85939 9.39992 8.80666 9.47802C8.75393 9.55611 8.70119 9.60817 8.64846 9.68626C8.59572 9.76435 8.64846 9.92053 8.59572 9.99862C8.54299 10.0507 8.43752 10.0767 8.38478 10.1548C8.33205 10.2069 8.25295 10.2589 8.20021 10.311C8.14748 10.363 8.20021 10.5453 8.14748 10.5973C8.09474 10.6494 8.01564 10.7014 7.96291 10.7535C7.91017 10.8056 7.8047 10.8316 7.75197 10.9097C7.69924 10.9878 7.7256 11.0919 7.67287 11.17C7.62013 11.2481 7.4092 11.17 7.35646 11.2481C7.30373 11.3262 7.35646 11.4563 7.30373 11.5084C7.25099 11.5604 7.35646 11.7687 7.33009 11.8207C7.30373 11.8728 6.96095 11.7427 6.90822 11.8207C6.85548 11.8988 6.96095 12.055 6.90822 12.1331C6.85548 12.2112 6.90822 12.3414 6.88185 12.4194C6.85548 12.4975 6.77638 12.5496 6.72365 12.6277C6.67091 12.7058 6.59181 12.7318 6.53908 12.8099C6.48634 12.888 6.2754 12.8359 6.22267 12.914C6.16994 12.9921 6.35451 13.1743 6.30177 13.2524C6.24904 13.3305 5.93263 13.2004 5.8799 13.2784C5.82716 13.3565 5.90626 13.4867 5.85353 13.5648C5.80079 13.6429 5.66896 13.6429 5.61622 13.721C5.56349 13.7991 5.77443 14.0073 5.74806 14.0854C5.72169 14.1635 5.56349 14.0594 5.53712 14.1375C5.51075 14.2155 5.32618 14.2155 5.27345 14.2936C5.22071 14.3717 5.27345 14.4758 5.22071 14.5539C5.16798 14.632 5.22071 14.7362 5.16798 14.8142C5.11525 14.8923 5.14161 14.9704 5.08888 15.0485C5.03614 15.1266 4.82521 15.1006 4.79884 15.1787C4.77247 15.2568 4.7461 15.3348 4.71974 15.4129C4.69337 15.491 4.82521 15.6472 4.77247 15.7253C4.71974 15.8034 4.71974 15.8815 4.667 15.9596C4.61427 16.0377 4.29786 15.9856 4.27149 16.0377C4.24513 16.0897 4.48243 16.324 4.45606 16.4021C4.4297 16.4802 4.21876 16.4802 4.16602 16.5583C4.11329 16.6364 4.06056 16.6884 4.03419 16.7665C4.00782 16.8446 4.19239 17.0268 4.16602 17.1049C4.13966 17.183 3.90235 17.157 3.84962 17.2351C3.79688 17.3132 3.79688 17.3912 3.77052 17.4693C3.74415 17.5474 3.95509 17.7296 3.90235 17.8077C3.84962 17.8858 3.50684 17.8338 3.48048 17.9119C3.45411 17.9899 3.79688 18.2242 3.74415 18.3023C3.69141 18.3804 3.61231 18.4325 3.55958 18.5106C3.50684 18.5886 3.34864 18.6147 3.32227 18.6928C3.29591 18.7709 3.37501 18.901 3.34864 18.9791C3.32227 19.0572 3.19044 19.1093 3.16407 19.1873C3.1377 19.2654 2.95313 19.2915 2.92676 19.3696C2.9004 19.4476 2.92676 19.4476 2.9004 19.5257C2.87403 19.6038 2.95313 19.708 2.92676 19.786C2.9004 19.8641 2.8213 19.9422 2.79493 20.0203C2.76856 20.0984 2.84766 20.2286 2.8213 20.3067C2.79493 20.3847 2.50489 20.3847 2.47852 20.4628C2.45215 20.5409 2.58399 20.6711 2.55762 20.7492C2.53126 20.8273 2.39942 20.8533 2.37305 20.9314C2.34668 21.0095 2.63672 21.1917 2.61036 21.2698C2.58399 21.3479 2.29395 21.3479 2.26758 21.426C2.24122 21.504 2.13575 21.5561 2.10938 21.6342C2.08301 21.7123 2.45215 21.8945 2.42579 21.9726C2.39942 22.0507 2.29395 22.1288 2.26758 22.2069C2.24122 22.285 2.32032 22.3891 2.29395 22.4672C2.26758 22.5453 2.10938 22.5713 2.08301 22.6754C2.05665 22.7795 1.79297 22.7795 1.76661 22.8576C1.74024 22.9357 2.05664 23.0919 2.03028 23.17C2.00391 23.2481 2.00391 23.3262 1.97754 23.4043C1.95118 23.4824 1.89844 23.5604 1.89844 23.6385C1.89844 23.7166 1.5293 23.7166 1.50293 23.7947C1.47657 23.8728 1.74024 24.029 1.71387 24.1071C1.6875 24.1852 1.71387 24.2893 1.71387 24.3674C1.71387 24.4455 1.71387 24.5496 1.71387 24.6277C1.71387 24.7058 1.63477 24.7839 1.6084 24.862C1.58203 24.9401 1.50293 25.0181 1.47657 25.0962C1.4502 25.1743 1.4502 25.2524 1.4502 25.3305C1.4502 25.4086 1.58203 25.5388 1.58203 25.6168C1.58203 25.6949 1.47657 25.773 1.4502 25.8511L1.39746 26.0854C1.3711 26.1635 1.00196 26.1895 1.00196 26.2676C1.00196 26.3457 1.21289 26.4758 1.18653 26.5539C1.16016 26.632 1.18653 26.7362 1.16016 26.8142C1.13379 26.8923 0.975588 26.9444 0.975588 27.0485C0.975588 27.1526 1.10742 27.2307 1.08106 27.3088C1.05469 27.3869 0.843752 27.439 0.843752 27.5171C0.843752 27.5952 0.817385 27.6732 0.791017 27.7513C0.76465 27.8294 0.975588 27.9596 0.949221 28.0377C0.922854 28.1158 0.76465 28.1678 0.76465 28.2719C0.76465 28.3761 0.896486 28.4542 0.896486 28.5322C0.896486 28.6103 0.632814 28.6624 0.632814 28.7405C0.632814 28.8186 0.975588 28.9487 0.975588 29.0268C0.975588 29.1049 0.580079 29.157 0.580079 29.2351C0.580079 29.3132 0.870119 29.4433 0.843752 29.5214C0.817385 29.5995 0.553712 29.6516 0.553712 29.7296C0.553712 29.8077 0.791017 29.9379 0.76465 30.016C0.738283 30.0941 0.47461 30.1461 0.47461 30.2242C0.47461 30.3023 0.711916 30.4064 0.711916 30.5106C0.711916 30.6147 0.448243 30.6407 0.448243 30.7448C0.448243 30.849 0.685548 30.927 0.685548 31.0051C0.685548 31.0832 0.342774 31.1353 0.342774 31.2134C0.342774 31.2915 0.606447 31.3956 0.580079 31.4997C0.553712 31.6038 0.500978 31.6559 0.500978 31.734C0.500978 31.8121 0.395509 31.8902 0.395509 31.9683C0.395509 32.0463 0.632814 32.1505 0.632814 32.2286C0.632814 32.3067 0.316407 32.3847 0.316407 32.4628C0.316407 32.5409 0.580079 32.645 0.580079 32.7231C0.580079 32.8012 0.369141 32.8793 0.369141 32.9574C0.369141 33.0355 0.237305 33.1136 0.237305 33.1917C0.237305 33.2698 0.342774 33.3739 0.342774 33.452C0.342774 33.5301 0.580079 33.6342 0.553712 33.7123C0.527345 33.7904 0.421876 33.8685 0.421876 33.9466C0.421876 34.0247 0.395509 34.1027 0.395509 34.2069C0.395509 34.311 0.395509 34.3631 0.395509 34.4672C0.395509 34.5713 0.29004 34.6234 0.29004 34.7014C0.29004 34.7795 0.158203 34.8576 0.158203 34.9357C0.158203 35.0138 0.448243 35.1179 0.448243 35.196C0.448243 35.2741 0.105469 35.3522 0.105469 35.4303C0.105469 35.5084 0.47461 35.6125 0.47461 35.6906C0.47461 35.7687 0.263672 35.8468 0.263672 35.9249C0.263672 36.003 0 36.1331 0 36.2112C0 36.2893 0.29004 36.3934 0.29004 36.4715C0.29004 36.5496 0.369141 36.6277 0.369141 36.7318C0.369141 36.8359 0.0791017 36.888 0.0791017 36.9661C0.0791017 37.0442 0.184571 37.1223 0.184571 37.2264C0.184571 37.3305 0.395509 37.4086 0.395509 37.4867C0.395509 37.5648 0.342774 37.6429 0.342774 37.747C0.342774 37.8511 0.0527345 37.9032 0.0527345 38.0073C0.0527345 38.1114 0.0791017 38.1635 0.0791017 38.2676C0.0791017 38.3717 0.105469 38.4238 0.105469 38.5279C0.105469 38.632 0.0263672 38.6841 0.0263672 38.7882C0.0263672 38.8923 0.263672 38.9444 0.263672 39.0485C0.263672 39.1526 0.316407 39.2047 0.316407 39.3088C0.316407 39.4129 0 39.491 0 39.5691C0 39.6472 0.184571 39.7253 0.184571 39.8034C0.184571 39.8815 0.131836 39.9596 0.131836 40.0637C0.131836 40.1678 0.263672 40.2199 0.263672 40.324C0.263672 40.4281 0.448243 40.4802 0.448243 40.5583C0.448243 40.6364 0.316407 40.7405 0.316407 40.8186C0.316407 40.8967 0.316407 40.9748 0.316407 41.0789C0.316407 41.183 0.448243 41.2351 0.448243 41.3132C0.448243 41.3913 0.29004 41.4954 0.29004 41.5735C0.29004 41.6516 0.184571 41.7557 0.184571 41.8338C0.184571 41.9119 0.342774 41.99 0.369141 42.068C0.395509 42.1461 0.184571 42.2503 0.184571 42.3283C0.184571 42.4064 0.316407 42.4845 0.316407 42.5626C0.316407 42.6407 0.131836 42.7448 0.131836 42.8229C0.131836 42.901 0.395509 42.9791 0.395509 43.0572C0.395509 43.1353 0.29004 43.2394 0.29004 43.3175C0.29004 43.3956 0.342774 43.4737 0.342774 43.5778C0.342774 43.6819 0.448243 43.734 0.47461 43.8121C0.500978 43.8902 0.29004 43.9943 0.316407 44.0724C0.342774 44.1505 0.580079 44.2286 0.580079 44.3067C0.580079 44.3847 0.606447 44.4628 0.632814 44.5409C0.659181 44.619 0.500978 44.7231 0.500978 44.8012C0.500978 44.8793 0.659181 44.9574 0.659181 45.0355C0.659181 45.1136 0.395509 45.2177 0.421876 45.2958C0.448243 45.3739 0.316407 45.478 0.316407 45.5561C0.316407 45.6342 0.369141 45.7123 0.395509 45.8164C0.421876 45.9205 0.395509 45.9726 0.395509 46.0767C0.395509 46.1808 0.553712 46.2329 0.580079 46.311C0.606447 46.3891 0.711916 46.4672 0.711916 46.5453C0.711916 46.6234 0.659181 46.7275 0.659181 46.8056C0.659181 46.8837 0.896486 46.9357 0.922854 47.0398C0.949221 47.144 0.76465 47.2221 0.791017 47.3001C0.817385 47.3782 0.632814 47.3522 0.632814 47.4303C0.632814 47.5084 0.949221 47.5605 0.949221 47.6385C0.949221 47.7166 0.949221 47.7947 0.949221 47.8988C0.949221 48.003 1.02832 48.055 1.02832 48.1331C1.02832 48.2112 0.922854 48.3153 0.922854 48.3934C0.922854 48.4715 0.975588 48.5496 1.00196 48.6277C1.02832 48.7058 1.02832 48.7839 1.02832 48.888C1.02832 48.9921 1.05469 49.0442 1.08106 49.1223C1.10742 49.2004 1.02832 49.3045 1.05469 49.3826C1.08106 49.4607 1.23926 49.5127 1.26563 49.6169C1.292 49.721 1.08106 49.8251 1.10742 49.9032C1.13379 49.9813 1.00196 50.0854 1.02832 50.1635L1.08106 50.3978C1.10742 50.4759 1.42383 50.5019 1.4502 50.58C1.47657 50.6581 1.6084 50.7101 1.63477 50.8142C1.66114 50.9184 1.29199 51.0485 1.31836 51.1266C1.34473 51.2047 1.42383 51.2828 1.4502 51.3609C1.47657 51.439 1.47657 51.5171 1.47657 51.6212C1.47657 51.7253 1.42383 51.8034 1.4502 51.8815C1.47657 51.9596 1.4502 52.0377 1.47657 52.1418C1.50293 52.2459 1.84571 52.2459 1.87207 52.324C1.89844 52.4021 1.84571 52.5062 1.87207 52.5843C1.89844 52.6624 1.81934 52.7665 1.81934 52.8446C1.81934 52.9227 1.66114 53.0529 1.6875 53.131C1.71387 53.209 1.95118 53.2351 1.97754 53.3132C2.00391 53.3913 1.89844 53.4954 1.92481 53.5735C1.95118 53.6516 2.00391 53.7297 2.00391 53.8077C2.00391 53.8858 2.13575 53.9379 2.16211 54.016C2.18848 54.0941 2.03028 54.2242 2.05665 54.3023C2.08301 54.3804 2.05665 54.4845 2.08301 54.5626C2.10938 54.6407 2.50489 54.6147 2.53126 54.6928C2.55762 54.7709 2.53126 54.875 2.53126 54.9531C2.53126 55.0312 2.58399 55.1093 2.61036 55.1874C2.63672 55.2654 2.34668 55.4477 2.37305 55.5257C2.39942 55.6038 2.63672 55.6299 2.66309 55.708C2.68946 55.7861 2.66309 55.8902 2.68946 55.9683C2.71583 56.0464 2.79493 56.1244 2.8213 56.2025C2.84766 56.2806 2.66309 56.4368 2.68946 56.5149C2.71583 56.593 2.76856 56.6711 2.79493 56.7492C2.8213 56.8273 2.92676 56.8793 2.9795 56.9574C3.03223 57.0355 3.24317 57.0355 3.26954 57.1136C3.29591 57.1917 3.29591 57.2698 3.32227 57.3479C3.34864 57.426 3.11133 57.6082 3.1377 57.6863C3.16407 57.7644 3.1377 57.8685 3.16407 57.9466C3.19044 58.0247 3.42774 58.0247 3.45411 58.1028C3.48048 58.1808 3.26954 58.337 3.32227 58.4151C3.37501 58.4932 3.55958 58.5192 3.58595 58.5713C3.61231 58.6234 3.84962 58.6494 3.87598 58.7275C3.90235 58.8056 3.92872 58.8837 3.95509 58.9618C3.98145 59.0398 3.87598 59.17 3.92872 59.2481C3.98145 59.3262 3.95509 59.4303 3.98145 59.5084C4.00782 59.5865 4.03419 59.6646 4.08692 59.7427C4.13966 59.8208 4.21876 59.8728 4.27149 59.9509C4.32423 60.029 4.13966 60.1852 4.19239 60.2633C4.24513 60.3414 4.4297 60.3414 4.45606 60.4195C4.48243 60.4976 4.667 60.4975 4.69337 60.5756C4.71974 60.6537 4.79884 60.7058 4.82521 60.7839C4.85157 60.862 4.667 61.0442 4.69337 61.1223C4.71974 61.2004 4.77247 61.2785 4.79884 61.3566C4.82521 61.4346 5.16798 61.3566 5.19435 61.4346C5.22071 61.5127 4.87794 61.773 4.93067 61.8511C4.98341 61.9292 5.06251 61.9813 5.11525 62.0333C5.16798 62.0854 5.27345 62.1375 5.29982 62.2156C5.32618 62.2936 5.27345 62.4238 5.32618 62.5019C5.37892 62.58 5.43165 62.632 5.45802 62.7101C5.48439 62.7882 5.51075 62.8663 5.56349 62.9444C5.61622 63.0225 5.77443 62.9965 5.82716 63.0746C5.8799 63.1526 6.01173 63.1787 6.0381 63.2307C6.06447 63.2828 6.06447 63.4129 6.1172 63.491C6.16994 63.5691 6.1172 63.6993 6.16994 63.7513C6.22267 63.8034 6.22267 63.9075 6.2754 63.9856C6.32814 64.0637 6.35451 64.1418 6.40724 64.2199C6.45997 64.298 6.75001 64.1939 6.80275 64.272C6.85548 64.35 6.93459 64.4021 6.96095 64.4542C6.98732 64.5062 6.80275 64.7665 6.85548 64.8446C6.90822 64.9227 7.09279 64.8707 7.14552 64.9487C7.19826 65.0268 7.33009 65.0268 7.38283 65.0789C7.43556 65.131 7.4883 65.209 7.51466 65.2871C7.54103 65.3652 7.51466 65.4954 7.5674 65.5474C7.62013 65.5995 7.6465 65.7036 7.69924 65.7817C7.75197 65.8598 7.91017 65.8338 7.96291 65.8858C8.01564 65.9379 8.01564 66.068 8.06838 66.1201C8.12111 66.1722 8.12111 66.3023 8.17385 66.3544C8.22658 66.4064 8.20021 66.5626 8.25295 66.6147C8.30568 66.6667 8.49025 66.6407 8.54299 66.6928C8.59572 66.7448 8.72756 66.7448 8.78029 66.8229C8.83303 66.901 8.91213 66.927 8.96486 66.9791C9.0176 67.0312 8.83303 67.3175 8.88576 67.3696C8.9385 67.4216 9.07033 67.4477 9.12307 67.4997C9.1758 67.5518 9.43947 67.4477 9.49221 67.4997C9.54494 67.5518 9.41311 67.8121 9.46584 67.8641C9.51858 67.9162 9.75588 67.8121 9.80862 67.8641C9.86135 67.9162 9.88772 68.0203 9.94045 68.0984C9.99319 68.1765 9.96682 68.3067 10.0196 68.3587C10.0723 68.4108 10.336 68.2806 10.3887 68.3327C10.4414 68.3848 10.2041 68.7752 10.2832 68.8273C10.336 68.8793 10.4151 68.9314 10.4942 68.9835C10.5469 69.0355 10.5996 69.1136 10.6524 69.1657C10.7051 69.2177 11.0215 69.0095 11.0742 69.0615C11.127 69.1136 11.1006 69.2958 11.1533 69.3479C11.2061 69.3999 11.4434 69.2698 11.4961 69.3218C11.5489 69.3739 11.417 69.6863 11.4698 69.7383C11.5225 69.7904 11.8389 69.5561 11.8916 69.6082C11.9444 69.6602 11.8125 69.9726 11.8653 70.0247C11.918 70.0767 12.1817 69.8945 12.2608 69.9205C12.3399 69.9466 12.1553 70.337 12.208 70.3891C12.2608 70.4411 12.3926 70.4151 12.4717 70.4672C12.5508 70.5192 12.7354 70.3891 12.7881 70.4412C12.8408 70.4932 12.9727 70.4411 13.0518 70.4932C13.1309 70.5453 12.9991 70.8576 13.0782 70.9097C13.1573 70.9618 13.3946 70.7795 13.4473 70.8056C13.5 70.8316 13.5264 71.0138 13.5791 71.0398C13.6319 71.0659 13.5791 71.3262 13.6582 71.3782C13.7373 71.4303 14.001 71.17 14.0801 71.196C14.1592 71.2221 14.2647 71.2221 14.3174 71.2741C14.3701 71.3262 14.2647 71.6906 14.3174 71.7166C14.3701 71.7427 14.5811 71.6125 14.6602 71.6646C14.7393 71.7166 14.6602 72.003 14.7393 72.029C14.8184 72.055 14.9502 72.029 15.003 72.0811C15.0557 72.1331 15.1348 72.2112 15.2139 72.2372C15.293 72.2633 15.5567 71.9769 15.6358 72.029C15.7149 72.0811 15.6885 72.2893 15.7676 72.3153C15.8467 72.3414 15.9786 72.2893 16.0577 72.3153C16.1368 72.3414 16.084 72.6277 16.1631 72.6798C16.2422 72.7318 16.4532 72.4976 16.5059 72.5496C16.5586 72.6017 16.5586 72.8359 16.6114 72.862C16.6641 72.888 16.875 72.7058 16.9541 72.7318C17.0332 72.7579 16.9805 73.0442 17.0596 73.0702L17.2969 73.1743C17.376 73.2004 17.587 72.9661 17.6661 72.9921C17.7452 73.0182 17.6924 73.3305 17.7715 73.3826C17.8506 73.4346 18.0352 73.2264 18.0879 73.2524C18.1407 73.2785 18.2461 73.2785 18.3252 73.3045C18.4043 73.3305 18.378 73.5908 18.4571 73.6169C18.5362 73.6429 18.6416 73.6169 18.7207 73.6429L18.958 73.721C19.0372 73.747 19.169 73.6429 19.2481 73.6689C19.3272 73.6949 19.3008 74.0073 19.3799 74.0333C19.459 74.0594 19.5645 74.0073 19.6436 74.0333C19.7227 74.0594 19.8545 73.9813 19.9336 74.0073C20.0127 74.0333 20.0391 74.1635 20.1446 74.2156C20.25 74.2676 20.3555 74.1635 20.4082 74.1895C20.461 74.2156 20.5137 74.3978 20.5928 74.4238C20.6719 74.4498 20.751 74.4498 20.8301 74.4759C20.9092 74.5019 20.9883 74.5019 21.0674 74.5279C21.1465 74.5539 21.1993 74.6581 21.2784 74.6841C21.3575 74.7101 21.5157 74.5019 21.5948 74.5279C21.6739 74.5539 21.7793 74.5279 21.8584 74.5539C21.9375 74.58 21.9375 74.9184 22.0166 74.9444C22.0958 74.9704 22.2276 74.8143 22.3067 74.8143C22.3858 74.8143 22.5176 74.632 22.6231 74.6581C22.7286 74.6841 22.7286 74.9444 22.8077 74.9444C22.8868 74.9444 23.045 74.7362 23.1241 74.7622C23.2032 74.7882 23.2295 74.9965 23.335 74.9965L23.5723 75.0485C23.6514 75.0746 23.7305 75.1526 23.8096 75.1787C23.8887 75.2047 24.0206 75.0746 24.0997 75.1006C24.1788 75.1266 24.1788 75.439 24.2842 75.465C24.3897 75.491 24.5479 75.1266 24.627 75.1266C24.7061 75.1266 24.7325 75.439 24.8116 75.439C24.8907 75.439 24.9961 75.3609 25.0752 75.3869C25.1544 75.413 25.2598 75.3088 25.3389 75.3088C25.418 75.3088 25.4971 75.3088 25.6026 75.3349C25.7081 75.3609 25.6817 75.7513 25.7608 75.7774C25.8399 75.8034 25.9981 75.413 26.0772 75.413C26.1563 75.413 26.209 75.5952 26.2881 75.6212C26.3672 75.6472 26.4463 75.6993 26.5254 75.7253C26.6045 75.7513 26.6837 75.7774 26.7628 75.8034C26.8419 75.8294 26.921 75.9075 27.0001 75.9336C27.0792 75.9596 27.1583 75.9856 27.2374 76.0117C27.3165 76.0377 27.4747 75.6472 27.5538 75.6733C27.6329 75.6993 27.712 75.8294 27.7911 75.8294C27.8702 75.8294 27.9229 76.0897 28.002 76.0897C28.0811 76.0897 28.213 75.8294 28.2921 75.8294C28.3712 75.8294 28.4503 75.9596 28.5294 75.9856C28.6085 76.0116 28.6876 76.1158 28.7667 76.1158C28.8458 76.1158 28.9249 76.1158 29.0303 76.1158C29.1358 76.1158 29.1885 76.1158 29.294 76.1418C29.3995 76.1678 29.4786 76.0897 29.5577 76.1158C29.6368 76.1418 29.7423 76.0637 29.8214 76.0637C29.9005 76.0637 29.9796 76.1939 30.0587 76.1939C30.1378 76.1939 30.2169 76.4281 30.296 76.4281C30.3751 76.4281 30.4542 76.4281 30.5596 76.4281C30.6651 76.4281 30.7442 76.3761 30.8233 76.3761C30.9024 76.3761 30.9815 76.324 31.087 76.324C31.1925 76.324 31.2452 76.4542 31.3243 76.4542C31.4034 76.4542 31.5089 76.298 31.588 76.298C31.6671 76.298 31.7725 76.1678 31.8516 76.1678C31.9307 76.1678 32.0098 76.4542 32.0889 76.4542C32.168 76.4542 32.2471 76.5062 32.3262 76.5323C32.4053 76.5583 32.5108 76.2459 32.5899 76.2459C32.669 76.2459 32.7481 76.5323 32.8272 76.5323C32.9063 76.5323 33.0118 76.3761 33.0909 76.3761C33.17 76.3761 33.2491 76.4802 33.3282 76.4802C33.4073 76.4802 33.5128 76.3761 33.5919 76.3761C33.671 76.3761 33.7501 76.5583 33.8292 76.5583C33.9083 76.5583 34.0137 76.272 34.0928 76.272C34.1719 76.272 34.2511 76.298 34.3565 76.298C34.462 76.298 34.5147 76.6103 34.5938 76.6364C34.6729 76.6624 34.7784 76.324 34.8575 76.324C34.9366 76.324 35.0157 76.5323 35.1212 76.5323C35.2266 76.5323 35.2794 76.6103 35.3848 76.6103C35.4903 76.6103 35.543 76.5323 35.6485 76.5323C35.754 76.5323 35.8067 76.6624 35.9122 76.6624C36.0177 76.6624 36.0968 76.4021 36.1759 76.4021C36.255 76.4021 36.3341 76.3761 36.4395 76.3761C36.545 76.3761 36.5977 76.6624 36.7032 76.6624C36.8087 76.6624 36.8614 76.298 36.9669 76.272C37.0723 76.2459 37.1251 76.35 37.2305 76.35C37.336 76.35 37.4151 76.6364 37.4942 76.6364C37.5733 76.6364 37.6524 76.35 37.7315 76.35C37.8106 76.35 37.8897 76.324 37.9952 76.324C38.1007 76.324 38.1798 76.6103 38.2589 76.6103C38.338 76.6103 38.4171 76.2199 38.4962 76.2199C38.5753 76.2199 38.6807 76.5583 38.7598 76.5583C38.839 76.5583 38.9181 76.5323 39.0235 76.5062C39.129 76.4802 39.2081 76.5843 39.2872 76.5843C39.3663 76.5843 39.4454 76.1418 39.5245 76.1418C39.6036 76.1418 39.7091 76.3761 39.7882 76.3761C39.8673 76.3761 39.9464 76.324 40.0518 76.324C40.1573 76.324 40.2364 76.5323 40.3155 76.5323C40.3946 76.5323 40.4737 76.1678 40.5528 76.1678C40.6319 76.1678 40.7374 76.3761 40.8165 76.3761C40.8956 76.3761 41.0011 76.5323 41.0802 76.5323C41.1593 76.5323 41.2384 76.298 41.3175 76.298C41.3966 76.298 41.4757 76.1939 41.5548 76.1939C41.6339 76.1939 41.7393 76.324 41.8185 76.324C41.8976 76.324 41.9767 76.324 42.0821 76.324C42.1876 76.324 42.2403 76.0897 42.3194 76.0897C42.3985 76.0897 42.504 76.298 42.5831 76.298C42.6622 76.298 42.7413 76.272 42.8204 76.2459C42.8995 76.2199 43.005 76.35 43.0841 76.35C43.1632 76.35 43.2159 76.0897 43.3214 76.0637C43.4269 76.0377 43.4796 76.0117 43.5587 76.0117C43.6378 76.0117 43.7696 76.2459 43.8487 76.2459C43.9278 76.2459 44.0069 76.2199 44.086 76.1939C44.1651 76.1678 44.2442 76.0117 44.3233 76.0117L44.5606 75.9856C44.6397 75.9856 44.7188 75.8815 44.7979 75.8555C44.877 75.8294 44.9825 75.9075 45.0616 75.8815C45.1407 75.8555 45.2198 75.8034 45.2989 75.7774C45.378 75.7513 45.4835 75.8555 45.5626 75.8555C45.6417 75.8555 45.7472 75.9075 45.8263 75.9075C45.9054 75.9075 45.9845 75.8294 46.0636 75.8034C46.1427 75.7774 46.2481 75.8555 46.3272 75.8555C46.4063 75.8555 46.4855 75.6993 46.5646 75.6733C46.6437 75.6472 46.7228 75.6472 46.8019 75.6212C46.881 75.5952 46.9601 75.5431 47.0392 75.5171C47.1183 75.491 47.1974 75.413 47.2765 75.413C47.3556 75.413 47.4347 75.3609 47.5138 75.3349C47.5929 75.3088 47.6983 75.3609 47.7774 75.3609C47.8565 75.3609 48.0147 75.6212 48.0939 75.6212C48.173 75.6212 48.173 75.1787 48.2521 75.1527C48.3312 75.1266 48.4894 75.3869 48.5685 75.3609C48.6476 75.3349 48.7003 75.1527 48.7794 75.1527C48.8585 75.1527 49.0167 75.413 49.0958 75.3869L49.3331 75.3349C49.4122 75.3088 49.4649 75.1787 49.5441 75.1787C49.6232 75.1787 49.6495 74.9184 49.7286 74.9184C49.8077 74.9184 49.8868 74.8143 49.9659 74.8143C50.045 74.8143 50.1505 74.8403 50.2296 74.8143C50.3087 74.7882 50.3878 74.7362 50.4669 74.7101C50.546 74.6841 50.5987 74.606 50.7042 74.58C50.8097 74.554 50.9415 74.7882 51.0206 74.7622L51.2579 74.6841C51.337 74.6581 51.3898 74.5019 51.4689 74.4759C51.548 74.4498 51.7062 74.6841 51.7853 74.6581C51.8644 74.632 51.9171 74.5019 51.9962 74.4759C52.0753 74.4498 52.0489 74.1114 52.128 74.0854C52.2071 74.0594 52.2862 74.0854 52.3917 74.0594C52.4972 74.0333 52.6554 74.2676 52.7345 74.2416C52.8136 74.2156 52.8136 73.9553 52.8927 73.9292C52.9718 73.9032 53.0509 73.8511 53.13 73.8251C53.2091 73.7991 53.3146 73.7991 53.3937 73.773L53.631 73.6689C53.7101 73.6429 53.8155 73.6949 53.8946 73.6689C53.9737 73.6429 54.0001 73.4867 54.0792 73.4607C54.1583 73.4346 54.2902 73.4867 54.3693 73.4607C54.4484 73.4346 54.6066 73.5908 54.6857 73.5648C54.7648 73.5388 54.8175 73.4607 54.8966 73.4346C54.9757 73.4086 55.0284 73.3305 55.1075 73.3045C55.1866 73.2785 55.2921 73.3045 55.3712 73.2785C55.4503 73.2524 55.4503 73.0442 55.5294 73.0182C55.6085 72.9921 55.6613 72.914 55.7404 72.888C55.8195 72.862 55.8986 72.8099 55.9513 72.7579C56.004 72.7058 56.0831 72.6277 56.1622 72.6017C56.2413 72.5756 56.4259 72.7318 56.4786 72.6798C56.5314 72.6277 56.505 72.3674 56.5841 72.3414C56.6632 72.3153 56.795 72.3934 56.8741 72.3414C56.9532 72.2893 57.1114 72.4195 57.1906 72.3674C57.2697 72.3153 57.3224 72.2633 57.4015 72.2372C57.4806 72.2112 57.3751 71.8468 57.4279 71.7947C57.4806 71.7427 57.6652 71.8728 57.7443 71.8468C57.8234 71.8208 57.9816 71.9249 58.0607 71.8728C58.1398 71.8208 58.2189 71.7947 58.2716 71.7427C58.3243 71.6906 58.4034 71.6125 58.4562 71.5865C58.5089 71.5605 58.4562 71.3002 58.5353 71.2481C58.6144 71.196 58.6408 71.0919 58.6935 71.0398C58.7462 70.9878 59.0626 71.3002 59.1417 71.2481C59.2208 71.196 59.089 70.8576 59.1681 70.8316C59.2472 70.8056 59.3527 70.8316 59.4318 70.7795C59.5109 70.7275 59.5636 70.6754 59.6427 70.6494C59.7218 70.6234 59.6691 70.3891 59.7482 70.337C59.8273 70.285 60.0909 70.5453 60.1701 70.4932C60.2492 70.4411 60.2755 70.3631 60.3546 70.311C60.4337 70.2589 60.3546 70.0507 60.4337 69.9986C60.5128 69.9466 60.5919 69.9466 60.671 69.8685C60.7501 69.7904 60.7501 69.7123 60.8292 69.6602C60.9083 69.6082 61.1456 69.7904 61.2247 69.7383C61.3038 69.6863 61.3566 69.6342 61.4357 69.5821C61.5148 69.5301 61.4357 69.3218 61.5148 69.2698C61.5939 69.2177 61.7257 69.2698 61.8048 69.2177C61.8839 69.1657 61.9367 69.1136 61.9894 69.0615C62.0421 69.0095 61.8839 68.6711 61.9367 68.619C61.9894 68.567 62.2794 68.7492 62.3322 68.6711C62.3849 68.593 62.3849 68.4628 62.4376 68.4108C62.4904 68.3587 62.6486 68.3848 62.7013 68.3327C62.754 68.2806 62.7804 68.1765 62.8331 68.1245C62.8859 68.0724 63.0704 68.1244 63.1232 68.0724C63.1759 68.0203 63.2023 67.9162 63.255 67.8641C63.3078 67.8121 63.1232 67.4997 63.1759 67.4216C63.2287 67.3435 63.3078 67.3175 63.3869 67.2654C63.466 67.2134 63.756 67.3696 63.8087 67.3175C63.8615 67.2654 63.7033 67.0051 63.756 66.9271C63.8087 66.849 63.8878 66.8229 63.9669 66.7709C64.046 66.7188 64.2042 66.7448 64.257 66.6928C64.3097 66.6407 64.2306 66.4585 64.2833 66.4064C64.3361 66.3544 64.4679 66.3284 64.5206 66.2763C64.5734 66.2242 64.547 66.0681 64.5997 66.016C64.6525 65.9639 64.9689 66.0941 65.0216 66.016C65.0744 65.9379 65.1535 65.9119 65.2062 65.8338C65.2589 65.7557 65.3117 65.7036 65.338 65.6255C65.3644 65.5474 65.3644 65.4433 65.4171 65.3652C65.4699 65.2871 65.3644 65.1049 65.4171 65.0529C65.4699 65.0008 65.4435 64.8707 65.4962 64.7926C65.549 64.7145 65.839 64.8446 65.8917 64.7665C65.9445 64.6884 65.9445 64.6103 65.9972 64.5323C66.0499 64.4542 66.1554 64.4281 66.2082 64.3761C66.2609 64.324 66.1027 64.1158 66.1554 64.0377C66.2081 63.9596 66.4982 64.0637 66.5509 63.9856C66.6037 63.9075 66.3136 63.6212 66.34 63.5691C66.3664 63.5171 66.63 63.5431 66.6828 63.491C66.7355 63.439 66.5509 63.2047 66.5773 63.1266C66.6037 63.0485 66.8673 63.1006 66.8937 63.0225C66.9201 62.9444 67.1574 62.9965 67.2101 62.9184C67.2628 62.8403 67.131 62.6841 67.1837 62.606C67.2365 62.5279 67.131 62.3978 67.1837 62.3197C67.2365 62.2416 67.3947 62.2416 67.4474 62.1895C67.5001 62.1375 67.3947 61.9813 67.4474 61.9032C67.5001 61.8251 67.7375 61.8772 67.7902 61.7991C67.8429 61.721 67.922 61.6949 67.9748 61.6169C68.0275 61.5388 67.7111 61.2785 67.7374 61.2264C67.7638 61.1743 67.8957 61.1223 67.9484 61.0442C68.0011 60.9661 68.2121 60.9921 68.2384 60.914C68.2648 60.8359 68.1593 60.6798 68.1857 60.6017C68.2121 60.5236 68.1857 60.4195 68.2121 60.3414C68.2384 60.2633 68.5021 60.2893 68.5548 60.2372C68.6076 60.1852 68.713 60.1331 68.7394 60.055C68.7658 59.9769 68.6339 59.8208 68.6603 59.7427C68.6867 59.6646 68.924 59.6646 68.9503 59.5865C68.9767 59.5084 68.8185 59.3522 68.8712 59.2741C68.924 59.196 68.924 59.1179 68.9767 59.0398C69.0294 58.9618 69.1085 58.9097 69.1613 58.8316C69.214 58.7535 69.1086 58.6234 69.1349 58.5453C69.1613 58.4672 69.2667 58.4151 69.2931 58.337C69.3195 58.2589 69.2931 58.1548 69.3195 58.0767C69.3459 57.9986 69.425 57.9466 69.4513 57.8685C69.4777 57.7904 69.4777 57.7123 69.5041 57.6342C69.5304 57.5561 69.3986 57.426 69.4513 57.3479C69.5041 57.2698 69.715 57.2698 69.7677 57.1917C69.8205 57.1136 69.6886 56.9835 69.715 56.9054C69.7414 56.8273 70.0578 56.8533 70.0841 56.7752C70.1105 56.6971 70.0841 56.593 70.1105 56.5149C70.1369 56.4368 70.2423 56.3848 70.2423 56.3067C70.2423 56.2286 70.1105 56.0984 70.1369 56.0203C70.1632 55.9422 70.216 55.8641 70.2423 55.7861C70.2687 55.708 70.3478 55.6559 70.3742 55.5518C70.4005 55.4477 70.4005 55.3956 70.4269 55.3175C70.4533 55.2394 70.3214 55.1093 70.3478 55.0312C70.3742 54.9531 70.4005 54.875 70.4269 54.7969C70.4533 54.7188 70.3214 54.5887 70.3214 54.5106C70.3214 54.4325 70.7697 54.4585 70.7961 54.3804C70.8224 54.3023 70.6115 54.1461 70.6378 54.068C70.6642 53.99 70.506 53.8598 70.5324 53.7817C70.5587 53.7036 70.7433 53.6516 70.7433 53.5735C70.7433 53.4954 70.8752 53.4433 70.9015 53.3652C70.9279 53.2871 70.9279 53.209 70.9543 53.131C70.9806 53.0529 71.0597 52.9748 71.0861 52.8967C71.1125 52.8186 71.0597 52.7145 71.0861 52.6364C71.1125 52.5583 70.9279 52.4281 70.9543 52.35C70.9806 52.272 71.1388 52.2199 71.1388 52.1418C71.1388 52.0637 71.0597 51.9596 71.0861 51.8815C71.1125 51.8034 71.1388 51.7253 71.1652 51.6472C71.1916 51.5691 71.3761 51.5171 71.4025 51.439C71.4289 51.3609 71.4816 51.2828 71.508 51.2047C71.5343 51.1266 71.297 50.9965 71.297 50.9184C71.297 50.8403 71.3234 50.7622 71.3234 50.6841C71.3234 50.606 71.297 50.5279 71.3234 50.4238C71.3498 50.3197 71.7189 50.3197 71.7189 50.2416C71.7189 50.1635 71.508 50.0333 71.508 49.9552C71.508 49.8772 71.8244 49.8511 71.8244 49.747C71.8244 49.6429 71.5607 49.5388 71.5607 49.4607C71.5607 49.3826 71.5871 49.3045 71.5871 49.2264C71.5871 49.1483 71.6398 49.0702 71.6398 48.9921C71.6398 48.914 71.7189 48.8359 71.7453 48.7579C71.7716 48.6798 71.6134 48.5756 71.6134 48.4975C71.6134 48.4195 71.8244 48.3674 71.8244 48.2893C71.8244 48.2112 71.6925 48.1071 71.7189 48.029C71.7453 47.9509 72.0353 47.8988 72.0353 47.8208C72.0353 47.7427 72.1144 47.6646 72.1408 47.5865C72.1671 47.5084 71.7716 47.3782 71.7716 47.3001C71.7716 47.2221 71.9035 47.144 71.9035 47.0659C71.9035 46.9878 71.9562 46.9097 71.9826 46.8316C72.0089 46.7535 72.088 46.6754 72.1144 46.5973C72.1408 46.5192 71.9035 46.4151 71.9298 46.311C71.9562 46.2069 72.299 46.1808 72.299 46.1028C72.299 46.0247 72.0089 45.8945 72.0353 45.8164C72.0617 45.7383 72.1144 45.6602 72.1408 45.5821C72.1671 45.5041 72.1144 45.426 72.1144 45.3218C72.1144 45.2177 72.2199 45.1657 72.2199 45.0876C72.2199 45.0095 72.0617 44.9054 72.0617 44.8273C72.0617 44.7492 72.1408 44.6711 72.1408 44.593C72.1408 44.5149 72.1144 44.4368 72.1144 44.3327C72.1144 44.2286 72.299 44.1765 72.299 44.0984C72.299 44.0203 72.3517 43.9422 72.3781 43.8381C72.4045 43.734 72.299 43.6559 72.299 43.5778C72.299 43.4997 72.4308 43.4216 72.4308 43.3435C72.4308 43.2654 72.4836 43.1874 72.4836 43.0832C72.4836 42.9791 72.2463 42.901 72.2726 42.8229C72.299 42.7448 72.2726 42.6667 72.2726 42.5626C72.2726 42.4585 72.2199 42.4064 72.2199 42.3023C72.2199 42.1982 72.3781 42.1461 72.3781 42.068C72.3781 41.99 72.2726 41.8858 72.2726 41.8077C72.2726 41.7297 72.5627 41.6516 72.5627 41.5735C72.5627 41.4954 72.6418 41.4173 72.6418 41.3132C72.6418 41.209 72.2462 41.131 72.2462 41.0529C72.2462 40.9748 72.2462 40.8967 72.2462 40.7926C72.2462 40.6884 72.589 40.6364 72.589 40.5583C72.589 40.4802 72.4836 40.3761 72.4836 40.298C72.4836 40.2199 72.5627 40.1418 72.5627 40.0637C72.5627 39.9856 72.6154 39.9075 72.6154 39.8034C72.6154 39.6993 72.6154 39.6472 72.6154 39.5431C72.6154 39.439 72.3517 39.3609 72.3517 39.2828C72.3517 39.2047 72.6418 39.1266 72.6418 39.0225C72.6418 38.9184 72.5099 38.8663 72.5099 38.7622C72.5099 38.6581 72.3517 38.606 72.3517 38.5019C72.3517 38.3978 72.4045 38.3457 72.4045 38.2416C72.4045 38.1375 72.4572 38.0854 72.4572 37.9813C72.4572 37.8772 72.2462 37.8251 72.2462 37.721C72.2462 37.6168 72.3517 37.5648 72.3517 37.4607C72.3517 37.3565 72.3253 37.3045 72.3253 37.2004C72.3253 37.0962 72.6418 37.0182 72.6418 36.9401C72.6418 36.862 72.2462 36.7839 72.2462 36.7058C72.2462 36.6277 72.589 36.5236 72.589 36.4455C72.589 36.3674 72.1935 36.2893 72.1935 36.2112C72.1935 36.1331 72.5099 36.029 72.5099 35.9509C72.5099 35.8728 72.6154 35.7947 72.6154 35.6906C72.6154 35.5865 72.2199 35.5344 72.2199 35.4563C72.2199 35.3782 72.5099 35.2741 72.5099 35.196C72.5099 35.1179 72.4308 35.0398 72.4308 34.9618C72.4308 34.8837 72.299 34.8056 72.299 34.7014C72.299 34.5973 72.5099 34.5192 72.5099 34.4411C72.5099 34.3631 72.5099 34.285 72.5099 34.1808C72.5099 34.0767 72.3253 34.0247 72.3253 33.9466C72.3253 33.8685 72.1672 33.7904 72.1672 33.7123C72.1672 33.6342 72.299 33.5301 72.299 33.452C72.299 33.3739 72.1408 33.2958 72.1408 33.2177C72.1408 33.1396 72.299 33.0355 72.299 32.9574C72.299 32.8793 72.2726 32.8012 72.2462 32.6971C72.2199 32.593 72.4045 32.5149 72.4045 32.4368C72.4045 32.3587 72.0353 32.3067 72.0089 32.2025C71.9826 32.0984 72.2199 32.0203 72.2199 31.9422C72.2199 31.8641 72.3781 31.76 72.3781 31.6819C72.3781 31.6038 72.1935 31.5257 72.1935 31.4477C72.1935 31.3696 72.3517 31.2654 72.3517 31.1873C72.3517 31.1093 72.2462 31.0312 72.2462 30.9531C72.2462 30.875 72.088 30.7969 72.0617 30.7188C72.0353 30.6407 71.9562 30.5626 71.9298 30.4845C71.9035 30.4064 72.2199 30.2763 72.1935 30.1982C72.1671 30.1201 71.9035 30.068 71.9035 29.9639C71.9035 29.8598 71.798 29.8077 71.798 29.7296C71.798 29.6516 72.0353 29.5214 72.0089 29.4433C71.9826 29.3652 71.7453 29.3132 71.7453 29.2351C71.7453 29.157 72.0617 29.0268 72.0617 28.9487C72.0617 28.8706 71.7453 28.8186 71.7453 28.7405C71.7453 28.6624 71.9035 28.5583 71.8771 28.4802C71.8507 28.4021 72.0089 28.298 72.0089 28.2199C72.0089 28.1418 71.6398 28.1158 71.6134 28.0116C71.5871 27.9075 71.798 27.8034 71.798 27.7253C71.798 27.6472 71.5607 27.5952 71.5607 27.5171C71.5607 27.439 71.5607 27.3609 71.5343 27.2568C71.508 27.1526 71.4816 27.1006 71.4816 27.0225C71.4816 26.9444 71.5343 26.8403 71.508 26.7622C71.4816 26.6841 71.4025 26.606 71.4025 26.5279C71.4025 26.4498 71.6134 26.3197 71.5871 26.2416C71.5607 26.1635 71.4025 26.1114 71.4025 26.0333C71.4025 25.9552 71.2443 25.9032 71.2443 25.7991C71.2443 25.6949 71.4552 25.5908 71.4289 25.5127C71.4025 25.4346 71.2443 25.3826 71.2179 25.3045C71.1916 25.2264 71.297 25.1223 71.2707 25.0442C71.2443 24.9661 71.3498 24.862 71.3498 24.7839C71.3498 24.7058 71.0861 24.6798 71.0861 24.5756C71.0861 24.4715 71.007 24.4194 70.9806 24.3414C70.9543 24.2633 71.2443 24.1071 71.2179 24.029C71.1916 23.9509 71.0861 23.8728 71.0861 23.7947C71.0861 23.7166 71.1125 23.6125 71.0861 23.5344C71.0597 23.4563 70.8224 23.4303 70.7961 23.3522C70.7697 23.2741 70.6115 23.2221 70.5851 23.144C70.5587 23.0659 70.9543 22.8837 70.9279 22.8056C70.9015 22.7275 70.4796 22.7535 70.4533 22.6754C70.4269 22.5973 70.5324 22.4932 70.506 22.4151C70.4796 22.337 70.717 22.1808 70.6906 22.1027C70.6642 22.0247 70.5851 21.9466 70.5587 21.8945C70.5324 21.8424 70.6115 21.7123 70.5851 21.6342C70.5587 21.5561 70.2423 21.5561 70.216 21.478C70.1896 21.3999 70.3478 21.2698 70.3214 21.1917C70.2951 21.1136 70.1632 21.0615 70.1369 20.9834C70.1105 20.9053 70.1369 20.8012 70.1105 20.7231C70.0841 20.645 70.2951 20.4889 70.2687 20.4108C70.2423 20.3327 70.0314 20.3066 70.005 20.2286C69.9787 20.1505 69.7677 20.1244 69.7414 20.0463C69.715 19.9683 69.7941 19.8381 69.7677 19.786C69.7414 19.734 69.5568 19.6819 69.5304 19.6038C69.5041 19.5257 69.8205 19.3175 69.7941 19.2394C69.7677 19.1613 69.7677 19.0832 69.7414 19.0051C69.715 18.927 69.5568 18.901 69.5304 18.7969C69.5041 18.6928 69.5304 18.6147 69.5041 18.5366C69.4777 18.4585 69.3986 18.3804 69.3722 18.3283C69.3459 18.2763 69.214 18.2242 69.1613 18.1461C69.1085 18.068 68.8976 18.068 68.8712 17.9899C68.8449 17.9119 69.1349 17.7036 69.1085 17.6255C69.0822 17.5474 68.8185 17.5735 68.7658 17.4954C68.713 17.4173 68.6076 17.3912 68.5812 17.3132C68.5548 17.2351 68.6603 17.1049 68.6339 17.0268C68.6076 16.9487 68.423 16.9487 68.3703 16.8706C68.3175 16.7926 68.6603 16.5583 68.6339 16.4802C68.6076 16.4021 68.3439 16.4281 68.3175 16.35C68.2912 16.2719 68.1857 16.2199 68.1593 16.1418C68.133 16.0637 68.0275 16.0116 68.0011 15.9596C67.9748 15.9075 68.0011 15.7774 67.9484 15.6993C67.8957 15.6212 67.8166 15.5691 67.7902 15.491C67.7638 15.4129 67.8166 15.2828 67.7902 15.2047C67.7638 15.1266 67.9484 14.9444 67.922 14.8663C67.8957 14.7882 67.632 14.8142 67.6056 14.7622C67.5792 14.7101 67.421 14.6581 67.3947 14.606C67.3683 14.5539 67.5792 14.3197 67.5265 14.2416C67.4738 14.1635 67.4738 14.0854 67.421 14.0073C67.3683 13.9292 67.2892 13.9032 67.2365 13.8251C67.1837 13.747 66.9464 13.7991 66.9201 13.721C66.8937 13.6429 66.8673 13.5388 66.841 13.4867C66.8146 13.4346 66.8146 13.3045 66.7882 13.2264C66.7619 13.1483 66.5246 13.2004 66.4718 13.1223C66.4191 13.0442 66.3664 12.9921 66.34 12.914C66.3136 12.8359 66.4718 12.6277 66.4191 12.5496C66.3664 12.4715 66.1027 12.5496 66.0499 12.4975C65.9972 12.4455 65.9181 12.3934 65.8917 12.3153C65.8654 12.2372 65.8654 12.1331 65.8126 12.0811C65.7599 12.029 65.6808 11.9769 65.6281 11.8988C65.5753 11.8207 65.7072 11.6385 65.6544 11.5604C65.6017 11.4824 65.4962 11.4824 65.4435 11.4043C65.3908 11.3262 65.4435 11.196 65.3908 11.144C65.338 11.0919 65.1798 11.0919 65.1271 11.0138C65.0744 10.9357 65.1535 10.7795 65.1007 10.7014C65.048 10.6234 64.9162 10.6234 64.8634 10.5713C64.8107 10.5192 64.7316 10.4411 64.6789 10.3891C64.6261 10.337 64.6261 10.2069 64.5734 10.1548C64.5206 10.1027 64.4152 10.0767 64.3361 10.0247C64.257 9.97259 64.046 10.0507 63.9933 9.99862C63.9406 9.94656 63.9142 9.86847 63.8615 9.79038C63.8087 9.71229 63.8087 9.60817 63.756 9.55611C63.7033 9.50405 63.7296 9.37389 63.6505 9.2958C63.5714 9.21771 63.6505 9.08756 63.5978 9.00947C63.5451 8.93138 63.3869 8.98344 63.3341 8.90535C63.2814 8.82726 63.255 8.74916 63.2023 8.6971C63.1495 8.64504 63.0704 8.59298 63.0177 8.54092C62.965 8.48886 62.9913 8.30665 62.9386 8.25459C62.8859 8.20253 62.6222 8.33268 62.5695 8.28062C62.5167 8.22856 62.5431 8.07237 62.464 8.02031C62.3849 7.96825 62.2531 7.99428 62.2003 7.94222C62.1476 7.89016 62.2531 7.62986 62.174 7.5778C62.0949 7.52574 61.8576 7.68192 61.8048 7.62986C61.7521 7.5778 61.6202 7.60383 61.5411 7.55177C61.462 7.49971 61.5939 7.2394 61.5411 7.16131C61.4884 7.08322 61.3829 7.08322 61.3302 7.03116C61.2775 6.9791 61.0665 7.08322 61.0138 7.03116C60.9611 6.9791 60.9083 6.90101 60.8292 6.84895C60.7501 6.79689 60.6974 6.77086 60.6183 6.7188C60.5392 6.66673 60.4601 6.6407 60.4074 6.58864C60.3546 6.53658 60.2492 6.51055 60.1964 6.45849C60.1437 6.40643 60.0909 6.30231 60.0382 6.25025C59.9855 6.19819 60.0646 5.91185 60.0118 5.85979C59.9591 5.80773 59.9064 5.72964 59.8273 5.67758C59.7482 5.62552 59.5372 5.80773 59.4581 5.75567C59.379 5.70361 59.4845 5.41728 59.4054 5.36522C59.3263 5.31316 59.1154 5.49537 59.0363 5.46934C58.9572 5.44331 58.9308 5.31316 58.8781 5.26109C58.8253 5.20903 58.7199 5.20903 58.6407 5.183C58.5616 5.15697 58.588 4.97476 58.5089 4.9227C58.4298 4.87064 58.2452 5.05285 58.1661 5.00079C58.087 4.94873 58.0079 4.94873 57.9288 4.9227C57.8497 4.89667 57.9816 4.50621 57.9025 4.45415C57.8234 4.40209 57.6915 4.50621 57.6124 4.45415C57.5333 4.40209 57.4542 4.40209 57.3751 4.35003C57.296 4.29797 57.3224 4.11576 57.2433 4.0637C57.1642 4.01164 56.9269 4.324 56.8478 4.27194C56.7687 4.21988 56.8214 3.95958 56.7423 3.93355C56.6632 3.90752 56.4523 4.14179 56.3732 4.08973C56.2941 4.03767 56.2677 3.90752 56.1886 3.88148C56.1095 3.85545 56.0831 3.7253 56.004 3.67324C55.9249 3.62118 55.7667 3.75133 55.6876 3.7253C55.6085 3.69927 55.5822 3.54309 55.503 3.51706C55.4239 3.49103 55.3448 3.465 55.2657 3.43897C55.1866 3.41294 55.0812 3.465 55.0021 3.43897C54.923 3.41294 54.9493 3.1266 54.8702 3.10057C54.7911 3.07454 54.6593 3.17866 54.5802 3.15263C54.5011 3.1266 54.3956 3.17866 54.3165 3.15263L53.9737 3.28279C53.8946 3.25676 53.8683 3.1266 53.7892 3.10057C53.7101 3.07454 53.7101 2.8663 53.631 2.84027C53.5519 2.81424 53.42 2.91836 53.3409 2.89233C53.2618 2.8663 53.2618 2.63203 53.1827 2.606C53.1036 2.57997 52.9454 2.73615 52.8663 2.71012C52.7872 2.68409 52.7609 2.50188 52.6818 2.47584C52.6027 2.44981 52.4445 2.65806 52.3653 2.606C52.2862 2.55394 52.2071 2.57997 52.128 2.55394C52.0489 2.52791 52.1017 2.13745 52.0226 2.11142C51.9435 2.08539 51.7853 2.31966 51.7062 2.29363C51.6271 2.2676 51.4952 2.37172 51.4161 2.34569C51.337 2.31966 51.2843 2.18951 51.2052 2.16348C51.1261 2.13745 51.0997 1.95524 51.0206 1.92921C50.9415 1.90318 50.8888 1.77302 50.8097 1.74699C50.7306 1.72096 50.5987 1.82509 50.5196 1.79905C50.4405 1.77302 50.3087 1.87715 50.2296 1.85112C50.1505 1.82509 49.8605 1.82509 49.7814 1.82509C49.7023 1.82509 49.6232 1.77302 49.5441 1.74699C49.4649 1.72096 49.3331 1.85112 49.254 1.82509C49.1749 1.79905 49.1749 1.48669 49.0958 1.46066C49.0167 1.43463 48.8849 1.56478 48.8058 1.56478C48.7267 1.56478 48.6739 1.4086 48.5948 1.38257C48.5157 1.35654 48.3839 1.51272 48.3048 1.51272C48.2257 1.51272 48.173 1.35654 48.0939 1.33051C48.0147 1.30448 47.962 1.12227 47.8829 1.09623C47.8038 1.0702 47.6983 1.12227 47.6192 1.09623C47.5401 1.0702 47.4083 1.25242 47.3292 1.22639C47.2501 1.20036 47.1446 1.30448 47.0655 1.27845C46.9864 1.25242 46.9073 1.22639 46.8282 1.20036C46.7491 1.17433 46.7228 0.809901 46.6437 0.809901C46.5646 0.809901 46.4063 1.1483 46.3272 1.12227C46.2481 1.09623 46.1954 0.861961 46.1163 0.861961C46.0372 0.861961 45.9317 0.887992 45.8526 0.887992C45.7735 0.887992 45.6417 1.0702 45.5626 1.04417C45.4835 1.01814 45.4571 0.601658 45.378 0.575627C45.2989 0.549597 45.1671 0.835931 45.088 0.835931C45.0089 0.835931 44.9298 0.78387 44.8507 0.78387C44.7716 0.78387 44.6925 0.73181 44.6134 0.73181C44.5343 0.73181 44.4552 0.75784 44.3497 0.73181C44.2442 0.705779 44.1915 0.601658 44.1124 0.601658C44.0333 0.601658 43.9542 0.497536 43.8751 0.497536C43.796 0.497536 43.6905 0.627688 43.6114 0.601658C43.5323 0.575627 43.4796 0.367384 43.3741 0.367384C43.2686 0.367384 43.1632 0.601658 43.0841 0.575627C43.005 0.549597 42.9259 0.575627 42.8204 0.575627C42.7149 0.575627 42.6886 0.315324 42.5831 0.315324C42.4776 0.315324 42.3985 0.497536 42.3194 0.497536C42.2403 0.497536 42.1612 0.367384 42.0821 0.367384C42.003 0.367384 41.8976 0.393415 41.8185 0.393415C41.7393 0.393415 41.6602 0.341354 41.5811 0.341354C41.502 0.341354 41.3966 0.471506 41.3175 0.471506C41.2384 0.471506 41.1593 0.419445 41.0802 0.393415C41.0011 0.367384 40.8956 0.575627 40.8165 0.549597C40.7374 0.549597 40.6847 0.107081 40.5792 0.107081C40.4737 0.107081 40.421 0.159141 40.3155 0.159141C40.21 0.159141 40.1309 0.471506 40.0518 0.445475C39.9727 0.419445 39.8936 0.237232 39.8145 0.237232C39.7354 0.237232 39.63 0.367384 39.5509 0.341354C39.4718 0.315324 39.3927 0.185172 39.3136 0.185172C39.2345 0.185172 39.1554 0.211202 39.0499 0.211202C38.9444 0.211202 38.8917 0.237232 38.7862 0.237232C38.6807 0.237232 38.628 0.185172 38.5225 0.185172C38.4171 0.185172 38.338 0.445475 38.2589 0.445475C38.1798 0.445475 38.1007 0.00295908 37.9952 0.00295908C37.8897 0.00295908 37.837 0.107081 37.7315 0.107081C37.6261 0.107081 37.5733 0.185172 37.4679 0.185172C37.3624 0.185172 37.3097 0.289293 37.2042 0.289293H36.9405C36.8614 0.289293 36.7823 0.159141 36.6768 0.159141C36.5714 0.159141 36.5186 0.289293 36.4132 0.289293C36.3077 0.289293 36.255 0.289293 36.1495 0.289293L36.255 0.315324ZM61.7521 57.9466C61.6994 58.0247 61.673 58.1288 61.6202 58.1808C61.5675 58.2329 61.2775 58.1548 61.2247 58.2069C61.172 58.2589 61.172 58.3631 61.0929 58.4151C61.0138 58.4672 61.0402 58.7275 60.9874 58.7535C60.9347 58.7795 60.7765 58.6494 60.671 58.6494C60.5656 58.6494 60.4337 58.8056 60.3546 58.7795C60.2755 58.7535 60.3546 58.4151 60.2755 58.3631C60.1964 58.311 60.0118 58.3891 59.9591 58.337C59.9064 58.285 59.8536 58.2069 59.8009 58.1548C59.7482 58.1028 59.6427 58.0767 59.59 58.0247C59.5372 57.9726 59.6427 57.7383 59.5636 57.6602C59.4845 57.5821 59.1681 57.8424 59.1154 57.7644C59.0626 57.6863 59.1417 57.478 59.089 57.426C59.0363 57.3739 58.8253 57.478 58.7726 57.426C58.7199 57.3739 58.8517 57.0615 58.7726 57.0095C58.6935 56.9574 58.6935 56.8533 58.6144 56.8012C58.5353 56.7492 58.3507 56.8793 58.2716 56.8273C58.1925 56.7752 58.2189 56.619 58.1398 56.567C58.0607 56.5149 57.8234 56.7231 57.7706 56.6711C57.7179 56.619 57.7179 56.4628 57.6388 56.4108C57.5597 56.3587 57.4279 56.4108 57.3751 56.3587C57.3224 56.3067 57.3751 56.0464 57.296 55.9943C57.2169 55.9422 57.006 56.1505 56.9269 56.0984C56.8478 56.0464 56.7687 56.0464 56.6896 56.0203C56.6105 55.9943 56.6896 55.6819 56.6105 55.6559C56.5314 55.6299 56.3995 55.734 56.3204 55.6819C56.2413 55.6299 56.2413 55.4216 56.1622 55.3956C56.0831 55.3696 55.8722 55.6038 55.7931 55.5778C55.714 55.5518 55.7404 55.2654 55.6613 55.2134C55.5822 55.1613 55.4239 55.3435 55.3448 55.3175C55.2657 55.2915 55.1339 55.3956 55.0548 55.3696C54.9757 55.3435 55.0021 54.9531 54.923 54.9531C54.8439 54.9531 54.712 55.0572 54.6329 55.0572C54.5538 55.0572 54.4484 55.0572 54.3693 55.0572C54.2902 55.0572 54.2111 55.0312 54.132 55.0312C54.0529 55.0312 54.0001 54.849 53.921 54.8229C53.8419 54.7969 53.7628 54.8229 53.6573 54.7969C53.5519 54.7709 53.4728 54.849 53.3937 54.849C53.3146 54.849 53.2091 54.901 53.13 54.875C53.0509 54.849 52.9982 54.6667 52.9191 54.6407C52.84 54.6147 52.7609 54.6147 52.6554 54.6147C52.5499 54.6147 52.4708 54.8229 52.3917 54.8229C52.3126 54.8229 52.2335 54.6147 52.1544 54.6147C52.0753 54.6147 51.9962 54.6147 51.8907 54.6147C51.7853 54.6147 51.7062 54.7188 51.6271 54.7188C51.548 54.7188 51.4689 54.4585 51.3898 54.4585C51.3107 54.4585 51.2316 54.7709 51.1261 54.7709C51.0206 54.7709 50.9679 54.6928 50.8624 54.6928C50.7569 54.6928 50.6778 54.3804 50.5987 54.3804C50.5196 54.3804 50.4405 54.6147 50.3614 54.6407C50.2823 54.6667 50.2032 54.5887 50.0978 54.5887C49.9923 54.5887 49.9396 54.5626 49.8341 54.5887C49.7286 54.6147 49.6495 54.4845 49.5704 54.4845C49.4913 54.4845 49.4386 54.875 49.3595 54.875C49.2804 54.875 49.1749 54.7969 49.0958 54.7969C49.0167 54.7969 48.9376 54.7709 48.8321 54.7709C48.7267 54.7709 48.6476 54.6147 48.5685 54.6407C48.4894 54.6667 48.4103 54.7709 48.3312 54.7709C48.2521 54.7709 48.1993 55.0312 48.1202 55.0572C48.0411 55.0832 47.9093 54.7709 47.8038 54.7969C47.6983 54.8229 47.672 55.0051 47.5929 55.0051C47.5138 55.0051 47.4347 55.1093 47.3556 55.1353L47.1183 55.1874C47.0392 55.2134 46.9337 55.1613 46.8546 55.1874C46.7755 55.2134 46.6173 54.9791 46.5382 54.9791L46.3009 55.0312C46.2218 55.0572 46.1163 55.0312 46.0372 55.0572C45.9581 55.0832 45.9317 55.2915 45.8526 55.3175C45.7735 55.3435 45.6681 55.2394 45.589 55.2654C45.5099 55.2915 45.4835 55.5257 45.4044 55.5518C45.3253 55.5778 45.2462 55.6299 45.1671 55.6559C45.088 55.6819 44.9034 55.3696 44.8243 55.3956C44.7452 55.4216 44.6661 55.4737 44.587 55.4997C44.5079 55.5257 44.4288 55.5778 44.3497 55.6038C44.2706 55.6299 44.2706 55.9162 44.1915 55.9422C44.1124 55.9683 44.0333 55.9683 43.9542 55.9943C43.8751 56.0203 43.7433 55.9162 43.6642 55.9422C43.5851 55.9683 43.5587 56.1244 43.4796 56.1505C43.4005 56.1765 43.3741 56.3327 43.295 56.3587C43.2159 56.3847 43.0577 56.2025 42.9786 56.2546C42.8995 56.3067 42.7677 56.2025 42.6886 56.2286C42.6095 56.2546 42.6095 56.4889 42.5304 56.5149C42.4513 56.5409 42.3985 56.619 42.3194 56.6451C42.2403 56.6711 42.1612 56.7492 42.1085 56.7752C42.0558 56.8012 41.9239 56.7752 41.8448 56.8012C41.7657 56.8273 41.713 56.9574 41.6339 56.9834C41.5548 57.0095 41.4757 57.0355 41.3966 57.0615C41.3175 57.0876 41.1856 56.9834 41.1065 57.0095C41.0274 57.0355 40.9483 57.0615 40.8692 57.0876C40.7901 57.1136 40.711 57.1657 40.6319 57.1917C40.5528 57.2177 40.3946 57.0876 40.3155 57.1136C40.2364 57.1396 40.1573 57.1917 40.0782 57.2177C39.9991 57.2438 39.9464 57.3479 39.8673 57.3739C39.7882 57.3999 39.6563 57.3218 39.5772 57.3479C39.4981 57.3739 39.5509 57.7123 39.4718 57.7383C39.3927 57.7644 39.2345 57.6082 39.1554 57.6602C39.0763 57.7123 38.9444 57.6082 38.8653 57.6602C38.7862 57.7123 38.7335 57.7644 38.6544 57.7904C38.5753 57.8164 38.6016 58.1028 38.5225 58.1288C38.4434 58.1548 38.3907 58.2589 38.3116 58.285C38.2325 58.311 38.0743 58.1808 38.0216 58.2329C37.9688 58.285 37.837 58.2329 37.7579 58.2589C37.6788 58.285 37.6261 58.3631 37.547 58.3891C37.4679 58.4151 37.4942 58.6494 37.4151 58.7015C37.336 58.7535 37.2833 58.8056 37.2042 58.8316C37.1251 58.8576 36.9141 58.5973 36.835 58.6234C36.7559 58.6494 36.7823 58.9097 36.7032 58.9357C36.6241 58.9618 36.545 59.0138 36.4659 59.0398C36.3868 59.0659 36.2022 58.8837 36.1231 58.9097C36.044 58.9357 36.044 59.144 35.9649 59.196C35.8858 59.2481 35.7803 59.17 35.7012 59.2221C35.6221 59.2741 35.4903 59.196 35.4112 59.2221C35.3321 59.2481 35.253 59.2741 35.1739 59.3002C35.0948 59.3262 35.1475 59.6646 35.0684 59.6906C34.9893 59.7166 34.8048 59.5344 34.7257 59.5865C34.6466 59.6385 34.5411 59.6125 34.462 59.6385C34.3829 59.6646 34.3302 59.7427 34.251 59.7687C34.1719 59.7947 34.1192 59.8728 34.0401 59.8989C33.961 59.9249 33.961 60.1331 33.8819 60.1592C33.8028 60.1852 33.6973 60.1592 33.6182 60.2112C33.5391 60.2633 33.46 60.2372 33.3809 60.2893C33.3018 60.3414 33.3018 60.4975 33.2227 60.5236C33.1436 60.5496 33.0645 60.5496 32.9854 60.5756C32.9063 60.6017 32.8009 60.5756 32.7217 60.6017C32.6426 60.6277 32.6163 60.7579 32.5372 60.7839C32.4581 60.8099 32.2999 60.6537 32.2208 60.6798C32.1417 60.7058 32.1153 60.8359 32.0362 60.888C31.9571 60.9401 31.9571 61.1483 31.878 61.1743C31.7989 61.2004 31.588 60.914 31.5089 60.9661C31.4298 61.0182 31.4298 61.2004 31.3507 61.2264C31.2716 61.2524 31.2452 61.4086 31.1661 61.4607C31.087 61.5127 31.0079 61.5127 30.9288 61.5388C30.8497 61.5648 30.7706 61.5648 30.6915 61.5908C30.6124 61.6169 30.4542 61.4607 30.3751 61.5127C30.296 61.5648 30.3223 61.7991 30.2432 61.8251C30.1641 61.8511 29.9532 61.5648 29.8741 61.6169C29.795 61.6689 29.7686 61.7991 29.6895 61.8251C29.6104 61.8511 29.4786 61.773 29.3995 61.7991C29.3204 61.8251 29.3467 62.1375 29.2676 62.1635C29.1885 62.1895 29.0567 62.1114 28.9776 62.1375C28.8985 62.1635 28.7667 62.0594 28.6876 62.0854C28.6085 62.1114 28.5557 62.2156 28.4766 62.2676C28.3975 62.3197 28.3448 62.3978 28.2657 62.4238C28.1866 62.4498 28.1338 62.5279 28.0547 62.5539C27.9756 62.58 27.8174 62.4238 27.7647 62.4498C27.712 62.4759 27.6065 62.5279 27.5274 62.5539C27.4483 62.58 27.4219 62.7882 27.3428 62.8143C27.2637 62.8403 27.1846 62.8663 27.1055 62.8923C27.0264 62.9184 26.8419 62.632 26.7628 62.6581C26.6837 62.6841 26.6837 63.0225 26.6045 63.0485C26.5254 63.0746 26.3936 62.9184 26.3145 62.9444C26.2354 62.9704 26.1299 62.9704 26.0508 62.9704C25.9717 62.9704 25.9454 63.2568 25.8663 63.2568C25.7872 63.2568 25.6553 63.1006 25.5762 63.1006C25.4971 63.1006 25.418 63.1526 25.3389 63.1787C25.2598 63.2047 25.2335 63.465 25.1544 63.491C25.0752 63.5171 24.917 63.1787 24.8379 63.2047C24.7588 63.2307 24.7588 63.6212 24.6797 63.6472C24.6006 63.6733 24.4952 63.5952 24.4161 63.6212C24.337 63.6472 24.2315 63.5171 24.126 63.5171C24.0206 63.5171 23.9942 63.6733 23.9151 63.6733C23.836 63.6733 23.7305 63.6212 23.6514 63.6212C23.5723 63.6212 23.4668 63.491 23.3877 63.491C23.3086 63.491 23.2295 63.5431 23.1504 63.5431C23.0713 63.5431 22.9922 63.6733 22.9131 63.6733C22.834 63.6733 22.7286 63.6472 22.6495 63.6733C22.5704 63.6993 22.4913 63.8034 22.4122 63.8294C22.3331 63.8555 22.2276 63.5691 22.1485 63.5952C22.0694 63.6212 21.9903 63.7774 21.9112 63.7774C21.8321 63.7774 21.7266 63.6733 21.6475 63.6733C21.5684 63.6733 21.4893 63.9856 21.4102 64.0116C21.3311 64.0377 21.2256 63.7513 21.1465 63.7513C21.0674 63.7513 20.9883 63.6733 20.8829 63.6733C20.7774 63.6733 20.6983 64.0637 20.6192 64.0637C20.5401 64.0637 20.461 63.9856 20.3555 63.9856C20.25 63.9856 20.1709 64.0637 20.0918 64.0637C20.0127 64.0637 19.9336 63.9075 19.8545 63.8815C19.7754 63.8555 19.7227 63.5952 19.6436 63.5952C19.5645 63.5952 19.4327 63.9075 19.3536 63.8815C19.2745 63.8555 19.169 63.8815 19.0899 63.8555C19.0108 63.8294 18.9317 63.8034 18.8526 63.7774C18.7735 63.7513 18.7471 63.413 18.668 63.413C18.5889 63.413 18.4571 63.6472 18.3516 63.6472C18.2461 63.6472 18.167 63.6472 18.0879 63.6472C18.0088 63.6472 17.9034 63.6472 17.8243 63.6212C17.7452 63.5952 17.6661 63.5171 17.587 63.491C17.5078 63.465 17.4551 63.3609 17.376 63.3349C17.2969 63.3088 17.2178 63.2828 17.1387 63.2568C17.0596 63.2307 16.9014 63.3869 16.8223 63.3609C16.7432 63.3349 16.6905 63.2307 16.6114 63.2047L16.3741 63.1006C16.295 63.0746 16.3741 62.7101 16.295 62.6841C16.2159 62.6581 16.0313 62.8403 15.9785 62.7882C15.9258 62.7362 15.8203 62.7362 15.7412 62.7101C15.6621 62.6841 15.6621 62.5019 15.583 62.4498C15.5039 62.3978 15.3721 62.5019 15.293 62.4498C15.2139 62.3978 15.2403 62.1895 15.1875 62.1635C15.1348 62.1375 15.0557 62.0854 14.9766 62.0333C14.8975 61.9813 14.7129 62.1114 14.6602 62.0594C14.6075 62.0073 14.6075 61.8251 14.5547 61.7991C14.502 61.773 14.3174 61.8251 14.2647 61.773C14.2119 61.721 14.2647 61.4867 14.2119 61.4346C14.1592 61.3826 13.8428 61.6169 13.7901 61.5648C13.7373 61.5127 13.8955 61.1743 13.8164 61.1223C13.7373 61.0702 13.5 61.2524 13.4209 61.1743C13.3418 61.0962 13.4737 60.862 13.4209 60.8099C13.3682 60.7579 13.1309 60.888 13.0782 60.8099C13.0254 60.7318 13.1573 60.4975 13.0782 60.4455C12.9991 60.3934 12.7617 60.5236 12.709 60.4455C12.6563 60.3674 12.7617 60.1592 12.709 60.1071C12.6563 60.055 12.3926 60.1592 12.3399 60.1071C12.2871 60.055 12.4717 59.7687 12.419 59.7166C12.3662 59.6646 12.1026 59.7687 12.0498 59.7166C11.9971 59.6646 11.9971 59.5605 11.9444 59.4824C11.8916 59.4043 11.918 59.3002 11.8653 59.2221C11.8125 59.144 11.5489 59.2481 11.5225 59.17C11.4961 59.0919 11.6543 58.8576 11.6016 58.7795C11.5489 58.7015 11.2588 58.8056 11.2324 58.7275C11.2061 58.6494 11.3115 58.4932 11.2588 58.4151C11.2061 58.337 11.2852 58.2069 11.2588 58.1288C11.2324 58.0507 11.0742 58.0247 11.0479 57.9466C11.0215 57.8685 10.7578 57.8945 10.7315 57.8424C10.6787 57.7644 10.7578 57.6342 10.7315 57.5561C10.7051 57.478 10.6787 57.3999 10.6524 57.3218C10.626 57.2438 10.5733 57.1657 10.5205 57.0876C10.4942 57.0095 10.5205 56.9054 10.4942 56.8273C10.4678 56.7492 10.5469 56.619 10.4942 56.5409C10.4414 56.4628 10.1514 56.5149 10.0987 56.4368C10.0459 56.3587 10.336 56.1505 10.3096 56.0724C10.2832 55.9943 9.88772 56.0464 9.86135 55.9683C9.83498 55.8902 9.99319 55.734 9.94045 55.6559C9.91408 55.5778 10.0723 55.4216 10.0459 55.3435C10.0196 55.2654 9.70315 55.2915 9.67678 55.2134C9.65041 55.1353 9.54494 55.0832 9.51857 55.0051C9.49221 54.927 9.72951 54.7448 9.70315 54.6667C9.67678 54.5887 9.54494 54.5366 9.51857 54.4585C9.49221 54.3804 9.2549 54.3544 9.2549 54.2763C9.22854 54.1982 9.2549 54.0941 9.22854 54.016C9.20217 53.9379 9.43947 53.7817 9.41311 53.7036C9.38674 53.6255 9.334 53.5474 9.30764 53.4693C9.28127 53.3913 9.22854 53.3132 9.20217 53.2351C9.1758 53.157 9.22854 53.0529 9.20217 52.9748C9.1758 52.8967 8.9385 52.8707 8.91213 52.7926C8.88576 52.7145 8.80666 52.6364 8.78029 52.5583C8.75392 52.4802 9.04396 52.324 9.0176 52.2459C8.99123 52.1678 8.80666 52.1418 8.78029 52.0377C8.75392 51.9596 8.80666 51.8555 8.78029 51.7774C8.75392 51.6993 8.62209 51.6472 8.62209 51.5691C8.62209 51.491 8.38478 51.439 8.38478 51.3609C8.38478 51.2828 8.49025 51.1526 8.46388 51.0746C8.43752 50.9965 8.43752 50.9184 8.41115 50.8142C8.38478 50.7101 8.25295 50.6841 8.22658 50.606C8.20021 50.5279 8.35842 50.3978 8.35842 50.3197C8.35842 50.2416 8.43752 50.1375 8.41115 50.0594C8.38478 49.9813 8.22658 49.9292 8.20021 49.8511C8.17385 49.773 8.35842 49.6429 8.35842 49.5648C8.35842 49.4867 8.35842 49.3565 8.35842 49.2785C8.35842 49.2004 8.51662 49.0702 8.51662 48.9921C8.51662 48.914 8.22658 48.862 8.22658 48.7839C8.22658 48.7058 8.30568 48.6017 8.30568 48.5236C8.30568 48.4455 8.22658 48.3674 8.22658 48.2893C8.22658 48.2112 8.09474 48.1331 8.09474 48.055C8.09474 47.9769 8.25295 47.8728 8.22658 47.7687C8.20021 47.6646 7.96291 47.6385 7.93654 47.5605C7.91017 47.4824 7.88381 47.4043 7.88381 47.3262C7.88381 47.2481 8.01564 47.144 7.98927 47.0659C7.96291 46.9878 7.83107 46.9097 7.8047 46.8316C7.77834 46.7535 8.04201 46.6234 8.04201 46.5453C8.04201 46.4672 8.14748 46.3631 8.12111 46.285C8.09474 46.2069 8.06838 46.1288 8.04201 46.0507C8.01564 45.9726 8.04201 45.8945 8.04201 45.7904C8.04201 45.6863 7.88381 45.6342 7.85744 45.5561C7.83107 45.478 7.7256 45.3999 7.7256 45.3218C7.7256 45.2438 7.77834 45.1396 7.77834 45.0615C7.77834 44.9834 7.54103 44.9054 7.51466 44.8273C7.4883 44.7492 7.67287 44.6451 7.67287 44.567C7.67287 44.4889 7.88381 44.3847 7.88381 44.3067C7.88381 44.2286 7.5674 44.1505 7.5674 44.0724C7.5674 43.9943 7.59377 43.9162 7.5674 43.8121C7.54103 43.708 7.51466 43.6559 7.51466 43.5518C7.51466 43.4477 7.6465 43.3696 7.6465 43.2915C7.6465 43.2134 7.59377 43.1353 7.59377 43.0572C7.59377 42.9791 7.59377 42.901 7.59377 42.7969C7.59377 42.6928 7.5674 42.6407 7.5674 42.5366C7.5674 42.4325 7.6465 42.3544 7.6465 42.2763C7.6465 42.1982 7.46193 42.1201 7.46193 42.042C7.46193 41.9639 7.67287 41.8598 7.67287 41.7817C7.67287 41.7036 7.8047 41.5995 7.8047 41.5214C7.8047 41.4433 7.8047 41.3652 7.8047 41.2611C7.8047 41.157 7.4883 41.1049 7.4883 41.0268C7.4883 40.9487 7.35646 40.8706 7.35646 40.7926C7.35646 40.7145 7.7256 40.6103 7.7256 40.5323C7.7256 40.4542 7.6465 40.3761 7.6465 40.2719C7.6465 40.1678 7.6465 40.1158 7.6465 40.0116C7.6465 39.9075 7.7256 39.8555 7.7256 39.7513C7.7256 39.6472 7.75197 39.5952 7.75197 39.491C7.75197 39.3869 7.4092 39.3349 7.4092 39.2568C7.4092 39.1787 7.46193 39.1006 7.46193 38.9965C7.46193 38.8923 7.5674 38.8403 7.5674 38.7362C7.5674 38.632 7.77834 38.5539 7.77834 38.4759C7.77834 38.3978 7.54103 38.3197 7.54103 38.2155C7.54103 38.1114 7.6465 38.0594 7.6465 37.9552C7.6465 37.8511 7.62013 37.7991 7.62013 37.6949C7.62013 37.5908 7.51466 37.5388 7.51466 37.4346C7.51466 37.3305 7.69924 37.2785 7.69924 37.2004C7.69924 37.1223 7.75197 37.0442 7.75197 36.9401C7.75197 36.8359 7.38283 36.7578 7.38283 36.6798C7.38283 36.6017 7.43556 36.5236 7.43556 36.4195C7.43556 36.3153 7.4092 36.2633 7.43556 36.1591C7.46193 36.055 7.77834 36.003 7.77834 35.9249C7.77834 35.8468 7.5674 35.7427 7.5674 35.6646C7.5674 35.5865 7.62013 35.5084 7.62013 35.4303C7.62013 35.3522 7.5674 35.2741 7.5674 35.17C7.5674 35.0659 7.77834 35.0138 7.77834 34.9357C7.77834 34.8576 7.75197 34.7795 7.75197 34.6754C7.75197 34.5713 7.67287 34.4932 7.67287 34.4151C7.67287 34.337 7.46193 34.2329 7.46193 34.1548C7.46193 34.0767 7.4883 33.9986 7.51466 33.8945C7.54103 33.7904 7.8047 33.7383 7.8047 33.6602C7.8047 33.5821 7.88381 33.5041 7.88381 33.3999C7.88381 33.2958 7.67287 33.2177 7.67287 33.1396C7.67287 33.0615 7.93654 32.9834 7.93654 32.9054C7.93654 32.8273 7.77834 32.7231 7.77834 32.645C7.77834 32.567 7.5674 32.4628 7.5674 32.3847C7.5674 32.3067 7.62013 32.2286 7.62013 32.1505C7.62013 32.0724 7.77834 31.9943 7.77834 31.9162C7.77834 31.8381 7.83107 31.76 7.85744 31.6819L7.88381 31.4216C7.88381 31.3435 7.83107 31.2394 7.83107 31.1613C7.83107 31.0832 8.06838 31.0051 8.06838 30.927C8.06838 30.849 7.91017 30.7448 7.91017 30.6667C7.91017 30.5886 7.77834 30.4845 7.77834 30.4064C7.77834 30.3283 7.75197 30.2503 7.77834 30.1461C7.8047 30.042 8.06838 30.016 8.06838 29.9379C8.06838 29.8598 8.09474 29.7817 8.09474 29.6776C8.09474 29.5735 7.8047 29.4693 7.8047 29.3913C7.8047 29.3132 8.25295 29.2871 8.27931 29.209C8.30568 29.1309 8.22658 29.0268 8.25295 28.9487C8.27931 28.8706 8.20021 28.7665 8.20021 28.6884C8.20021 28.6103 8.33205 28.5322 8.35842 28.4542C8.38478 28.3761 8.35842 28.298 8.38478 28.1939C8.41115 28.0897 8.43752 28.0377 8.46388 27.9596C8.49025 27.8815 8.33205 27.7774 8.35842 27.6993C8.38478 27.6212 8.27931 27.5171 8.30568 27.439C8.33205 27.3609 8.41115 27.2828 8.41115 27.2047C8.41115 27.1266 8.54299 27.0485 8.56935 26.9704C8.59572 26.8923 8.62209 26.8142 8.64846 26.7362C8.67482 26.6581 8.70119 26.58 8.72756 26.5019C8.75392 26.4238 8.46389 26.2676 8.49025 26.1895C8.51662 26.1114 8.49025 26.0073 8.51662 25.9292C8.54299 25.8511 8.85939 25.8251 8.88576 25.747C8.91213 25.6689 8.75392 25.5388 8.78029 25.4607C8.80666 25.3826 8.70119 25.2785 8.72756 25.2004C8.75392 25.1223 8.78029 25.0442 8.78029 24.9661C8.78029 24.888 8.9385 24.8359 8.9385 24.7578C8.9385 24.6798 9.0176 24.6017 9.04396 24.5236C9.07033 24.4455 8.96486 24.3153 8.96486 24.2372C8.96486 24.1591 9.07033 24.0811 9.0967 24.003C9.12307 23.9249 9.20217 23.8468 9.22854 23.7687C9.2549 23.6906 9.38674 23.6385 9.41311 23.5604C9.43947 23.4824 9.30764 23.3522 9.334 23.2741C9.36037 23.196 9.28127 23.0919 9.30764 23.0138C9.334 22.9357 9.334 22.8316 9.36037 22.7535C9.38674 22.6754 9.72951 22.7014 9.75588 22.6234C9.78225 22.5453 9.72951 22.4411 9.75588 22.363C9.78225 22.285 9.54494 22.1288 9.57131 22.0507C9.59768 21.9726 9.88772 21.9726 9.91408 21.8945C9.94045 21.8164 9.72951 21.6602 9.75588 21.5821C9.78225 21.504 9.88772 21.452 9.91408 21.3739C9.94045 21.2958 10.0987 21.2698 10.125 21.1917C10.1514 21.1136 9.91408 20.9314 9.94045 20.8533C9.96682 20.7752 10.4151 20.8533 10.4414 20.7752C10.4678 20.6971 10.4942 20.619 10.5205 20.5409C10.5469 20.4628 10.5996 20.4108 10.6524 20.3327C10.6787 20.2546 10.3887 20.0463 10.4414 19.9683C10.4942 19.8902 10.6787 19.8902 10.7051 19.8121C10.7315 19.734 10.5469 19.5518 10.5996 19.4737C10.626 19.3956 10.9688 19.4737 11.0215 19.3956C11.0742 19.3175 10.7578 19.0832 10.8106 19.0051C10.8633 18.927 11.1797 19.0051 11.2324 18.927C11.2852 18.8489 10.7578 18.7448 10.8106 18.6667C10.8633 18.5886 11.2588 18.7188 11.2852 18.6407C11.3115 18.5626 11.2852 18.4585 11.3115 18.3804C11.3379 18.3023 11.2061 18.1461 11.2588 18.068C11.3115 17.9899 11.2588 17.8598 11.2852 17.8077C11.3115 17.7557 11.6543 17.8338 11.7071 17.7557C11.7598 17.6776 11.5489 17.4693 11.5752 17.3912C11.6016 17.3132 11.7598 17.3132 11.8125 17.2351C11.8653 17.157 12.1289 17.2351 12.1553 17.157C12.1817 17.0789 11.918 16.8186 11.9707 16.7405C12.0235 16.6624 12.0235 16.5583 12.0498 16.5062C12.0762 16.4542 12.4717 16.5843 12.5244 16.5062C12.5772 16.4281 12.419 16.2459 12.4717 16.1678C12.5244 16.0897 12.8145 16.1939 12.8408 16.1418C12.8672 16.0897 12.8672 15.9596 12.9199 15.8815C12.9727 15.8034 13.0518 15.7774 13.1045 15.6993C13.1573 15.6212 12.8936 15.3348 12.9463 15.2568C12.9991 15.1787 13.21 15.2568 13.2627 15.1787C13.3155 15.1006 13.2627 14.9704 13.3155 14.9184C13.3682 14.8663 13.6319 14.9704 13.6846 14.8923C13.7373 14.8142 13.5791 14.58 13.6319 14.5279C13.6846 14.4758 13.9219 14.5539 13.9746 14.5019C14.0274 14.4498 13.8955 14.1895 13.9483 14.1375C14.001 14.0854 14.2647 14.1895 14.3174 14.1375C14.3701 14.0854 14.4229 14.0073 14.4756 13.9552C14.5284 13.9032 14.3701 13.6168 14.4229 13.5648C14.4756 13.5127 14.7657 13.6689 14.8184 13.6168C14.8711 13.5648 14.7657 13.3305 14.8448 13.2784C14.9239 13.2264 14.9502 13.1223 15.003 13.0702C15.0557 13.0181 15.293 13.1483 15.3457 13.0702C15.3985 12.9921 15.4248 12.914 15.5039 12.862L15.6885 12.7058C15.7412 12.6537 15.7149 12.4715 15.7676 12.4194C15.8203 12.3674 16.084 12.5496 16.1631 12.4975C16.2422 12.4455 16.2422 12.3153 16.3213 12.2893C16.4004 12.2633 16.3741 12.1071 16.4532 12.055C16.5323 12.003 16.6641 12.055 16.7168 12.003C16.7696 11.9509 16.7696 11.8207 16.8487 11.7687C16.9278 11.7166 17.086 11.8207 17.1651 11.7687C17.2442 11.7166 17.2969 11.6646 17.376 11.6125C17.4551 11.5604 17.5078 11.5084 17.5606 11.4563C17.6133 11.4043 17.7452 11.4303 17.8243 11.3782C17.9034 11.3262 17.8506 11.0919 17.9034 11.0398C17.9561 10.9878 18.0352 10.9097 18.0879 10.8837C18.1407 10.8576 18.4043 11.0659 18.4834 11.0398C18.5625 11.0138 18.5362 10.7795 18.5889 10.7535C18.6416 10.7275 18.6153 10.4672 18.6944 10.4411C18.7735 10.4151 18.958 10.5713 19.0371 10.5192C19.1163 10.4672 19.0635 10.2069 19.1426 10.1808C19.2217 10.1548 19.3799 10.2589 19.459 10.2329L19.67 10.1027C19.7491 10.0767 19.8545 10.0767 19.9336 10.0507C20.0127 10.0247 20.0127 9.84244 20.0918 9.81641C20.1709 9.79038 20.3819 10.0247 20.461 9.99862C20.5401 9.97259 20.461 9.55611 20.5137 9.53008C20.5665 9.50404 20.7774 9.71229 20.8565 9.68626C20.9356 9.66023 20.962 9.53008 21.0411 9.47802C21.1202 9.42595 21.1465 9.2958 21.2256 9.26977C21.3047 9.24374 21.3838 9.19168 21.4629 9.16565C21.542 9.13962 21.7793 9.47801 21.8584 9.45198C21.9375 9.42595 21.8584 9.00947 21.9375 8.98344C22.0166 8.95741 22.1485 9.08756 22.2276 9.06153C22.3067 9.0355 22.4122 9.06153 22.4913 9.0355C22.5704 9.00947 22.6495 9.00947 22.7286 8.98344C22.8077 8.95741 22.9131 9.00947 22.9922 8.98344C23.0713 8.95741 23.1504 8.95741 23.2559 8.93138C23.3614 8.90535 23.3086 8.51489 23.3614 8.48886C23.4141 8.46283 23.5723 8.56695 23.6514 8.54092C23.7305 8.51489 23.8887 8.72313 23.9678 8.6971C24.0469 8.67107 24.0469 8.38474 24.126 8.35871C24.2051 8.33268 24.3106 8.4368 24.4161 8.41077C24.5215 8.38474 24.6006 8.46283 24.6797 8.4368C24.7588 8.41077 24.8379 8.35871 24.917 8.35871C24.9961 8.35871 25.0752 8.30665 25.1544 8.28062C25.2335 8.25459 25.3126 8.1765 25.3917 8.15047C25.4708 8.12444 25.5499 8.02031 25.629 8.02031C25.7081 8.02031 25.8135 8.07237 25.8926 8.07237C25.9717 8.07237 26.1036 8.25459 26.1827 8.22856C26.2618 8.20253 26.3409 8.1765 26.42 8.1765C26.4991 8.1765 26.5782 8.07237 26.6573 8.04634C26.7364 8.02031 26.8155 7.96825 26.8946 7.94222C26.9737 7.91619 27.0792 8.02031 27.1583 8.02031C27.2374 8.02031 27.2901 7.8381 27.3692 7.81207C27.4483 7.78604 27.501 7.62986 27.5801 7.62986C27.6592 7.62986 27.7911 7.89016 27.8702 7.86413C27.9493 7.8381 28.0547 7.89016 28.1338 7.89016C28.213 7.89016 28.2657 7.5778 28.3448 7.55177C28.4239 7.52574 28.5557 7.81207 28.6348 7.81207C28.7139 7.81207 28.7667 7.62986 28.8721 7.60383C28.9776 7.5778 29.0567 7.68192 29.1358 7.65589C29.2149 7.62986 29.294 7.52574 29.3731 7.49971C29.4522 7.47368 29.5577 7.65589 29.6368 7.65589C29.7159 7.65589 29.7686 7.34352 29.8477 7.34352C29.9268 7.34352 30.0059 7.34352 30.1114 7.31749C30.2169 7.29146 30.296 7.8381 30.3751 7.8381C30.4542 7.8381 30.5069 7.52574 30.586 7.49971C30.6651 7.47368 30.7706 7.68192 30.8497 7.68192C30.9288 7.68192 31.0342 7.73398 31.1133 7.73398C31.1924 7.73398 31.2716 7.62986 31.3507 7.62986C31.4298 7.62986 31.5352 7.73398 31.6143 7.73398C31.6934 7.73398 31.7725 7.47368 31.8516 7.44765C31.9307 7.42162 32.0098 7.42162 32.0889 7.42162C32.168 7.42162 32.2735 7.70795 32.3526 7.70795C32.4317 7.70795 32.5108 7.31749 32.5899 7.31749C32.669 7.31749 32.7481 7.36955 32.8536 7.36955C32.9591 7.36955 33.0382 7.65589 33.1173 7.65589C33.1964 7.65589 33.2755 7.36955 33.3546 7.36955C33.4337 7.36955 33.5128 7.34352 33.6182 7.34352C33.7237 7.34352 33.8028 7.62986 33.8819 7.62986C33.961 7.62986 34.0401 7.2394 34.1192 7.2394C34.1983 7.2394 34.3038 7.5778 34.3829 7.5778C34.462 7.5778 34.5411 7.52574 34.6202 7.52574C34.6993 7.52574 34.7784 7.60383 34.8839 7.60383C34.9893 7.60383 35.0421 7.16131 35.1212 7.16131C35.2003 7.16131 35.2794 7.39559 35.3848 7.39559C35.4903 7.39559 35.543 7.34352 35.6485 7.34352C35.754 7.34352 35.8067 7.55177 35.9122 7.55177C36.0177 7.55177 36.0704 7.18734 36.1759 7.18734C36.2813 7.18734 36.3341 7.42162 36.4395 7.42162C36.545 7.42162 36.5977 7.5778 36.6768 7.5778C36.7559 7.5778 36.835 7.36955 36.9405 7.36955C37.046 7.36955 37.0987 7.29146 37.2042 7.29146C37.3097 7.29146 37.3624 7.42162 37.4415 7.42162C37.5206 7.42162 37.5997 7.44765 37.7052 7.44765C37.8106 7.44765 37.8897 7.2394 37.9688 7.2394C38.0479 7.2394 38.127 7.47368 38.2061 7.47368C38.2852 7.47368 38.3643 7.44765 38.4698 7.47368C38.5753 7.49971 38.628 7.60383 38.7071 7.60383C38.7862 7.60383 38.8917 7.34352 38.9708 7.36955C39.0499 7.39559 39.129 7.34352 39.2345 7.36955C39.3399 7.39559 39.3927 7.62986 39.4718 7.62986C39.5509 7.62986 39.63 7.62986 39.7354 7.62986C39.8409 7.62986 39.92 7.47368 39.9991 7.47368L40.2628 7.49971C40.3419 7.49971 40.4474 7.42162 40.5265 7.42162C40.6056 7.42162 40.6847 7.49971 40.7638 7.49971C40.8429 7.49971 40.9483 7.44765 41.0274 7.44765C41.1065 7.44765 41.1856 7.5778 41.2647 7.5778C41.3438 7.5778 41.4229 7.68192 41.502 7.68192C41.5811 7.68192 41.6866 7.62986 41.7657 7.65589C41.8448 7.68192 41.9239 7.76001 42.003 7.76001C42.0821 7.76001 42.1876 7.62986 42.2667 7.65589C42.3458 7.68192 42.4249 7.65589 42.5304 7.68192C42.6358 7.70795 42.7149 7.65589 42.794 7.65589C42.8731 7.65589 42.9786 7.60383 43.0577 7.62986C43.1368 7.65589 43.2423 7.62986 43.3214 7.62986C43.4005 7.62986 43.4796 7.70795 43.5587 7.73398C43.6378 7.76001 43.6905 8.07237 43.7696 8.07237C43.8487 8.07237 44.0069 7.68192 44.086 7.68192C44.1651 7.68192 44.2179 7.96825 44.297 7.99428C44.3761 8.02031 44.4815 7.86413 44.587 7.86413C44.6925 7.86413 44.6925 8.1765 44.7979 8.20253L45.0353 8.25459C45.1144 8.25459 45.2198 8.1765 45.2989 8.20253C45.378 8.22856 45.5099 8.02031 45.589 8.04634C45.6681 8.07237 45.7735 8.02031 45.8526 8.04634C45.9317 8.07237 46.0108 8.15047 46.0899 8.1765C46.169 8.20253 46.2745 8.1765 46.3536 8.1765C46.4327 8.1765 46.5382 8.15047 46.6173 8.1765C46.6964 8.20253 46.7228 8.46283 46.8019 8.48886C46.881 8.51489 46.9601 8.54092 47.0392 8.54092C47.1183 8.54092 47.2501 8.46283 47.3292 8.46283C47.4083 8.46283 47.4347 8.77519 47.5138 8.80122C47.5929 8.82726 47.6983 8.74916 47.7774 8.77519C47.8565 8.80123 48.0411 8.51489 48.1202 8.54092C48.1993 8.56695 48.2784 8.61901 48.3575 8.64504C48.4366 8.67107 48.4366 8.95741 48.5157 8.98344C48.5948 9.00947 48.753 8.80123 48.8321 8.82726C48.9112 8.85329 48.9903 8.85329 49.0958 8.87932C49.2013 8.90535 49.254 8.98344 49.3331 9.00947L49.5704 9.08756C49.6495 9.11359 49.7023 9.24374 49.7814 9.26977C49.8605 9.2958 49.9923 9.19168 50.0714 9.21771C50.1505 9.24374 50.2032 9.37389 50.2823 9.39992C50.3614 9.42595 50.3614 9.66023 50.4405 9.68626C50.5196 9.71229 50.5987 9.71229 50.6778 9.73832C50.7569 9.76435 50.8624 9.76435 50.9415 9.79038C51.0206 9.81641 51.0734 9.92053 51.1525 9.97259C51.2316 10.0247 51.3898 9.86847 51.4425 9.92053C51.4952 9.97259 51.6007 9.97259 51.6798 9.99862C51.7589 10.0247 51.838 10.0507 51.9171 10.0767C51.9962 10.1027 52.1017 10.0767 52.1808 10.1288C52.2599 10.1808 52.2335 10.3891 52.3126 10.4411C52.3917 10.4932 52.5763 10.285 52.6554 10.311C52.7345 10.337 52.7609 10.5192 52.8136 10.5453C52.8663 10.5713 52.8927 10.7795 52.9718 10.8056C53.0509 10.8316 53.13 10.8576 53.2091 10.9097C53.2882 10.9617 53.5255 10.6754 53.6046 10.7014C53.6837 10.7275 53.6573 10.9617 53.7364 10.9878C53.8155 11.0138 53.7892 11.222 53.8683 11.2741C53.9474 11.3262 54.0001 11.3522 54.0792 11.4043C54.1583 11.4563 54.2374 11.4563 54.3165 11.4824C54.3956 11.5084 54.6066 11.3522 54.6593 11.4043C54.712 11.4563 54.8439 11.4303 54.923 11.4563C55.0021 11.4824 54.8175 11.8988 54.8966 11.9509C54.9757 12.003 55.2394 11.7427 55.3185 11.7947C55.3976 11.8468 55.3976 11.9769 55.4767 12.029L55.6876 12.1852C55.7667 12.2372 55.9513 12.1331 56.004 12.1852C56.0568 12.2372 55.9249 12.5756 55.9777 12.6277C56.0304 12.6798 56.1359 12.6798 56.215 12.7318C56.2941 12.7839 56.4786 12.6798 56.5314 12.7318C56.5841 12.7839 56.6368 12.862 56.6896 12.914C56.7423 12.9661 56.8741 12.9661 56.9269 13.0181C56.9796 13.0702 56.8478 13.3565 56.9005 13.4086C56.9532 13.4607 57.006 13.5388 57.0851 13.5908C57.1642 13.6429 57.3488 13.5648 57.4015 13.6168C57.4542 13.6689 57.4279 13.8251 57.4806 13.8771L57.6652 14.0594C57.7179 14.1114 58.0343 13.9292 58.087 13.9813C58.1398 14.0333 57.9816 14.3197 58.0343 14.3717C58.087 14.4238 58.2452 14.4238 58.298 14.4758C58.3507 14.5279 58.3243 14.6841 58.3771 14.7361C58.4298 14.7882 58.5353 14.8142 58.588 14.8923C58.6408 14.9704 58.588 15.1266 58.6407 15.1787C58.6935 15.2307 58.799 15.2568 58.8517 15.3348C58.9044 15.4129 59.2472 15.2307 59.2999 15.2828C59.3527 15.3348 59.379 15.439 59.4318 15.491C59.4845 15.5431 59.2736 15.8294 59.3263 15.9075C59.379 15.9856 59.6691 15.8555 59.7218 15.9335C59.7745 16.0116 59.8009 16.0897 59.8273 16.1678C59.8536 16.2459 59.8009 16.4021 59.8536 16.4542C59.9064 16.5062 60.091 16.4802 60.1437 16.5583C60.1964 16.6364 60.17 16.7405 60.2228 16.8186C60.2755 16.8967 60.4074 16.8967 60.4601 16.9748C60.5128 17.0529 60.2755 17.2871 60.3283 17.3652C60.381 17.4433 60.381 17.5214 60.4337 17.5995C60.4865 17.6776 60.5392 17.7296 60.5919 17.8077C60.6447 17.8858 60.7501 17.9119 60.8029 17.9899C60.8556 18.068 61.0402 18.042 61.0929 18.1201C61.1456 18.1982 61.2511 18.2242 61.3038 18.3023C61.3566 18.3804 61.1193 18.5886 61.1456 18.6667C61.172 18.7448 61.2775 18.7709 61.3038 18.8489C61.3302 18.927 61.3302 19.0312 61.3566 19.1093C61.3829 19.1873 61.6466 19.1353 61.6994 19.2134C61.7521 19.2915 61.5148 19.4997 61.5411 19.5518C61.5675 19.6038 61.963 19.5257 62.0158 19.6038C62.0685 19.6819 61.8839 19.8641 61.9103 19.9162C61.9367 19.9683 62.2267 19.9683 62.2794 20.0203C62.3322 20.0724 62.1476 20.2546 62.174 20.3327C62.2003 20.4108 62.0685 20.567 62.0949 20.645C62.1212 20.7231 62.3322 20.7231 62.3585 20.8012C62.3849 20.8793 62.5695 20.9053 62.5958 20.9834C62.6222 21.0615 62.5167 21.1917 62.5431 21.2698C62.5695 21.3479 62.7277 21.3739 62.7804 21.452C62.8331 21.5301 62.5958 21.6863 62.6486 21.7644C62.7013 21.8424 62.6486 21.9466 62.6749 22.0247C62.7013 22.1027 63.0968 22.0507 63.1232 22.1288C63.1495 22.2069 63.0968 22.311 63.1232 22.3891C63.1495 22.4672 62.9913 22.6234 63.0177 22.7014C63.0441 22.7795 63.255 22.8056 63.2814 22.8837C63.3078 22.9617 63.4132 23.0138 63.4396 23.0919C63.466 23.17 63.255 23.3262 63.2814 23.4043C63.3078 23.4824 63.2286 23.5865 63.255 23.6646C63.2814 23.7427 63.4923 23.7687 63.5187 23.8468C63.5451 23.9249 63.3605 24.055 63.3869 24.1331C63.4132 24.2112 63.6242 24.2372 63.6505 24.3153C63.6769 24.3934 63.7033 24.4715 63.7296 24.5496C63.756 24.6277 63.7033 24.7318 63.7033 24.8099C63.7033 24.888 63.8615 24.9401 63.8878 25.0181C63.9142 25.0962 63.8615 25.2004 63.8615 25.2785C63.8615 25.3565 63.9669 25.4346 63.9933 25.5127C64.0197 25.5908 63.9933 25.6949 64.0197 25.773C64.046 25.8511 64.0988 25.9292 64.0988 26.0073C64.0988 26.0854 64.2833 26.1375 64.3097 26.2155C64.3361 26.2936 64.1251 26.4238 64.1251 26.5019C64.1251 26.58 64.2833 26.632 64.3097 26.7101C64.3361 26.7882 64.046 26.9184 64.0724 27.0225C64.0988 27.1266 64.1779 27.1787 64.2042 27.2568C64.2306 27.3349 64.1779 27.439 64.1779 27.5171C64.1779 27.5952 64.3888 27.6472 64.4152 27.7253C64.4415 27.8034 64.4152 27.8815 64.4415 27.9856C64.4679 28.0897 64.4152 28.1678 64.4152 28.2459C64.4152 28.324 64.4415 28.4021 64.4679 28.4802C64.4943 28.5583 64.6525 28.6103 64.6789 28.6884C64.7052 28.7665 64.7052 28.8446 64.7052 28.9227C64.7052 29.0008 64.8898 29.0529 64.9162 29.157C64.9425 29.2611 64.5206 29.3912 64.5206 29.4693C64.5206 29.5474 64.7843 29.5995 64.7843 29.6776C64.7843 29.7557 64.9953 29.8338 64.9953 29.9119C64.9953 29.9899 64.8634 30.0941 64.8634 30.1722C64.8634 30.2503 64.7843 30.3544 64.8107 30.4325C64.8371 30.5106 64.8371 30.5886 64.8371 30.6928C64.8371 30.7969 64.7843 30.875 64.7843 30.9531C64.7843 31.0312 64.8898 31.1093 64.8898 31.1873C64.8898 31.2654 65.1271 31.3435 65.1271 31.4216C65.1271 31.4997 64.9953 31.6038 65.0216 31.6819C65.048 31.76 65.1535 31.8381 65.1535 31.9162C65.1535 31.9943 65.1535 32.0724 65.1535 32.1765C65.1535 32.2806 64.9953 32.3587 64.9953 32.4368C64.9953 32.5149 64.9689 32.593 64.9689 32.6971C64.9689 32.8012 65.2326 32.8533 65.2326 32.9314C65.2326 33.0095 65.2589 33.0876 65.2589 33.1917C65.2589 33.2958 65.3117 33.3479 65.3117 33.452C65.3117 33.5561 64.9689 33.6342 64.9689 33.7123C64.9689 33.7904 65.2326 33.8685 65.2326 33.9466C65.2326 34.0247 64.9689 34.1288 64.9689 34.2069C64.9689 34.285 65.2853 34.3631 65.2853 34.4411C65.2853 34.5192 65.3117 34.5973 65.3117 34.7014C65.3117 34.8056 65.2853 34.8576 65.3117 34.9618C65.338 35.0659 65.2589 35.1179 65.2589 35.2221C65.2589 35.3262 65.4435 35.3782 65.4435 35.4563C65.4435 35.5344 65.2589 35.6385 65.2589 35.7166C65.2589 35.7947 65.4171 35.8728 65.4171 35.9509C65.4171 36.029 65.1271 36.1331 65.1271 36.2112C65.1271 36.2893 65.0744 36.3674 65.0744 36.4715C65.0744 36.5756 65.4699 36.6277 65.4699 36.7058C65.4699 36.7839 65.3644 36.862 65.3644 36.9661C65.3644 37.0702 65.3117 37.1223 65.338 37.2264C65.3644 37.3305 65.2589 37.3826 65.2589 37.4867C65.2589 37.5908 65.4962 37.6429 65.4962 37.721C65.4962 37.7991 65.1535 37.9032 65.1535 37.9813C65.1535 38.0594 65.4435 38.1375 65.4435 38.2416C65.4435 38.3457 65.3908 38.3978 65.3908 38.5019C65.3908 38.606 65.4435 38.6581 65.4435 38.7622C65.4435 38.8663 65.3644 38.9184 65.3644 39.0225C65.3644 39.1266 65.549 39.1787 65.549 39.2828C65.549 39.3869 65.4962 39.439 65.4962 39.5431C65.4962 39.6472 65.5226 39.6993 65.5226 39.8034C65.5226 39.9075 65.338 39.9596 65.338 40.0637C65.338 40.1678 65.2853 40.2199 65.2853 40.298C65.2853 40.3761 65.3908 40.4542 65.3908 40.5583C65.3908 40.6624 65.2589 40.7145 65.2589 40.8186C65.2589 40.9227 65.2062 40.9748 65.2062 41.0529C65.2062 41.131 65.4435 41.2351 65.4435 41.3132C65.4435 41.3913 65.4435 41.4693 65.4435 41.5735C65.4435 41.6776 65.4962 41.7296 65.4962 41.8338C65.4962 41.9379 65.338 41.99 65.338 42.068C65.338 42.1461 65.4435 42.2503 65.4435 42.3283C65.4435 42.4064 65.1535 42.4845 65.1535 42.5626C65.1535 42.6407 65.0744 42.7188 65.0744 42.7969C65.0744 42.875 65.4699 42.9791 65.4699 43.0572C65.4699 43.1353 65.4699 43.2134 65.4699 43.3175C65.4699 43.4216 65.1007 43.4737 65.1007 43.5518C65.1007 43.6299 65.2062 43.734 65.2062 43.8121C65.2062 43.8902 65.1271 43.9683 65.1007 44.0464C65.0744 44.1244 65.0216 44.2025 65.0216 44.2806C65.0216 44.3587 64.9953 44.4368 64.9953 44.5409C64.9953 44.6451 65.2589 44.7231 65.2326 44.8012C65.2062 44.8793 64.9425 44.9314 64.9162 45.0355C64.8898 45.1396 65.048 45.2177 65.048 45.2958C65.048 45.3739 65.1798 45.478 65.1798 45.5561C65.1798 45.6342 65.1271 45.7123 65.1007 45.7904C65.0744 45.8685 65.048 45.9466 65.0216 46.0247C64.9953 46.1028 65.2326 46.2069 65.2062 46.285C65.1798 46.3631 65.0744 46.4411 65.0744 46.5192C65.0744 46.5973 65.0744 46.6754 65.048 46.7795C65.0216 46.8837 64.7052 46.9097 64.6789 46.9878C64.6525 47.0659 65.048 47.196 65.048 47.2741C65.048 47.3522 64.6789 47.4043 64.6789 47.4824C64.6789 47.5605 65.048 47.6906 65.0216 47.7687C64.9953 47.8468 64.6788 47.8988 64.6525 47.9769C64.6261 48.055 64.5206 48.1331 64.5206 48.2112C64.5206 48.2893 64.8898 48.4455 64.8898 48.5236C64.8898 48.6017 64.547 48.6537 64.547 48.7318C64.547 48.8099 64.5997 48.914 64.5734 48.9921C64.547 49.0702 64.6788 49.1743 64.6525 49.2524C64.6261 49.3305 64.4152 49.3826 64.3888 49.4607C64.3624 49.5388 64.3361 49.6169 64.3361 49.6949C64.3361 49.773 64.4679 49.8772 64.4679 49.9813C64.4679 50.0854 64.5734 50.1635 64.5734 50.2416C64.5734 50.3197 64.4152 50.3717 64.3888 50.4498C64.3624 50.5279 64.4943 50.632 64.4679 50.7101C64.4415 50.7882 64.257 50.8403 64.257 50.9184C64.257 50.9965 64.257 51.0746 64.2306 51.1787C64.2042 51.2828 64.0197 51.3088 64.0197 51.3869C64.0197 51.465 64.3361 51.6212 64.3097 51.6993C64.2833 51.7774 64.046 51.8034 64.046 51.9075C64.046 52.0116 63.8351 52.0116 63.8087 52.1158C63.7824 52.2199 63.9406 52.324 63.9142 52.4021C63.8878 52.4802 63.7033 52.5062 63.6769 52.6103C63.6505 52.7145 63.7296 52.7926 63.7033 52.8707C63.6769 52.9487 63.8087 53.0789 63.7824 53.157C63.756 53.2351 63.8351 53.3392 63.8087 53.4173C63.7824 53.4954 63.466 53.4954 63.4396 53.5735C63.4132 53.6516 63.6505 53.8077 63.6242 53.8858C63.5978 53.9639 63.6505 54.068 63.6242 54.1461C63.5978 54.2242 63.3341 54.2242 63.3078 54.3023C63.2814 54.3804 63.4923 54.5366 63.466 54.6147C63.4396 54.6928 63.0704 54.6667 63.0704 54.7448C63.0704 54.8229 63.3078 55.0051 63.2814 55.0832C63.255 55.1613 63.0704 55.1874 63.0441 55.2654C63.0177 55.3435 62.8331 55.3696 62.8068 55.4477C62.7804 55.5257 63.0704 55.734 63.0441 55.8121C63.0177 55.8902 62.7804 55.8902 62.754 55.9683C62.7277 56.0464 62.8859 56.2025 62.8595 56.2806C62.8331 56.3587 62.7804 56.4368 62.754 56.5149C62.7277 56.593 62.7013 56.6711 62.6749 56.7492C62.6486 56.8273 62.5431 56.8793 62.5167 56.9574C62.4904 57.0355 62.5167 57.1396 62.4904 57.2177C62.464 57.2958 62.2003 57.2698 62.174 57.3479C62.1476 57.426 62.2267 57.5561 62.2003 57.6342C62.174 57.7123 62.2267 57.8425 62.2003 57.9205C62.174 57.9986 61.9103 57.9726 61.8839 58.0507C61.8576 58.1288 62.0158 58.311 61.9894 58.3631" fill="#F38500"/>
</g>
<defs>
<clipPath id="clip0">
<rect width="72.6154" height="96" fill="white"/>
</clipPath>
</defs>
</svg>
