<svg width="140" height="134" viewBox="0 0 140 134" fill="none" xmlns="http://www.w3.org/2000/svg">
<path d="M4 113.505L135.873 105.387C135.873 105.387 137.868 110.013 125.551 117.124C113.235 124.235 94.0158 120.742 80.2428 125.462C66.4697 130.182 16.0633 133.737 10.3008 128.137C4.53826 122.536 4 113.505 4 113.505Z" fill="#F38500"/>
<path d="M4 113.505L135.873 105.387C135.873 105.387 137.868 110.013 125.551 117.124C113.235 124.235 94.0158 120.742 80.2428 125.462C66.4697 130.182 16.0633 133.737 10.3008 128.137C4.53826 122.536 4 113.505 4 113.505Z" fill="url(#paint0_linear)"/>
<path d="M10.2074 117.376C9.8908 117.407 9.60584 117.533 9.35255 117.722C8.68764 118.446 9.92247 119.358 10.8723 119.547C19.7694 121.246 28.9832 119.515 38.0386 120.176C37.5003 120.271 37.4686 121.12 37.8803 121.466C38.2919 121.812 38.9251 121.781 39.4634 121.749L83.9172 118.98C87.1784 118.792 90.5029 118.571 93.6058 117.565C95.3156 116.998 96.9304 116.212 98.6718 115.74C101.363 114.984 104.181 115.016 106.904 114.324C109.627 113.631 121.975 110.296 123.97 108.408C113.996 108.723 94.1124 111.272 84.1705 112.058C83.9489 112.813 83.9489 113.631 84.1705 114.387L61.5003 115.016C60.7721 115.079 60.0755 115.016 59.3789 114.827C58.8407 114.607 58.3024 114.355 57.7958 114.04C55.4211 112.845 52.6349 112.971 49.9752 113.128C36.9304 114.009 22.9357 113.757 10.2074 117.376Z" fill="url(#paint1_linear)"/>
<path d="M95.22 113.505C102.232 113.505 107.917 107.856 107.917 100.888C107.917 93.9194 102.232 88.2704 95.22 88.2704C88.2079 88.2704 82.5234 93.9194 82.5234 100.888C82.5234 107.856 88.2079 113.505 95.22 113.505Z" fill="#F38500"/>
<path d="M95.22 113.505C102.232 113.505 107.917 107.856 107.917 100.888C107.917 93.9194 102.232 88.2704 95.22 88.2704C88.2079 88.2704 82.5234 93.9194 82.5234 100.888C82.5234 107.856 88.2079 113.505 95.22 113.505Z" fill="url(#paint2_linear)"/>
<path d="M99.1458 113.568C106.158 113.568 111.842 107.919 111.842 100.951C111.842 93.9824 106.158 88.3334 99.1458 88.3334C92.1337 88.3334 86.4492 93.9824 86.4492 100.951C86.4492 107.919 92.1337 113.568 99.1458 113.568Z" fill="#F38500"/>
<path d="M99.1458 113.568C106.158 113.568 111.842 107.919 111.842 100.951C111.842 93.9824 106.158 88.3334 99.1458 88.3334C92.1337 88.3334 86.4492 93.9824 86.4492 100.951C86.4492 107.919 92.1337 113.568 99.1458 113.568Z" fill="url(#paint3_linear)"/>
<path d="M100.6 89.5606C94.1724 88.8054 88.3465 93.3364 87.5866 99.6924C86.8267 106.08 91.3861 111.869 97.7819 112.625C104.209 113.38 110.035 108.849 110.795 102.493C111.587 96.1054 107.027 90.3158 100.6 89.5606ZM106.742 102.178C106.267 106.08 102.69 108.88 98.7318 108.408C94.8056 107.936 91.9877 104.381 92.4626 100.448C92.9376 96.5459 96.5154 93.7455 100.473 94.2174C104.399 94.6894 107.217 98.245 106.742 102.178Z" fill="url(#paint4_linear)"/>
<path d="M104.591 101.895C104.243 104.632 101.773 106.583 99.0188 106.237C96.2642 105.891 94.3011 103.437 94.6494 100.699C94.9977 97.9616 97.4673 96.0108 100.222 96.3569C102.977 96.703 104.908 99.1888 104.591 101.895Z" fill="url(#paint5_linear)"/>
<path d="M29.2981 116.023C36.3102 116.023 41.9947 110.374 41.9947 103.405C41.9947 96.4366 36.3102 90.7876 29.2981 90.7876C22.286 90.7876 16.6016 96.4366 16.6016 103.405C16.6016 110.374 22.286 116.023 29.2981 116.023Z" fill="#F38500"/>
<path d="M29.2981 116.023C36.3102 116.023 41.9947 110.374 41.9947 103.405C41.9947 96.4366 36.3102 90.7876 29.2981 90.7876C22.286 90.7876 16.6016 96.4366 16.6016 103.405C16.6016 110.374 22.286 116.023 29.2981 116.023Z" fill="url(#paint6_linear)"/>
<path d="M32.7161 116.809C39.7282 116.809 45.4127 111.16 45.4127 104.192C45.4127 97.2233 39.7282 91.5742 32.7161 91.5742C25.704 91.5742 20.0195 97.2233 20.0195 104.192C20.0195 111.16 25.704 116.809 32.7161 116.809Z" fill="#F38500"/>
<path d="M32.7161 116.809C39.7282 116.809 45.4127 111.16 45.4127 104.192C45.4127 97.2233 39.7282 91.5742 32.7161 91.5742C25.704 91.5742 20.0195 97.2233 20.0195 104.192C20.0195 111.16 25.704 116.809 32.7161 116.809Z" fill="url(#paint7_linear)"/>
<path d="M33.9531 92.9588C27.684 92.2036 21.9848 96.6402 21.2249 102.839C20.465 109.037 24.9294 114.733 31.1669 115.488C37.4043 116.243 43.1352 111.806 43.8951 105.608C44.6866 99.3462 40.2223 93.7139 33.9531 92.9588ZM39.779 105.671C39.3041 109.572 35.7262 112.373 31.7684 111.901C27.8423 111.429 25.0244 107.873 25.4993 103.94C25.9742 100.007 29.5521 97.238 33.5099 97.71C37.436 98.182 40.2539 101.738 39.779 105.671Z" fill="url(#paint8_linear)"/>
<path d="M19.1328 95.8534L21.4758 98.3077L26.6051 100.888C26.6051 100.888 30.7529 103.185 39.2384 101.989L45.0959 101.517C45.0959 101.517 43.8294 97.8986 42.6895 97.3322C41.5497 96.7659 21.1275 93.3362 21.1275 93.3362L19.1328 95.8534Z" fill="url(#paint9_linear)"/>
<path d="M32.0225 86.6028C32.0225 86.6028 22.3021 86.5713 18.5977 92.0148L32.6874 100.133L49.69 99.1573C49.69 99.1573 42.661 89.2459 32.0225 86.6028Z" fill="#F38500"/>
<path d="M49.6904 99.1259L32.7194 100.101H32.6878L18.5664 91.9833C22.2392 86.5398 31.9912 86.5713 31.9912 86.5713C35.2841 87.4523 38.387 88.8997 41.1416 90.882C44.4028 93.179 47.2841 95.9794 49.6904 99.1259Z" fill="url(#paint10_linear)"/>
<path d="M49.6905 99.1258L32.7195 100.101L23.6641 94.8781C27.3369 89.4346 37.0889 89.4661 37.0889 89.4661C38.482 89.8122 39.8435 90.2842 41.1733 90.882C44.4029 93.1789 47.2841 95.9793 49.6905 99.1258Z" fill="url(#paint11_linear)"/>
<path d="M111.21 96.9864C110.609 97.4269 53.2368 105.356 34.2078 91.5114C26.1655 85.6589 45.9545 57.6865 45.9545 57.6865C47.4109 55.7356 50.9254 58.127 50.9254 58.127L50.8304 58.4416L44.308 81.5055C43.5481 84.1801 45.0996 86.949 47.7909 87.7042C47.8859 87.7356 48.0125 87.7671 48.1075 87.7985C53.9017 89.0257 62.9571 90.8821 66.9782 91.3226C72.5824 91.9205 75.8753 88.1447 75.6853 85.124C75.5587 83.0788 75.1471 78.2332 74.8938 75.3069C74.7671 73.9224 74.7038 72.947 74.7038 72.947C74.7038 72.947 76.5719 67.0316 96.3608 68.1643C116.15 69.2971 115.706 80.4042 115.801 86.9805C115.896 93.5567 111.78 96.5458 111.21 96.9864Z" fill="#F38500"/>
<path d="M111.492 96.9864C110.922 97.4269 53.518 105.356 34.489 91.5114C26.4468 85.6589 46.2357 57.6865 46.2357 57.6865C47.6922 55.7356 51.2067 58.127 51.2067 58.127L51.1117 58.4416L44.5893 81.5055C43.8294 84.1801 45.3808 86.949 48.0721 87.7042C48.1671 87.7356 48.2938 87.7671 48.3887 87.7985C54.1829 89.0257 63.2383 90.8821 67.2595 91.3226C72.8953 91.9205 76.1566 88.1447 75.9666 85.124C75.8399 83.0788 75.4283 78.2332 75.175 75.3069C75.0484 73.9224 74.985 72.947 74.985 72.947C74.985 72.947 76.8531 67.0316 96.6737 68.1643C116.494 69.2971 116.019 80.4042 116.114 86.9805C116.209 93.5567 112.062 96.5458 111.492 96.9864Z" fill="url(#paint12_linear)"/>
<path d="M84.3908 73.7021V83.9598C84.3908 83.9598 84.3908 84.4632 84.3275 85.2813C81.3196 88.9627 80.4963 93.6196 80.2747 96.5458C79.7998 96.7975 79.2298 96.9549 78.6916 96.9234C78.185 96.9234 77.6784 96.7346 77.2984 96.3885C77.6467 96.3256 77.9634 96.1997 78.2483 95.948C79.8314 93.9971 76.4436 77.1318 76.4436 77.1318L73.2773 74.9293L84.3908 73.7021Z" fill="url(#paint13_linear)"/>
<path d="M93.602 62.1543C93.602 62.1543 110.573 59.8888 112.314 60.7699C114.056 61.6509 115.069 71.1219 115.069 71.1219L82.1719 74.4887C82.1719 74.4572 88.0927 61.9341 93.602 62.1543Z" fill="#F38500"/>
<path d="M93.602 62.1543C93.602 62.1543 110.573 59.8888 112.314 60.7699C114.056 61.6509 115.069 71.1219 115.069 71.1219L82.1719 74.4887C82.1719 74.4572 88.0927 61.9341 93.602 62.1543Z" fill="url(#paint14_linear)"/>
<path d="M79.8326 96.357C79.231 97.0807 74.64 97.4583 68.8141 97.2695C65.268 97.1751 61.7218 96.8605 58.2073 96.3885C51.0516 95.3816 44.3392 93.5252 41.9329 90.473C36.2337 83.1417 49.5635 57.5605 49.5635 57.5605L50.83 58.4416L44.3076 81.5055C43.5477 84.18 45.0991 86.949 47.7904 87.7041C47.8854 87.7356 48.012 87.767 48.107 87.7985C53.9012 89.0256 62.9566 90.8821 66.9777 91.3226C72.582 91.9204 75.8748 88.1446 75.6849 85.124C75.5582 83.0787 75.1466 78.2331 74.8933 75.3069L78.0279 77.5094C78.0279 77.5409 81.4157 94.4376 79.8326 96.357Z" fill="#F38500"/>
<path d="M79.8326 96.3569C79.5477 96.5772 79.2311 96.7345 78.8828 96.7974C77.1413 97.2379 73.3735 97.4267 68.8142 97.3009C65.268 97.2065 61.7218 96.8918 58.2073 96.4198C51.0516 95.4129 44.3392 93.5565 41.9329 90.5044C36.2337 83.173 49.5635 57.5919 49.5635 57.5919L50.83 58.4729L44.3076 81.5368C43.5477 84.2114 45.0991 86.9803 47.7904 87.7355C47.8854 87.7669 48.012 87.7984 48.107 87.8299C53.9012 89.057 62.9566 90.9134 66.9778 91.3539C71.7588 91.8574 74.83 89.2143 75.5266 86.5713C75.6532 86.0993 75.6849 85.6273 75.6532 85.1553C75.5266 83.1101 75.115 78.2645 74.8617 75.3382L77.9962 77.5408C78.0279 77.5408 81.4158 94.4375 79.8326 96.3569Z" fill="url(#paint15_linear)"/>
<path d="M36.6438 67.0944L42.723 67.5978L40 74.2684L34.3008 73.3874L36.6438 67.0944Z" fill="#F38500"/>
<path d="M36.8983 67.5349L42.1859 67.9754L39.8112 73.8279L34.8086 73.0728L36.8983 67.5349Z" fill="url(#paint16_linear)"/>
<path d="M55.7972 50.8584C55.7972 50.8584 50.6362 48.2468 48.7681 49.1593C46.9001 50.0718 47.2483 51.4877 47.2483 51.4877L49.623 54.6342L53.8341 55.704L56.9687 54.1622L55.7972 50.8584Z" fill="url(#paint17_linear)"/>
<path d="M76.1573 35.2831C76.1573 35.2831 72.9594 42.6459 72.4528 44.4709C71.9462 46.2959 59.4396 47.3657 58.2048 48.6872C57.9515 49.0019 57.7616 49.348 57.6982 49.757C57.4766 51.0786 58.2048 52.6518 58.2048 52.6518L60.0729 55.2634L77.0755 53.3126C77.0755 53.3441 78.6586 39.1848 76.1573 35.2831Z" fill="#F38500"/>
<path d="M77.1068 53.3442L60.1041 55.295L58.2361 52.6834C58.2361 52.6834 57.5078 51.1102 57.7295 49.7887C57.7611 49.5369 57.8561 49.3167 57.9511 49.0964L59.3443 51.0473L76.3469 49.0964C76.3469 49.0964 77.1385 42.0482 76.6952 36.5104C78.4049 41.5448 77.1068 53.3442 77.1068 53.3442Z" fill="url(#paint18_linear)"/>
<path d="M76.3802 49.1278L59.3775 51.0786L57.9844 49.1278C58.0477 49.0019 58.1427 48.8446 58.2693 48.7502C59.4725 47.4287 72.0108 46.3589 72.5174 44.5339C73.024 42.7089 76.2219 35.3461 76.2219 35.3461C76.4752 35.7237 76.6651 36.1642 76.7918 36.5732C77.1717 42.0481 76.3802 49.1278 76.3802 49.1278Z" fill="url(#paint19_linear)"/>
<path d="M82.9364 30.7523C82.9364 30.7523 77.1739 32.829 76.1607 35.2833C75.1475 37.7376 77.9971 53.8477 77.5855 63.004C77.3955 67.6609 83.3164 69.2027 90.6304 66.1191C97.9443 63.0355 91.8335 40.0975 91.8335 40.0975C91.8335 40.0975 89.6805 31.5075 82.9364 30.7523Z" fill="#F38500"/>
<path d="M82.9364 30.7523C82.9364 30.7523 77.1739 32.829 76.1607 35.2833C75.1475 37.7376 77.9971 53.8477 77.5855 63.004C77.3955 67.6609 83.3164 69.2027 90.6304 66.1191C97.9443 63.0355 91.8335 40.0975 91.8335 40.0975C91.8335 40.0975 89.6805 31.5075 82.9364 30.7523Z" fill="url(#paint20_linear)"/>
<path d="M80.8429 39.6569C80.7795 37.4543 81.8877 35.3776 83.7241 34.119C84.9273 33.3324 86.5104 33.3324 87.7136 34.119C92.7479 37.4858 88.6318 52.9352 87.7452 54.1623C85.6239 57.12 76.2835 60.5497 64.0935 57.6549C64.0935 57.6549 60.5473 53.2813 63.3336 51.4878C66.1199 49.6943 79.1331 52.0227 80.1463 48.2154C80.8112 45.7611 80.8745 42.0168 80.8429 39.6569Z" fill="#F38500"/>
<path d="M87.7798 54.1936C85.6584 57.1198 76.3181 60.581 64.1281 57.6862L64.0331 57.5604C63.4948 56.8681 60.8352 53.1238 63.3365 51.4876C66.1228 49.6941 79.136 52.0225 80.1492 48.2152C80.7824 45.7609 80.8458 42.0166 80.8141 39.6567C80.7508 37.4542 81.859 35.3775 83.6954 34.1189C84.2653 33.7413 84.9302 33.5525 85.6268 33.5525C86.355 33.5525 87.0832 33.7413 87.6848 34.1503C92.7824 37.5171 88.6663 52.9665 87.7798 54.1936Z" fill="url(#paint21_linear)"/>
<path d="M87.778 54.1936C85.6566 57.1198 76.3162 60.581 64.1262 57.6862L64.0312 57.5604C64.0946 56.8681 64.4745 56.2388 65.0761 55.8612C67.8624 54.0677 80.274 55.9242 83.2502 53.344C88.6645 48.7187 85.7832 37.8947 85.6566 33.5525C86.3848 33.5525 87.113 33.7413 87.7146 34.1503C92.7806 37.5171 88.6645 52.9665 87.778 54.1936Z" fill="url(#paint22_linear)"/>
<path d="M62.7014 52.2428L60.2634 52.4945C60.2634 52.4945 59.8201 52.4316 60.2634 53.6587C60.7067 54.8859 61.1816 57.3087 61.5299 57.6548C61.8782 58.0009 64.1262 57.6863 64.1262 57.6863C64.1262 57.6863 64.8861 57.5289 63.9996 55.9871C63.113 54.4454 63.588 52.6518 62.7014 52.2428Z" fill="#F38500"/>
<path d="M50.5742 59.5113L52.6956 61.0845C52.6956 61.0845 53.7088 62.06 54.6587 61.2733C55.4185 60.6755 55.6718 59.6371 55.2286 58.7561C54.8803 58.1583 52.8856 57.3402 52.6006 57.3087C52.3156 57.2772 51.2391 57.057 50.9225 58.4415C50.6059 59.8259 50.5742 59.5113 50.5742 59.5113Z" fill="#F38500"/>
<path d="M46.1742 48.3727C46.1742 48.3727 50.5753 50.8584 50.9869 51.7394C51.3985 52.6205 54.3748 58.0954 54.3748 58.0954L51.3352 60.1092C51.3352 60.1092 49.4038 58.5674 48.2956 59.1337C47.1874 59.7001 43.293 59.2596 43.293 59.2596C43.293 59.2596 44.3062 49.1593 46.1742 48.3727Z" fill="#F38500"/>
<path d="M38.2285 49.0963C39.0517 47.4601 40.9198 46.6106 42.6929 47.0825C44.2127 47.4601 46.1441 48.1523 47.6639 49.2851C50.7034 51.5191 48.8037 55.9242 48.2338 56.8367C47.6639 57.7492 44.0227 60.5496 40.5715 59.4483C37.6586 58.5044 36.0755 53.3756 38.2285 49.0963Z" fill="#F38500"/>
<path d="M38.2285 49.0963C39.0517 47.4601 40.9198 46.6106 42.6929 47.0825C44.2127 47.4601 46.1441 48.1523 47.6639 49.2851C50.7034 51.5191 48.8037 55.9242 48.2338 56.8367C47.6639 57.7492 44.0227 60.5496 40.5715 59.4483C37.6586 58.5044 36.0755 53.3756 38.2285 49.0963Z" fill="url(#paint23_linear)"/>
<path d="M39.9997 58.7561C41.3112 58.7561 42.3743 56.3331 42.3743 53.3441C42.3743 50.3552 41.3112 47.9321 39.9997 47.9321C38.6882 47.9321 37.625 50.3552 37.625 53.3441C37.625 56.3331 38.6882 58.7561 39.9997 58.7561Z" fill="url(#paint24_linear)"/>
<path d="M39.5568 57.8122C40.641 57.8122 41.5199 55.8118 41.5199 53.3441C41.5199 50.8765 40.641 48.8761 39.5568 48.8761C38.4726 48.8761 37.5938 50.8765 37.5938 53.3441C37.5938 55.8118 38.4726 57.8122 39.5568 57.8122Z" fill="url(#paint25_linear)"/>
<path d="M49.2461 51.771C49.2461 51.771 50.6709 46.1073 52.6973 41.891C53.7738 39.6884 55.0086 37.8634 56.2751 37.4544C60.0113 36.2272 61.4677 36.7936 62.0693 38.9018C62.6709 41.0099 60.0113 45.2263 57.2567 44.3138C54.502 43.4013 54.407 41.419 53.1406 42.5832C51.8741 43.7474 49.816 51.771 49.816 51.771C49.816 51.771 50.2276 52.715 49.2461 51.771Z" fill="#F38500"/>
<path d="M45.7314 48.1523C45.7314 48.1523 46.428 41.6076 46.333 40.8209C46.238 40.0343 43.7684 39.4679 43.2934 38.5554C42.8185 37.643 41.4887 35.5348 43.2934 33.3008C45.0982 31.0668 47.8528 34.874 47.3779 38.2723C46.9029 41.6705 46.143 48.7501 46.143 48.7501L45.7314 48.1523Z" fill="#F38500"/>
<path d="M49.2461 51.771C49.2461 51.771 50.6709 46.1073 52.6973 41.891C53.7738 39.6884 55.0086 37.8634 56.2751 37.4544C60.0113 36.2272 61.4677 36.7936 62.0693 38.9018C62.6709 41.0099 60.0113 45.2263 57.2567 44.3138C54.502 43.4013 54.407 41.419 53.1406 42.5832C51.8741 43.7474 49.816 51.771 49.816 51.771C49.816 51.771 50.2276 52.715 49.2461 51.771Z" fill="url(#paint26_linear)"/>
<path d="M45.7314 48.1523C45.7314 48.1523 46.428 41.6076 46.333 40.8209C46.238 40.0343 43.7684 39.4679 43.2934 38.5554C42.8185 37.643 41.4887 35.5348 43.2934 33.3008C45.0982 31.0668 47.8528 34.874 47.3779 38.2723C46.9029 41.6705 46.143 48.7501 46.143 48.7501L45.7314 48.1523Z" fill="url(#paint27_linear)"/>
<path d="M55.9588 50.0718L57.7318 49.7886L59.5366 54.76L57.3202 55.0118C57.3202 55.0118 55.2305 50.3549 55.9588 50.0718Z" fill="#F38500"/>
<path d="M62.7014 52.2428L60.2634 52.4945C60.2634 52.4945 59.8201 52.4316 60.2634 53.6587C60.7067 54.8859 61.1816 57.3087 61.5299 57.6548C61.8782 58.0009 64.1262 57.6863 64.1262 57.6863C64.1262 57.6863 64.8861 57.5289 63.9996 55.9871C63.113 54.4454 63.588 52.6518 62.7014 52.2428Z" fill="url(#paint28_linear)"/>
<path d="M55.9588 50.0718L57.7318 49.7886L59.5366 54.76L57.3202 55.0118C57.3202 55.0118 55.2305 50.3549 55.9588 50.0718Z" fill="url(#paint29_linear)"/>
<path d="M94.2046 60.707C94.2046 60.707 65.4869 61.9342 63.4922 66.6225C61.4975 71.3108 56.5898 88.2075 56.5898 88.2075L62.859 89.2144L68.1782 72.6008C68.1782 72.6008 89.7086 72.8211 92.1466 69.8319C94.5846 66.8427 94.2046 60.707 94.2046 60.707Z" fill="#F38500"/>
<path d="M92.1153 69.8319C90.5322 71.7827 80.5269 72.3806 73.9728 72.5379C70.6166 72.6323 68.147 72.6008 68.147 72.6008L62.8277 89.2144L59.9148 88.7424L56.5586 88.2075C56.5586 88.2075 61.4662 71.3108 63.461 66.6225C65.4557 61.9342 94.1734 60.707 94.1734 60.707C94.1734 60.707 94.5217 66.8742 92.1153 69.8319Z" fill="url(#paint30_linear)"/>
<path d="M78.8481 65.2065L73.9721 72.5379C70.6159 72.6323 68.1463 72.6008 68.1463 72.6008L62.827 89.2144L59.9141 88.7424C59.9141 88.7424 64.4101 72.884 66.1832 69.2026C67.9563 65.5212 76.2201 65.238 76.2201 65.238H78.8481V65.2065Z" fill="url(#paint31_linear)"/>
<path d="M72.7375 66.0876L94.2045 60.707C94.2045 60.707 96.1042 71.4366 89.6768 73.1672C83.2493 74.8978 75.7137 74.8349 75.7137 74.8349L72.6741 90.7247L67.1016 90.8821C67.1016 90.8821 68.2097 69.2341 69.1279 68.2272C70.0462 67.2203 72.7375 66.0876 72.7375 66.0876Z" fill="#F38500"/>
<path d="M94.3949 65.5212C94.1732 68.6048 93.1284 72.2233 89.6455 73.1672C83.2181 74.9293 75.6824 74.8349 75.6824 74.8349L72.6429 90.7247L69.8249 90.8191L67.0703 90.9135C67.0703 90.9135 68.1785 69.2341 69.0967 68.2587C70.0149 67.2832 72.7379 66.0876 72.7379 66.0876L94.2049 60.707C94.4582 62.3118 94.5215 63.9165 94.3949 65.5212Z" fill="url(#paint32_linear)"/>
<path d="M94.3941 65.5211C94.1725 68.6047 93.1277 72.2232 89.6448 73.1671C83.2174 74.9292 75.6817 74.8348 75.6817 74.8348L72.6422 90.7247L69.8242 90.8191C70.2042 84.4316 70.9641 73.1986 71.5973 72.4749C72.5155 71.468 75.2385 70.3038 75.2385 70.3038L94.3941 65.5211Z" fill="url(#paint33_linear)"/>
<path d="M89.3286 82.7955C89.3286 82.7955 82.1729 86.6027 81.1914 100.384L117.698 96.4199C117.698 96.4199 119.851 88.9626 113.709 81.8515C111.556 79.3343 95.1545 80.1524 89.3286 82.7955Z" fill="url(#paint34_linear)"/>
<path d="M98.6398 80.7188C98.6398 80.7188 88.8878 85.1868 87.653 94.1229L87.0514 99.1573L82.302 99.4405C82.2704 98.528 82.2704 97.584 82.3337 96.6715C82.5553 93.7453 83.3786 89.057 86.3865 85.407C88.7611 82.5123 92.8456 80.9705 98.6398 80.7188Z" fill="url(#paint35_linear)"/>
<path d="M100.759 88.0187L109.973 87.295C110.258 87.2635 110.511 87.4838 110.543 87.767C110.574 88.0502 110.353 88.3019 110.068 88.3333L100.854 89.057C100.569 89.0885 100.316 88.8683 100.284 88.5851C100.253 88.3019 100.474 88.0502 100.759 88.0187Z" fill="url(#paint36_linear)"/>
<path d="M100.919 90.0955L110.133 89.3718C110.418 89.3403 110.671 89.5606 110.703 89.8437C110.735 90.1269 110.513 90.3787 110.228 90.4101L101.014 91.1338C100.729 91.1653 100.476 90.945 100.444 90.6618C100.413 90.3787 100.634 90.1269 100.919 90.0955Z" fill="url(#paint37_linear)"/>
<path d="M56.5927 88.2074C56.5927 88.2074 51.7801 87.2949 51.1468 88.3647C50.6719 89.1828 50.3236 90.0638 50.0703 90.9763L61.1204 92.8327L62.5136 88.8682L56.5927 88.2074Z" fill="#F38500"/>
<path d="M56.5927 88.2074C56.5927 88.2074 51.7801 87.2949 51.1468 88.3647C50.6719 89.1828 50.3236 90.0638 50.0703 90.9763L61.1204 92.8327L62.5136 88.8682L56.5927 88.2074Z" fill="url(#paint38_linear)"/>
<path d="M67.0712 90.9136C67.0712 90.9136 61.8469 91.9519 60.5805 93.1476C59.314 94.3432 60.2638 95.8536 60.2638 95.8536L72.4855 95.1299L71.8522 90.7562L67.0712 90.9136Z" fill="#F38500"/>
<path d="M67.0712 90.9136C67.0712 90.9136 61.8469 91.9519 60.5805 93.1476C59.314 94.3432 60.2638 95.8536 60.2638 95.8536L72.4855 95.1299L71.8522 90.7562L67.0712 90.9136Z" fill="url(#paint39_linear)"/>
<path d="M82.4254 24.3333L82.932 30.7521C82.932 30.7521 81.8871 34.0245 78.5626 34.3077C78.5626 34.3077 77.5811 34.8741 77.1061 33.6155L76.1562 29.997L82.4254 24.3333Z" fill="url(#paint40_linear)"/>
<path d="M67.2305 13.7611C67.2305 13.7611 67.6737 29.8398 72.6447 30.1859C77.6157 30.532 79.2938 28.9588 80.8136 27.1338C83.9165 23.4524 84.2648 16.3413 80.8136 15.3973C77.3624 14.4534 70.6183 8.34912 67.2305 13.7611Z" fill="url(#paint41_linear)"/>
<path d="M87.048 26.0954C85.7815 26.9764 84.2301 27.4484 82.6786 27.3855H82.5836C81.9504 27.3855 81.3488 27.2911 80.7472 27.1652C80.7472 27.1652 81.0955 20.8093 80.6522 18.2606C80.304 16.4042 72.1984 15.24 67.8924 14.768C66.5625 14.6107 65.486 13.5409 65.3594 12.2193C65.3594 12.062 65.3594 11.9047 65.3594 11.7473C65.486 9.82797 65.8343 8.12886 66.8158 6.96465C68.7472 4.69916 71.5335 3.3147 74.5098 3.1259C77.3594 2.90565 81.3805 3.15737 85.1483 5.51725C85.6549 5.8319 86.1615 6.17802 86.6364 6.5556C93.7288 12.0935 89.771 24.0817 87.048 26.0954Z" fill="#F38500"/>
<path d="M82.6474 27.3854H82.5524C81.9192 27.3854 81.3176 27.291 80.716 27.1652C80.716 27.1652 81.0643 20.8092 80.621 18.2605C80.2727 16.4041 72.1672 15.2399 67.8611 14.7679C66.5313 14.6106 65.4548 13.5408 65.3281 12.2192C65.8347 12.2822 80.9376 14.0757 82.0458 16.058C83.154 18.0403 82.6474 27.3854 82.6474 27.3854Z" fill="url(#paint42_linear)"/>
<path d="M84.0421 30.4691L84.4221 31.0355C84.4221 31.0355 83.2189 34.0561 80.116 34.4022C77.0131 34.7483 76.9815 34.4966 77.0448 34.0561C77.1081 33.6156 78.6279 34.4966 79.9894 33.2066C80.8759 32.3885 82.0158 31.1299 82.744 30.3432C83.0289 30.0286 83.5672 29.9971 83.8838 30.2803C83.9472 30.3747 83.9788 30.4376 84.0421 30.4691Z" fill="#F38500"/>
<path d="M84.0421 30.4691L84.4221 31.0355C84.4221 31.0355 83.2189 34.0561 80.116 34.4022C77.0131 34.7483 76.9815 34.4966 77.0448 34.0561C77.1081 33.6156 78.6279 34.4966 79.9894 33.2066C80.8759 32.3885 82.0158 31.1299 82.744 30.3432C83.0289 30.0286 83.5672 29.9971 83.8838 30.2803C83.9472 30.3747 83.9788 30.4376 84.0421 30.4691Z" fill="url(#paint43_linear)"/>
<path d="M60.0759 52.8093C59.9493 52.9981 56.4664 52.6205 54.3134 51.6137C52.1604 50.6068 49.5957 52.4947 49.4058 54.0679C49.2158 55.6412 48.6142 58.064 49.4058 58.9136C50.1973 59.7631 50.9255 59.5429 50.8939 59.2597C50.8622 58.9765 50.6722 56.9627 52.572 57.3088C54.4717 57.655 55.0416 59.008 56.2448 59.3855C57.448 59.7631 61.3424 57.3403 61.3424 57.3403L60.0759 52.8093Z" fill="url(#paint44_linear)"/>
<path d="M65.8681 17.0649C65.8681 17.2222 65.9314 17.3481 65.9948 17.4739C66.0897 17.6313 66.2164 17.7886 66.4064 17.883C66.913 18.1976 67.4829 18.3864 68.0528 18.4179C68.4328 18.4179 68.8444 18.3864 69.2243 18.3235L71.1874 18.0403C71.0291 17.6942 70.8707 17.3481 70.7441 17.002C71.694 17.4739 72.7388 17.7257 73.7837 17.6942C74.2903 17.6627 74.7969 17.6627 75.3351 17.6627C76.0634 17.7886 76.7599 18.0088 77.4248 18.3864C77.6465 18.4808 77.9948 18.5752 78.1214 18.355C78.1531 18.292 78.1531 18.2291 78.2164 18.1662C78.2797 18.1347 78.343 18.1032 78.4064 18.1032C78.723 18.1662 79.0079 18.292 79.2929 18.4494C79.5779 18.6067 79.9261 18.5752 80.1794 18.355C80.3061 18.1347 80.3061 17.8515 80.1161 17.6313C79.9261 17.4425 79.7362 17.2851 79.4829 17.1907C77.5515 16.2783 75.4934 15.5546 73.4037 15.0826C72.3272 14.8623 71.2507 14.705 70.1742 14.6106C69.256 14.5477 67.9895 14.3589 67.1029 14.6106C66.2164 14.8623 65.7731 16.2468 65.8681 17.0649Z" fill="#232E30"/>
<path d="M85.1487 5.4542C84.8321 5.51713 84.5471 5.48566 84.2305 5.39127C78.9746 3.94387 73.3387 6.11496 70.4891 10.7718C70.0775 11.464 69.7925 12.4709 69.1593 12.9744C68.3677 13.6037 67.2912 13.3519 66.4046 13.2261C66.1513 13.1946 65.898 13.1946 65.6447 13.1946C65.4864 12.88 65.3598 12.5338 65.3281 12.1877C65.3281 12.0304 65.3281 11.8731 65.3281 11.7158C65.4548 9.79638 65.8031 8.09726 66.7846 6.93306C68.7477 4.66757 71.5023 3.28311 74.5102 3.09431C77.3281 2.84259 81.3809 3.09431 85.1487 5.4542Z" fill="url(#paint45_linear)"/>
<path d="M88.5703 96.3255C88.5703 96.3255 90.9133 84.589 100.349 81.0649C109.784 77.5408 115.515 84.8093 116.085 87.0433C116.085 87.0433 106.649 82.1033 101.868 86.6028C97.0875 91.1023 93.6363 97.3638 93.6363 97.3638L88.5703 96.3255Z" fill="url(#paint46_linear)"/>
<path d="M82.5541 102.367L86.6068 103.028L111.747 99.4406L111.208 96.9863L82.3008 99.4406L82.5541 102.367Z" fill="url(#paint47_linear)"/>
<defs>
<linearGradient id="paint0_linear" x1="69.4662" y1="104.693" x2="73.9976" y2="149.14" gradientUnits="userSpaceOnUse">
<stop stop-opacity="0"/>
<stop offset="0.91" stop-opacity="0.8"/>
<stop offset="1"/>
</linearGradient>
<linearGradient id="paint1_linear" x1="66.1646" y1="101.933" x2="67.356" y2="134.032" gradientUnits="userSpaceOnUse">
<stop stop-opacity="0"/>
<stop offset="0.91" stop-opacity="0.8"/>
<stop offset="1"/>
</linearGradient>
<linearGradient id="paint2_linear" x1="95.1628" y1="86.1819" x2="95.3223" y2="120.199" gradientUnits="userSpaceOnUse">
<stop stop-opacity="0"/>
<stop offset="0.91" stop-opacity="0.8"/>
<stop offset="1"/>
</linearGradient>
<linearGradient id="paint3_linear" x1="99.351" y1="105.753" x2="98.6349" y2="89.5452" gradientUnits="userSpaceOnUse">
<stop stop-opacity="0"/>
<stop offset="0.91" stop-opacity="0.8"/>
<stop offset="1"/>
</linearGradient>
<linearGradient id="paint4_linear" x1="98.9901" y1="93.1894" x2="99.9438" y2="128.091" gradientUnits="userSpaceOnUse">
<stop stop-opacity="0"/>
<stop offset="0.91" stop-opacity="0.8"/>
<stop offset="1"/>
</linearGradient>
<linearGradient id="paint5_linear" x1="99.4272" y1="98.2991" x2="100.384" y2="114.344" gradientUnits="userSpaceOnUse">
<stop stop-opacity="0"/>
<stop offset="0.91" stop-opacity="0.8"/>
<stop offset="1"/>
</linearGradient>
<linearGradient id="paint6_linear" x1="36.8241" y1="105.269" x2="11.2502" y2="98.8574" gradientUnits="userSpaceOnUse">
<stop stop-opacity="0"/>
<stop offset="0.91" stop-opacity="0.8"/>
<stop offset="1"/>
</linearGradient>
<linearGradient id="paint7_linear" x1="31.4609" y1="107.192" x2="38.81" y2="89.3502" gradientUnits="userSpaceOnUse">
<stop stop-opacity="0"/>
<stop offset="0.91" stop-opacity="0.8"/>
<stop offset="1"/>
</linearGradient>
<linearGradient id="paint8_linear" x1="28.0394" y1="114.968" x2="41.4601" y2="82.7474" gradientUnits="userSpaceOnUse">
<stop stop-opacity="0"/>
<stop offset="0.91" stop-opacity="0.8"/>
<stop offset="1"/>
</linearGradient>
<linearGradient id="paint9_linear" x1="19.1455" y1="97.8505" x2="45.1085" y2="97.8505" gradientUnits="userSpaceOnUse">
<stop stop-opacity="0"/>
<stop offset="0.91" stop-opacity="0.8"/>
<stop offset="1"/>
</linearGradient>
<linearGradient id="paint10_linear" x1="31.0847" y1="100.694" x2="44.6838" y2="77.622" gradientUnits="userSpaceOnUse">
<stop stop-opacity="0"/>
<stop offset="0.91" stop-opacity="0.8"/>
<stop offset="1"/>
</linearGradient>
<linearGradient id="paint11_linear" x1="36.9812" y1="89.086" x2="36.1744" y2="110.391" gradientUnits="userSpaceOnUse">
<stop stop-opacity="0"/>
<stop offset="0.91" stop-opacity="0.8"/>
<stop offset="1"/>
</linearGradient>
<linearGradient id="paint12_linear" x1="44.8545" y1="68.3113" x2="34.438" y2="63.1245" gradientUnits="userSpaceOnUse">
<stop stop-opacity="0"/>
<stop offset="0.91" stop-opacity="0.8"/>
<stop offset="1"/>
</linearGradient>
<linearGradient id="paint13_linear" x1="85.6282" y1="84.891" x2="74.5671" y2="86.1206" gradientUnits="userSpaceOnUse">
<stop stop-color="white" stop-opacity="0"/>
<stop offset="1" stop-color="white"/>
</linearGradient>
<linearGradient id="paint14_linear" x1="98.0896" y1="58.6846" x2="98.5149" y2="69.7008" gradientUnits="userSpaceOnUse">
<stop stop-opacity="0"/>
<stop offset="0.91" stop-opacity="0.8"/>
<stop offset="1"/>
</linearGradient>
<linearGradient id="paint15_linear" x1="61.4605" y1="64.6789" x2="59.8657" y2="101.906" gradientUnits="userSpaceOnUse">
<stop stop-opacity="0"/>
<stop offset="0.91" stop-opacity="0.8"/>
<stop offset="1"/>
</linearGradient>
<linearGradient id="paint16_linear" x1="40.1933" y1="65.2793" x2="36.6214" y2="76.5568" gradientUnits="userSpaceOnUse">
<stop stop-opacity="0"/>
<stop offset="0.91" stop-opacity="0.8"/>
<stop offset="1"/>
</linearGradient>
<linearGradient id="paint17_linear" x1="52.3287" y1="48.1626" x2="52.1161" y2="51.8536" gradientUnits="userSpaceOnUse">
<stop stop-color="#ECC4D7"/>
<stop offset="0.42" stop-color="#EFD4D1"/>
<stop offset="1" stop-color="#F2EAC9"/>
</linearGradient>
<linearGradient id="paint18_linear" x1="63.2423" y1="42.0791" x2="77.4954" y2="52.8089" gradientUnits="userSpaceOnUse">
<stop stop-opacity="0"/>
<stop offset="0.91" stop-opacity="0.8"/>
<stop offset="1"/>
</linearGradient>
<linearGradient id="paint19_linear" x1="67.2377" y1="42.7988" x2="79.5274" y2="52.0509" gradientUnits="userSpaceOnUse">
<stop stop-opacity="0"/>
<stop offset="0.91" stop-opacity="0.8"/>
<stop offset="1"/>
</linearGradient>
<linearGradient id="paint20_linear" x1="88.0405" y1="48.3806" x2="65.0159" y2="53.3608" gradientUnits="userSpaceOnUse">
<stop stop-opacity="0"/>
<stop offset="0.91" stop-opacity="0.8"/>
<stop offset="1"/>
</linearGradient>
<linearGradient id="paint21_linear" x1="73.1038" y1="44.498" x2="95.0097" y2="55.5164" gradientUnits="userSpaceOnUse">
<stop stop-opacity="0"/>
<stop offset="0.91" stop-opacity="0.8"/>
<stop offset="1"/>
</linearGradient>
<linearGradient id="paint22_linear" x1="71.7254" y1="36.9876" x2="99.5396" y2="92.9677" gradientUnits="userSpaceOnUse">
<stop stop-opacity="0"/>
<stop offset="0.91" stop-opacity="0.8"/>
<stop offset="1"/>
</linearGradient>
<linearGradient id="paint23_linear" x1="43.3541" y1="55.6169" x2="43.5136" y2="61.3939" gradientUnits="userSpaceOnUse">
<stop stop-opacity="0"/>
<stop offset="0.91" stop-opacity="0.8"/>
<stop offset="1"/>
</linearGradient>
<linearGradient id="paint24_linear" x1="37.5997" y1="53.3386" x2="42.3743" y2="53.3386" gradientUnits="userSpaceOnUse">
<stop stop-color="white" stop-opacity="0"/>
<stop offset="1" stop-color="white"/>
</linearGradient>
<linearGradient id="paint25_linear" x1="34.4497" y1="53.3387" x2="40.2629" y2="53.3387" gradientUnits="userSpaceOnUse">
<stop stop-color="white" stop-opacity="0"/>
<stop offset="1" stop-color="white"/>
</linearGradient>
<linearGradient id="paint26_linear" x1="54.9324" y1="42.9355" x2="53.0982" y2="36.8313" gradientUnits="userSpaceOnUse">
<stop stop-color="white" stop-opacity="0"/>
<stop offset="1" stop-color="white"/>
</linearGradient>
<linearGradient id="paint27_linear" x1="44.8795" y1="40.7802" x2="49.3142" y2="39.4816" gradientUnits="userSpaceOnUse">
<stop stop-color="white" stop-opacity="0"/>
<stop offset="1" stop-color="white"/>
</linearGradient>
<linearGradient id="paint28_linear" x1="62.4975" y1="45.035" x2="61.8596" y2="71.9913" gradientUnits="userSpaceOnUse">
<stop stop-opacity="0"/>
<stop offset="0.91" stop-opacity="0.8"/>
<stop offset="1"/>
</linearGradient>
<linearGradient id="paint29_linear" x1="57.8506" y1="44.9252" x2="57.2127" y2="71.8814" gradientUnits="userSpaceOnUse">
<stop stop-opacity="0"/>
<stop offset="0.91" stop-opacity="0.8"/>
<stop offset="1"/>
</linearGradient>
<linearGradient id="paint30_linear" x1="65.9336" y1="70.0062" x2="79.3845" y2="76.4114" gradientUnits="userSpaceOnUse">
<stop stop-opacity="0"/>
<stop offset="0.91" stop-opacity="0.8"/>
<stop offset="1"/>
</linearGradient>
<linearGradient id="paint31_linear" x1="58.6408" y1="69.0551" x2="112.01" y2="108.847" gradientUnits="userSpaceOnUse">
<stop stop-opacity="0"/>
<stop offset="0.91" stop-opacity="0.8"/>
<stop offset="1"/>
</linearGradient>
<linearGradient id="paint32_linear" x1="76.0007" y1="71.4611" x2="89.727" y2="84.5418" gradientUnits="userSpaceOnUse">
<stop stop-opacity="0"/>
<stop offset="0.91" stop-opacity="0.8"/>
<stop offset="1"/>
</linearGradient>
<linearGradient id="paint33_linear" x1="69.5984" y1="67.8894" x2="121.752" y2="111.32" gradientUnits="userSpaceOnUse">
<stop stop-opacity="0"/>
<stop offset="0.91" stop-opacity="0.8"/>
<stop offset="1"/>
</linearGradient>
<linearGradient id="paint34_linear" x1="81.1787" y1="90.3431" x2="118.05" y2="90.3431" gradientUnits="userSpaceOnUse">
<stop stop-opacity="0"/>
<stop offset="0.91" stop-opacity="0.8"/>
<stop offset="1"/>
</linearGradient>
<linearGradient id="paint35_linear" x1="82.2823" y1="90.0741" x2="98.6461" y2="90.0741" gradientUnits="userSpaceOnUse">
<stop stop-opacity="0"/>
<stop offset="0.91" stop-opacity="0.8"/>
<stop offset="1"/>
</linearGradient>
<linearGradient id="paint36_linear" x1="100.278" y1="88.2022" x2="110.56" y2="88.2022" gradientUnits="userSpaceOnUse">
<stop stop-opacity="0"/>
<stop offset="0.91" stop-opacity="0.8"/>
<stop offset="1"/>
</linearGradient>
<linearGradient id="paint37_linear" x1="100.441" y1="90.2729" x2="110.722" y2="90.2729" gradientUnits="userSpaceOnUse">
<stop stop-opacity="0"/>
<stop offset="0.91" stop-opacity="0.8"/>
<stop offset="1"/>
</linearGradient>
<linearGradient id="paint38_linear" x1="56.1697" y1="90.2485" x2="57.4469" y2="86.1787" gradientUnits="userSpaceOnUse">
<stop stop-opacity="0"/>
<stop offset="0.91" stop-opacity="0.8"/>
<stop offset="1"/>
</linearGradient>
<linearGradient id="paint39_linear" x1="66.0293" y1="95.6015" x2="66.9335" y2="91.3734" gradientUnits="userSpaceOnUse">
<stop stop-opacity="0"/>
<stop offset="0.91" stop-opacity="0.8"/>
<stop offset="1"/>
</linearGradient>
<linearGradient id="paint40_linear" x1="78.715" y1="28.0969" x2="81.4971" y2="30.7888" gradientUnits="userSpaceOnUse">
<stop stop-color="#ECC4D7"/>
<stop offset="0.42" stop-color="#EFD4D1"/>
<stop offset="1" stop-color="#F2EAC9"/>
</linearGradient>
<linearGradient id="paint41_linear" x1="75.7914" y1="15.7944" x2="72.6522" y2="26.9811" gradientUnits="userSpaceOnUse">
<stop stop-color="#ECC4D7"/>
<stop offset="0.42" stop-color="#EFD4D1"/>
<stop offset="1" stop-color="#F2EAC9"/>
</linearGradient>
<linearGradient id="paint42_linear" x1="76.5034" y1="11.6259" x2="67.6856" y2="40.7398" gradientUnits="userSpaceOnUse">
<stop stop-opacity="0"/>
<stop offset="0.91" stop-opacity="0.8"/>
<stop offset="1"/>
</linearGradient>
<linearGradient id="paint43_linear" x1="80.6699" y1="30.2591" x2="80.7888" y2="36.7976" gradientUnits="userSpaceOnUse">
<stop stop-opacity="0"/>
<stop offset="0.91" stop-opacity="0.8"/>
<stop offset="1"/>
</linearGradient>
<linearGradient id="paint44_linear" x1="54.5027" y1="53.8543" x2="55.0877" y2="57.0651" gradientUnits="userSpaceOnUse">
<stop stop-color="#ECC4D7"/>
<stop offset="0.42" stop-color="#EFD4D1"/>
<stop offset="1" stop-color="#F2EAC9"/>
</linearGradient>
<linearGradient id="paint45_linear" x1="65.3123" y1="8.19009" x2="85.1582" y2="8.19009" gradientUnits="userSpaceOnUse">
<stop stop-color="white" stop-opacity="0"/>
<stop offset="1" stop-color="white"/>
</linearGradient>
<linearGradient id="paint46_linear" x1="104.548" y1="94.0266" x2="83.3134" y2="67.9818" gradientUnits="userSpaceOnUse">
<stop stop-color="white" stop-opacity="0"/>
<stop offset="1" stop-color="white"/>
</linearGradient>
<linearGradient id="paint47_linear" x1="82.2976" y1="100.005" x2="111.734" y2="100.005" gradientUnits="userSpaceOnUse">
<stop stop-opacity="0"/>
<stop offset="0.91" stop-opacity="0.8"/>
<stop offset="1"/>
</linearGradient>
</defs>
</svg>
