<svg width="140" height="134" viewBox="0 0 140 134" fill="none" xmlns="http://www.w3.org/2000/svg">
<g clip-path="url(#clip0)">
<path d="M62.7844 15.0774C62.7156 15.6279 62.8875 16.144 63.2655 16.5569C63.3343 16.6602 63.4717 16.729 63.5748 16.7634C64.1935 16.9698 64.2622 15.6967 64.056 15.3182C63.8498 14.9397 62.8531 14.2172 62.7844 15.0774Z" fill="url(#paint0_linear)"/>
<path d="M74.0913 14.3548C74.1601 14.9054 73.9538 15.4215 73.6102 15.8344C73.5414 15.9376 73.404 16.0065 73.3009 16.0409C72.6822 16.2473 72.6479 14.9742 72.8197 14.5957C72.9915 14.2172 74.0226 13.4946 74.0913 14.3548Z" fill="url(#paint1_linear)"/>
<path opacity="0.24" d="M84.262 129.968C84.8462 129.521 85.1555 128.798 85.6367 128.213C87.4926 125.77 90.9981 125.632 93.9538 124.875C96.5657 124.222 98.9715 122.914 100.999 121.125C95.5003 120.471 89.9327 120.781 84.3994 121.09L46.9382 123.224C44.8418 123.293 42.7453 123.533 40.6833 123.912C40.1334 124.015 39.5147 124.222 39.2054 124.703C38.8617 125.254 39.0336 126.011 39.4804 126.493C39.9272 126.94 40.5114 127.318 41.13 127.525C47.0413 130.037 53.6056 131.654 59.9637 130.484C60.4105 130.415 60.8917 130.278 61.0635 129.865C61.2354 129.452 60.9948 128.936 61.0635 128.488C61.201 127.628 62.3351 127.422 63.2287 127.422L71.5801 127.456C72.0613 127.422 72.5768 127.525 72.9892 127.731C73.8484 128.316 73.711 129.727 74.5702 130.346C74.9826 130.587 75.4637 130.725 75.9449 130.725C78.0757 130.897 82.3717 131.447 84.262 129.968Z" fill="#F38500"/>
<path d="M74.022 24.8495C74.022 24.8495 81.583 34.9656 85.0198 39.9549C88.4566 44.9441 92.134 26.742 92.134 26.742L97.5642 30.114C97.5642 30.114 93.1307 55.4043 83.3702 47.9721C73.6096 40.5398 74.022 24.8495 74.022 24.8495Z" fill="#F38500"/>
<path d="M74.022 24.8495C74.022 24.8495 81.583 34.9656 85.0198 39.9549C88.4566 44.9441 92.134 26.742 92.134 26.742L97.5642 30.114C97.5642 30.114 93.1307 55.4043 83.3702 47.9721C73.6096 40.5398 74.022 24.8495 74.022 24.8495Z" fill="url(#paint2_linear)"/>
<path d="M65.5647 22.7162C62.7466 24.0925 60.5814 26.5011 58.5537 28.8753C58.1756 29.357 57.9007 29.942 57.7288 30.5269C55.3918 36.7893 55.7355 40.8495 54.9794 45.942C54.3607 50.1398 53.0891 54.3721 54.0514 58.5011C54.0514 58.5011 54.2576 75.3269 55.1512 77.9764L82.8862 77.3226C82.8862 77.3226 80.7898 50.1398 80.5836 46.8022C79.69 30.6302 76.4594 27.0861 73.9849 24.8495C71.5104 22.613 65.5647 22.7162 65.5647 22.7162Z" fill="#F38500"/>
<path d="M65.5647 22.7161C62.7466 24.0924 60.5814 26.501 58.5537 28.8752C58.1756 29.3569 57.9007 29.9419 57.7288 30.5268C55.3918 36.7892 55.7355 40.8494 54.9794 45.9419C54.3607 50.1397 53.0891 54.372 54.0514 58.501C54.0514 58.501 54.2576 75.3268 55.1512 77.9763L82.8862 77.3225C82.8862 77.3225 80.6867 51.4816 80.6523 48.144C80.5836 34.0709 77.078 27.2236 73.9849 24.8838C71.3729 22.8537 65.5647 22.7161 65.5647 22.7161Z" fill="url(#paint3_linear)"/>
<path d="M75.6016 40.5743L79.7257 40.4366C79.7257 40.4366 80.31 46.0452 79.2446 46.3893C78.1792 46.7334 75.7047 46.4582 75.7047 46.4582L75.6016 40.5743Z" fill="white"/>
<path d="M64.8086 24.5397C64.8086 24.5397 68.0392 27.602 69.792 25.5375C71.5447 23.473 71.3385 24.2644 71.3385 24.2644L70.1356 43.8085L64.8086 24.5397Z" fill="#606161"/>
<path d="M69.2448 4.30758C68.6606 3.585 67.767 3.10328 66.8391 3.00006C65.9455 2.89683 64.9488 3.20651 64.4333 3.99791C64.124 4.58285 63.9865 5.23662 64.0209 5.92479C63.9522 6.54414 64.0553 7.1635 64.2958 7.74844C64.6052 8.29898 65.0863 8.71189 65.6362 8.91834C67.0109 9.40006 68.5231 9.05597 69.5542 8.05812C70.6196 7.09468 70.0353 5.27103 69.2448 4.30758Z" fill="#606161"/>
<path d="M69.2448 4.30758C68.6606 3.585 67.767 3.10328 66.8391 3.00006C65.9455 2.89683 64.9488 3.20651 64.4333 3.99791C64.124 4.58285 63.9865 5.23662 64.0209 5.92479C63.9522 6.54414 64.0553 7.1635 64.2958 7.74844C64.6052 8.29898 65.0863 8.71189 65.6362 8.91834C67.0109 9.40006 68.5231 9.05597 69.5542 8.05812C70.6196 7.09468 70.0353 5.27103 69.2448 4.30758Z" fill="url(#paint4_linear)"/>
<path d="M66.0482 18.656C66.0482 18.656 66.0139 22.8883 65.0515 23.7829C64.0892 24.6775 68.9008 28.8066 70.9285 24.1958C70.9285 24.1958 69.7256 22.2001 70.138 18.8281C70.5504 15.456 66.0482 18.656 66.0482 18.656Z" fill="url(#paint5_linear)"/>
<path d="M65.9102 19.6881V20.6171C65.9102 20.6171 68.3503 24.1268 69.347 22.9569C70.3436 21.787 70.0343 21.5118 70.0343 21.5118L70.1374 18.8279L65.9102 19.6881Z" fill="url(#paint6_linear)"/>
<path d="M63.7124 12.6344C63.7124 12.6344 63.025 19.0688 66.4618 20.3419C69.8986 21.6151 71.9607 19.7914 72.8886 16.6602C73.8166 13.529 72.3731 7.26667 68.7301 7.88603C65.0871 8.50538 63.7124 12.6344 63.7124 12.6344Z" fill="url(#paint7_linear)"/>
<path d="M63.1609 14.8022C62.9891 14.5958 62.886 14.3205 62.8516 14.0452C62.4048 11.5678 63.2984 9.05598 65.1886 7.43877C65.5667 7.09469 66.0135 6.85383 66.4946 6.68178C66.9758 6.54415 67.4569 6.50974 67.9725 6.54415C69.519 6.57856 71.0312 7.1291 72.2685 8.09254C73.5057 9.05598 74.2618 10.5011 74.3649 12.0839C74.3993 12.5312 74.3306 13.013 74.1587 13.4259C73.9525 13.8388 73.5745 14.1485 73.1277 14.2517C72.3372 14.3893 72.0966 13.6667 71.478 13.1506C70.5157 12.428 70.2064 11.3269 68.0068 11.499C64.3982 11.7743 64.1576 15.9721 63.1609 14.8022Z" fill="#606161"/>
<path d="M62.3013 24.9183C62.3013 24.9183 50.3069 33.2452 49.8257 48.97C49.5508 58.0882 59.8268 56.5398 60.1362 56.299C60.4455 56.0581 61.4765 48.3162 61.4765 48.3162C61.4765 48.3162 57.7991 48.3162 57.3523 47.6624C56.9056 47.0087 62.3013 24.9183 62.3013 24.9183Z" fill="#F38500"/>
<path d="M62.3013 24.9183C62.3013 24.9183 50.3069 33.2452 49.8257 48.97C49.5508 58.0882 59.8268 56.5398 60.1362 56.299C60.4455 56.0581 61.4765 48.3162 61.4765 48.3162C61.4765 48.3162 57.7991 48.3162 57.3523 47.6624C56.9056 47.0087 62.3013 24.9183 62.3013 24.9183Z" fill="url(#paint8_linear)"/>
<path d="M57.353 77.7699L56.9062 121.331L57.2499 127.422L61.6834 127.662L68.3508 80.3162L73.8841 127.731H78.6269L79.2455 77.3226L57.353 77.7699Z" fill="#606161"/>
<path d="M57.353 77.7699L56.9062 121.331L57.2499 127.422L61.6834 127.662L68.4539 79.7656L73.8841 127.731H78.6269L79.2455 77.3226L57.353 77.7699Z" fill="url(#paint9_linear)"/>
<path d="M93.3339 25.813C93.4027 24.7464 93.6089 23.6797 93.9182 22.6474C94.2275 21.6152 94.9149 20.7206 95.8084 20.1012C96.2208 19.8259 96.702 19.7227 97.1831 19.7915C98.0423 19.998 98.4548 20.9614 98.4891 21.8216C98.5235 22.6818 98.3517 23.5765 98.6266 24.4023C98.6953 24.6775 98.8328 24.9184 98.9015 25.1937C99.1078 26.1227 98.6266 27.0517 98.0423 27.8087C97.733 28.2216 97.355 28.6001 96.9082 28.8754C95.9459 29.3915 94.7774 29.3571 93.8838 28.7378C92.7497 27.9808 93.2308 27.0173 93.3339 25.813Z" fill="url(#paint10_linear)"/>
<path d="M53.6055 131L61.3727 130.897L61.682 127.662L57.2485 127.421L53.6055 131Z" fill="#606161"/>
<path d="M81.9937 131L74.1921 130.897L73.8828 127.662L78.3163 127.421L81.9937 131Z" fill="#606161"/>
<path d="M65.6713 22.8537C65.6713 22.8537 64.3997 23.9203 65.6713 26.6042C66.9429 29.2881 70.2766 44.3246 70.2766 44.3246L63.6092 33.3139L64.331 29.1504L62.9219 28.0494C62.9219 28.0494 62.9219 24.1268 63.678 23.301C64.4341 22.4752 65.1902 22.544 65.6713 22.8537Z" fill="#F38500"/>
<path d="M70.3109 22.3721C70.3109 22.3721 72.3043 22.8538 72.648 23.8172C72.9916 24.7807 74.3664 27.5334 74.3664 27.5334L73.4728 28.7377L74.8475 30.3549L70.2422 44.2904C70.2422 44.2904 71.4451 25.4 70.9295 24.1613C70.414 22.9226 70.3109 22.3721 70.3109 22.3721Z" fill="#F38500"/>
<path d="M65.6713 22.8537C65.6713 22.8537 64.3997 23.9203 65.6713 26.6042C66.9429 29.2881 70.2766 44.3246 70.2766 44.3246L63.6092 33.3139L64.331 29.1504L62.9219 28.0494C62.9219 28.0494 62.9219 24.1268 63.678 23.301C64.4341 22.4752 65.1902 22.544 65.6713 22.8537Z" fill="url(#paint11_linear)"/>
<path d="M70.3109 22.3721C70.3109 22.3721 72.3043 22.8538 72.648 23.8172C72.9916 24.7807 74.3664 27.5334 74.3664 27.5334L73.4728 28.7377L74.8475 30.3549L70.2422 44.2904C70.2422 44.2904 71.4451 25.4 70.9295 24.1613C70.414 22.9226 70.3109 22.3721 70.3109 22.3721Z" fill="url(#paint12_linear)"/>
<path d="M69.4143 32.4538C68.7957 32.4194 68.2802 32.0409 68.0052 31.5248C67.9021 31.3872 67.7303 31.0775 67.4897 30.699C66.4243 29.013 64.2247 25.5377 63.8467 24.299C63.4687 22.9915 64.5684 22.2001 65.2214 21.9936L65.3589 22.3721C65.2902 22.4065 63.8467 22.9227 64.2247 24.1958C64.5684 25.3657 66.768 28.8409 67.8334 30.4926C68.074 30.8711 68.2802 31.1807 68.3489 31.3184C68.6926 31.8689 69.1394 32.1442 69.5862 32.0754C70.033 32.0065 71.064 31.456 71.6826 27.9807C72.5762 23.0947 71.0984 22.3033 70.6172 22.028L70.789 21.684C71.3389 21.9936 73.023 22.8539 72.0607 28.0495C71.4077 31.628 70.2735 32.3506 69.6549 32.4538C69.5518 32.4538 69.4831 32.4538 69.4143 32.4538Z" fill="#F38500"/>
<path d="M67.1817 53.0301C66.5631 53.0301 65.9788 52.858 65.4633 52.5828C64.3292 51.9978 63.6074 50.8279 63.6418 49.5548C63.7105 48.3161 64.6041 47.2494 66.185 46.5957C71.3059 44.4623 69.5187 32.3505 69.5187 32.2473L69.8968 32.1785C69.9655 32.6946 71.7527 44.7032 66.3225 46.9398C64.9134 47.5247 64.0886 48.4537 64.0199 49.5548C64.0199 50.6903 64.6385 51.7226 65.6351 52.2387C66.7693 52.858 68.1784 52.7548 69.2094 51.929C72.9555 49.2451 77.1141 40.7462 77.1141 39.6451H77.4921C77.4921 40.815 73.368 49.4516 69.4156 52.2387C68.8314 52.7548 68.0065 53.0301 67.1817 53.0301Z" fill="#F38500"/>
<path d="M69.4143 32.4538C68.7957 32.4194 68.2802 32.0409 68.0052 31.5248C67.9021 31.3872 67.7303 31.0775 67.4897 30.699C66.4243 29.013 64.2247 25.5377 63.8467 24.299C63.4687 22.9915 64.5684 22.2001 65.2214 21.9936L65.3589 22.3721C65.2902 22.4065 63.8467 22.9227 64.2247 24.1958C64.5684 25.3657 66.768 28.8409 67.8334 30.4926C68.074 30.8711 68.2802 31.1807 68.3489 31.3184C68.6926 31.8689 69.1394 32.1442 69.5862 32.0754C70.033 32.0065 71.064 31.456 71.6826 27.9807C72.5762 23.0947 71.0984 22.3033 70.6172 22.028L70.789 21.684C71.3389 21.9936 73.023 22.8539 72.0607 28.0495C71.4077 31.628 70.2735 32.3506 69.6549 32.4538C69.5518 32.4538 69.4831 32.4538 69.4143 32.4538Z" fill="url(#paint13_linear)"/>
<path d="M67.1817 53.0301C66.5631 53.0301 65.9788 52.858 65.4633 52.5828C64.3292 51.9978 63.6074 50.8279 63.6418 49.5548C63.7105 48.3161 64.6041 47.2494 66.185 46.5957C71.3059 44.4623 69.5187 32.3505 69.5187 32.2473L69.8968 32.1785C69.9655 32.6946 71.7527 44.7032 66.3225 46.9398C64.9134 47.5247 64.0886 48.4537 64.0199 49.5548C64.0199 50.6903 64.6385 51.7226 65.6351 52.2387C66.7693 52.858 68.1784 52.7548 69.2094 51.929C72.9555 49.2451 77.1141 40.7462 77.1141 39.6451H77.4921C77.4921 40.815 73.368 49.4516 69.4156 52.2387C68.8314 52.7548 68.0065 53.0301 67.1817 53.0301Z" fill="url(#paint14_linear)"/>
<path d="M65.5681 48.6258L67.2865 43.0516C67.5615 42.1226 68.5238 41.5376 69.4861 41.6753L76.2566 42.7075C77.3564 42.8796 78.0781 43.9118 77.9063 44.9785C77.9063 45.0817 77.8719 45.185 77.8375 45.2882L73.4728 58.4323C73.1635 59.3957 72.1324 59.9806 71.1357 59.7398L64.7776 58.2258C63.7122 57.9849 63.0592 56.8839 63.2998 55.8172C63.2998 55.7828 63.3342 55.714 63.3342 55.6796L65.5681 48.6258Z" fill="#F38500"/>
<path d="M65.5681 48.6258L67.2865 43.0516C67.5615 42.1226 68.5238 41.5376 69.4861 41.6753L76.2566 42.7075C77.3564 42.8796 78.0781 43.9118 77.9063 44.9785C77.9063 45.0817 77.8719 45.185 77.8375 45.2882L73.4728 58.4323C73.1635 59.3957 72.1324 59.9806 71.1357 59.7398L64.7776 58.2258C63.7122 57.9849 63.0592 56.8839 63.2998 55.8172C63.2998 55.7828 63.3342 55.714 63.3342 55.6796L65.5681 48.6258Z" fill="url(#paint15_linear)"/>
<path d="M65.9119 48.9699L67.6303 43.3957C67.9052 42.4667 68.8675 41.8818 69.8298 42.0194L76.6003 43.0516C77.7001 43.2237 78.4218 44.2559 78.25 45.3226C78.25 45.4258 78.2156 45.5291 78.1813 45.6323L73.8165 58.7764C73.5072 59.7398 72.4762 60.3248 71.4795 60.0839L65.1214 58.5699C64.056 58.3291 63.403 57.228 63.6436 56.1613C63.6436 56.1269 63.6779 56.0581 63.6779 56.0237L65.9119 48.9699Z" fill="#F38500"/>
<path d="M67.6278 48.0753C68.109 48.0409 68.5558 48.1097 69.0026 48.2473C69.4494 48.4194 69.7587 48.7979 69.8618 49.2796C69.8961 49.8301 69.4837 50.3119 69.0369 50.6215C68.5901 50.9312 68.0403 51.1033 67.5935 51.4473C67.0436 51.8602 66.6999 52.4796 66.2187 52.9957C65.0846 54.1656 63.3662 54.5441 61.854 53.9592C60.7886 53.6151 60.1356 52.4796 60.4105 51.3785C60.4793 50.8624 60.6855 49.8645 61.0979 49.5205C61.5103 49.1764 62.6788 49.0387 63.2287 48.9011C64.6378 48.4194 66.1156 48.1785 67.6278 48.0753Z" fill="url(#paint16_linear)"/>
<path d="M73.4703 14.8021C73.5046 14.7677 73.539 14.6989 73.5734 14.6645C73.5734 14.5957 73.6077 14.5268 73.6077 14.4924C73.6077 14.4236 73.6421 14.3892 73.6765 14.3204C73.7108 14.286 73.7796 14.2516 73.8483 14.286C73.8827 14.3204 73.9514 14.3548 73.9514 14.4236C73.9514 14.4924 73.9858 14.5268 73.9858 14.5957C74.0202 14.8021 73.9858 15.0086 73.8827 15.215C73.814 15.3526 73.7108 15.4559 73.5734 15.5591C73.539 15.5935 73.4703 15.6279 73.4015 15.6623C73.3672 15.6623 73.3328 15.6623 73.2984 15.6279C73.2641 15.6279 73.2641 15.5935 73.2641 15.5935V15.5591C73.2297 15.4215 73.2297 15.2494 73.2641 15.1118C73.2984 14.9742 73.3672 14.8709 73.4703 14.8021Z" fill="url(#paint17_linear)"/>
<path d="M63.505 15.4903C63.4706 15.4559 63.4362 15.4215 63.4019 15.3527C63.4019 15.2839 63.3675 15.2151 63.3675 15.1807C63.3675 15.1118 63.3331 15.0774 63.2988 15.0086C63.2644 14.9742 63.1957 14.9398 63.1269 14.9742C63.0926 15.0086 63.0238 15.043 63.0238 15.1118C62.9895 15.1807 62.9895 15.2151 62.9895 15.2839C62.9551 15.4903 62.9894 15.6968 63.0926 15.9032C63.1613 16.0409 63.2644 16.1441 63.4019 16.2473C63.4362 16.2817 63.505 16.3161 63.5737 16.3506C63.6081 16.3506 63.6424 16.3161 63.6768 16.3161L63.7112 16.2817V16.2473C63.7456 16.1097 63.7456 15.9377 63.7112 15.8C63.6424 15.6624 63.5737 15.5592 63.505 15.4903Z" fill="url(#paint18_linear)"/>
<path d="M76.7035 39.7141C76.7722 40.1614 77.0128 40.5399 77.3565 40.8151C77.4596 40.9184 77.5627 40.9872 77.7002 41.0216C77.8377 41.0216 78.0095 40.9872 78.1126 40.9184C78.5938 40.6431 78.8 40.0926 78.6969 39.542C78.3875 38.4754 76.6004 38.4754 76.7035 39.7141Z" fill="#F38500"/>
<path d="M77.0439 39.2321C77.0783 39.8171 77.8344 41.2967 78.8998 40.8149C79.5528 40.4709 79.8621 39.7139 79.6903 38.9913C79.2779 37.5805 76.8721 37.5805 77.0439 39.2321Z" fill="#F38500"/>
<path d="M77.0439 39.2321C77.2501 41.159 78.728 40.9182 78.8998 40.8149C79.5184 40.4364 79.8277 39.7139 79.6903 38.9913C79.2779 37.5805 76.8721 37.5805 77.0439 39.2321Z" fill="url(#paint19_linear)"/>
<path d="M77.4229 39.3355C77.5604 40.5742 78.4883 40.4022 78.5914 40.3334C79.0038 40.0925 79.1757 39.6108 79.1069 39.1635C78.8664 38.3033 77.3198 38.2689 77.4229 39.3355Z" fill="url(#paint20_linear)"/>
</g>
<defs>
<linearGradient id="paint0_linear" x1="62.7582" y1="15.7311" x2="64.1501" y2="15.7311" gradientUnits="userSpaceOnUse">
<stop stop-color="#E5C6D6"/>
<stop offset="0.42" stop-color="#EAD4D0"/>
<stop offset="1" stop-color="#F0E9CB"/>
</linearGradient>
<linearGradient id="paint1_linear" x1="74.1141" y1="15.0085" x2="72.7197" y2="15.0085" gradientUnits="userSpaceOnUse">
<stop stop-color="#E5C6D6"/>
<stop offset="0.42" stop-color="#EAD4D0"/>
<stop offset="1" stop-color="#F0E9CB"/>
</linearGradient>
<linearGradient id="paint2_linear" x1="84.4362" y1="57.5751" x2="85.325" y2="37.7455" gradientUnits="userSpaceOnUse">
<stop stop-color="white" stop-opacity="0"/>
<stop offset="0.95" stop-color="white"/>
</linearGradient>
<linearGradient id="paint3_linear" x1="45.4853" y1="52.8456" x2="79.2733" y2="49.5192" gradientUnits="userSpaceOnUse">
<stop stop-color="white" stop-opacity="0"/>
<stop offset="0.95" stop-color="white"/>
</linearGradient>
<linearGradient id="paint4_linear" x1="66.3044" y1="4.44422" x2="67.6647" y2="8.05607" gradientUnits="userSpaceOnUse">
<stop stop-color="#010101" stop-opacity="0"/>
<stop offset="0.95" stop-color="#010101"/>
</linearGradient>
<linearGradient id="paint5_linear" x1="64.9347" y1="21.8162" x2="70.9443" y2="21.8162" gradientUnits="userSpaceOnUse">
<stop stop-color="#E5C6D6"/>
<stop offset="0.42" stop-color="#EAD4D0"/>
<stop offset="1" stop-color="#F0E9CB"/>
</linearGradient>
<linearGradient id="paint6_linear" x1="67.3364" y1="23.9532" x2="70.1162" y2="10.2289" gradientUnits="userSpaceOnUse">
<stop offset="0.12" stop-color="#010101" stop-opacity="0"/>
<stop offset="0.95" stop-color="#010101"/>
</linearGradient>
<linearGradient id="paint7_linear" x1="63.672" y1="14.3205" x2="73.1939" y2="14.3205" gradientUnits="userSpaceOnUse">
<stop stop-color="#E5C6D6"/>
<stop offset="0.42" stop-color="#EAD4D0"/>
<stop offset="1" stop-color="#F0E9CB"/>
</linearGradient>
<linearGradient id="paint8_linear" x1="43.4281" y1="38.8324" x2="60.5267" y2="40.8269" gradientUnits="userSpaceOnUse">
<stop offset="0.52" stop-color="white" stop-opacity="0.52"/>
<stop offset="0.95" stop-color="white"/>
</linearGradient>
<linearGradient id="paint9_linear" x1="66.1084" y1="121.785" x2="72.5916" y2="56.448" gradientUnits="userSpaceOnUse">
<stop offset="0.12" stop-color="#010101" stop-opacity="0"/>
<stop offset="0.95" stop-color="#010101"/>
</linearGradient>
<linearGradient id="paint10_linear" x1="93.1429" y1="24.533" x2="98.9516" y2="24.533" gradientUnits="userSpaceOnUse">
<stop stop-color="#E5C6D6"/>
<stop offset="0.42" stop-color="#EAD4D0"/>
<stop offset="1" stop-color="#F0E9CB"/>
</linearGradient>
<linearGradient id="paint11_linear" x1="63.1665" y1="34.9265" x2="68.0514" y2="33.299" gradientUnits="userSpaceOnUse">
<stop stop-color="white" stop-opacity="0"/>
<stop offset="0.95" stop-color="white"/>
</linearGradient>
<linearGradient id="paint12_linear" x1="76.1416" y1="32.9298" x2="70.7389" y2="33.3005" gradientUnits="userSpaceOnUse">
<stop stop-color="white" stop-opacity="0"/>
<stop offset="0.11" stop-color="white" stop-opacity="0.18"/>
<stop offset="0.29" stop-color="white" stop-opacity="0.42"/>
<stop offset="0.45" stop-color="white" stop-opacity="0.63"/>
<stop offset="0.6" stop-color="white" stop-opacity="0.79"/>
<stop offset="0.74" stop-color="white" stop-opacity="0.9"/>
<stop offset="0.86" stop-color="white" stop-opacity="0.98"/>
<stop offset="0.95" stop-color="white"/>
</linearGradient>
<linearGradient id="paint13_linear" x1="72.1522" y1="21.8273" x2="48.2519" y2="48.9168" gradientUnits="userSpaceOnUse">
<stop offset="0.12" stop-color="#010101" stop-opacity="0"/>
<stop offset="0.95" stop-color="#010101"/>
</linearGradient>
<linearGradient id="paint14_linear" x1="80.867" y1="29.5152" x2="56.9667" y2="56.6047" gradientUnits="userSpaceOnUse">
<stop offset="0.12" stop-color="#010101" stop-opacity="0"/>
<stop offset="0.95" stop-color="#010101"/>
</linearGradient>
<linearGradient id="paint15_linear" x1="61.8063" y1="42.6072" x2="82.8651" y2="61.4763" gradientUnits="userSpaceOnUse">
<stop offset="0.12" stop-color="#010101" stop-opacity="0"/>
<stop offset="0.95" stop-color="#010101"/>
</linearGradient>
<linearGradient id="paint16_linear" x1="60.361" y1="51.143" x2="69.8432" y2="51.143" gradientUnits="userSpaceOnUse">
<stop stop-color="#E5C6D6"/>
<stop offset="0.42" stop-color="#EAD4D0"/>
<stop offset="1" stop-color="#F0E9CB"/>
</linearGradient>
<linearGradient id="paint17_linear" x1="74.0545" y1="15.0463" x2="71.2326" y2="14.4627" gradientUnits="userSpaceOnUse">
<stop offset="0.12" stop-color="#010101" stop-opacity="0"/>
<stop offset="0.95" stop-color="#010101"/>
</linearGradient>
<linearGradient id="paint18_linear" x1="62.8936" y1="15.7397" x2="65.7154" y2="15.1561" gradientUnits="userSpaceOnUse">
<stop offset="0.12" stop-color="#010101" stop-opacity="0"/>
<stop offset="0.95" stop-color="#010101"/>
</linearGradient>
<linearGradient id="paint19_linear" x1="79.7103" y1="37.0404" x2="75.6444" y2="43.7734" gradientUnits="userSpaceOnUse">
<stop offset="0.12" stop-color="#010101" stop-opacity="0"/>
<stop offset="0.95" stop-color="#010101"/>
</linearGradient>
<linearGradient id="paint20_linear" x1="79.1494" y1="37.9342" x2="76.5398" y2="42.2566" gradientUnits="userSpaceOnUse">
<stop offset="0.12" stop-color="#010101" stop-opacity="0"/>
<stop offset="0.95" stop-color="#010101"/>
</linearGradient>
<clipPath id="clip0">
<rect width="62" height="128" fill="white" transform="translate(39 3)"/>
</clipPath>
</defs>
</svg>
