<svg width="140" height="134" viewBox="0 0 140 134" fill="none" xmlns="http://www.w3.org/2000/svg">
<path opacity="0.41" d="M139 109.444C138.356 110.322 137.674 111.161 136.917 111.962C127.902 121.958 113.736 125.354 100.366 126.078C86.9953 126.803 73.4354 125.315 60.2544 127.872C55.747 128.749 51.2776 130.084 46.6945 130.657C38.7783 131.649 30.7105 130.275 23.0973 127.91C17.1507 126.078 11.0904 123.446 7.34061 118.448C5.2574 115.701 3.43931 112.687 2 109.482L139 109.444Z" fill="#F38500"/>
<path opacity="0.66" d="M26.0528 109.864C26.0528 109.864 21.8106 111.314 22.606 112.077C23.4014 112.84 13.2126 112.077 13.4777 113.603C13.7429 115.129 130.1 113.603 130.1 113.603C130.1 113.603 133.206 112.84 129.153 111.924C126.843 111.39 124.532 111.085 122.184 110.932L120.252 109.94L26.0528 109.864Z" fill="#F38500"/>
<path d="M121.122 79.4567C121.122 79.4567 121.425 81.8603 120.857 91.6653C120.289 100.784 120.137 107.155 120.137 107.155C120.137 107.155 120.061 107.918 118.508 107.918C116.955 107.918 116.539 106.888 116.539 106.888L115.024 83.5008L108.66 107.346C108.66 107.346 106.805 108.414 105.327 107.613C104.305 107.041 110.138 79.3804 110.138 79.3804C113.622 81.0972 117.637 81.0972 121.122 79.4567Z" fill="#3F3D56"/>
<path d="M109.38 61.983C109.343 62.1738 109.305 62.4027 109.229 62.5935C108.774 64.6155 107.865 71.8644 106.918 72.7419C105.972 73.6194 104.078 75.527 103.358 76.6716C103.131 77.0531 104.419 80.2197 106.275 78.8462C107.335 78.0832 110.252 74.8403 110.441 74.3443C110.668 73.6575 110.744 72.9708 110.668 72.2459L109.38 61.983Z" fill="#F38500"/>
<path d="M109.38 61.983C109.343 62.1738 109.305 62.4027 109.229 62.5935C108.774 64.6155 107.865 71.8644 106.918 72.7419C105.972 73.6194 104.078 75.527 103.358 76.6716C103.131 77.0531 104.419 80.2197 106.275 78.8462C107.335 78.0832 110.252 74.8403 110.441 74.3443C110.668 73.6575 110.744 72.9708 110.668 72.2459L109.38 61.983Z" fill="url(#paint0_linear)"/>
<path d="M117.374 59.8846C117.374 59.8846 121.502 61.9066 121.616 62.5552C121.73 63.2038 121.161 79.4566 121.161 79.4566C121.161 79.4566 119.836 81.2116 115.707 81.2116C111.503 81.2116 110.139 80.0289 110.215 79.4184C110.442 77.3582 109.344 62.6697 109.457 61.9448C109.571 61.2199 113.359 59.8464 113.359 59.8464L117.374 59.8846Z" fill="#F38500"/>
<path d="M117.374 59.8846C117.374 59.8846 121.502 61.9066 121.616 62.5552C121.73 63.2038 121.161 79.4566 121.161 79.4566C121.161 79.4566 119.836 81.2116 115.707 81.2116C111.503 81.2116 110.139 80.0289 110.215 79.4184C110.442 77.3582 109.344 62.6697 109.457 61.9448C109.571 61.2199 113.359 59.8464 113.359 59.8464L117.374 59.8846Z" fill="url(#paint1_linear)"/>
<path d="M120.101 61.3726L117.98 69.1556L116.578 68.6978L118.623 60.8766C118.737 60.4951 118.851 60.4188 119.192 60.6096C119.192 60.6096 120.176 61.1437 120.101 61.3726Z" fill="#3F3D56"/>
<path d="M112.753 59.9609L111.503 68.2018L110.102 68.1255L111.276 60.6095C111.314 60.2661 112.791 59.732 112.753 59.9609Z" fill="#3F3D56"/>
<path d="M118.205 70.9488L118.054 68.6978C118.054 68.6978 115.099 68.0111 113.433 67.8585C112.296 67.7822 111.16 67.8966 110.1 68.2018L109.91 80.1816C109.91 80.1816 110.289 81.2498 111.88 81.555C113.471 81.8603 119.379 80.9828 119.379 80.9828L118.205 70.9488Z" fill="#3F3D56"/>
<path d="M121.122 79.4567C121.122 79.4567 121.425 81.8603 120.857 91.6653C120.289 100.784 120.137 107.155 120.137 107.155C120.137 107.155 120.061 107.918 118.508 107.918C116.955 107.918 116.539 106.888 116.539 106.888L115.024 83.5008L108.66 107.346C108.66 107.346 106.805 108.414 105.327 107.613C104.305 107.041 110.138 79.3804 110.138 79.3804C113.622 81.0972 117.637 81.0972 121.122 79.4567Z" fill="#3F3D56"/>
<path d="M121.122 79.4567C121.122 79.4567 121.425 81.8603 120.857 91.6653C120.289 100.784 120.137 107.155 120.137 107.155C120.137 107.155 120.061 107.918 118.508 107.918C116.955 107.918 116.539 106.888 116.539 106.888L115.024 83.5008L108.66 107.346C108.66 107.346 106.805 108.414 105.327 107.613C104.305 107.041 110.138 79.3804 110.138 79.3804C113.622 81.0972 117.637 81.0972 121.122 79.4567Z" fill="url(#paint2_linear)"/>
<path d="M118.205 70.9488L118.054 68.6978C118.054 68.6978 115.099 68.0111 113.433 67.8585C112.296 67.7822 111.16 67.8966 110.1 68.2018L109.91 80.1816C109.91 80.1816 110.289 81.2498 111.88 81.555C113.471 81.8603 119.379 80.9828 119.379 80.9828L118.205 70.9488Z" fill="#3F3D56"/>
<path d="M118.205 70.9488L118.054 68.6978C118.054 68.6978 115.099 68.0111 113.433 67.8585C112.296 67.7822 111.16 67.8966 110.1 68.2018L109.91 80.1816C109.91 80.1816 110.289 81.2498 111.88 81.555C113.471 81.8603 119.379 80.9828 119.379 80.9828L118.205 70.9488Z" fill="url(#paint3_linear)"/>
<path d="M117.333 57.3285C117.333 57.3285 117.371 58.7783 117.333 59.8465C117.333 60.6477 117.03 62.1738 115.363 62.1738C113.697 62.1738 113.545 60.3807 113.583 59.9991C113.583 59.7321 114.037 58.969 114.151 58.0915C114.265 57.1759 117.257 56.7181 117.333 57.3285Z" fill="#F7AD7E"/>
<path d="M114.001 60.3807C114.304 60.7622 114.797 60.953 115.289 60.8004C115.744 60.6478 116.16 60.3426 116.388 59.9229C116.615 59.5032 116.804 59.0454 116.88 58.5494C116.994 58.0153 117.107 57.4812 117.145 56.947C117.145 56.9852 116.085 57.4049 115.971 57.4812C115.592 57.7101 115.213 57.939 114.835 58.2442C114.456 58.4731 114.153 58.8165 113.888 59.1598C113.736 59.5414 113.774 59.9992 114.001 60.3807Z" fill="url(#paint4_linear)"/>
<path d="M120.554 62.3264C120.781 62.0975 121.122 62.0593 121.387 62.2119C121.69 62.4027 121.955 62.6316 122.182 62.8605C122.864 64.1958 123.016 65.7219 123.167 67.2098L123.508 70.4528C123.66 71.7881 123.773 73.1615 123.47 74.4969C123.205 75.4507 122.826 76.3663 122.296 77.2057C121.387 78.8844 120.478 80.6012 119.455 82.2036C119.228 82.5851 118.963 82.9285 118.584 83.1574C117.94 83.5389 117.145 83.3481 116.425 83.1574C116.16 83.0811 115.857 82.9666 115.781 82.6996C115.781 82.5469 115.819 82.3562 115.895 82.2417L119.796 73.6194C119.91 73.3523 120.023 73.0852 120.061 72.8182C120.099 72.513 120.061 72.1696 120.023 71.8644C119.796 70.3383 119.645 68.8504 119.569 67.3243C119.455 66.4468 119.569 65.5312 119.834 64.6918C120.099 64.0814 120.099 62.7461 120.554 62.3264Z" fill="#F38500"/>
<path d="M120.554 62.3264C120.781 62.0975 121.122 62.0593 121.387 62.2119C121.69 62.4027 121.955 62.6316 122.182 62.8605C122.864 64.1958 123.016 65.7219 123.167 67.2098L123.508 70.4528C123.66 71.7881 123.773 73.1615 123.47 74.4969C123.205 75.4507 122.826 76.3663 122.296 77.2057C121.387 78.8844 120.478 80.6012 119.455 82.2036C119.228 82.5851 118.963 82.9285 118.584 83.1574C117.94 83.5389 117.145 83.3481 116.425 83.1574C116.16 83.0811 115.857 82.9666 115.781 82.6996C115.781 82.5469 115.819 82.3562 115.895 82.2417L119.796 73.6194C119.91 73.3523 120.023 73.0852 120.061 72.8182C120.099 72.513 120.061 72.1696 120.023 71.8644C119.796 70.3383 119.645 68.8504 119.569 67.3243C119.455 66.4468 119.569 65.5312 119.834 64.6918C120.099 64.0814 120.099 62.7461 120.554 62.3264Z" fill="url(#paint5_linear)"/>
<path d="M101.918 77.9306C101.236 78.2358 100.441 78.4266 99.9861 78.9988C99.7968 79.1896 99.7589 79.4567 99.8725 79.6856C99.9861 79.8 100.138 79.8763 100.327 79.8763C101.198 79.9908 102.031 80.1434 102.903 80.1815C103.281 80.2197 103.66 80.1815 104.039 80.0671C104.342 79.9145 104.607 79.7237 104.834 79.4948C105.137 79.2277 105.403 78.9607 105.592 78.6173C105.819 78.2739 105.857 77.8924 105.781 77.5109C105.592 76.8623 104.607 76.3282 103.963 76.5571C103.66 76.6716 103.471 76.9768 103.244 77.1675C102.827 77.5109 102.41 77.778 101.918 77.9306Z" fill="#F7AD7E"/>
<path d="M114.607 82.1654C114.304 82.3943 113.963 82.7377 114.077 83.1192C114.191 83.5007 114.645 83.577 115.024 83.6152C116.085 83.7296 117.221 83.8441 118.092 83.2336C118.206 83.1573 118.281 83.081 118.357 82.9666C118.509 82.6995 118.547 82.4324 118.509 82.1272C118.471 81.7839 118.357 81.4405 118.13 81.1734C117.297 80.1815 115.403 81.555 114.607 82.1654Z" fill="#F7AD7E"/>
<path d="M120.249 109.94C120.325 110.322 120.174 110.703 119.871 110.932C119.681 111.046 119.454 111.085 119.227 111.046L115.969 111.008C115.856 111.008 115.704 111.008 115.591 110.932C115.363 110.779 115.363 110.398 115.477 110.131C115.591 109.826 115.742 109.52 115.969 109.291C116.272 108.91 116.689 108.605 116.841 108.147C116.878 107.88 116.954 107.613 117.068 107.384C117.333 107.117 117.75 107.002 118.128 107.079C118.772 107.155 119.378 107.269 119.643 107.842C119.909 108.452 120.136 109.177 120.249 109.94Z" fill="#3F3D56"/>
<path d="M107.676 107.46C107.676 107.46 107.638 110.398 107.221 110.589C106.805 110.779 100.404 110.741 100.404 110.741C100.404 110.741 100.025 110.016 101.01 109.597C101.994 109.177 105.025 108.796 105.782 107.651C106.54 106.506 107.676 107.46 107.676 107.46Z" fill="#3F3D56"/>
<path d="M101.881 76.4807H91.8438V83.8059H101.881V76.4807Z" fill="#F38500"/>
<path d="M101.881 76.4807H91.8438V83.8059H101.881V76.4807Z" fill="url(#paint6_linear)"/>
<path d="M25.1823 79.4185C25.1823 79.4185 24.8793 81.8221 25.4474 91.6272C26.0156 100.745 26.1671 107.117 26.1671 107.117C26.1671 107.117 26.2428 107.88 27.7958 107.88C29.3487 107.88 29.7654 106.85 29.7654 106.85L31.2804 83.4626L37.6058 107.346C37.6058 107.346 39.4618 108.414 40.939 107.613C41.9617 107.041 36.1286 79.3804 36.1286 79.3804C32.6819 81.0209 28.6669 81.0209 25.1823 79.4185Z" fill="#3F3D56"/>
<path d="M36.9217 61.9067L37.0732 62.5172C37.5277 64.5392 38.4367 71.7881 39.3837 72.6656C40.3306 73.5431 42.2244 75.4507 42.9441 76.5953C43.1713 76.9768 41.8835 80.1434 40.0276 78.7699C38.967 78.0069 36.0505 74.764 35.8611 74.268C35.6339 73.5813 35.5581 72.8945 35.6339 72.1696L36.9217 61.9067Z" fill="#F38500"/>
<path d="M36.9217 61.9067L37.0732 62.5172C37.5277 64.5392 38.4367 71.7881 39.3837 72.6656C40.3306 73.5431 42.2244 75.4507 42.9441 76.5953C43.1713 76.9768 41.8835 80.1434 40.0276 78.7699C38.967 78.0069 36.0505 74.764 35.8611 74.268C35.6339 73.5813 35.5581 72.8945 35.6339 72.1696L36.9217 61.9067Z" fill="url(#paint7_linear)"/>
<path d="M28.9291 59.8083C28.9291 59.8083 24.8005 61.8303 24.6869 62.4789C24.5733 63.1275 25.1414 79.3803 25.1414 79.3803C25.1414 79.3803 26.505 81.1734 30.5957 81.1734C34.8379 81.1734 36.1635 79.9907 36.0878 79.3803C35.8605 77.3201 36.959 62.6315 36.8453 61.9067C36.7317 61.1818 32.944 59.7701 32.944 59.7701H28.9291V59.8083Z" fill="#F38500"/>
<path d="M28.9291 59.8083C28.9291 59.8083 24.8005 61.8303 24.6869 62.4789C24.5733 63.1275 25.1414 79.3803 25.1414 79.3803C25.1414 79.3803 26.505 81.1734 30.5957 81.1734C34.8379 81.1734 36.1635 79.9907 36.0878 79.3803C35.8605 77.3201 36.959 62.6315 36.8453 61.9067C36.7317 61.1818 32.944 59.7701 32.944 59.7701H28.9291V59.8083Z" fill="url(#paint8_linear)"/>
<path d="M26.2773 61.2963L28.3226 69.1175L29.7241 68.6596L27.6787 60.8385C27.603 60.5333 27.2621 60.3425 26.9591 60.4188C26.9212 60.4188 26.8454 60.457 26.8076 60.4951L26.5424 60.6477C26.3152 60.7622 26.2015 61.0292 26.2773 61.2963Z" fill="#3F3D56"/>
<path d="M33.6283 60.3806L34.8024 68.1636L36.2039 68.0873L34.9918 60.3043C34.9161 59.9609 34.5752 59.6939 34.2343 59.7702H34.1964L33.9313 59.8465C33.704 59.9228 33.5904 60.1517 33.6283 60.3806Z" fill="#3F3D56"/>
<path d="M28.0972 70.8724L28.2487 68.5833C28.2487 68.5833 31.1652 67.8966 32.8697 67.744C34.006 67.6677 35.1423 67.7821 36.2028 68.0873L36.3922 80.0671C36.3922 80.0671 36.0135 81.1353 34.4226 81.4405C32.8318 81.7457 26.9609 80.8301 26.9609 80.8301L28.0972 70.8724Z" fill="#3F3D56"/>
<path d="M25.1823 79.4185C25.1823 79.4185 24.8793 81.8221 25.4474 91.6272C26.0156 100.745 26.1671 107.117 26.1671 107.117C26.1671 107.117 26.2428 107.88 27.7958 107.88C29.3487 107.88 29.7654 106.85 29.7654 106.85L31.2804 83.4626L37.6058 107.346C37.6058 107.346 39.4618 108.414 40.939 107.613C41.9617 107.041 36.1286 79.3804 36.1286 79.3804C32.6819 81.0209 28.6669 81.0209 25.1823 79.4185Z" fill="#3F3D56"/>
<path d="M25.1823 79.4185C25.1823 79.4185 24.8793 81.8221 25.4474 91.6272C26.0156 100.745 26.1671 107.117 26.1671 107.117C26.1671 107.117 26.2428 107.88 27.7958 107.88C29.3487 107.88 29.7654 106.85 29.7654 106.85L31.2804 83.4626L37.6058 107.346C37.6058 107.346 39.4618 108.414 40.939 107.613C41.9617 107.041 36.1286 79.3804 36.1286 79.3804C32.6819 81.0209 28.6669 81.0209 25.1823 79.4185Z" fill="url(#paint9_linear)"/>
<path d="M28.0972 70.8724L28.2487 68.5833C28.2487 68.5833 31.1652 67.8966 32.8697 67.744C34.006 67.6677 35.1423 67.7821 36.2028 68.0873L36.3922 80.0671C36.3922 80.0671 36.0135 81.1353 34.4226 81.4405C32.8318 81.7457 26.9609 80.8301 26.9609 80.8301L28.0972 70.8724Z" fill="#3F3D56"/>
<path d="M28.0972 70.8724L28.2487 68.5833C28.2487 68.5833 31.1652 67.8966 32.8697 67.744C34.006 67.6677 35.1423 67.7821 36.2028 68.0873L36.3922 80.0671C36.3922 80.0671 36.0135 81.1353 34.4226 81.4405C32.8318 81.7457 26.9609 80.8301 26.9609 80.8301L28.0972 70.8724Z" fill="url(#paint10_linear)"/>
<path d="M28.9661 57.2903C28.9661 57.2903 28.9282 58.7401 28.9661 59.8083C28.9661 60.6095 29.2691 62.1356 30.9356 62.1356C32.6022 62.1356 32.8295 60.1898 32.7916 59.8083C32.8295 59.236 32.8295 58.6638 32.7916 58.1296C32.6401 57.1758 29.0418 56.6417 28.9661 57.2903Z" fill="#BB826C"/>
<path d="M34.0445 52.1397C34.0445 52.1397 33.6278 53.4369 34.0066 54.0473C35.4459 56.3364 34.6126 56.1075 34.0824 56.1457C34.0066 56.1457 34.1202 56.5653 33.9309 57.4428C33.7794 58.0914 34.2339 59.6175 32.2264 58.9689C31.6583 58.7781 28.8554 57.977 28.6281 56.2601C28.363 54.0855 27.0373 51.3004 29.6887 50.3847C32.8324 49.2402 33.8551 50.1177 34.0445 52.1397Z" fill="#BB826C"/>
<path d="M32.6029 49.0876C32.6029 49.0876 34.0422 49.2021 34.5346 49.7362C35.1407 50.4229 35.2543 51.186 34.6104 51.7964C33.9665 52.4068 32.2999 51.8345 31.1257 52.5594C29.9516 53.2843 31.2015 55.1538 30.6333 55.5734C30.0652 55.9931 30.4061 54.7722 29.6107 54.467C28.8153 54.1618 28.5122 55.459 29.3455 56.4128C30.1788 57.3666 29.3834 57.977 28.891 58.1678C28.3986 58.3585 27.0729 54.0092 27.1866 52.4068C27.3002 50.8044 28.0577 50.8426 28.0577 50.8426C28.0577 50.8426 28.0956 48.3246 32.6029 49.0876Z" fill="#3F3D56"/>
<path d="M32.7942 59.1216C32.7942 59.1216 30.7489 58.3585 29.8398 57.9388C29.8398 57.9388 31.7716 59.7701 32.7563 59.7701L32.7942 59.1216Z" fill="#AD7862"/>
<path d="M25.7504 62.2501C25.5231 62.0212 25.1822 61.983 24.9171 62.1356C24.6141 62.3264 24.349 62.5553 24.1217 62.7842C23.4399 64.1195 23.2884 65.6456 23.099 67.1335L22.7581 70.3765C22.6066 71.7118 22.493 73.0853 22.796 74.4206C23.0611 75.3744 23.4399 76.29 23.9702 77.1294C24.8792 78.8081 25.7883 80.5249 26.8109 82.1273C27.0382 82.5088 27.3033 82.8522 27.6821 83.0811C28.326 83.4626 29.1214 83.2718 29.8411 83.0811C30.1062 83.0048 30.4471 82.8903 30.485 82.6233C30.485 82.4706 30.4471 82.2799 30.3713 82.1654L26.47 73.5431C26.167 73.0089 26.0913 72.3604 26.2428 71.7881C26.47 70.262 26.6216 68.7741 26.6973 67.248C26.8109 66.3705 26.6973 65.4549 26.4322 64.6155C26.2049 64.0432 26.2049 62.7079 25.7504 62.2501Z" fill="#F38500"/>
<path d="M25.7504 62.2501C25.5231 62.0212 25.1822 61.983 24.9171 62.1356C24.6141 62.3264 24.349 62.5553 24.1217 62.7842C23.4399 64.1195 23.2884 65.6456 23.099 67.1335L22.7581 70.3765C22.6066 71.7118 22.493 73.0853 22.796 74.4206C23.0611 75.3744 23.4399 76.29 23.9702 77.1294C24.8792 78.8081 25.7883 80.5249 26.8109 82.1273C27.0382 82.5088 27.3033 82.8522 27.6821 83.0811C28.326 83.4626 29.1214 83.2718 29.8411 83.0811C30.1062 83.0048 30.4471 82.8903 30.485 82.6233C30.485 82.4706 30.4471 82.2799 30.3713 82.1654L26.47 73.5431C26.167 73.0089 26.0913 72.3604 26.2428 71.7881C26.47 70.262 26.6216 68.7741 26.6973 67.248C26.8109 66.3705 26.6973 65.4549 26.4322 64.6155C26.2049 64.0432 26.2049 62.7079 25.7504 62.2501Z" fill="url(#paint11_linear)"/>
<path d="M44.3833 77.8924C45.065 78.1976 45.8605 78.3884 46.315 78.9606C46.4665 79.1514 46.5801 79.4566 46.4286 79.6474C46.315 79.7618 46.1635 79.8381 45.9741 79.8381C45.1029 79.9526 44.2696 80.1052 43.3985 80.1434C43.0197 80.1815 42.6409 80.1434 42.2622 80.0289C41.9591 79.8763 41.694 79.6855 41.4667 79.4566C41.1637 79.1895 40.8986 78.9225 40.7092 78.5791C40.482 78.2358 40.4441 77.8542 40.5198 77.4727C40.7092 76.8241 41.694 76.29 42.3379 76.5189C42.6409 76.6334 42.8303 76.9386 43.0576 77.1293C43.4742 77.4346 43.8909 77.7016 44.3833 77.8924Z" fill="#BB826C"/>
<path d="M31.6962 82.0891C31.9992 82.318 32.3401 82.6614 32.2265 83.0429C32.1129 83.4244 31.6583 83.5007 31.2796 83.5389C30.219 83.6533 29.0827 83.7678 28.2116 83.1574C28.0979 83.0811 28.0222 83.0047 27.9464 82.8903C27.7949 82.6232 27.757 82.3562 27.7949 82.051C27.8328 81.7076 27.9464 81.3642 28.1737 81.0972C29.007 80.1052 30.9008 81.5168 31.6962 82.0891Z" fill="#BB826C"/>
<path d="M19.5382 83.577H124.078C126.502 83.577 128.472 85.5609 128.472 88.0027C128.472 90.4444 126.502 92.4283 124.078 92.4283H19.5382C17.1141 92.4283 15.1445 90.4444 15.1445 88.0027C15.1445 85.5609 17.1141 83.577 19.5382 83.577Z" fill="#F38500"/>
<path d="M19.4228 85.1412H123.773C125.326 85.1412 126.614 86.4003 126.614 88.0026C126.614 89.5669 125.364 90.864 123.773 90.864H19.4228C17.8698 90.864 16.582 89.605 16.582 88.0026C16.582 86.4003 17.8698 85.1412 19.4228 85.1412Z" fill="url(#paint12_linear)"/>
<path d="M86.7309 51.0715H56.0508V110.055H86.7309V51.0715Z" fill="#F38500"/>
<path d="M86.7309 51.0715H56.0508V110.055H86.7309V51.0715Z" fill="url(#paint13_linear)"/>
<path d="M26.0506 109.864C25.9748 110.245 26.1263 110.627 26.4293 110.856C26.6187 110.97 26.8838 111.008 27.1111 110.97L30.3685 110.932C30.4821 110.932 30.6336 110.932 30.7473 110.856C31.0124 110.703 30.9745 110.322 30.8609 110.055C30.7473 109.749 30.5958 109.444 30.3685 109.215C30.0655 108.834 29.6488 108.529 29.4973 108.071C29.4595 107.804 29.3837 107.537 29.2701 107.308C29.0049 107.041 28.5883 106.926 28.2095 107.002C27.5656 107.079 26.9596 107.193 26.6945 107.765C26.3914 108.414 26.1642 109.139 26.0506 109.864Z" fill="#3F3D56"/>
<path d="M38.6289 107.422C38.6289 107.422 38.7047 110.36 39.0834 110.551C39.4622 110.741 45.9012 110.703 45.9012 110.703C45.9012 110.703 46.28 109.978 45.2952 109.559C44.3104 109.139 41.2803 108.757 40.5227 107.613C39.7652 106.468 38.6289 107.422 38.6289 107.422Z" fill="#3F3D56"/>
<path d="M56.0508 51.0716L62.3762 44.7002H79.7995L86.7309 51.0716H56.0508Z" fill="#F38500"/>
<path d="M56.0508 51.0716L62.3762 44.7002H79.7995L86.7309 51.0716H56.0508Z" fill="url(#paint14_linear)"/>
<path d="M79.7995 26.845H62.4141V44.7001H79.7995V26.845Z" fill="#F38500"/>
<path d="M79.7995 26.845H62.4141V44.7001H79.7995V26.845Z" fill="url(#paint15_linear)"/>
<path d="M79.7995 9.14246H62.4141V26.9976H79.7995V9.14246Z" fill="#F38500"/>
<path d="M79.7995 9.14246H62.4141V26.9976H79.7995V9.14246Z" fill="url(#paint16_linear)"/>
<path d="M79.7995 3.15261V9.29508H62.4141V3.11446C64.9518 3 67.5274 3 70.0652 3C73.2847 3 76.5799 3 79.7995 3.15261Z" fill="#F38500"/>
<path d="M79.7995 3.15261V9.29508H62.4141V3.11446C64.9518 3 67.5274 3 70.0652 3C73.2847 3 76.5799 3 79.7995 3.15261Z" fill="url(#paint17_linear)"/>
<path d="M54.4201 76.4426H44.3828V83.7678H54.4201V76.4426Z" fill="#F38500"/>
<path d="M54.4201 76.4426H44.3828V83.7678H54.4201V76.4426Z" fill="url(#paint18_linear)"/>
<path d="M101.919 76.4426H91.8438V83.7678H101.919V76.4426Z" fill="#F38500"/>
<path d="M101.919 76.4426H91.8438V83.7678H101.919V76.4426Z" fill="url(#paint19_linear)"/>
<path d="M84.533 54.8104H58.5117V75.0691H84.533V54.8104Z" fill="url(#paint20_linear)"/>
<path d="M84.533 77.6252H58.5117V97.884H84.533V77.6252Z" fill="url(#paint21_linear)"/>
<path d="M84.533 100.44H58.5117V110.016H84.533V100.44Z" fill="url(#paint22_linear)"/>
<path d="M112.943 57.9389C113.208 58.5875 113.7 59.2742 114.382 59.3887C114.95 59.4268 115.518 59.236 115.935 58.8545C116.655 58.3585 117.185 57.6337 117.488 56.7943C117.601 56.3365 117.677 55.8787 117.677 55.4208C117.753 54.696 117.677 54.0092 117.488 53.2843C117.298 52.5976 116.806 52.0253 116.162 51.7201C115.897 51.6438 115.594 51.5675 115.291 51.5675C114.836 51.5293 114.382 51.5293 113.965 51.6438C113.435 51.7583 112.943 52.0635 112.564 52.4831C112.109 52.9791 112.147 53.2843 112.185 53.9329C112.223 55.3445 112.488 56.6799 112.943 57.9389Z" fill="#F7AD7E"/>
<path d="M118.507 54.5815C118.431 54.8868 118.355 55.192 118.28 55.5353C118.242 55.7642 118.204 55.9932 118.166 56.2602C118.128 56.7181 118.128 57.1377 118.204 57.5956C118.015 57.4811 117.863 57.2903 117.749 57.1377C117.636 57.3285 117.522 57.5192 117.409 57.71C117.371 57.1759 117.295 56.6417 117.257 56.1458C117.257 56.1076 117.257 56.0695 117.257 56.0695C117.257 56.0313 117.295 55.9932 117.333 55.955C117.333 55.955 117.333 55.955 117.371 55.9169C117.636 55.6498 117.712 55.2301 117.522 54.8868C117.409 54.8868 117.295 54.9631 117.219 55.0394C117.106 55.192 117.03 55.3827 116.992 55.5735C116.992 55.6498 116.954 55.6879 116.954 55.7643C116.916 55.8024 116.84 55.8024 116.765 55.7643C116.765 55.7261 116.727 55.6879 116.727 55.6879C116.765 55.1538 116.651 54.6197 116.424 54.1619C115.287 54.3526 114.075 54.2763 112.977 53.933C112.712 53.8566 111.992 53.7803 111.803 53.6277C111.121 52.9791 111.613 52.445 111.803 51.7201L111.841 51.6438C112.144 50.8808 113.431 50.1177 114.189 49.9651C114.909 49.8507 115.628 49.9651 116.234 50.3848L116.272 50.0414C116.689 50.1941 116.992 50.5374 117.106 50.9571C117.106 50.9952 117.143 51.0334 117.181 51.0715C117.219 51.0715 117.257 51.1097 117.257 51.1097C117.56 51.1479 117.863 51.3005 118.015 51.5675C118.204 51.8346 118.318 52.1017 118.393 52.4069C118.621 53.0555 118.658 53.8185 118.507 54.5815Z" fill="#FECE00"/>
<path d="M118.508 54.5816C118.432 54.8868 118.356 55.192 118.28 55.5354C118.242 55.7643 118.205 55.9932 118.167 56.2603L118.091 56.1458C117.939 56.5655 117.788 56.9852 117.561 57.3667C117.561 57.1759 117.447 56.5655 117.371 55.8788C117.636 55.6117 117.712 55.192 117.523 54.8487C117.409 54.8487 117.296 54.925 117.22 55.0013C117.22 54.9631 117.22 54.9631 117.22 54.925C117.03 53.9712 117.788 53.0937 115.25 53.2463C114.606 53.2463 113.962 53.1318 113.356 52.9029C113.129 52.8266 112.372 52.7885 112.182 52.5977C111.879 52.3688 111.766 51.9491 111.879 51.6057C112.182 50.8427 113.47 50.0797 114.228 49.9271C114.947 49.8126 115.667 49.9271 116.273 50.3467L116.311 50.0034C116.727 50.156 117.03 50.4993 117.144 50.919C117.144 50.9572 117.182 50.9953 117.22 51.0335C117.258 51.0335 117.296 51.0716 117.296 51.0716C117.599 51.1098 117.902 51.2624 118.053 51.5294C118.242 51.7965 118.356 52.0636 118.432 52.3688C118.621 53.0555 118.659 53.8567 118.508 54.5816Z" fill="url(#paint23_linear)"/>
<defs>
<linearGradient id="paint0_linear" x1="112.082" y1="73.6929" x2="106.989" y2="70.4948" gradientUnits="userSpaceOnUse">
<stop offset="0.01"/>
<stop offset="0.83" stop-opacity="0.07"/>
<stop offset="1" stop-opacity="0"/>
</linearGradient>
<linearGradient id="paint1_linear" x1="112.279" y1="81.2679" x2="118.359" y2="60.1817" gradientUnits="userSpaceOnUse">
<stop offset="0.01"/>
<stop offset="0.83" stop-opacity="0.07"/>
<stop offset="1" stop-opacity="0"/>
</linearGradient>
<linearGradient id="paint2_linear" x1="113.203" y1="108.153" x2="113.203" y2="89.6573" gradientUnits="userSpaceOnUse">
<stop offset="0.01"/>
<stop offset="0.83" stop-opacity="0.07"/>
<stop offset="1" stop-opacity="0"/>
</linearGradient>
<linearGradient id="paint3_linear" x1="119.338" y1="74.6783" x2="109.872" y2="74.6783" gradientUnits="userSpaceOnUse">
<stop offset="0.01"/>
<stop offset="0.83" stop-opacity="0.07"/>
<stop offset="1" stop-opacity="0"/>
</linearGradient>
<linearGradient id="paint4_linear" x1="115.593" y1="53.4664" x2="115.424" y2="61.4668" gradientUnits="userSpaceOnUse">
<stop offset="0.01"/>
<stop offset="0.83" stop-opacity="0.07"/>
<stop offset="1" stop-opacity="0"/>
</linearGradient>
<linearGradient id="paint5_linear" x1="126.413" y1="77.9853" x2="118.943" y2="72.8434" gradientUnits="userSpaceOnUse">
<stop offset="0.01"/>
<stop offset="0.83" stop-opacity="0.07"/>
<stop offset="1" stop-opacity="0"/>
</linearGradient>
<linearGradient id="paint6_linear" x1="96.9335" y1="86.8072" x2="96.8183" y2="74.5528" gradientUnits="userSpaceOnUse">
<stop offset="0.01"/>
<stop offset="0.83" stop-opacity="0.07"/>
<stop offset="1" stop-opacity="0"/>
</linearGradient>
<linearGradient id="paint7_linear" x1="34.2206" y1="73.6365" x2="39.3095" y2="70.4383" gradientUnits="userSpaceOnUse">
<stop offset="0.01"/>
<stop offset="0.83" stop-opacity="0.07"/>
<stop offset="1" stop-opacity="0"/>
</linearGradient>
<linearGradient id="paint8_linear" x1="34.0257" y1="81.2102" x2="27.9453" y2="60.124" gradientUnits="userSpaceOnUse">
<stop offset="0.01"/>
<stop offset="0.83" stop-opacity="0.07"/>
<stop offset="1" stop-opacity="0"/>
</linearGradient>
<linearGradient id="paint9_linear" x1="33.0875" y1="108.096" x2="33.0875" y2="89.6" gradientUnits="userSpaceOnUse">
<stop offset="0.01"/>
<stop offset="0.83" stop-opacity="0.07"/>
<stop offset="1" stop-opacity="0"/>
</linearGradient>
<linearGradient id="paint10_linear" x1="26.9647" y1="74.5904" x2="36.4263" y2="74.5904" gradientUnits="userSpaceOnUse">
<stop offset="0.01"/>
<stop offset="0.83" stop-opacity="0.07"/>
<stop offset="1" stop-opacity="0"/>
</linearGradient>
<linearGradient id="paint11_linear" x1="19.8871" y1="77.9272" x2="27.361" y2="72.7854" gradientUnits="userSpaceOnUse">
<stop offset="0.01"/>
<stop offset="0.83" stop-opacity="0.07"/>
<stop offset="1" stop-opacity="0"/>
</linearGradient>
<linearGradient id="paint12_linear" x1="70.1989" y1="67.4986" x2="72.9579" y2="107.12" gradientUnits="userSpaceOnUse">
<stop offset="0.01"/>
<stop offset="0.83" stop-opacity="0.07"/>
<stop offset="1" stop-opacity="0"/>
</linearGradient>
<linearGradient id="paint13_linear" x1="64.8289" y1="33.2039" x2="77.6837" y2="124.591" gradientUnits="userSpaceOnUse">
<stop offset="0.01"/>
<stop offset="0.83" stop-opacity="0.07"/>
<stop offset="1" stop-opacity="0"/>
</linearGradient>
<linearGradient id="paint14_linear" x1="73.8805" y1="30.5676" x2="68.5669" y2="73.7959" gradientUnits="userSpaceOnUse">
<stop offset="0.01"/>
<stop offset="0.83" stop-opacity="0.07"/>
<stop offset="1" stop-opacity="0"/>
</linearGradient>
<linearGradient id="paint15_linear" x1="46.8509" y1="28.7692" x2="107.08" y2="45.9011" gradientUnits="userSpaceOnUse">
<stop offset="0.01"/>
<stop offset="0.83" stop-opacity="0.07"/>
<stop offset="1" stop-opacity="0"/>
</linearGradient>
<linearGradient id="paint16_linear" x1="46.8048" y1="11.0534" x2="107.034" y2="28.1854" gradientUnits="userSpaceOnUse">
<stop offset="0.01"/>
<stop offset="0.83" stop-opacity="0.07"/>
<stop offset="1" stop-opacity="0"/>
</linearGradient>
<linearGradient id="paint17_linear" x1="45.2519" y1="-1.23907" x2="105.481" y2="15.8929" gradientUnits="userSpaceOnUse">
<stop offset="0.01"/>
<stop offset="0.83" stop-opacity="0.07"/>
<stop offset="1" stop-opacity="0"/>
</linearGradient>
<linearGradient id="paint18_linear" x1="49.3644" y1="86.75" x2="49.4797" y2="74.4918" gradientUnits="userSpaceOnUse">
<stop offset="0.01"/>
<stop offset="0.83" stop-opacity="0.07"/>
<stop offset="1" stop-opacity="0"/>
</linearGradient>
<linearGradient id="paint19_linear" x1="96.6383" y1="87.6466" x2="96.9803" y2="76.7505" gradientUnits="userSpaceOnUse">
<stop offset="0.01"/>
<stop offset="0.83" stop-opacity="0.07"/>
<stop offset="1" stop-opacity="0"/>
</linearGradient>
<linearGradient id="paint20_linear" x1="72.0742" y1="30.8306" x2="71.0482" y2="93.1326" gradientUnits="userSpaceOnUse">
<stop offset="0.01"/>
<stop offset="0.83" stop-opacity="0.07"/>
<stop offset="1" stop-opacity="0"/>
</linearGradient>
<linearGradient id="paint21_linear" x1="72.0741" y1="53.6416" x2="71.0481" y2="115.944" gradientUnits="userSpaceOnUse">
<stop offset="0.01"/>
<stop offset="0.83" stop-opacity="0.07"/>
<stop offset="1" stop-opacity="0"/>
</linearGradient>
<linearGradient id="paint22_linear" x1="71.7901" y1="88.7072" x2="71.2905" y2="118.881" gradientUnits="userSpaceOnUse">
<stop offset="0.01"/>
<stop offset="0.83" stop-opacity="0.07"/>
<stop offset="1" stop-opacity="0"/>
</linearGradient>
<linearGradient id="paint23_linear" x1="115.865" y1="44.5712" x2="115.035" y2="54.8369" gradientUnits="userSpaceOnUse">
<stop offset="0.01"/>
<stop offset="0.83" stop-opacity="0.07"/>
<stop offset="1" stop-opacity="0"/>
</linearGradient>
</defs>
</svg>
