<svg width="140" height="134" viewBox="0 0 140 134" fill="none" xmlns="http://www.w3.org/2000/svg">
<g clip-path="url(#clip0)">
<path d="M80.1173 29.3209C80.1173 26.4709 81.0202 23.6208 80.4867 20.8127C79.9532 17.795 77.8192 14.945 78.4758 11.9273C78.8862 10.0413 80.2815 8.57435 81.6357 7.23316L84.2211 4.6346C84.5084 4.2993 84.8367 4.04783 85.2061 3.83827C85.6164 3.71253 86.0268 3.6287 86.4782 3.6287C89.1867 3.58679 91.8542 3.58679 94.5627 3.71253C96.7788 3.79635 99.3231 4.08974 100.677 5.89197C101.909 7.52654 101.785 9.83172 101.334 11.8435C100.883 13.8553 100.226 15.909 100.636 17.9208C101.129 20.4774 103.304 22.8664 102.565 25.3812C102.237 26.4709 101.375 27.351 100.965 28.3988C100.636 29.279 100.595 30.3268 99.9387 30.9974C99.4463 31.3746 98.9128 31.668 98.2972 31.7518C93.9882 32.9254 89.6792 34.3923 85.3702 35.4401C81.8409 36.3622 80.1173 32.5901 80.1173 29.3209Z" fill="url(#paint0_linear)"/>
<path d="M65.9988 131C82.5667 131 95.9976 128.504 95.9976 125.426C95.9976 122.347 82.5667 119.851 65.9988 119.851C49.4309 119.851 36 122.347 36 125.426C36 128.504 49.4309 131 65.9988 131Z" fill="url(#paint1_linear)"/>
<path d="M62.2254 118.72C62.2254 118.72 62.882 123.079 62.5127 123.54C62.1433 124.043 60.1325 123.875 58.8603 123.582C57.5881 123.288 57.3008 121.654 57.3008 121.654L57.2188 120.27L62.2254 118.72Z" fill="#F7AF81"/>
<path d="M79.2133 117.211C79.2133 117.211 80.034 122.534 79.7468 122.995C79.4595 123.456 77.5307 123.372 76.4227 123.246C75.3147 123.121 75.1505 120.229 75.1505 120.229L74.9453 119.055L79.2133 117.211Z" fill="#F7AF81"/>
<path d="M62.6317 14.8613C62.7138 15.0708 62.8369 15.2804 62.96 15.49C63.4114 16.2444 63.1652 17.3341 63.6987 18.0466C63.8218 17.4598 64.9299 13.4782 64.3964 13.2267C64.2732 13.1429 63.6166 13.7296 63.4935 13.7715C63.0421 13.9392 62.3855 14.1068 62.6317 14.8613Z" fill="#7D3B3D"/>
<path d="M76.4648 65.4074L77.5318 87.6628L79.5837 118.468C79.5837 118.468 78.3936 119.893 75.0285 119.935L68.9138 88.5849L66.0412 72.6582L63.5789 88.2077L62.5529 120.606C62.5529 120.606 60.1727 120.648 57.0538 120.941L55.043 89.004L57.0538 64.2758L76.4648 65.4074Z" fill="#F38500"/>
<path d="M76.4648 65.4074L77.5318 87.6628L79.5837 118.468C79.5837 118.468 78.3936 119.893 75.0285 119.935L68.9138 88.5849L66.0412 72.6582L63.5789 88.2077L62.5529 120.606C62.5529 120.606 60.1727 120.648 57.0538 120.941L55.043 89.004L57.0538 64.2758L76.4648 65.4074Z" fill="url(#paint2_linear)"/>
<path d="M59.0629 29.4047L57.1752 39.9247C57.011 40.0504 51.6761 43.7387 51.0194 44.6189C50.3628 45.499 47.6543 46.6307 46.7515 46.7983C45.8487 46.966 43.7968 45.1637 44.1251 42.3975C44.4534 39.6313 55.2053 30.5364 56.3134 29.9077C57.4624 29.2371 59.0629 29.4047 59.0629 29.4047Z" fill="white"/>
<path d="M57.8722 34.8533L57.2156 39.9666C57.0514 40.0923 51.7165 43.7806 51.0599 44.6607C50.4033 45.5409 47.6948 46.6725 46.7919 46.8402C45.8891 47.0078 43.7961 45.1637 44.1245 42.3975L49.8698 41.5592L57.8722 34.8533Z" fill="url(#paint3_linear)"/>
<path d="M80.0336 77.6876C80.0336 77.8553 79.8695 78.0229 79.6233 78.1487C77.8586 79.0288 70.9232 78.8612 66.6142 78.4001C66.2038 78.3582 66.0807 72.3229 66.0807 72.3229C66.0807 72.3229 64.5623 78.1487 64.234 78.0648C60.4995 77.3523 54.1797 76.5979 54.1797 76.5979C55.6981 70.3949 56.642 64.0242 56.9292 57.6117C57.4627 44.7865 56.1906 29.9915 56.6009 29.6562C57.3396 29.0694 64.4392 26.8062 64.4392 26.8062L71.826 27.4767L72.7289 27.8959C74.2883 28.6084 77.3662 29.9915 77.8176 30.4106C77.8586 30.4106 77.8586 30.4944 77.8586 30.6202C77.8997 30.9974 77.9407 31.8356 77.9407 33.0511C77.9817 35.9011 77.9407 40.7629 77.9817 46.2953C77.9817 46.8821 77.9817 47.4689 77.9817 48.0976C78.0228 52.0792 78.1049 56.3543 78.228 60.4617C78.5563 68.0478 80.0747 77.1008 80.0336 77.6876Z" fill="white"/>
<path d="M80.0326 77.6876C80.0326 77.8552 79.8685 78.0229 79.6223 78.1486C77.7755 78.4001 75.8878 78.5258 74.0411 78.5677L74.985 73.0772L73.918 44.5769L76.6675 40.6791L77.9397 46.3791C77.9397 50.8638 78.0218 55.8094 78.227 60.5036C78.5553 68.0478 80.0737 77.1008 80.0326 77.6876Z" fill="url(#paint4_linear)"/>
<path d="M83.9734 50.6961C83.2758 51.7439 81.7984 52.0373 80.6493 51.5344C79.5003 50.9895 78.6795 49.9836 78.2691 48.7682C78.187 48.5167 78.0639 48.3071 77.9408 48.0556C77.3663 47.0498 76.4635 46.0019 76.4224 44.9961C76.2993 42.5651 75.4375 40.1761 75.4375 37.7452C75.4375 35.9011 76.6686 33.8893 77.3252 31.9613C77.4894 31.5003 77.6125 31.0393 77.6946 30.5782C77.7356 30.5782 77.7767 30.5782 77.8587 30.5782C78.7616 30.704 79.8696 32.7577 80.1979 33.4702C80.7724 34.6856 81.1828 35.9849 81.429 37.3261C81.9625 40.0085 82.455 41.2659 83.4809 43.7806C83.8503 44.6608 83.9734 47.0078 84.2196 47.9299C84.5479 48.852 84.4659 49.8579 83.9734 50.6961Z" fill="white"/>
<path d="M83.5219 43.7807L81.5521 46.2955C81.5521 46.2955 80.2799 42.6072 79.9516 40.8888C79.6233 39.338 78.5974 34.9373 77.9408 33.0512C77.8587 32.8416 77.7766 32.6321 77.6945 32.4644C77.6125 32.2968 77.4893 32.1291 77.3252 32.0034C75.9709 30.6203 71.9492 28.5247 71.9492 28.5247L72.6879 27.896C74.2473 28.6085 77.3252 29.9916 77.7766 30.4107C77.8177 30.4107 77.8177 30.4946 77.8177 30.6203C78.7205 30.746 79.8285 32.7997 80.1568 33.5122C80.7314 34.7277 81.1417 36.027 81.388 37.3682C81.9625 39.9667 82.455 41.266 83.5219 43.7807Z" fill="url(#paint5_linear)"/>
<path d="M72.0329 21.9444C72.0329 21.9444 71.5814 25.465 71.9508 26.7643C72.3201 28.0636 70.5965 31.9614 68.0111 32.2129C65.4257 32.4644 65.0154 27.9379 64.9743 27.4349C64.9333 26.932 65.672 26.5548 65.3026 25.2555C64.9333 23.9562 71.6225 20.3517 72.0329 21.9444Z" fill="#F7AF81"/>
<path d="M65.2598 25.2135C65.465 26.2613 65.424 27.3929 65.1367 28.4407C65.8344 28.9856 66.4499 29.8657 67.1886 29.8238C68.7481 29.6981 70.9641 26.1355 71.7849 23.6627C71.7849 23.6208 71.8259 23.5789 71.8259 23.537C71.908 22.6568 71.9901 21.9443 71.9901 21.9443C71.6207 20.3516 64.8905 23.9142 65.2598 25.2135Z" fill="#F69771"/>
<path d="M63.5784 14.2324C63.5784 14.2324 63.0039 21.1479 63.4963 22.9921C63.9888 24.8362 65.5482 26.4708 67.1077 26.4708C68.6671 26.4708 71.0063 25.1715 72.0733 22.7825C73.1403 20.3935 73.7148 14.5677 73.4686 13.7714C73.2223 12.975 71.6629 10.4603 67.518 10.7956C64.6454 11.0471 63.5784 13.1427 63.5784 14.2324Z" fill="#F7AF81"/>
<path d="M72.4844 18.1722C72.4844 18.1722 72.6075 16.5795 73.6745 16.9986C74.7415 17.4177 73.7155 20.4773 73.2231 20.7707C73.0179 20.9384 72.7306 21.0222 72.4844 21.0641" fill="#F7AF81"/>
<path d="M48.517 45.1637C48.517 45.1637 50.9383 44.4931 50.0765 40.7629C49.2147 37.0327 46.1779 26.0936 46.1779 26.0936L43.4283 28.3569C43.4283 28.3569 42.4845 43.4034 44.4953 44.7027C45.6854 45.499 47.1628 45.6666 48.517 45.1637Z" fill="#F7AF81"/>
<path d="M46.1788 26.0937C46.1788 26.0937 46.5891 24.1657 46.3839 23.6208C46.1788 23.076 44.2089 19.3877 43.3882 19.9326C42.5674 20.4774 41.4594 24.0819 41.3773 24.2914C41.2952 24.501 43.4292 28.315 43.4292 28.315L46.1788 26.0937Z" fill="#F7AF81"/>
<path d="M84.5876 50.3189L91.441 40.8048L91.2358 35.0629L79.8683 47.0079C78.8013 48.1814 78.8423 50.0675 79.9914 51.1572C80.1966 51.3248 80.4018 51.4925 80.648 51.6182L81.5098 51.702C82.6999 51.8697 83.89 51.3248 84.5876 50.3189Z" fill="#F7AF81"/>
<path d="M90.4975 41.182C91.1541 41.0563 91.7697 40.8467 92.3853 40.5953C92.8777 40.3019 94.4782 34.518 94.0268 34.1408C93.5754 33.7636 91.6876 32.6738 91.1952 33.0091C90.7027 33.3444 87.8711 36.1106 87.8711 36.1106C87.8711 36.1106 88.6508 41.7688 90.4975 41.182Z" fill="#F7AF81"/>
<path d="M64.4378 26.806L65.1354 26.3031C65.1354 26.3031 65.9562 30.5362 67.4335 30.9973C67.4335 30.9973 69.8137 31.9613 71.8246 26.3869L72.6043 27.9796C72.6043 27.9796 71.168 31.4583 70.3883 31.8355C69.6085 32.2127 67.3515 34.4341 65.3406 31.4583C64.3967 29.9914 64.4378 26.806 64.4378 26.806Z" fill="#F38500"/>
<path d="M64.4378 26.806L65.1354 26.3031C65.1354 26.3031 65.9562 30.5362 67.4335 30.9973C67.4335 30.9973 69.8137 31.9613 71.8246 26.3869L72.6043 27.9796C72.6043 27.9796 71.168 31.4583 70.3883 31.8355C69.6085 32.2127 67.3515 34.4341 65.3406 31.4583C64.3967 29.9914 64.4378 26.806 64.4378 26.806Z" fill="url(#paint6_linear)"/>
<path d="M47.4484 21.7348C47.8178 21.3995 48.1461 20.9804 48.4334 20.5194C48.4744 20.4355 48.4744 20.3517 48.4744 20.2679C48.4334 20.226 48.3923 20.1841 48.3513 20.1422C47.9819 19.9326 47.5716 19.9326 47.2022 20.1422C46.8329 20.3517 46.5866 20.687 46.4225 21.0642C46.3815 21.2319 46.2994 21.3995 46.1763 21.5253C45.889 21.7348 45.5607 21.7767 45.2324 21.6929C45.1503 21.651 45.0682 21.651 44.9862 21.6929C44.863 21.7767 44.822 21.9444 44.863 22.0701C44.9041 22.5312 45.4786 24.0819 46.1352 23.9562C46.4225 23.9143 46.5456 23.1179 46.6687 22.9084C46.8739 22.4892 47.1201 22.112 47.4484 21.7348Z" fill="#F7AF81"/>
<path d="M63.4972 13.6876C63.4972 13.6876 69.2425 11.6758 73.6336 16.4538L74.085 10.1251C74.8237 10.0412 75.5214 9.87359 76.178 9.62211C77.4912 9.11917 78.2299 6.18531 76.5473 5.72427C75.5214 5.4728 74.4133 5.68236 73.5515 6.35296C73.5515 6.35296 74.9879 3.29336 71.1303 3.29336C71.1303 3.29336 69.2425 3.67057 68.8732 4.92794C68.8732 4.92794 67.601 2.24556 65.4671 3.29336C63.3331 4.34117 63.5793 5.4728 63.5793 5.4728C63.5793 5.4728 62.0609 4.84412 61.6095 5.64045C61.1581 6.43678 60.9529 7.77797 62.4302 7.94562C64.7694 8.23901 64.277 8.70004 64.277 8.70004L63.4972 13.6876Z" fill="white"/>
<path d="M71.9922 19.5973C72.5667 18.759 73.0181 17.8789 73.3875 16.9149C73.5106 17.1245 73.7158 17.334 73.962 17.4178C74.2082 17.5017 74.4955 17.4178 74.6186 17.2083C74.7007 16.9987 74.6597 16.7472 74.4955 16.5796C74.3314 16.412 74.1262 16.2862 73.8799 16.2862C73.7979 16.2862 73.7568 16.2443 73.7158 16.2024C73.5927 16.0767 73.7158 15.8671 73.6748 15.7414C73.6337 15.6994 73.5516 15.6575 73.4696 15.6156C73.1002 15.4899 72.5257 15.1965 72.1563 15.1127C71.9512 15.7414 72.4026 16.6215 72.3205 17.2921C72.2795 18.0465 72.1974 18.8429 71.9922 19.5973Z" fill="#7D3B3D"/>
<path d="M72.7683 23.2435C72.7683 23.4112 72.7272 23.6208 72.6452 23.7884C72.481 24.1237 72.2348 24.4171 71.9065 24.6267C71.8654 24.6686 71.8244 24.7105 71.7423 24.7105C71.6192 24.7105 71.5371 24.6267 71.4961 24.5009C71.4961 24.3752 71.4961 24.2494 71.5371 24.1656L72.3169 21.8604C72.3989 21.6928 72.44 21.5251 72.481 21.3575C72.481 21.2737 72.522 21.1898 72.522 21.106C72.5631 20.9803 72.7683 20.8126 72.9324 20.8965C73.0966 20.9803 72.9735 21.3994 72.9324 21.5251L72.7683 23.2435Z" fill="#7D3B3D"/>
<path d="M79.2969 38.1644L104.002 32.3386L99.8569 32.0452L82.0054 36.404L79.2969 38.1644Z" fill="#F38500"/>
<path d="M79.2969 38.1644L104.002 32.3386L99.8569 32.0452L82.0054 36.404L79.2969 38.1644Z" fill="url(#paint7_linear)"/>
<path d="M82.0024 36.4041C82.0024 36.4041 80.0326 27.4349 87.7477 25.7165C97.2686 23.6209 99.854 32.0452 99.854 32.0452L82.0024 36.4041Z" fill="#F38500"/>
<path d="M99.854 32.0452L82.0024 36.4041C82.0024 36.4041 80.0326 27.4348 87.7477 25.7164C88.1992 25.6326 88.6506 25.5488 89.061 25.465C96.8582 24.4591 99.4436 30.8716 99.8129 31.8775L99.854 32.0452Z" fill="url(#paint8_linear)"/>
<path d="M99.8122 31.9194L85.4078 35.4401C85.4078 35.4401 83.8484 28.2312 89.1013 25.5069C96.8575 24.4591 99.4429 30.8716 99.8122 31.9194Z" fill="url(#paint9_linear)"/>
<path d="M87.4614 25.8421C87.9147 25.8421 88.2822 25.4668 88.2822 25.0039C88.2822 24.5409 87.9147 24.1656 87.4614 24.1656C87.0081 24.1656 86.6406 24.5409 86.6406 25.0039C86.6406 25.4668 87.0081 25.8421 87.4614 25.8421Z" fill="#F38500"/>
<path d="M51.6336 123.204C50.936 123.498 50.1562 123.917 50.1562 124.839C50.1562 125.216 50.2794 125.552 50.5256 125.845C51.3874 127.06 53.0289 127.102 54.4242 127.06C57.0917 126.935 59.7181 126.557 62.3035 125.971C62.4677 125.929 62.6318 125.887 62.796 125.761C62.9191 125.593 63.0012 125.426 63.0422 125.216C63.2063 124.294 63.2474 123.372 63.1243 122.45C63.0832 122.199 62.837 121.989 62.5908 122.031C62.5087 122.031 62.4266 122.073 62.3445 122.115C61.811 122.534 61.1955 122.785 60.4978 122.743C58.8974 122.66 58.3228 121.235 56.7223 121.696C55.0808 122.199 53.2751 122.576 51.6336 123.204Z" fill="#F38500"/>
<path d="M68.6649 122.701C67.9672 122.995 67.1875 123.414 67.1875 124.336C67.1875 124.713 67.3106 125.049 67.5568 125.342C68.4186 126.557 70.0602 126.599 71.4555 126.557C74.1229 126.432 76.7494 126.054 79.3348 125.468C79.4989 125.426 79.6631 125.384 79.8272 125.258C79.9503 125.09 80.0324 124.923 80.0734 124.713C80.2376 123.791 80.2786 122.827 80.1555 121.905C80.1145 121.654 79.8682 121.486 79.622 121.486C79.5399 121.486 79.4579 121.528 79.4168 121.57C78.8833 122.031 78.2267 122.24 77.5701 122.24C75.9696 122.115 75.3951 120.732 73.7946 121.193C72.1121 121.696 70.3064 122.073 68.6649 122.701Z" fill="#F38500"/>
<path d="M51.6336 123.204C50.936 123.498 50.1562 123.917 50.1562 124.839C50.1562 125.216 50.2794 125.552 50.5256 125.845C51.3874 127.06 53.0289 127.102 54.4242 127.06C57.0917 126.935 59.7181 126.557 62.3035 125.971C62.4677 125.929 62.6318 125.887 62.796 125.761C62.9191 125.593 63.0012 125.426 63.0422 125.216C63.2063 124.294 63.2474 123.372 63.1243 122.45C63.0832 122.199 62.837 121.989 62.5908 122.031C62.5087 122.031 62.4266 122.073 62.3445 122.115C61.811 122.534 61.1955 122.785 60.4978 122.743C58.8974 122.66 58.3228 121.235 56.7223 121.696C55.0808 122.199 53.2751 122.576 51.6336 123.204Z" fill="url(#paint10_linear)"/>
<path d="M68.6649 122.701C67.9672 122.995 67.1875 123.414 67.1875 124.336C67.1875 124.713 67.3106 125.049 67.5568 125.342C68.4186 126.557 70.0602 126.599 71.4555 126.557C74.1229 126.432 76.7494 126.054 79.3348 125.468C79.4989 125.426 79.6631 125.384 79.8272 125.258C79.9503 125.09 80.0324 124.923 80.0734 124.713C80.2376 123.791 80.2786 122.827 80.1555 121.905C80.1145 121.654 79.8682 121.486 79.622 121.486C79.5399 121.486 79.4579 121.528 79.4168 121.57C78.8833 122.031 78.2267 122.24 77.5701 122.24C75.9696 122.115 75.3951 120.732 73.7946 121.193C72.1121 121.696 70.3064 122.073 68.6649 122.701Z" fill="url(#paint11_linear)"/>
<path d="M65.5901 37.3262C65.8621 37.3262 66.0826 37.101 66.0826 36.8233C66.0826 36.5455 65.8621 36.3203 65.5901 36.3203C65.3181 36.3203 65.0977 36.5455 65.0977 36.8233C65.0977 37.101 65.3181 37.3262 65.5901 37.3262Z" fill="#F38500"/>
<path d="M64.5628 44.1578C64.8347 44.1578 65.0552 43.9326 65.0552 43.6548C65.0552 43.377 64.8347 43.1519 64.5628 43.1519C64.2908 43.1519 64.0703 43.377 64.0703 43.6548C64.0703 43.9326 64.2908 44.1578 64.5628 44.1578Z" fill="#F38500"/>
<path d="M64.3987 52.3307C64.6707 52.3307 64.8912 52.1055 64.8912 51.8278C64.8912 51.55 64.6707 51.3248 64.3987 51.3248C64.1267 51.3248 63.9062 51.55 63.9062 51.8278C63.9062 52.1055 64.1267 52.3307 64.3987 52.3307Z" fill="#F38500"/>
<path d="M64.6878 59.1205C64.9597 59.1205 65.1802 58.8953 65.1802 58.6176C65.1802 58.3398 64.9597 58.1146 64.6878 58.1146C64.4158 58.1146 64.1953 58.3398 64.1953 58.6176C64.1953 58.8953 64.4158 59.1205 64.6878 59.1205Z" fill="#F38500"/>
<path d="M64.8089 69.2213C65.0808 69.2213 65.3013 68.9962 65.3013 68.7184C65.3013 68.4406 65.0808 68.2155 64.8089 68.2155C64.5369 68.2155 64.3164 68.4406 64.3164 68.7184C64.3164 68.9962 64.5369 69.2213 64.8089 69.2213Z" fill="#F38500"/>
<path d="M76.4651 60.1264C77.0807 60.0426 77.6963 60.1264 78.2708 60.3779C78.8043 60.6713 79.2147 61.3419 79.0095 61.8867C78.8453 62.1801 78.6402 62.4316 78.435 62.683C77.8604 63.4375 77.8604 64.4434 77.8604 65.3654L78.0656 92.8599C78.0656 93.7819 77.9835 94.9136 77.1628 95.3746C76.7934 95.5422 76.3831 95.6261 76.0137 95.5842C69.1193 95.668 62.1839 95.7518 55.2895 95.7937C54.5508 95.7937 53.7301 95.7518 53.3607 95.1231C53.1966 94.8297 53.1555 94.4525 53.1555 94.1172C52.7862 83.22 53.8122 72.2809 56.1513 61.6352C56.1924 61.2161 56.3565 60.8389 56.6438 60.5036C57.0542 60.0845 59.3523 60.5874 59.9679 60.5874C61.8556 60.5455 63.7023 60.4617 65.549 60.4198L76.4651 60.1264Z" fill="#F38500"/>
<path d="M76.4651 60.1264C77.0807 60.0426 77.6963 60.1264 78.2708 60.3779C78.8043 60.6713 79.2147 61.3419 79.0095 61.8867C78.8453 62.1801 78.6402 62.4316 78.435 62.683C77.8604 63.4375 77.8604 64.4434 77.8604 65.3654L78.0656 92.8599C78.0656 93.7819 77.9835 94.9136 77.1628 95.3746C76.7934 95.5422 76.3831 95.6261 76.0137 95.5842C69.1193 95.668 62.1839 95.7518 55.2895 95.7937C54.5508 95.7937 53.7301 95.7518 53.3607 95.1231C53.1966 94.8297 53.1555 94.4525 53.1555 94.1172C52.7862 83.22 53.8122 72.2809 56.1513 61.6352C56.1924 61.2161 56.3565 60.8389 56.6438 60.5036C57.0542 60.0845 59.3523 60.5874 59.9679 60.5874C61.8556 60.5455 63.7023 60.4617 65.549 60.4198L76.4651 60.1264Z" fill="url(#paint12_linear)"/>
</g>
<defs>
<linearGradient id="paint0_linear" x1="89.9655" y1="9.06309" x2="91.6517" y2="34.7549" gradientUnits="userSpaceOnUse">
<stop offset="0.02" stop-color="white" stop-opacity="0"/>
<stop offset="0.39" stop-color="white" stop-opacity="0.39"/>
<stop offset="1" stop-color="white"/>
</linearGradient>
<linearGradient id="paint1_linear" x1="69.1049" y1="83.1387" x2="64.6115" y2="142.12" gradientUnits="userSpaceOnUse">
<stop offset="0.01"/>
<stop offset="0.83" stop-opacity="0.07"/>
<stop offset="1" stop-opacity="0"/>
</linearGradient>
<linearGradient id="paint2_linear" x1="63.4851" y1="51.7636" x2="72.4803" y2="161.321" gradientUnits="userSpaceOnUse">
<stop offset="0.01"/>
<stop offset="0.83" stop-opacity="0.07"/>
<stop offset="1" stop-opacity="0"/>
</linearGradient>
<linearGradient id="paint3_linear" x1="56.2878" y1="55.5703" x2="49.3192" y2="35.0963" gradientUnits="userSpaceOnUse">
<stop offset="0.01"/>
<stop offset="0.83" stop-opacity="0.07"/>
<stop offset="1" stop-opacity="0"/>
</linearGradient>
<linearGradient id="paint4_linear" x1="110.609" y1="61.4915" x2="66.7469" y2="59.2009" gradientUnits="userSpaceOnUse">
<stop offset="0.01"/>
<stop offset="0.83" stop-opacity="0.07"/>
<stop offset="1" stop-opacity="0"/>
</linearGradient>
<linearGradient id="paint5_linear" x1="91.7299" y1="26.4153" x2="73.8672" y2="38.9094" gradientUnits="userSpaceOnUse">
<stop offset="0.01"/>
<stop offset="0.83" stop-opacity="0.07"/>
<stop offset="1" stop-opacity="0"/>
</linearGradient>
<linearGradient id="paint6_linear" x1="68.7486" y1="17.7849" x2="68.1879" y2="39.629" gradientUnits="userSpaceOnUse">
<stop offset="0.01"/>
<stop offset="0.83" stop-opacity="0.07"/>
<stop offset="1" stop-opacity="0"/>
</linearGradient>
<linearGradient id="paint7_linear" x1="89.3194" y1="28.1872" x2="92.6777" y2="37.935" gradientUnits="userSpaceOnUse">
<stop offset="0.01"/>
<stop offset="0.83" stop-opacity="0.07"/>
<stop offset="1" stop-opacity="0"/>
</linearGradient>
<linearGradient id="paint8_linear" x1="87.8609" y1="22.2804" x2="91.6002" y2="36.1942" gradientUnits="userSpaceOnUse">
<stop offset="0.02" stop-color="white" stop-opacity="0"/>
<stop offset="0.39" stop-color="white" stop-opacity="0.39"/>
<stop offset="1" stop-color="white"/>
</linearGradient>
<linearGradient id="paint9_linear" x1="89.6201" y1="22.0386" x2="93.2484" y2="35.547" gradientUnits="userSpaceOnUse">
<stop offset="0.02" stop-color="white" stop-opacity="0"/>
<stop offset="0.39" stop-color="white" stop-opacity="0.39"/>
<stop offset="1" stop-color="white"/>
</linearGradient>
<linearGradient id="paint10_linear" x1="55.1965" y1="109.535" x2="59.3209" y2="147.577" gradientUnits="userSpaceOnUse">
<stop offset="0.01"/>
<stop offset="0.83" stop-opacity="0.07"/>
<stop offset="1" stop-opacity="0"/>
</linearGradient>
<linearGradient id="paint11_linear" x1="72.1781" y1="108.55" x2="76.2982" y2="146.592" gradientUnits="userSpaceOnUse">
<stop offset="0.01"/>
<stop offset="0.83" stop-opacity="0.07"/>
<stop offset="1" stop-opacity="0"/>
</linearGradient>
<linearGradient id="paint12_linear" x1="66.1154" y1="105.784" x2="65.9313" y2="45.5728" gradientUnits="userSpaceOnUse">
<stop offset="0.01"/>
<stop offset="0.83" stop-opacity="0.07"/>
<stop offset="1" stop-opacity="0"/>
</linearGradient>
<clipPath id="clip0">
<rect width="68" height="128" fill="white" transform="translate(36 3)"/>
</clipPath>
</defs>
</svg>
