<svg width="140" height="134" viewBox="0 0 140 134" fill="none" xmlns="http://www.w3.org/2000/svg">
<g clip-path="url(#clip0)">
<path d="M42.9428 58.4874C42.7468 58.612 42.6242 58.8115 42.5507 59.0358C42.4772 59.4596 42.9428 59.7836 43.3349 59.9581C44.1437 60.2821 45.026 60.4317 45.8838 60.4068C45.9818 60.4068 46.0798 60.3819 46.1533 60.332C46.2269 60.2323 46.2759 60.1326 46.2514 60.008C46.3004 59.1854 46.5455 57.6399 45.7612 57.3408C44.977 57.0416 43.482 58.0138 42.9428 58.4874Z" fill="url(#paint0_linear)"/>
<path d="M64.6317 26.9797C64.6317 26.9797 60.1222 34.383 54.3384 53.178C53.4561 55.9947 45.7852 56.8921 45.7852 56.8921L47.6968 62.2265C47.6968 62.2265 52.9414 62.7001 57.0588 60.4567C61.1761 58.2132 64.0435 49.4888 64.0435 49.4888L64.6317 26.9797Z" fill="#F38500"/>
<path d="M64.6317 26.9797C64.6317 26.9797 60.1222 34.383 54.3384 53.178C53.4561 55.9947 45.7852 56.8921 45.7852 56.8921L47.6968 62.2265C47.6968 62.2265 52.9414 62.7001 57.0588 60.4567C61.1761 58.2132 64.0435 49.4888 64.0435 49.4888L64.6317 26.9797Z" fill="url(#paint1_linear)"/>
<path d="M77.5957 15.0647C77.6448 15.6131 77.4732 16.1366 77.1056 16.5354C77.0321 16.6351 76.9095 16.7099 76.787 16.7597C76.1743 16.9591 76.1253 15.6879 76.3213 15.314C76.5419 14.9151 77.5222 14.2421 77.5957 15.0647Z" fill="url(#paint2_linear)"/>
<path d="M66.4691 14.3417C66.4201 14.8901 66.5917 15.4136 66.9593 15.8124C67.0328 15.9121 67.1554 15.9869 67.2534 16.0368C67.8661 16.2362 67.9151 14.9649 67.7435 14.591C67.523 14.1672 66.5427 13.5191 66.4691 14.3417Z" fill="url(#paint3_linear)"/>
<path opacity="0.24" d="M56.4693 130.003C55.8811 129.554 55.5625 128.831 55.1213 128.233C53.3078 125.79 49.8521 125.666 46.9112 124.893C44.3379 124.22 41.9606 122.949 40 121.154C45.4162 120.481 50.906 120.805 56.3467 121.129L93.2065 123.248C95.2652 123.372 97.3483 123.497 99.3825 123.921C99.9217 124.045 100.534 124.22 100.828 124.694C101.172 125.242 101 126.015 100.559 126.488C100.118 126.962 99.5295 127.261 98.9413 127.51C93.1085 130.028 86.6384 131.648 80.4134 130.477C79.9723 130.402 79.4821 130.252 79.3106 129.853C79.139 129.455 79.3841 128.931 79.3106 128.458C79.1635 127.585 78.0607 127.411 77.1784 127.411L68.9683 127.46C68.4781 127.46 67.9634 127.485 67.5713 127.76C66.738 128.333 66.8361 129.754 66.0273 130.377C65.6597 130.676 65.145 130.726 64.6794 130.751C62.5472 130.9 58.3074 131.474 56.4693 130.003Z" fill="#F38500"/>
<path d="M74.876 22.7172C77.6699 24.0882 79.7776 26.5061 81.7872 28.8742C82.2038 29.3478 82.3754 29.946 82.596 30.5194C84.8997 36.776 84.5566 40.8391 85.2918 45.9242C85.88 50.112 86.1986 58.4625 86.1986 58.4625C86.1986 58.4625 85.978 75.2882 85.0958 77.9554L57.7695 77.2824C57.7695 77.2824 59.8527 50.087 60.0243 46.7468C60.9065 30.5941 64.0926 27.0296 66.5188 24.8111C68.9451 22.5926 74.876 22.7172 74.876 22.7172Z" fill="#F38500"/>
<path d="M74.876 22.7173C77.6699 24.0883 79.7776 26.5062 81.7872 28.8742C82.2038 29.3479 82.3754 29.9461 82.596 30.5194C84.8997 36.7761 84.5566 40.8392 85.2918 45.9243C85.88 50.112 86.1986 58.4626 86.1986 58.4626C86.1986 58.4626 85.978 75.2883 85.0958 77.9554L57.7695 77.2824C57.7695 77.2824 59.8527 51.159 59.9507 48.0929C60.4654 32.4637 63.4799 27.1543 66.5188 24.8361C69.1412 22.8668 74.876 22.7173 74.876 22.7173Z" fill="url(#paint4_linear)"/>
<path d="M79.8002 67.1371C75.6583 68.9817 71.4675 71.2251 67.0316 70.3527C66.0022 70.1532 64.8994 69.8541 63.9436 70.3028C61.6889 71.3747 62.6202 75.2633 60.684 76.8586C60.3164 77.2076 59.8263 77.3322 59.3361 77.2076C58.5274 76.9334 58.3803 75.8366 58.4048 74.9641L58.5028 68.1092C58.5028 67.4362 58.5274 66.7133 58.944 66.1899C59.2136 65.8658 59.5567 65.5916 59.9488 65.4171C63.8946 63.2235 68.1099 61.6033 72.4723 60.5564C74.6045 60.0578 76.7612 59.659 78.8444 59.0109C79.9227 58.6868 81.001 58.288 82.0059 57.7895C82.5205 57.5402 85.1674 50.5108 85.2654 50.9345C86.7359 56.568 84.3341 65.1429 79.8002 67.1371Z" fill="url(#paint5_linear)"/>
<path d="M64.9997 40.565L60.9314 40.4154C60.9314 40.4154 60.3677 46.024 61.397 46.3729C62.4263 46.7219 64.9016 46.4228 64.9016 46.4228L64.9997 40.565Z" fill="white"/>
<path d="M75.6095 24.537C75.6095 24.537 72.448 27.603 70.6834 25.534C68.9188 23.4651 69.1639 24.2628 69.1639 24.2628L70.3648 43.8304L75.6095 24.537Z" fill="#606161"/>
<path d="M71.2222 4.32108C71.8104 3.5982 72.6437 3.12459 73.575 3.02488C74.4573 2.92517 75.4376 3.24922 75.9277 4.02196C76.2709 4.57035 76.3199 5.26831 76.3444 5.94133C76.3444 6.56451 76.3444 7.18768 76.0748 7.761C75.7807 8.3094 75.3151 8.70823 74.7514 8.93257C73.4525 9.45604 71.9085 9.03228 70.9036 8.08505C69.8988 7.13783 70.438 5.29323 71.2222 4.32108Z" fill="#606161"/>
<path d="M71.2222 4.32108C71.8104 3.5982 72.6437 3.12459 73.575 3.02488C74.4573 2.92517 75.4376 3.24922 75.9277 4.02196C76.2709 4.57035 76.3199 5.26831 76.3444 5.94133C76.3444 6.56451 76.3444 7.18768 76.0748 7.761C75.7807 8.3094 75.3151 8.70823 74.7514 8.93257C73.4525 9.45604 71.9085 9.03228 70.9036 8.08505C69.8988 7.13783 70.438 5.29323 71.2222 4.32108Z" fill="url(#paint6_linear)"/>
<path d="M74.3621 18.679C74.3621 18.679 74.3866 22.8916 75.3424 23.789C76.2982 24.6864 71.5437 28.8243 69.5586 24.1878C69.5586 24.1878 70.735 22.1937 70.3183 18.8036C69.9017 15.4136 74.3621 18.679 74.3621 18.679Z" fill="url(#paint7_linear)"/>
<path d="M74.5296 19.6761V20.5984C74.5296 20.5984 72.1278 24.1131 71.1475 22.9416C70.1672 21.77 70.4613 21.4958 70.4613 21.4958L70.3633 18.8286L74.5296 19.6761Z" fill="url(#paint8_linear)"/>
<path d="M76.665 12.6467C76.665 12.6467 77.3512 19.1028 73.9691 20.374C70.587 21.6453 68.5529 19.8257 67.6216 16.7098C66.6903 13.5939 68.1117 7.31232 71.7144 7.93549C75.317 8.55867 76.665 12.6467 76.665 12.6467Z" fill="url(#paint9_linear)"/>
<path d="M77.2034 14.8153C77.3504 14.591 77.473 14.3417 77.4975 14.0675C77.9386 11.5997 77.0809 9.08211 75.1937 7.46186C74.8261 7.1378 74.385 6.86361 73.9193 6.68912C73.4537 6.56448 72.9635 6.51463 72.4734 6.53956C70.9539 6.58941 69.4834 7.1378 68.258 8.08503C67.0571 9.05718 66.2974 10.5029 66.1749 12.0484C66.1258 12.4971 66.1994 12.9707 66.3954 13.3945C66.5915 13.8182 66.9591 14.1174 67.4003 14.2171C68.1845 14.3666 68.4051 13.6188 69.0423 13.1203C69.9981 12.3725 70.2922 11.2757 72.4734 11.4751C76.027 11.7991 76.2721 15.9869 77.2034 14.8153Z" fill="#606161"/>
<path d="M82.9369 77.781L83.3781 121.328L83.0349 127.46L78.6726 127.66L72.1045 80.3235L66.6882 127.76L62.0072 127.735L61.3945 77.3323L82.9369 77.781Z" fill="#606161"/>
<path d="M82.9369 77.781L83.3781 121.328L83.0349 127.46L78.6726 127.66L72.0064 79.7751L66.6882 127.76L62.0072 127.735L61.3945 77.3323L82.9369 77.781Z" fill="url(#paint10_linear)"/>
<path d="M86.6369 131L78.9905 130.9L78.6719 127.66L83.0343 127.46L86.6369 131Z" fill="#606161"/>
<path d="M58.6992 131L66.3457 130.9L66.6888 127.66L62.3019 127.46L58.6992 131Z" fill="#606161"/>
<path d="M74.7761 22.8669C74.7761 22.8669 76.0015 23.9388 74.7761 26.6059C73.5507 29.2731 70.2422 44.329 70.2422 44.329L76.8103 33.3362L76.0751 29.1983L77.4475 28.0766C77.4475 28.0766 77.4475 24.1382 76.7123 23.3405C75.977 22.5428 75.2418 22.5678 74.7761 22.8669Z" fill="#F38500"/>
<path d="M70.1948 22.3683C70.1948 22.3683 68.2342 22.8668 67.8911 23.8141C67.548 24.7613 66.2245 27.5282 66.2245 27.5282L67.1068 28.7496L65.7344 30.3449L70.2683 44.304C70.2683 44.304 69.0919 25.4094 69.5821 24.188C70.0723 22.9665 70.1948 22.3683 70.1948 22.3683Z" fill="#F38500"/>
<path d="M74.7761 22.8669C74.7761 22.8669 76.0015 23.9388 74.7761 26.6059C73.5507 29.2731 70.2422 44.329 70.2422 44.329L76.8103 33.3362L76.0751 29.1983L77.4475 28.0766C77.4475 28.0766 77.4475 24.1382 76.7123 23.3405C75.977 22.5428 75.2418 22.5678 74.7761 22.8669Z" fill="url(#paint11_linear)"/>
<path d="M70.1948 22.3683C70.1948 22.3683 68.2342 22.8668 67.8911 23.8141C67.548 24.7613 66.2245 27.5282 66.2245 27.5282L67.1068 28.7496L65.7344 30.3449L70.2683 44.304C70.2683 44.304 69.0919 25.4094 69.5821 24.188C70.0723 22.9665 70.1948 22.3683 70.1948 22.3683Z" fill="url(#paint12_linear)"/>
<path d="M67.081 14.8154C67.032 14.7656 67.0075 14.7407 66.983 14.6659C66.9585 14.616 66.9585 14.5413 66.9585 14.4914C66.9585 14.4415 66.9095 14.3668 66.885 14.3418C66.8359 14.292 66.7624 14.292 66.7134 14.3169C66.6644 14.3418 66.6154 14.3917 66.6154 14.4415C66.5909 14.4914 66.5909 14.5413 66.5909 14.616C66.5664 14.8404 66.5909 15.0398 66.6889 15.2392C66.7624 15.3638 66.8605 15.4885 66.983 15.5882C67.032 15.638 67.081 15.663 67.1545 15.6879C67.2036 15.6879 67.2281 15.663 67.2771 15.638C67.3016 15.638 67.3016 15.6131 67.3261 15.6131C67.3261 15.5882 67.3261 15.5882 67.3261 15.5633C67.3506 15.4137 67.3506 15.2641 67.3261 15.1146C67.2281 14.9899 67.1791 14.8902 67.081 14.8154Z" fill="url(#paint13_linear)"/>
<path d="M76.908 15.5133C76.957 15.4635 76.9815 15.4385 77.006 15.3638C77.0305 15.3139 77.0305 15.2391 77.0305 15.1893C77.0305 15.1394 77.0795 15.0646 77.1041 15.0397C77.1531 14.9899 77.2266 14.9899 77.2756 15.0148C77.3246 15.0397 77.3736 15.0896 77.3736 15.1394C77.3981 15.1893 77.3981 15.2391 77.3981 15.3139C77.4227 15.5383 77.3981 15.7377 77.3001 15.9371C77.2266 16.0617 77.1286 16.1864 77.006 16.2861C76.957 16.3359 76.908 16.3608 76.8345 16.3858C76.7855 16.3858 76.7609 16.3608 76.7119 16.3359C76.6874 16.3359 76.6874 16.311 76.6629 16.311C76.6629 16.2861 76.6629 16.2861 76.6629 16.2611C76.6384 16.1116 76.6384 15.962 76.6629 15.8124C76.7364 15.6629 76.81 15.5632 76.908 15.5133Z" fill="url(#paint14_linear)"/>
<path d="M61.3689 62.4009C59.7023 62.9742 58.0603 64.0212 57.4476 65.6663C57.1535 66.4141 57.1535 67.3863 57.7907 67.8599C58.1829 68.159 58.722 68.184 59.2367 68.184C60.021 68.2089 60.7807 68.159 61.5649 67.9845C62.3247 67.835 63.0109 67.3863 63.5011 66.7631C63.9422 66.1399 64.1138 65.2924 64.7265 64.8437C65.4617 64.3203 66.6626 64.4449 67.0302 63.6223C67.2753 63.0739 66.9567 62.376 66.7116 61.8774C66.3195 61.0548 66.54 61.1296 65.6332 61.2543C64.2363 61.4537 62.6923 61.9522 61.3689 62.4009Z" fill="url(#paint15_linear)"/>
<path d="M81.7878 28.8741C81.7878 28.8741 87.6206 39.4681 85.9296 54.848C84.2386 70.228 67.0095 67.0124 67.0095 67.0124L65.5391 59.7088C65.5391 59.7088 75.5873 59.0607 77.5969 56.4932C79.6066 53.9258 78.6508 39.0693 78.6508 39.0693L81.7878 28.8741Z" fill="#F38500"/>
<path d="M81.7878 28.8741C81.7878 28.8741 87.6206 39.4681 85.9296 54.848C84.2386 70.228 67.0095 67.0124 67.0095 67.0124L65.5391 59.7088C65.5391 59.7088 75.5873 59.0607 77.5969 56.4932C79.6066 53.9258 78.6508 39.0693 78.6508 39.0693L81.7878 28.8741Z" fill="url(#paint16_linear)"/>
</g>
<defs>
<linearGradient id="paint0_linear" x1="42.5495" y1="58.8426" x2="46.3613" y2="58.8426" gradientUnits="userSpaceOnUse">
<stop stop-color="#E5C6D6"/>
<stop offset="0.42" stop-color="#EAD4D0"/>
<stop offset="1" stop-color="#F0E9CB"/>
</linearGradient>
<linearGradient id="paint1_linear" x1="66.6609" y1="55.2982" x2="58.0873" y2="46.8687" gradientUnits="userSpaceOnUse">
<stop stop-color="white" stop-opacity="0"/>
<stop offset="0.95" stop-color="white"/>
</linearGradient>
<linearGradient id="paint2_linear" x1="77.6252" y1="15.7335" x2="76.2527" y2="15.7335" gradientUnits="userSpaceOnUse">
<stop stop-color="#E5C6D6"/>
<stop offset="0.42" stop-color="#EAD4D0"/>
<stop offset="1" stop-color="#F0E9CB"/>
</linearGradient>
<linearGradient id="paint3_linear" x1="66.4446" y1="15.0106" x2="67.8171" y2="15.0106" gradientUnits="userSpaceOnUse">
<stop stop-color="#E5C6D6"/>
<stop offset="0.42" stop-color="#EAD4D0"/>
<stop offset="1" stop-color="#F0E9CB"/>
</linearGradient>
<linearGradient id="paint4_linear" x1="94.6" y1="52.8523" x2="61.4449" y2="49.6393" gradientUnits="userSpaceOnUse">
<stop stop-color="white" stop-opacity="0"/>
<stop offset="0.95" stop-color="white"/>
</linearGradient>
<linearGradient id="paint5_linear" x1="68.8527" y1="87.2237" x2="78.6233" y2="13.213" gradientUnits="userSpaceOnUse">
<stop offset="0.26" stop-color="#010101" stop-opacity="0"/>
<stop offset="0.99" stop-color="#010101"/>
</linearGradient>
<linearGradient id="paint6_linear" x1="74.1314" y1="4.45252" x2="72.753" y2="8.04899" gradientUnits="userSpaceOnUse">
<stop stop-color="#010101" stop-opacity="0"/>
<stop offset="0.95" stop-color="#010101"/>
</linearGradient>
<linearGradient id="paint7_linear" x1="75.4777" y1="21.8222" x2="69.5635" y2="21.8222" gradientUnits="userSpaceOnUse">
<stop stop-color="#E5C6D6"/>
<stop offset="0.42" stop-color="#EAD4D0"/>
<stop offset="1" stop-color="#F0E9CB"/>
</linearGradient>
<linearGradient id="paint8_linear" x1="73.1091" y1="23.9598" x2="70.2861" y2="10.2537" gradientUnits="userSpaceOnUse">
<stop offset="0.12" stop-color="#010101" stop-opacity="0"/>
<stop offset="0.95" stop-color="#010101"/>
</linearGradient>
<linearGradient id="paint9_linear" x1="76.7279" y1="14.3359" x2="67.3596" y2="14.3359" gradientUnits="userSpaceOnUse">
<stop stop-color="#E5C6D6"/>
<stop offset="0.42" stop-color="#EAD4D0"/>
<stop offset="1" stop-color="#F0E9CB"/>
</linearGradient>
<linearGradient id="paint10_linear" x1="74.3255" y1="121.794" x2="67.741" y2="56.4745" gradientUnits="userSpaceOnUse">
<stop offset="0.12" stop-color="#010101" stop-opacity="0"/>
<stop offset="0.95" stop-color="#010101"/>
</linearGradient>
<linearGradient id="paint11_linear" x1="77.2203" y1="34.9405" x2="72.3959" y2="33.3594" gradientUnits="userSpaceOnUse">
<stop stop-color="white" stop-opacity="0"/>
<stop offset="0.95" stop-color="white"/>
</linearGradient>
<linearGradient id="paint12_linear" x1="64.4499" y1="32.9454" x2="69.7689" y2="33.3021" gradientUnits="userSpaceOnUse">
<stop stop-color="white" stop-opacity="0"/>
<stop offset="0.11" stop-color="white" stop-opacity="0.18"/>
<stop offset="0.29" stop-color="white" stop-opacity="0.42"/>
<stop offset="0.45" stop-color="white" stop-opacity="0.63"/>
<stop offset="0.6" stop-color="white" stop-opacity="0.79"/>
<stop offset="0.74" stop-color="white" stop-opacity="0.9"/>
<stop offset="0.86" stop-color="white" stop-opacity="0.98"/>
<stop offset="0.95" stop-color="white"/>
</linearGradient>
<linearGradient id="paint13_linear" x1="66.5025" y1="15.0603" x2="69.283" y2="14.4932" gradientUnits="userSpaceOnUse">
<stop offset="0.12" stop-color="#010101" stop-opacity="0"/>
<stop offset="0.95" stop-color="#010101"/>
</linearGradient>
<linearGradient id="paint14_linear" x1="77.4839" y1="15.7542" x2="74.7033" y2="15.1871" gradientUnits="userSpaceOnUse">
<stop offset="0.12" stop-color="#010101" stop-opacity="0"/>
<stop offset="0.95" stop-color="#010101"/>
</linearGradient>
<linearGradient id="paint15_linear" x1="57.2565" y1="64.684" x2="67.0832" y2="64.684" gradientUnits="userSpaceOnUse">
<stop stop-color="#E5C6D6"/>
<stop offset="0.42" stop-color="#EAD4D0"/>
<stop offset="1" stop-color="#F0E9CB"/>
</linearGradient>
<linearGradient id="paint16_linear" x1="59.0934" y1="40.038" x2="84.4633" y2="52.7001" gradientUnits="userSpaceOnUse">
<stop stop-color="white" stop-opacity="0"/>
<stop offset="0.95" stop-color="white"/>
</linearGradient>
<clipPath id="clip0">
<rect width="61" height="128" fill="white" transform="translate(40 3)"/>
</clipPath>
</defs>
</svg>
