<svg width="499" height="393" viewBox="0 0 499 393" fill="none" xmlns="http://www.w3.org/2000/svg">
<g opacity="0.1" clip-path="url(#clip0)">
<path d="M303.591 92.3644C308.214 92.3644 312.534 90.9995 323.069 81.5973C350.808 56.9546 382.337 61.2011 408.485 68.8593C408.485 68.8593 430.464 75.0767 426.22 69.238C426.22 69.238 409.925 51.9504 390.295 45.1263C363.617 35.8758 331.254 36.4066 318.445 43.6099C305.637 50.8131 296.391 62.6414 293.283 67.7217C293.283 67.7217 288.66 76.4416 290.706 84.1752C292.829 91.8333 295.329 92.3644 303.591 92.3644Z" fill="#F38500"/>
<path d="M170.652 76.5182C189.524 81.9018 198.695 90.3178 206.046 83.0388C212.034 77.1247 179.444 46.9469 158.298 40.6536C133.666 33.3745 110.55 34.8912 95.9225 49.5251C95.9225 49.5251 86.6761 57.6383 94.4069 60.6713C99.1819 62.5667 110.096 61.5051 138.29 67.5711C152.538 70.7554 156.327 72.4236 170.652 76.5182Z" fill="#F38500"/>
<path d="M301.389 45.3546C298.282 48.9183 285.701 63.3249 281.381 71.5136C275.242 83.0386 285.246 100.782 299.116 103.056C299.116 103.056 261.372 97.6726 248.336 114.581C248.336 114.581 236.816 92.2136 203.695 97.6726C203.695 97.6726 223.704 83.0386 235.224 58.3959C246.745 33.7536 266.299 4.25821 267.587 6.76036C268.875 9.33838 265.768 15.3286 271.452 24.5031C284.185 45.3546 304.421 41.7909 301.389 45.3546Z" fill="#F38500"/>
<path d="M276.746 1.60387C271.516 5.84996 273.79 17.2235 281.748 27.0047C289.706 36.7859 300.392 41.2596 305.546 37.0135C310.7 32.7674 308.502 21.3939 300.544 11.6127C292.586 1.83149 281.975 -2.64224 276.746 1.60387Z" fill="#F38500"/>
<path d="M199.231 30.4166C183.087 33.9045 184.224 40.8044 188.847 46.567C193.47 52.3296 213.025 71.8919 213.025 71.8919C213.025 71.8919 214.161 76.8963 217.647 71.8919C221.134 66.8876 232.275 48.7659 234.17 41.1078C236.065 33.3738 230.304 30.72 226.894 30.3409C223.484 29.9618 204.309 29.2792 199.231 30.4166Z" fill="#F38500"/>
<path d="M247.664 183.201C253.349 138.845 247.892 131.414 239.176 123.149C221.441 106.24 195.293 110.79 195.293 110.79C195.293 110.79 121.397 106.165 98.2813 203.219C71.2997 316.651 139.815 371.092 139.815 371.092C155.958 384.209 177.558 391.564 197.567 392.625C226.064 394.142 241.374 387.166 246.83 374.125C254.561 355.699 234.553 285.639 247.664 183.201ZM174.981 140.134C169.373 142.863 162.551 148.55 154.897 155.45C147.697 161.895 131.705 170.008 138.753 153.554C138.753 153.554 151.865 127.396 173.844 125.12C193.398 123.149 184.531 135.432 174.981 140.134Z" fill="#F38500"/>
<path d="M383.926 177.135C366.57 133.233 325.036 106.544 293.887 107.833C266.147 108.97 261.524 135.584 261.524 135.584C256.825 150.9 255.309 167.885 254.476 185.551C253.945 198.214 254.475 209.436 253.414 242.95C252.277 278.738 252.277 296.102 255.688 330.753C259.174 365.404 259.174 360.779 261.448 370.03C263.722 379.28 277.819 395.582 307.604 390.805C336.48 386.18 372.557 359.869 390.747 312.253C405.905 272.976 401.282 220.961 383.926 177.135ZM336.557 153.554C328.826 146.654 322.005 140.967 316.472 138.237C306.923 133.536 298.055 121.253 317.609 123.224C339.664 125.499 352.7 151.658 352.7 151.658C359.748 168.112 343.681 159.999 336.557 153.554Z" fill="#F38500"/>
<path d="M180.659 91.5311C180.659 91.5311 156.482 80.4607 138.065 76.5939C106.764 69.9974 76.9023 67.9501 50.2997 82.3562C9.90336 104.269 -5.6337 165.155 1.79379 231.349C9.90335 303.002 30.67 324.915 51.4366 345.691C72.8853 367.149 116.086 388.455 124.195 381.48C132.305 374.504 127.985 372.229 115.253 359.491C97.5933 341.824 34.0049 213.606 126.014 126.107C141.4 111.473 153.375 109.198 175.279 106.847C175.279 106.999 197.561 103.89 180.659 91.5311ZM56.7422 107.226C40.8259 120.495 33.0953 129.518 29.5332 128.76C24.3795 127.699 28.4722 120.041 42.1145 104.648C60.1529 84.2521 83.6478 86.1475 83.6478 86.1475C101.382 88.4981 78.1147 89.4079 56.7422 107.226Z" fill="#F38500"/>
<path d="M497.071 215.198C496.237 138.541 460.01 86.5257 404.607 76.1383C378.989 71.3612 343.52 77.7305 327.3 89.2555C311.081 100.78 333.06 106.619 333.06 106.619C358.374 116.552 374.594 132.02 389.6 157.421C404.607 182.821 413.171 223.236 412.716 259.1C412.262 295.647 400.969 332.876 381.566 353.803C358.374 378.825 363.377 377.612 364.513 381.099C365.65 384.588 384.446 387.545 415.293 367.982C453.188 344.174 498.132 310.281 497.071 215.198ZM456.448 132.399C452.885 133.081 446.367 117.158 429.238 110.865C403.167 101.16 384.598 92.1366 402.333 89.786C402.333 89.786 425.828 87.8152 443.866 108.287C457.508 123.68 461.601 131.337 456.448 132.399Z" fill="#F38500"/>
</g>
<defs>
<clipPath id="clip0">
<rect width="499" height="393" fill="white"/>
</clipPath>
</defs>
</svg>
