<svg width="417" height="448" viewBox="0 0 417 448" fill="none" xmlns="http://www.w3.org/2000/svg">
<g opacity="0.1" clip-path="url(#clip0)">
<path d="M382.827 159.918C361.909 130.892 332.348 107.687 297.539 92.8907L296.569 92.4865L295.681 93.1331C288.332 98.5503 280.174 102.917 271.532 106.151L269.675 106.879L270.482 108.738C275.328 119.734 288.816 141.645 324.918 164.365C327.18 165.82 328.31 168.569 327.583 171.237C327.099 173.097 319.103 175.927 315.146 176.088C315.146 176.088 314.903 176.088 314.418 176.088C309.25 176.088 262.891 174.876 218.308 133.156L216.37 131.377L215.239 133.802C212.736 139.139 209.505 144.233 205.628 148.922C194.806 161.858 173.16 178.191 131.567 182.557C128.74 182.88 126.074 181.182 125.105 178.514C124.136 175.846 125.105 172.855 127.528 171.237C128.255 170.752 145.377 158.705 167.184 121.755L169.445 117.874L165.084 118.845C157.734 120.543 150.223 121.432 142.793 121.432C125.348 121.432 108.306 116.743 91.9912 107.525L91.0224 106.959L90.0532 107.525C33.6791 142.211 0 199.213 0 260.014C0 309.496 21.645 356.068 60.9776 390.997C100.23 425.925 152.404 445.168 207.889 445.168C263.375 445.168 315.549 425.925 354.801 390.997C394.134 355.987 415.779 309.496 415.779 260.014C415.779 224.358 404.391 189.753 382.827 159.918ZM339.456 296.155C331.056 296.155 324.191 290.173 324.191 282.815C324.191 275.457 331.056 269.474 339.456 269.474C347.855 269.474 354.721 275.457 354.721 282.815C354.721 290.092 347.855 296.155 339.456 296.155ZM369.743 224.601C369.743 239.882 356.094 252.252 339.214 252.252C322.334 252.252 308.684 239.801 308.684 224.601C308.684 209.319 322.334 196.949 339.214 196.949C356.094 196.949 369.743 209.319 369.743 224.601Z" fill="#F38500"/>
<path d="M164.274 77.6908C164.274 77.6908 126.719 48.0177 120.823 0.961135C120.823 0.961135 120.823 -4.21347 131.564 9.45071C142.306 23.1149 176.389 59.3371 197.953 65.886C197.953 65.886 197.145 14.8679 234.136 6.86341C234.136 6.86341 251.5 5.65061 251.904 24.2468C252.227 40.0132 243.424 41.226 232.117 40.8218C232.117 40.8218 217.983 50.9284 222.102 69.8483C222.102 69.8483 247.947 85.6143 334.123 26.349C334.123 26.349 307.794 83.4314 256.912 103.079C256.912 103.079 261.354 132.105 315.628 166.225C315.628 166.225 265.634 166.306 214.994 119.411C214.994 119.411 206.918 163.557 132.534 176.332C132.534 176.332 156.602 160.484 184.546 105.828C184.546 105.828 133.422 136.875 66.3868 78.2569C66.3059 78.3374 134.553 95.5594 164.274 77.6908Z" fill="#F38500"/>
</g>
<defs>
<clipPath id="clip0">
<rect width="417" height="448" fill="white"/>
</clipPath>
</defs>
</svg>
